<?xml version="1.0" encoding="utf-8"?>
<!-- Generator: Adobe Illustrator 24.0.1, SVG Export Plug-In . SVG Version: 6.00 Build 0)  -->
<svg version="1.1"
	 id="Layer_1" inkscape:version="1.2 (dc2aedaf03, 2022-05-15)" sodipodi:docname="excluir.svg" xmlns:inkscape="http://www.inkscape.org/namespaces/inkscape" xmlns:sodipodi="http://sodipodi.sourceforge.net/DTD/sodipodi-0.dtd" xmlns:svg="http://www.w3.org/2000/svg"
	 xmlns="http://www.w3.org/2000/svg" xmlns:xlink="http://www.w3.org/1999/xlink" x="0px" y="0px" viewBox="0 0 3000 3000"
	 style="enable-background:new 0 0 3000 3000;" xml:space="preserve">
<style type="text/css">
	.st0{fill:#CE2E2E;}
</style>
<g id="Layer_2">
</g>
<g id="Layer_1">
	
		<sodipodi:namedview  bordercolor="#000000" borderopacity="0.25" id="namedview17" inkscape:current-layer="Layer_1" inkscape:cx="1498.2079" inkscape:cy="1498.2079" inkscape:deskcolor="#d1d1d1" inkscape:pagecheckerboard="0" inkscape:pageopacity="0.0" inkscape:showpageshadow="2" inkscape:window-height="1017" inkscape:window-maximized="1" inkscape:window-width="1920" inkscape:window-x="-8" inkscape:window-y="-8" inkscape:zoom="0.279" pagecolor="#ffffff" showgrid="false">
		</sodipodi:namedview>
	<g id="g10">
		<path id="path2" class="st0" d="M2196.4,536.3h-298.9c-3.3-144.5-121.7-261.1-267-261.1h-261.1c-145.3,0-263.7,116.6-267,261.1
			H803.6c-161.5,0-292.9,131.4-292.9,292.9v120.3c0,47.2,38.3,85.5,85.5,85.5h50.2v1358.5c0,182.7,148.6,331.3,331.3,331.3h1044.6
			c182.7,0,331.3-148.6,331.3-331.3V1035h50.2c47.2,0,85.5-38.3,85.5-85.5V829.2C2489.3,667.7,2357.9,536.3,2196.4,536.3z
			 M1369.4,446.2h261.1c51,0,92.9,39.9,96.1,90.1h-453.3C1276.5,486.1,1318.4,446.2,1369.4,446.2z M681.7,829.2
			c0-67.2,54.7-121.9,121.9-121.9h384h624.7h384.1c67.2,0,121.9,54.7,121.9,121.9V864h-50.2H731.9h-50.2V829.2L681.7,829.2z
			 M2182.6,2393.5c0,88.4-71.9,160.3-160.3,160.3H977.7c-88.4,0-160.3-71.9-160.3-160.3V1035h1365.1V2393.5z"/>
		<path id="path4" class="st0" d="M1151,2288.5c47.2,0,85.5-38.3,85.5-85.5v-789c0-47.2-38.3-85.5-85.5-85.5
			c-47.2,0-85.5,38.3-85.5,85.5v789C1065.5,2250.2,1103.7,2288.5,1151,2288.5z"/>
		<path id="path6" class="st0" d="M1500,2288.5c47.2,0,85.5-38.3,85.5-85.5v-789c0-47.2-38.3-85.5-85.5-85.5s-85.5,38.3-85.5,85.5
			v789C1414.5,2250.2,1452.8,2288.5,1500,2288.5z"/>
		<path id="path8" class="st0" d="M1849,2288.5c47.2,0,85.5-38.3,85.5-85.5v-789c0-47.2-38.3-85.5-85.5-85.5s-85.5,38.3-85.5,85.5
			v789C1763.5,2250.2,1801.8,2288.5,1849,2288.5z"/>
	</g>
</g>
</svg>
