<?xml version="1.0" encoding="utf-8"?>
<!-- Generator: Adobe Illustrator 23.0.2, SVG Export Plug-In . SVG Version: 6.00 Build 0)  -->
<svg version="1.1" xmlns="http://www.w3.org/2000/svg" xmlns:xlink="http://www.w3.org/1999/xlink" x="0px" y="0px"
	 viewBox="0 0 2023.2 3000" style="enable-background:new 0 0 2023.2 3000;" xml:space="preserve">
<style type="text/css">
	.st0{fill:#FFFFFF;}
</style>
<g id="Layer_4">
</g>
<g id="Layer_3">
</g>
<g id="Layer_5">
	<g>
		<path class="st0" d="M1725.8,284.3C1534.8,100.9,1281.2,0,1011.6,0C742,0,488.4,100.9,297.4,284.3C105.6,468.4,0,713.4,0,974.3
			c0,241.5,92.4,473.1,260.2,652.3c178.1,211.5,258.1,598,258.9,601.9l12.6,62.3h964.7l1.7-76c6.6-288.6,278.4-602.8,290.2-616.3
			c151.5-174.7,234.9-396.3,234.9-624.2C2023.2,713.4,1917.6,468.4,1725.8,284.3z"/>
		<path class="st0" d="M1400.9,2447.6H616.5c-55.3,0-100.5,45.5-100.5,101.1v0c0,55.6,45.2,101.1,100.5,101.1h784.4
			c55.3,0,100.5-45.5,100.5-101.1v0C1501.4,2493.1,1456.2,2447.6,1400.9,2447.6z"/>
		<path class="st0" d="M1306.9,2797.7H710.4c-55.3,0-100.5,45.5-100.5,101.1v0c0,55.6,45.2,101.1,100.5,101.1h596.5
			c55.3,0,100.5-45.5,100.5-101.1v0C1407.4,2843.2,1362.2,2797.7,1306.9,2797.7z"/>
	</g>
</g>
</svg>
