<?xml version="1.0" encoding="utf-8"?>
<!-- Generator: Adobe Illustrator 23.0.2, SVG Export Plug-In . SVG Version: 6.00 Build 0)  -->
<svg version="1.1" id="Layer_1" xmlns="http://www.w3.org/2000/svg" xmlns:xlink="http://www.w3.org/1999/xlink" x="0px" y="0px"
	 viewBox="0 0 2342.9 3000" style="enable-background:new 0 0 2342.9 3000;" xml:space="preserve">
<style type="text/css">
	.st0{fill:#FFFFFF;}
</style>
<g>
	<path class="st0" d="M1171.4,1233.7c340.7-0.6,616.2-276.2,616.8-616.9C1787.6,276.1,1512.1,0.6,1171.4,0
		C830.8,0.6,555.2,276.1,554.6,616.8C555.2,957.5,830.8,1233.1,1171.4,1233.7z"/>
	<path class="st0" d="M1519.1,1394.1H823.7c-227.6,0-433.3,92.1-582.5,241.2C92.1,1784.5,0,1990.3,0,2217.8v572.2
		C328.9,2922,733.7,3000,1171.4,3000c437.8,0,842.6-78,1171.5-209.9v-572.2c0-227.6-92.2-433.3-241.3-582.5
		C1952.5,1486.3,1746.7,1394.1,1519.1,1394.1z"/>
</g>
</svg>
