<?xml version="1.0" encoding="utf-8"?>
<!-- Generator: Adobe Illustrator 23.0.2, SVG Export Plug-In . SVG Version: 6.00 Build 0)  -->
<svg version="1.1" id="Layer_1" xmlns="http://www.w3.org/2000/svg" xmlns:xlink="http://www.w3.org/1999/xlink" x="0px" y="0px"
	 viewBox="0 0 3000 2177.2" style="enable-background:new 0 0 3000 2177.2;" xml:space="preserve">
<style type="text/css">
	.st0{fill:#22499c;}
</style>
<g>
	<g>
		<path class="st0" d="M1753.2,792.9c-75.6-44.6-163.6-70.1-257.5-70.1c-93.9,0-182,25.6-257.5,70.1
			c-150.4,88.6-251.6,252.2-251.6,439c0,280.7,228.4,509.1,509.1,509.1c280.7,0,509.1-228.4,509.1-509.1
			C2004.9,1045.1,1903.7,881.4,1753.2,792.9z"/>
		<path class="st0" d="M2744.3,477.5h-550.7l-190.1-357.3C1964.2,46.2,1887.2,0,1803.4,0h-608.2c-83.8,0-160.8,46.3-200.2,120.3
			l-190,357.2h-114V476c0-45.2-36.6-81.8-81.8-81.8h-36.1c-8.5-15.7-25.2-26.3-44.2-26.3H428.2c-19.1,0-35.7,10.6-44.2,26.3h-34.6
			c-45.2,0-81.8,36.6-81.8,81.8v1.5h-11.9C114.5,477.5,0,592,0,733.2v1188.2c0,141.2,114.5,255.7,255.7,255.7h2488.6
			c141.2,0,255.7-114.5,255.7-255.7V733.2C3000,592,2885.5,477.5,2744.3,477.5z M1495.8,1960.1c-401.5,0-728.2-326.7-728.2-728.2
			c0-164.7,55-316.9,147.6-439c133.1-175.5,343.8-289.1,580.6-289.1c236.7,0,447.5,113.6,580.6,289.1
			c92.6,122.1,147.6,274.3,147.6,439C2223.9,1633.4,1897.2,1960.1,1495.8,1960.1z M2717.1,888.5c-69,0-124.9-55.9-124.9-124.9
			c0-69,55.9-124.8,124.9-124.8c69,0,124.9,55.9,124.9,124.8C2842,832.6,2786.1,888.5,2717.1,888.5z"/>
	</g>
</g>
</svg>
