<?xml version="1.0" encoding="utf-8"?>
<!-- Generator: Adobe Illustrator 23.0.2, SVG Export Plug-In . SVG Version: 6.00 Build 0)  -->
<svg version="1.1" id="Layer_1" xmlns="http://www.w3.org/2000/svg" xmlns:xlink="http://www.w3.org/1999/xlink" x="0px" y="0px"
	 viewBox="0 0 3000 3000" style="enable-background:new 0 0 3000 3000;" xml:space="preserve">
<style type="text/css">
	.st0{fill:#22499c;}
</style>
<path class="st0" d="M3000,1816.6v-633.2h-327.9c-27.5-102.1-68-198.7-119.6-288.2l232-232l-447.7-447.7l-232,232
	c-89.5-51.6-186.2-92.1-288.2-119.6V0h-633.2v327.8c-102,27.5-198.7,68-288.2,119.6l-232-232L439.3,439.3L215.5,663.2l232,232
	c-51.6,89.5-92.1,186.2-119.6,288.2H0v633.2h327.8c27.5,102.1,68,198.7,119.6,288.2l-232,232l223.9,223.9l223.9,223.9l232-232
	c89.5,51.6,186.2,92.1,288.2,119.6V3000h633.2v-327.9c102.1-27.5,198.7-68,288.2-119.6l232,232l447.7-447.7l-232-232
	c51.6-89.5,92.1-186.2,119.6-288.2H3000z M2068.3,1620.5c-15.1,71-43.1,137.2-81.6,196.1c-22.1,33.9-47.6,65.5-76.1,94
	c-28.5,28.5-60.1,53.9-94,76.1c-58.9,38.4-125.1,66.5-196.1,81.6c-38.9,8.2-79.2,12.7-120.5,12.7c-41.3,0-81.6-4.4-120.5-12.7
	c-71-15.1-137.2-43.1-196.1-81.6c-33.9-22.2-65.4-47.6-94-76.1c-28.5-28.5-54-60.1-76.1-94c-38.4-58.9-66.5-125.1-81.6-196.1
	c-8.2-38.9-12.7-79.2-12.7-120.5c0-41.3,4.4-81.6,12.7-120.5c15-71,43.1-137.2,81.6-196.1c22.1-33.9,47.6-65.5,76.1-94
	c28.5-28.5,60.1-54,94-76.1c58.9-38.4,125.1-66.5,196.1-81.6c38.9-8.2,79.2-12.7,120.5-12.7c41.3,0,81.6,4.4,120.5,12.7
	c71,15,137.2,43.2,196.1,81.6c33.9,22.1,65.4,47.6,94,76.1c28.5,28.5,53.9,60.1,76.1,94c38.5,58.9,66.5,125.1,81.6,196.1
	c8.2,38.9,12.6,79.2,12.6,120.5C2080.9,1541.3,2076.5,1581.6,2068.3,1620.5z"/>
</svg>
