<?xml version="1.0" encoding="utf-8"?>
<!-- Generator: Adobe Illustrator 23.0.2, SVG Export Plug-In . SVG Version: 6.00 Build 0)  -->
<svg version="1.1" id="Camada_1" xmlns="http://www.w3.org/2000/svg" xmlns:xlink="http://www.w3.org/1999/xlink" x="0px" y="0px"
	 viewBox="0 0 398.9 407.3" style="enable-background:new 0 0 398.9 407.3;" xml:space="preserve">
<style type="text/css">
	.st0{fill:#FFFFFF;}
</style>
<g>
	<path class="st0" d="M178.1,169.4c0.3-1.2,0.6-2.4,0.9-3.7l0.4-2c0.1-0.7-0.1-1.4-0.6-1.9l-0.9-0.9c-0.6-0.6-1.2-0.8-1.8-0.8
		c-0.3,0-0.5,0-0.7,0.1c-0.5,0.1-1.5,0.5-1.8,1.7c-0.3,0.9,0,1.8,0.6,2.5l0.4,0.5L178.1,169.4z"/>
	<path class="st0" d="M222.9,169.4l3.9-5c0.6-0.7,0.8-1.6,0.6-2.5c-0.4-1.2-1.3-1.6-1.8-1.7c-0.2,0-0.4-0.1-0.7-0.1
		c-0.5,0-1.2,0.2-1.8,0.8l-0.9,0.9c-0.5,0.5-0.7,1.2-0.6,1.9l0.4,2C222.3,167,222.6,168.2,222.9,169.4z"/>
	<path class="st0" d="M243.3,208.9c-8.3-2.3-15.8-6.7-21.8-12.6l-3.2,4.1c-2.2,2.8-5.1,5.1-8.3,6.6c-6,2.8-13,2.8-19,0
		c-3.2-1.5-6.1-3.8-8.3-6.6l-3.2-4.1c-6,5.9-13.5,10.3-21.8,12.6c2.2,15.2,8,53,12.1,80h1.4h56.6h3.5
		C235.4,261.9,241.1,224.1,243.3,208.9z"/>
	<path class="st0" d="M310.5,0.9C218-7.9,200.4,62.5,200.4,62.5s-0.3,0.3-0.9,0.9c-0.6-0.5-0.9-0.9-0.9-0.9S180.9-7.9,88.5,0.9
		C-4,9.7-21.6,113.2,24.6,179.2c42.1,60.2,84.2,102.1,91.4,109v0.5h0.6h33.5h4.1c-7.4-48.3-10.6-69.3-11.9-78.5
		c-13.1-1.2-25.2-8.1-33-19c-8.2-11.4-10.6-25.7-6.8-39.2l0.7-2.4c1.4-4.9,4.9-8.9,9.6-11c4.7-2.1,10-1.9,14.5,0.4
		c3.7,1.8,6.6,4.9,8.1,8.7c10.6,25.6,16,38.8,18.6,45.9c6.1-1.8,11.5-5.2,15.8-9.8l-7.4-9.4c-4.1-4.6-5.5-11.1-3.7-17.1
		c1.8-6.1,6.6-10.7,12.8-12.3c6.2-1.6,12.6,0.2,17.1,4.7l0.9,0.9c4.1,4.1,5.9,9.9,4.9,15.5l-0.4,2c-0.9,5.3-2.7,10.4-5.1,15l5.8,7.4
		c0.7,0.9,1.6,1.6,2.6,2.1c1.9,0.9,4.1,0.9,6,0c1-0.5,1.9-1.2,2.6-2.1l5.8-7.4c-2.4-4.6-4.2-9.7-5.1-15l-0.4-2
		c-1-5.7,0.8-11.5,4.9-15.5l0.9-0.9c4.5-4.5,10.9-6.3,17.1-4.7c6.2,1.6,11,6.2,12.8,12.3c1.8,5.9,0.3,12.4-3.7,17.1l-7.4,9.4
		c4.3,4.6,9.7,8.1,15.8,9.9c2.7-7.1,8-20.3,18.6-45.9c1.6-3.8,4.5-6.9,8.1-8.7c4.6-2.3,9.9-2.4,14.5-0.4c4.7,2.1,8.2,6,9.6,11
		l0.7,2.4c3.9,13.5,1.4,27.8-6.8,39.2c-7.7,10.8-19.8,17.7-33,19c-1.3,9.2-4.4,30.2-11.9,78.5h1.9h30.4h3.1
		c5.1-5,48.5-47.6,92-109.6C420.5,113.2,402.9,9.7,310.5,0.9z"/>
	<path class="st0" d="M120.5,153c-0.3-0.1-0.5-0.2-0.7-0.2c-0.3,0-0.5,0.1-0.7,0.1c-0.3,0.1-0.8,0.4-0.9,1.1l-0.7,2.4
		c-2.6,8.9-0.9,18.4,4.5,26c3.9,5.4,9.4,9.3,15.6,11.3c-3.6-9.1-9.3-23.1-16.3-39.8C121.1,153.5,120.8,153.2,120.5,153z"/>
	<path class="st0" d="M283.6,156.4l-0.7-2.4c-0.2-0.6-0.6-0.9-0.9-1.1c-0.2-0.1-0.4-0.1-0.7-0.1c-0.2,0-0.5,0-0.7,0.2
		c-0.4,0.2-0.6,0.5-0.8,0.8c-6.9,16.7-12.7,30.8-16.3,39.8c6.2-2,11.7-5.9,15.6-11.3C284.5,174.8,286.1,165.3,283.6,156.4z"/>
</g>
<g>
	<path class="st0" d="M280.2,328.5H118.7c-2.8,0-5.1-2.3-5.1-5.1v-16.1c0-2.8,2.3-5.1,5.1-5.1h161.5c2.8,0,5.1,2.3,5.1,5.1v16.1
		C285.3,326.2,283,328.5,280.2,328.5z"/>
	<path class="st0" d="M280.2,363.8H118.7c-2.8,0-5.1-2.3-5.1-5.1v-16.1c0-2.8,2.3-5.1,5.1-5.1h161.5c2.8,0,5.1,2.3,5.1,5.1v16.1
		C285.3,361.5,283,363.8,280.2,363.8z"/>
	<path class="st0" d="M135.3,372.6c10.4,22,35.2,37.4,64.1,37.4s53.7-15.5,64.1-37.4H135.3z"/>
</g>
</svg>
