<?xml version="1.0" encoding="utf-8"?>
<!-- Generator: Adobe Illustrator 23.0.2, SVG Export Plug-In . SVG Version: 6.00 Build 0)  -->
<svg version="1.1" id="Camada_1" xmlns="http://www.w3.org/2000/svg" xmlns:xlink="http://www.w3.org/1999/xlink" x="0px" y="0px"
	 viewBox="0 0 1311.6 407.4" style="enable-background:new 0 0 1311.6 407.4;" xml:space="preserve">
<style type="text/css">
	.st0{fill:url(#SVGID_1_);}
	.st1{fill:url(#SVGID_2_);}
	.st2{fill:url(#SVGID_3_);}
	.st3{fill:url(#SVGID_4_);}
	.st4{fill:url(#SVGID_5_);}
	.st5{fill:url(#SVGID_6_);}
	.st6{fill:#86C9D1;}
	.st7{fill:#113959;}
</style>
<g>
	<g>
		<radialGradient id="SVGID_1_" cx="197.5766" cy="157.4237" r="163.4582" gradientUnits="userSpaceOnUse">
			<stop  offset="0" style="stop-color:#EE8D62"/>
			<stop  offset="1" style="stop-color:#FFBB99"/>
		</radialGradient>
		<path class="st0" d="M178.1,168c0.3-1.2,0.6-2.4,0.9-3.7l0.4-2c0.1-0.7-0.1-1.4-0.6-1.9l-0.9-0.9c-0.6-0.6-1.2-0.8-1.8-0.8
			c-0.3,0-0.5,0-0.7,0.1c-0.5,0.1-1.5,0.5-1.8,1.7c-0.3,0.9,0,1.8,0.6,2.5l0.4,0.5L178.1,168z"/>
		<radialGradient id="SVGID_2_" cx="197.5766" cy="157.4237" r="163.4582" gradientUnits="userSpaceOnUse">
			<stop  offset="0" style="stop-color:#EE8D62"/>
			<stop  offset="1" style="stop-color:#FFBB99"/>
		</radialGradient>
		<path class="st1" d="M222.9,168l3.9-5c0.6-0.7,0.8-1.6,0.6-2.5c-0.4-1.2-1.3-1.6-1.8-1.7c-0.2,0-0.4-0.1-0.7-0.1
			c-0.5,0-1.2,0.2-1.8,0.8l-0.9,0.9c-0.5,0.5-0.7,1.2-0.6,1.9l0.4,2C222.3,165.6,222.6,166.8,222.9,168z"/>
		<radialGradient id="SVGID_3_" cx="197.5766" cy="157.4237" r="163.4582" gradientUnits="userSpaceOnUse">
			<stop  offset="0" style="stop-color:#EE8D62"/>
			<stop  offset="1" style="stop-color:#FFBB99"/>
		</radialGradient>
		<path class="st2" d="M243.4,207.5c-8.3-2.3-15.8-6.7-21.8-12.6l-3.2,4.1c-2.2,2.8-5.1,5.1-8.3,6.6c-6,2.8-13,2.8-19,0
			c-3.2-1.5-6.1-3.8-8.3-6.6l-3.2-4.1c-6,5.9-13.5,10.3-21.8,12.6c2.2,15.2,8,53,12.1,80h1.4h56.6h3.5
			C235.4,260.5,241.1,222.7,243.4,207.5z"/>
		<radialGradient id="SVGID_4_" cx="197.5766" cy="157.4237" r="163.4582" gradientUnits="userSpaceOnUse">
			<stop  offset="0" style="stop-color:#EE8D62"/>
			<stop  offset="1" style="stop-color:#FFBB99"/>
		</radialGradient>
		<path class="st3" d="M310.5-0.5C218-9.3,200.4,61.2,200.4,61.2s-0.3,0.3-0.9,0.9c-0.6-0.5-0.9-0.9-0.9-0.9S180.9-9.3,88.5-0.5
			C-4,8.3-21.6,111.8,24.6,177.9C66.7,238,108.9,279.9,116,286.9v0.5h0.6h33.5h4.1c-7.4-48.3-10.6-69.3-11.9-78.5
			c-13.1-1.2-25.2-8.1-33-19c-8.2-11.4-10.6-25.7-6.8-39.2l0.7-2.4c1.4-4.9,4.9-8.9,9.6-11c4.7-2.1,10-1.9,14.5,0.4
			c3.7,1.8,6.6,4.9,8.1,8.7c10.6,25.6,16,38.8,18.6,45.9c6.1-1.8,11.5-5.2,15.8-9.9l-7.4-9.4c-4.1-4.6-5.5-11.1-3.7-17.1
			c1.8-6.1,6.6-10.7,12.8-12.3c6.2-1.6,12.6,0.2,17.1,4.7l0.9,0.9c4.1,4.1,5.9,9.9,4.9,15.5l-0.4,2c-0.9,5.3-2.7,10.4-5.1,15
			l5.8,7.4c0.7,0.9,1.6,1.6,2.6,2.1c1.9,0.9,4.1,0.9,6,0c1-0.5,1.9-1.2,2.6-2.1l5.8-7.4c-2.4-4.6-4.2-9.7-5.1-15l-0.4-2
			c-1-5.7,0.8-11.5,4.9-15.5l0.9-0.9c4.5-4.5,10.9-6.3,17.1-4.7c6.2,1.6,11,6.2,12.8,12.3c1.8,5.9,0.3,12.4-3.7,17.1l-7.4,9.4
			c4.3,4.6,9.7,8.1,15.8,9.9c2.7-7.1,8-20.3,18.6-45.9c1.6-3.8,4.5-6.9,8.1-8.7c4.6-2.3,9.9-2.4,14.5-0.4c4.7,2.1,8.2,6,9.6,11
			l0.7,2.4c3.9,13.5,1.4,27.8-6.8,39.2c-7.7,10.8-19.8,17.7-33,19c-1.3,9.2-4.4,30.2-11.9,78.5h1.9h30.4h3.1
			c5.1-5,48.5-47.6,92-109.6C420.6,111.8,402.9,8.3,310.5-0.5z"/>
		<radialGradient id="SVGID_5_" cx="197.5766" cy="157.4237" r="163.4582" gradientUnits="userSpaceOnUse">
			<stop  offset="0" style="stop-color:#EE8D62"/>
			<stop  offset="1" style="stop-color:#FFBB99"/>
		</radialGradient>
		<path class="st4" d="M120.5,151.6c-0.3-0.1-0.5-0.2-0.7-0.2c-0.3,0-0.5,0.1-0.7,0.1c-0.3,0.1-0.8,0.4-0.9,1.1l-0.7,2.4
			c-2.6,8.9-0.9,18.4,4.5,26c3.9,5.4,9.4,9.3,15.6,11.3c-3.6-9.1-9.3-23.1-16.3-39.8C121.1,152.1,120.8,151.8,120.5,151.6z"/>
		<radialGradient id="SVGID_6_" cx="197.5766" cy="157.4237" r="163.4582" gradientUnits="userSpaceOnUse">
			<stop  offset="0" style="stop-color:#EE8D62"/>
			<stop  offset="1" style="stop-color:#FFBB99"/>
		</radialGradient>
		<path class="st5" d="M283.6,155l-0.7-2.4c-0.2-0.6-0.6-0.9-0.9-1.1c-0.2-0.1-0.4-0.1-0.7-0.1c-0.2,0-0.5,0-0.7,0.2
			c-0.4,0.2-0.6,0.5-0.8,0.8c-6.9,16.7-12.7,30.8-16.3,39.8c6.2-2,11.7-5.9,15.6-11.3C284.5,173.4,286.2,164,283.6,155z"/>
	</g>
	<g>
		<path class="st6" d="M280.2,327.2H118.7c-2.8,0-5.1-2.3-5.1-5.1v-16.1c0-2.8,2.3-5.1,5.1-5.1h161.5c2.8,0,5.1,2.3,5.1,5.1V322
			C285.3,324.9,283,327.2,280.2,327.2z"/>
		<path class="st6" d="M280.2,362.4H118.7c-2.8,0-5.1-2.3-5.1-5.1v-16.1c0-2.8,2.3-5.1,5.1-5.1h161.5c2.8,0,5.1,2.3,5.1,5.1v16.1
			C285.3,360.1,283,362.4,280.2,362.4z"/>
		<path class="st6" d="M135.4,371.2c10.4,22,35.2,37.4,64.1,37.4s53.7-15.5,64.1-37.4H135.4z"/>
	</g>
</g>
<g>
	<g>
		<g>
			<path class="st7" d="M511,289.2c2,0,4,0.1,6,0.3c2,0.2,4,0.4,6,0.8l-0.3,2.9c-1.8-0.1-3.7-0.2-5.7-0.3c-2-0.1-4-0.1-5.9-0.1
				c-1.7,0-3.1,0.1-4.3,0.2c-1.2,0.1-2.2,0.4-2.9,0.8c-0.8,0.4-1.3,1.2-1.7,2.2c-0.3,1-0.5,2.4-0.5,4.2c0,2.6,0.4,4.4,1.3,5.5
				c0.9,1.1,2.4,1.8,4.4,2.2l8.8,1.8c3.1,0.6,5.3,1.9,6.6,3.7c1.2,1.8,1.8,4.4,1.8,7.7c0,2.5-0.3,4.4-0.8,5.9
				c-0.6,1.5-1.4,2.6-2.5,3.4c-1.1,0.8-2.5,1.3-4.2,1.6c-1.7,0.3-3.7,0.4-6,0.4c-1.5,0-3.2-0.1-5.4-0.2c-2.1-0.1-4.6-0.4-7.3-0.8
				l0.3-2.9c2.1,0.1,3.8,0.2,5.2,0.2c1.4,0.1,2.6,0.1,3.8,0.1s2.3,0,3.6,0c2.3,0,4.2-0.2,5.6-0.6c1.4-0.4,2.3-1.1,2.9-2.2
				c0.6-1.1,0.9-2.7,0.9-5c0-1.8-0.2-3.2-0.6-4.3c-0.4-1-1-1.8-1.9-2.4c-0.9-0.5-2-0.9-3.4-1.2l-8.9-1.9c-3-0.6-5.1-1.8-6.3-3.7
				c-1.2-1.8-1.8-4.4-1.8-7.6c0-2.5,0.3-4.4,0.8-5.9c0.5-1.5,1.4-2.6,2.4-3.3c1.1-0.7,2.4-1.2,4.1-1.4
				C506.8,289.3,508.7,289.2,511,289.2z"/>
			<path class="st7" d="M537.6,289.9v41.7h-3.9v-41.7H537.6z"/>
			<path class="st7" d="M560,289.2c2,0,4,0.1,6,0.3c2,0.2,4,0.4,6,0.8l-0.3,2.9c-1.8-0.1-3.7-0.2-5.7-0.3c-2-0.1-4-0.1-5.9-0.1
				c-1.7,0-3.1,0.1-4.3,0.2c-1.2,0.1-2.2,0.4-2.9,0.8s-1.3,1.2-1.7,2.2c-0.3,1-0.5,2.4-0.5,4.2c0,2.6,0.4,4.4,1.3,5.5
				c0.9,1.1,2.4,1.8,4.4,2.2l8.8,1.8c3.1,0.6,5.3,1.9,6.6,3.7c1.2,1.8,1.8,4.4,1.8,7.7c0,2.5-0.3,4.4-0.8,5.9
				c-0.6,1.5-1.4,2.6-2.5,3.4c-1.1,0.8-2.5,1.3-4.2,1.6c-1.7,0.3-3.7,0.4-6,0.4c-1.5,0-3.2-0.1-5.4-0.2c-2.1-0.1-4.6-0.4-7.3-0.8
				l0.3-2.9c2.1,0.1,3.8,0.2,5.2,0.2c1.4,0.1,2.6,0.1,3.8,0.1c1.1,0,2.3,0,3.6,0c2.3,0,4.2-0.2,5.6-0.6c1.4-0.4,2.3-1.1,2.9-2.2
				c0.6-1.1,0.9-2.7,0.9-5c0-1.8-0.2-3.2-0.6-4.3c-0.4-1-1-1.8-1.9-2.4c-0.9-0.5-2-0.9-3.4-1.2l-8.9-1.9c-3-0.6-5.1-1.8-6.3-3.7
				c-1.2-1.8-1.8-4.4-1.8-7.6c0-2.5,0.3-4.4,0.8-5.9c0.5-1.5,1.4-2.6,2.4-3.3c1.1-0.7,2.4-1.2,4.1-1.4
				C555.8,289.3,557.7,289.2,560,289.2z"/>
			<path class="st7" d="M610.3,289.9v3.5h-31.7v-3.5H610.3z M596.4,289.9v41.7h-4v-41.7H596.4z"/>
			<path class="st7" d="M624.4,289.8c2,0,4,0,6,0c2,0,4,0,6,0.1c2,0.1,3.9,0.1,5.8,0.3l-0.2,3.1h-17c-1.3,0-2.3,0.4-3.1,1.1
				c-0.7,0.7-1.1,1.8-1.1,3.2v26.4c0,1.4,0.4,2.5,1.1,3.2c0.7,0.7,1.7,1.1,3.1,1.1h17l0.2,3c-1.9,0.1-3.8,0.2-5.8,0.2
				c-2,0-4,0.1-6,0.1c-2,0-4,0-6,0c-2.2,0-4-0.6-5.3-1.9c-1.4-1.3-2-2.9-2-5v-28.1c0-2.1,0.7-3.8,2-5
				C620.4,290.5,622.2,289.8,624.4,289.8z M618.1,307.9h21.6v3.2h-21.6V307.9z"/>
			<path class="st7" d="M689.8,289.9c1.1,0,1.7,0.6,1.7,1.8l1.8,40h-4l-1.6-38.4h-1.3l-10.9,32.7c-0.2,0.9-0.8,1.3-1.8,1.3h-4
				c-0.9,0-1.5-0.4-1.8-1.3l-10.8-32.7h-1.3l-1.6,38.4h-4l1.7-40c0.1-1.2,0.7-1.8,1.8-1.8h4.8c0.9,0,1.5,0.5,1.7,1.4l9.1,27.2
				c0.4,0.9,0.7,1.9,0.9,2.8c0.3,0.9,0.6,1.9,0.9,2.9h1.3c0.3-1,0.6-1.9,0.8-2.9c0.3-0.9,0.6-1.9,0.9-2.9l9.1-27.1
				c0.2-0.9,0.8-1.4,1.8-1.4H689.8z"/>
			<path class="st7" d="M718.8,289.9c0.4,0,0.7,0.1,1,0.3c0.3,0.2,0.5,0.5,0.6,0.8l14,40.6h-4.1l-11.7-35.2
				c-0.2-0.6-0.3-1.1-0.5-1.7c-0.2-0.6-0.4-1.1-0.5-1.7h-1.8c-0.2,0.5-0.3,1.1-0.5,1.7c-0.2,0.6-0.4,1.2-0.6,1.7l-11.7,35.2h-4.1
				l14-40.6c0.1-0.4,0.3-0.6,0.6-0.8c0.3-0.2,0.6-0.3,1-0.3H718.8z M727.1,314.3v3.4H706v-3.4H727.1z"/>
			<path class="st7" d="M767.5,289.4c2.9,0,5.4,0.4,7.4,1.1s3.6,1.9,4.9,3.6c1.3,1.7,2.2,3.8,2.7,6.6c0.6,2.7,0.8,6.1,0.8,10.1
				c0,4-0.3,7.4-0.8,10.1c-0.6,2.7-1.5,4.9-2.7,6.6c-1.2,1.7-2.9,2.9-4.9,3.6s-4.5,1.1-7.4,1.1c-2.8,0-5.4-0.1-7.8-0.2
				c-2.4-0.1-4.6-0.2-6.7-0.4l1.8-3.1c1.8,0,3.7,0.1,5.8,0.1c2.1,0,4.4,0.1,7,0.1c2.9,0,5.2-0.6,6.9-1.7c1.7-1.1,2.9-3,3.7-5.6
				c0.7-2.6,1.1-6.2,1.1-10.6s-0.4-8-1.1-10.6c-0.7-2.6-2-4.5-3.7-5.6c-1.7-1.1-4-1.7-6.9-1.7c-2.5,0-4.8,0-6.9,0.1
				c-2.1,0-4,0.1-5.9,0.2l-1.7-3.1c2.1-0.2,4.3-0.3,6.7-0.4C762.1,289.4,764.7,289.4,767.5,289.4z M756.9,289.9v41.7h-3.9v-41.7
				H756.9z"/>
			<path class="st7" d="M800,289.8c2,0,4,0,6,0c2,0,4,0,6,0.1c2,0.1,3.9,0.1,5.8,0.3l-0.2,3.1h-17c-1.3,0-2.3,0.4-3.1,1.1
				c-0.7,0.7-1.1,1.8-1.1,3.2v26.4c0,1.4,0.4,2.5,1.1,3.2c0.7,0.7,1.7,1.1,3.1,1.1h17l0.2,3c-1.9,0.1-3.8,0.2-5.8,0.2
				c-2,0-4,0.1-6,0.1c-2,0-4,0-6,0c-2.2,0-4-0.6-5.3-1.9c-1.4-1.3-2-2.9-2-5v-28.1c0-2.1,0.7-3.8,2-5
				C796,290.5,797.8,289.8,800,289.8z M793.6,307.9h21.6v3.2h-21.6V307.9z"/>
			<path class="st7" d="M847.3,289.8c2,0,4,0,6,0c2,0,4,0,6,0.1c2,0.1,3.9,0.1,5.8,0.3l-0.2,3.1h-17c-1.3,0-2.3,0.4-3.1,1.1
				c-0.7,0.7-1.1,1.8-1.1,3.2v26.4c0,1.4,0.4,2.5,1.1,3.2c0.7,0.7,1.7,1.1,3.1,1.1h17l0.2,3c-1.9,0.1-3.8,0.2-5.8,0.2
				c-2,0-4,0.1-6,0.1c-2,0-4,0-6,0c-2.2,0-4-0.6-5.3-1.9c-1.4-1.3-2-2.9-2-5v-28.1c0-2.1,0.7-3.8,2-5
				C843.3,290.5,845,289.8,847.3,289.8z M840.9,307.9h21.6v3.2h-21.6V307.9z"/>
			<path class="st7" d="M904.9,289.9v40c0,1.1-0.5,1.7-1.6,1.7h-4.2c-0.5,0-0.9-0.1-1.2-0.3c-0.3-0.2-0.6-0.5-0.8-1l-16-31.7
				c-0.4-0.8-0.8-1.6-1.2-2.5c-0.4-0.9-0.8-1.7-1.1-2.5h-1.1c0,0.8,0.1,1.6,0.1,2.5c0,0.8,0,1.7,0,2.5v33h-3.9v-40
				c0-1.1,0.6-1.7,1.7-1.7h4c0.5,0,0.9,0.1,1.2,0.3c0.3,0.2,0.6,0.5,0.8,1l15.5,31c0.4,0.8,0.9,1.8,1.4,2.7c0.5,1,0.9,1.9,1.4,2.9
				h1.3c0-1,0-2-0.1-3c0-1-0.1-2-0.1-3v-31.9H904.9z"/>
			<path class="st7" d="M927.3,289.2c2,0,4,0.1,6,0.3c2,0.2,4,0.4,6,0.8l-0.3,2.9c-1.8-0.1-3.7-0.2-5.7-0.3c-2-0.1-4-0.1-5.9-0.1
				c-1.7,0-3.1,0.1-4.3,0.2c-1.2,0.1-2.2,0.4-2.9,0.8s-1.3,1.2-1.7,2.2c-0.3,1-0.5,2.4-0.5,4.2c0,2.6,0.4,4.4,1.3,5.5
				c0.9,1.1,2.4,1.8,4.4,2.2l8.8,1.8c3.1,0.6,5.3,1.9,6.6,3.7c1.2,1.8,1.8,4.4,1.8,7.7c0,2.5-0.3,4.4-0.8,5.9
				c-0.6,1.5-1.4,2.6-2.5,3.4c-1.1,0.8-2.5,1.3-4.2,1.6c-1.7,0.3-3.7,0.4-6,0.4c-1.5,0-3.2-0.1-5.4-0.2c-2.1-0.1-4.6-0.4-7.3-0.8
				l0.3-2.9c2.1,0.1,3.8,0.2,5.2,0.2c1.4,0.1,2.6,0.1,3.8,0.1c1.1,0,2.3,0,3.6,0c2.3,0,4.2-0.2,5.6-0.6c1.4-0.4,2.3-1.1,2.9-2.2
				c0.6-1.1,0.9-2.7,0.9-5c0-1.8-0.2-3.2-0.6-4.3c-0.4-1-1-1.8-1.9-2.4c-0.9-0.5-2-0.9-3.4-1.2l-8.9-1.9c-3-0.6-5.1-1.8-6.3-3.7
				c-1.2-1.8-1.8-4.4-1.8-7.6c0-2.5,0.3-4.4,0.8-5.9c0.5-1.5,1.4-2.6,2.4-3.3c1.1-0.7,2.4-1.2,4.1-1.4
				C923.1,289.3,925,289.2,927.3,289.2z"/>
			<path class="st7" d="M953.9,289.9v41.7H950v-41.7H953.9z"/>
			<path class="st7" d="M996.2,289.9v40c0,1.1-0.5,1.7-1.6,1.7h-4.2c-0.5,0-0.9-0.1-1.2-0.3c-0.3-0.2-0.6-0.5-0.8-1l-16-31.7
				c-0.4-0.8-0.8-1.6-1.2-2.5c-0.4-0.9-0.8-1.7-1.1-2.5H969c0,0.8,0.1,1.6,0.1,2.5c0,0.8,0,1.7,0,2.5v33h-3.9v-40
				c0-1.1,0.6-1.7,1.7-1.7h4c0.5,0,0.9,0.1,1.2,0.3c0.3,0.2,0.6,0.5,0.8,1l15.5,31c0.4,0.8,0.9,1.8,1.4,2.7c0.5,1,0.9,1.9,1.4,2.9
				h1.3c0-1,0-2-0.1-3c0-1-0.1-2-0.1-3v-31.9H996.2z"/>
			<path class="st7" d="M1021.9,289.1c3,0,5.5,0.4,7.6,1.1c2.1,0.7,3.7,2,5,3.6c1.2,1.7,2.2,3.9,2.7,6.7c0.6,2.8,0.8,6.2,0.8,10.2
				c0,4-0.3,7.4-0.8,10.2c-0.6,2.8-1.5,5-2.7,6.7c-1.3,1.7-2.9,2.9-5,3.6c-2.1,0.7-4.6,1.1-7.6,1.1c-3,0-5.5-0.4-7.6-1.1
				c-2.1-0.7-3.7-2-5-3.6c-1.2-1.7-2.2-3.9-2.8-6.7c-0.6-2.8-0.9-6.2-0.9-10.2c0-4,0.3-7.4,0.9-10.2c0.6-2.8,1.5-5,2.8-6.7
				c1.3-1.7,2.9-2.9,5-3.6C1016.4,289.5,1018.9,289.1,1021.9,289.1z M1021.9,292.7c-3,0-5.4,0.6-7.1,1.7c-1.8,1.1-3,3-3.7,5.7
				c-0.7,2.6-1.1,6.2-1.1,10.7c0,4.5,0.4,8.1,1.1,10.7c0.7,2.6,2,4.5,3.7,5.7c1.8,1.1,4.1,1.7,7.1,1.7c3,0,5.3-0.6,7.1-1.7
				c1.7-1.1,3-3,3.7-5.7c0.7-2.6,1.1-6.2,1.1-10.7c0-4.5-0.4-8.1-1.1-10.7c-0.7-2.6-2-4.5-3.7-5.7
				C1027.3,293.3,1024.9,292.7,1021.9,292.7z"/>
			<path class="st7" d="M1074.1,289.4c3.4,0,6.1,0.3,8.1,0.9c2,0.6,3.4,1.7,4.3,3.3c0.9,1.6,1.3,3.8,1.3,6.6c0,3-0.6,5.3-1.7,6.8
				c-1.1,1.6-2.9,2.5-5.4,2.7v0.2c3.1,0.3,5.3,1.4,6.5,3.3c1.2,1.9,1.8,4.5,1.8,7.9c0,2.9-0.4,5.1-1.3,6.6c-0.9,1.6-2.3,2.7-4.2,3.3
				c-1.9,0.6-4.5,0.9-7.6,0.9c-2.3,0-4.3,0-5.9,0c-1.6,0-3.1-0.1-4.5-0.2c-1.4-0.1-2.8-0.2-4.4-0.3l0.8-3.1c0.8,0,2.5,0.1,4.9,0.1
				c2.4,0,5.2,0.1,8.5,0.1c2.4,0,4.3-0.2,5.7-0.6c1.4-0.4,2.4-1.2,3-2.4c0.6-1.1,0.9-2.8,0.9-5c0-2.4-0.3-4.2-0.9-5.5
				c-0.6-1.3-1.7-2.2-3.1-2.7c-1.5-0.5-3.5-0.8-6-0.8h-12.9v-3.1h12.9c2.2,0,4-0.3,5.3-0.7c1.3-0.4,2.3-1.2,2.8-2.3
				c0.6-1.1,0.9-2.7,0.9-4.8c0-2.1-0.3-3.8-0.9-4.9c-0.6-1.1-1.7-1.9-3.1-2.3c-1.5-0.4-3.5-0.6-6-0.6c-1.9,0-3.6,0-5.1,0s-2.9,0-4,0
				c-1.1,0-2,0.1-2.7,0.2l-0.8-3.1c1.3-0.2,2.6-0.3,3.8-0.3c1.2-0.1,2.5-0.1,4-0.1C1070.5,289.4,1072.2,289.4,1074.1,289.4z
				 M1065.1,289.9v41.7h-3.9v-41.7H1065.1z"/>
			<path class="st7" d="M1113.8,289.9c0.4,0,0.7,0.1,1,0.3c0.3,0.2,0.5,0.5,0.6,0.8l14,40.6h-4.1l-11.7-35.2
				c-0.2-0.6-0.3-1.1-0.5-1.7c-0.2-0.6-0.4-1.1-0.5-1.7h-1.8c-0.2,0.5-0.3,1.1-0.5,1.7s-0.4,1.2-0.6,1.7l-11.7,35.2h-4.1l14-40.6
				c0.1-0.4,0.3-0.6,0.6-0.8c0.3-0.2,0.6-0.3,1-0.3H1113.8z M1122.1,314.3v3.4h-21.2v-3.4H1122.1z"/>
			<path class="st7" d="M1146.9,289.2c2,0,4,0.1,6,0.3c2,0.2,4,0.4,6,0.8l-0.3,2.9c-1.8-0.1-3.7-0.2-5.7-0.3c-2-0.1-4-0.1-5.9-0.1
				c-1.7,0-3.1,0.1-4.3,0.2c-1.2,0.1-2.2,0.4-2.9,0.8c-0.8,0.4-1.3,1.2-1.7,2.2c-0.3,1-0.5,2.4-0.5,4.2c0,2.6,0.4,4.4,1.3,5.5
				c0.9,1.1,2.4,1.8,4.4,2.2l8.8,1.8c3.1,0.6,5.3,1.9,6.6,3.7c1.2,1.8,1.8,4.4,1.8,7.7c0,2.5-0.3,4.4-0.8,5.9
				c-0.6,1.5-1.4,2.6-2.5,3.4c-1.1,0.8-2.5,1.3-4.2,1.6c-1.7,0.3-3.7,0.4-6,0.4c-1.5,0-3.2-0.1-5.4-0.2c-2.1-0.1-4.6-0.4-7.3-0.8
				l0.3-2.9c2.1,0.1,3.8,0.2,5.2,0.2c1.4,0.1,2.6,0.1,3.8,0.1c1.1,0,2.3,0,3.6,0c2.3,0,4.2-0.2,5.6-0.6c1.4-0.4,2.3-1.1,2.9-2.2
				c0.6-1.1,0.9-2.7,0.9-5c0-1.8-0.2-3.2-0.6-4.3c-0.4-1-1-1.8-1.9-2.4c-0.9-0.5-2-0.9-3.4-1.2l-8.9-1.9c-3-0.6-5.1-1.8-6.3-3.7
				s-1.8-4.4-1.8-7.6c0-2.5,0.3-4.4,0.8-5.9c0.5-1.5,1.4-2.6,2.4-3.3c1.1-0.7,2.4-1.2,4.1-1.4
				C1142.7,289.3,1144.6,289.2,1146.9,289.2z"/>
			<path class="st7" d="M1176.6,289.8c2,0,4,0,6,0c2,0,4,0,6,0.1c2,0.1,3.9,0.1,5.8,0.3l-0.2,3.1h-17c-1.3,0-2.3,0.4-3.1,1.1
				c-0.7,0.7-1.1,1.8-1.1,3.2v26.4c0,1.4,0.4,2.5,1.1,3.2c0.7,0.7,1.7,1.1,3.1,1.1h17l0.2,3c-1.9,0.1-3.8,0.2-5.8,0.2
				c-2,0-4,0.1-6,0.1c-2,0-4,0-6,0c-2.2,0-4-0.6-5.3-1.9c-1.4-1.3-2-2.9-2-5v-28.1c0-2.1,0.7-3.8,2-5
				C1172.6,290.5,1174.3,289.8,1176.6,289.8z M1170.2,307.9h21.6v3.2h-21.6V307.9z"/>
			<path class="st7" d="M1218.5,289.9c0.4,0,0.7,0.1,1,0.3c0.3,0.2,0.5,0.5,0.6,0.8l14,40.6h-4.1l-11.7-35.2
				c-0.2-0.6-0.3-1.1-0.5-1.7c-0.2-0.6-0.4-1.1-0.5-1.7h-1.8c-0.2,0.5-0.3,1.1-0.5,1.7c-0.2,0.6-0.4,1.2-0.6,1.7l-11.7,35.2h-4.1
				l14-40.6c0.1-0.4,0.3-0.6,0.6-0.8c0.3-0.2,0.6-0.3,1-0.3H1218.5z M1226.7,314.3v3.4h-21.2v-3.4H1226.7z"/>
			<path class="st7" d="M1254.9,289.4c2.9,0,5.4,0.4,7.4,1.1c2,0.7,3.6,1.9,4.9,3.6c1.3,1.7,2.2,3.8,2.7,6.6
				c0.6,2.7,0.8,6.1,0.8,10.1c0,4-0.3,7.4-0.8,10.1c-0.6,2.7-1.5,4.9-2.7,6.6c-1.3,1.7-2.9,2.9-4.9,3.6c-2,0.7-4.5,1.1-7.4,1.1
				c-2.8,0-5.4-0.1-7.8-0.2c-2.4-0.1-4.6-0.2-6.7-0.4l1.8-3.1c1.8,0,3.7,0.1,5.8,0.1c2.1,0,4.4,0.1,7,0.1c2.9,0,5.2-0.6,6.9-1.7
				c1.7-1.1,2.9-3,3.7-5.6c0.7-2.6,1.1-6.2,1.1-10.6s-0.4-8-1.1-10.6c-0.7-2.6-2-4.5-3.7-5.6c-1.7-1.1-4-1.7-6.9-1.7
				c-2.5,0-4.8,0-6.9,0.1c-2.1,0-4,0.1-5.9,0.2l-1.7-3.1c2.1-0.2,4.3-0.3,6.7-0.4C1249.5,289.4,1252.1,289.4,1254.9,289.4z
				 M1244.3,289.9v41.7h-3.9v-41.7H1244.3z"/>
			<path class="st7" d="M1294.9,289.1c3,0,5.5,0.4,7.6,1.1c2.1,0.7,3.7,2,5,3.6c1.3,1.7,2.2,3.9,2.7,6.7c0.6,2.8,0.8,6.2,0.8,10.2
				c0,4-0.3,7.4-0.8,10.2c-0.6,2.8-1.5,5-2.7,6.7c-1.3,1.7-2.9,2.9-5,3.6c-2.1,0.7-4.6,1.1-7.6,1.1s-5.5-0.4-7.6-1.1
				c-2.1-0.7-3.7-2-5-3.6c-1.3-1.7-2.2-3.9-2.8-6.7c-0.6-2.8-0.9-6.2-0.9-10.2c0-4,0.3-7.4,0.9-10.2s1.5-5,2.8-6.7
				c1.3-1.7,2.9-2.9,5-3.6C1289.4,289.5,1292,289.1,1294.9,289.1z M1294.9,292.7c-3,0-5.3,0.6-7.1,1.7c-1.8,1.1-3,3-3.7,5.7
				c-0.7,2.6-1.1,6.2-1.1,10.7c0,4.5,0.4,8.1,1.1,10.7c0.7,2.6,2,4.5,3.7,5.7c1.8,1.1,4.1,1.7,7.1,1.7s5.3-0.6,7.1-1.7
				c1.7-1.1,3-3,3.7-5.7c0.7-2.6,1.1-6.2,1.1-10.7c0-4.5-0.4-8.1-1.1-10.7c-0.7-2.6-2-4.5-3.7-5.7
				C1300.3,293.3,1297.9,292.7,1294.9,292.7z"/>
		</g>
		<g>
			<path class="st7" d="M507.7,363.6c2.1,0,4.2,0,6.4,0s4.3,0,6.4,0.1c2.1,0.1,4.2,0.2,6.2,0.3l-0.2,3.3h-18c-1.4,0-2.5,0.4-3.2,1.2
				c-0.7,0.8-1.1,1.9-1.1,3.4v28c0,1.5,0.4,2.6,1.1,3.4c0.7,0.8,1.8,1.2,3.2,1.2h18l0.2,3.2c-2,0.1-4.1,0.2-6.2,0.3
				c-2.1,0-4.2,0.1-6.4,0.1c-2.1,0-4.3,0-6.4,0c-2.4,0-4.2-0.7-5.7-2c-1.4-1.4-2.1-3.1-2.1-5.3v-29.8c0-2.2,0.7-4,2.1-5.3
				C503.5,364.3,505.4,363.6,507.7,363.6z M501,382.7h22.9v3.4H501V382.7z"/>
			<path class="st7" d="M577.1,363.7c1.2,0,1.8,0.6,1.8,1.9l1.9,42.4h-4.2l-1.7-40.7h-1.4l-11.5,34.7c-0.3,0.9-0.9,1.4-1.9,1.4h-4.2
				c-1,0-1.6-0.5-1.9-1.4l-11.5-34.7H541l-1.7,40.7h-4.2l1.8-42.4c0.1-1.2,0.7-1.9,1.9-1.9h5.1c0.9,0,1.5,0.5,1.8,1.5l9.7,28.9
				c0.4,1,0.7,2,1,3c0.3,1,0.6,2,0.9,3h1.3c0.3-1,0.6-2,0.9-3c0.3-1,0.6-2,1-3.1l9.7-28.7c0.3-1,0.9-1.5,1.9-1.5H577.1z"/>
			<path class="st7" d="M610.4,363.7v44.3h-4.2v-44.3H610.4z"/>
			<path class="st7" d="M655.2,363.7v42.5c0,1.2-0.6,1.8-1.7,1.8H649c-0.5,0-0.9-0.1-1.3-0.4c-0.3-0.2-0.6-0.6-0.8-1.1L630,372.9
				c-0.4-0.8-0.8-1.7-1.3-2.7c-0.5-1-0.9-1.8-1.2-2.7h-1.2c0,0.9,0.1,1.7,0.1,2.6c0,0.9,0,1.8,0,2.7v35h-4.2v-42.5
				c0-1.2,0.6-1.8,1.8-1.8h4.3c0.5,0,0.9,0.1,1.3,0.4c0.3,0.2,0.6,0.6,0.8,1.1l16.4,32.8c0.5,0.9,1,1.9,1.5,2.9c0.5,1,1,2.1,1.5,3.1
				h1.3c0-1.1,0-2.1-0.1-3.2c0-1.1-0.1-2.1-0.1-3.1v-33.9H655.2z"/>
			<path class="st7" d="M696.5,363.7v3.7h-33.7v-3.7H696.5z M681.7,363.7v44.3h-4.2v-44.3H681.7z"/>
			<path class="st7" d="M711.5,363.6c2.1,0,4.2,0,6.4,0s4.3,0,6.4,0.1c2.1,0.1,4.2,0.2,6.2,0.3l-0.2,3.3h-18c-1.4,0-2.5,0.4-3.2,1.2
				c-0.7,0.8-1.1,1.9-1.1,3.4v28c0,1.5,0.4,2.6,1.1,3.4c0.7,0.8,1.8,1.2,3.2,1.2h18l0.2,3.2c-2,0.1-4.1,0.2-6.2,0.3
				c-2.1,0-4.2,0.1-6.4,0.1c-2.1,0-4.3,0-6.4,0c-2.4,0-4.2-0.7-5.7-2c-1.4-1.4-2.1-3.1-2.1-5.3v-29.8c0-2.2,0.7-4,2.1-5.3
				C707.2,364.3,709.1,363.6,711.5,363.6z M704.7,382.7h22.9v3.4h-22.9V382.7z"/>
			<path class="st7" d="M743.8,363.7v36.1c0,1.5,0.4,2.6,1.2,3.4c0.8,0.8,2,1.2,3.5,1.2h16.5l0.1,3.3c-2.8,0.2-5.7,0.3-8.6,0.3
				c-2.9,0-5.8,0.1-8.7,0.1c-2.8,0-4.8-0.7-6.2-2.2c-1.3-1.5-2-3.3-2-5.5v-36.6H743.8z"/>
			<path class="st7" d="M776.8,363.7v44.3h-4.2v-44.3H776.8z"/>
			<path class="st7" d="M804.8,362.8c1.7,0,3.2,0,4.6,0.1c1.4,0.1,2.8,0.2,4,0.4c1.3,0.2,2.5,0.4,3.8,0.7l-0.5,3.1
				c-1.3-0.2-2.6-0.3-3.9-0.4c-1.3-0.1-2.6-0.1-3.8-0.2c-1.3,0-2.6-0.1-3.9-0.1c-2.6,0-4.7,0.3-6.4,0.8c-1.7,0.6-3.1,1.5-4.2,3
				c-1,1.4-1.8,3.4-2.3,5.9c-0.5,2.5-0.7,5.7-0.7,9.6c0,4.6,0.3,8.3,1,11c0.7,2.8,1.8,4.8,3.4,6.1c1.6,1.3,3.7,1.9,6.4,1.9
				c1.8,0,3.4-0.3,4.8-0.8c1.4-0.6,2.8-1.2,4-2.1c1.2-0.8,2.4-1.7,3.5-2.6l0.6,2.6c-0.9,1.1-2,2.1-3.4,3.1c-1.4,1-3,1.8-4.7,2.5
				c-1.8,0.7-3.7,1-5.8,1c-3.4,0-6.1-0.8-8.2-2.4c-2.1-1.6-3.6-4.1-4.6-7.5c-1-3.4-1.4-7.8-1.4-13.1c0-5.8,0.6-10.4,1.7-13.7
				c1.1-3.3,3-5.7,5.6-7.1C797,363.5,800.5,362.8,804.8,362.8z M818.2,382.3v25.6h-3l-0.8-6.5l-0.3-1.1v-18H818.2z"/>
			<path class="st7" d="M836.3,363.6c2.1,0,4.2,0,6.4,0s4.3,0,6.4,0.1c2.1,0.1,4.2,0.2,6.2,0.3l-0.2,3.3h-18c-1.4,0-2.5,0.4-3.2,1.2
				c-0.7,0.8-1.1,1.9-1.1,3.4v28c0,1.5,0.4,2.6,1.1,3.4c0.7,0.8,1.8,1.2,3.2,1.2h18l0.2,3.2c-2,0.1-4.1,0.2-6.2,0.3
				c-2.1,0-4.2,0.1-6.4,0.1c-2.1,0-4.3,0-6.4,0c-2.4,0-4.2-0.7-5.7-2c-1.4-1.4-2.1-3.1-2.1-5.3v-29.8c0-2.2,0.7-4,2.1-5.3
				C832.1,364.3,834,363.6,836.3,363.6z M829.6,382.7h22.9v3.4h-22.9V382.7z M844.2,349.7l8.6,8l-1.5,1.8l-8.3-6.4h-0.5l-8.3,6.4
				l-1.5-1.8l8.5-8H844.2z"/>
			<path class="st7" d="M897.5,363.7v42.5c0,1.2-0.6,1.8-1.7,1.8h-4.5c-0.5,0-0.9-0.1-1.3-0.4c-0.3-0.2-0.6-0.6-0.8-1.1l-16.9-33.6
				c-0.4-0.8-0.8-1.7-1.3-2.7c-0.5-1-0.9-1.8-1.2-2.7h-1.2c0,0.9,0.1,1.7,0.1,2.6c0,0.9,0,1.8,0,2.7v35h-4.2v-42.5
				c0-1.2,0.6-1.8,1.8-1.8h4.3c0.5,0,0.9,0.1,1.3,0.4c0.3,0.2,0.6,0.6,0.8,1.1l16.4,32.8c0.5,0.9,1,1.9,1.5,2.9c0.5,1,1,2.1,1.5,3.1
				h1.3c0-1.1,0-2.1-0.1-3.2c0-1.1-0.1-2.1-0.1-3.1v-33.9H897.5z"/>
			<path class="st7" d="M924.8,362.9c1.8,0,3.3,0,4.7,0.1c1.3,0.1,2.5,0.2,3.6,0.4c1.1,0.2,2.3,0.4,3.5,0.7l-0.5,3.2
				c-1.3-0.2-2.4-0.3-3.5-0.4c-1-0.1-2.2-0.2-3.4-0.2c-1.2-0.1-2.7-0.1-4.3-0.1c-3.2,0-5.7,0.6-7.5,1.8c-1.8,1.2-3.1,3.2-3.9,6
				c-0.8,2.8-1.2,6.6-1.2,11.4c0,4.8,0.4,8.6,1.2,11.4c0.8,2.8,2.1,4.8,3.9,6c1.8,1.2,4.3,1.8,7.5,1.8c2.7,0,4.9-0.1,6.7-0.2
				c1.8-0.1,3.6-0.3,5.4-0.6l0.5,3.1c-1.8,0.5-3.6,0.8-5.6,1c-1.9,0.2-4.3,0.3-7.1,0.3c-4.1,0-7.5-0.7-10-2.2
				c-2.5-1.5-4.3-3.9-5.4-7.2c-1.1-3.3-1.7-7.8-1.7-13.5s0.6-10.1,1.7-13.5c1.1-3.3,2.9-5.7,5.4-7.2
				C917.3,363.6,920.7,362.9,924.8,362.9z"/>
			<path class="st7" d="M950,363.7v44.3h-4.2v-44.3H950z"/>
			<path class="st7" d="M978.1,363.7c0.4,0,0.7,0.1,1.1,0.3c0.3,0.2,0.5,0.5,0.6,0.9l14.8,43h-4.4l-12.4-37.3
				c-0.2-0.6-0.4-1.2-0.6-1.8s-0.4-1.2-0.6-1.8h-1.9c-0.2,0.6-0.4,1.1-0.5,1.8c-0.2,0.6-0.4,1.2-0.6,1.8l-12.4,37.3h-4.4l14.8-43
				c0.1-0.4,0.3-0.7,0.6-0.9c0.3-0.2,0.6-0.3,1-0.3H978.1z M986.9,389.6v3.7h-22.5v-3.7H986.9z"/>
			<path class="st7" d="M1028.9,363.7c0.4,0,0.7,0.1,1.1,0.3c0.3,0.2,0.5,0.5,0.6,0.9l14.8,43h-4.4l-12.4-37.3
				c-0.2-0.6-0.4-1.2-0.6-1.8c-0.2-0.6-0.4-1.2-0.6-1.8h-1.9c-0.2,0.6-0.4,1.1-0.5,1.8c-0.2,0.6-0.4,1.2-0.6,1.8l-12.4,37.3h-4.4
				l14.8-43c0.1-0.4,0.3-0.7,0.6-0.9c0.3-0.2,0.6-0.3,1-0.3H1028.9z M1037.7,389.6v3.7h-22.5v-3.7H1037.7z"/>
			<path class="st7" d="M1067.1,363.1c3.3,0,5.9,0.4,8,1.1c2,0.7,3.5,2,4.4,3.8c0.9,1.8,1.4,4.4,1.4,7.7c0,2.5-0.3,4.5-0.8,6.1
				c-0.6,1.6-1.4,2.8-2.6,3.7c-1.2,0.9-2.8,1.4-4.7,1.7v0.3c0.7,0.2,1.4,0.6,2.1,1.2c0.7,0.6,1.3,1.3,1.9,2.1c0.6,0.9,1,1.9,1.3,3
				l4.5,14.1h-4.5l-4.2-13.9c-0.6-1.8-1.4-3.1-2.5-3.9c-1-0.8-2.4-1.2-3.9-1.2c-2.5,0-4.8,0-6.7,0c-1.9,0-3.6-0.1-4.8-0.1
				c-1.3,0-2.2-0.1-2.9-0.1l0.2-3.4h13.9c2.4,0,4.3-0.3,5.7-0.9c1.4-0.5,2.4-1.5,3-2.8c0.6-1.3,0.9-3.2,0.9-5.6
				c0-2.4-0.3-4.3-0.9-5.6c-0.6-1.3-1.6-2.2-3-2.8c-1.4-0.5-3.3-0.8-5.7-0.8c-3.4,0-6.4,0-8.9,0c-2.5,0-4.1,0.1-5,0.1l-0.9-3.3
				c1.6-0.2,3.1-0.3,4.4-0.4c1.4-0.1,2.9-0.1,4.5-0.2C1062.8,363.1,1064.8,363.1,1067.1,363.1z M1056.4,363.7v44.3h-4.2v-44.3
				H1056.4z"/>
			<path class="st7" d="M1120,363.7v3.7h-33.7v-3.7H1120z M1105.2,363.7v44.3h-4.2v-44.3H1105.2z"/>
			<path class="st7" d="M1131.7,363.7v44.3h-4.2v-44.3H1131.7z"/>
			<path class="st7" d="M1151.3,363.6c2.1,0,4.1,0,6.2,0c2.1,0,4.2,0.1,6.2,0.1c2,0,4,0.1,6,0.3l-0.3,3.3h-17.1
				c-1.5,0-2.6,0.4-3.4,1.2c-0.8,0.8-1.2,1.9-1.2,3.4v36.1h-4.2v-36.8c0-2.3,0.7-4.1,2.1-5.5C1147,364.3,1148.9,363.6,1151.3,363.6z
				 M1144.5,383.2h22.4v3.4h-22.4V383.2z"/>
			<path class="st7" d="M1182.2,363.7v44.3h-4.2v-44.3H1182.2z"/>
			<path class="st7" d="M1209.5,362.9c1.8,0,3.3,0,4.7,0.1c1.3,0.1,2.5,0.2,3.6,0.4c1.1,0.2,2.3,0.4,3.5,0.7l-0.5,3.2
				c-1.3-0.2-2.4-0.3-3.5-0.4c-1-0.1-2.2-0.2-3.4-0.2c-1.2-0.1-2.7-0.1-4.3-0.1c-3.2,0-5.7,0.6-7.5,1.8c-1.8,1.2-3.1,3.2-3.9,6
				c-0.8,2.8-1.2,6.6-1.2,11.4c0,4.8,0.4,8.6,1.2,11.4c0.8,2.8,2.1,4.8,3.9,6c1.8,1.2,4.3,1.8,7.5,1.8c2.7,0,4.9-0.1,6.7-0.2
				c1.8-0.1,3.6-0.3,5.4-0.6l0.5,3.1c-1.8,0.5-3.6,0.8-5.6,1c-1.9,0.2-4.3,0.3-7.1,0.3c-4.1,0-7.5-0.7-10-2.2
				c-2.5-1.5-4.3-3.9-5.4-7.2c-1.1-3.3-1.7-7.8-1.7-13.5s0.6-10.1,1.7-13.5c1.1-3.3,2.9-5.7,5.4-7.2
				C1202,363.6,1205.3,362.9,1209.5,362.9z"/>
			<path class="st7" d="M1234.7,363.7v44.3h-4.2v-44.3H1234.7z"/>
			<path class="st7" d="M1262.8,363.7c0.4,0,0.7,0.1,1.1,0.3c0.3,0.2,0.5,0.5,0.6,0.9l14.8,43h-4.4l-12.4-37.3
				c-0.2-0.6-0.4-1.2-0.6-1.8c-0.2-0.6-0.4-1.2-0.6-1.8h-1.9c-0.2,0.6-0.4,1.1-0.5,1.8s-0.4,1.2-0.6,1.8l-12.4,37.3h-4.4l14.8-43
				c0.1-0.4,0.3-0.7,0.6-0.9c0.3-0.2,0.6-0.3,1-0.3H1262.8z M1271.6,389.6v3.7h-22.5v-3.7H1271.6z"/>
			<path class="st7" d="M1290,363.7v36.1c0,1.5,0.4,2.6,1.2,3.4c0.8,0.8,2,1.2,3.5,1.2h16.5l0.1,3.3c-2.8,0.2-5.7,0.3-8.6,0.3
				c-2.9,0-5.8,0.1-8.7,0.1c-2.8,0-4.8-0.7-6.2-2.2s-2-3.3-2-5.5v-36.6H1290z"/>
		</g>
	</g>
	<g>
		<path class="st7" d="M497.6,69.5c0-9.8,1.9-18.9,5.6-27.5c3.7-8.6,8.8-16.1,15.2-22.5c6.4-6.4,13.9-11.5,22.5-15.2
			c8.6-3.7,17.7-5.6,27.5-5.6h108.4v47.3H568.4c-3.3,0-6.4,0.6-9.2,1.8c-2.9,1.2-5.4,2.9-7.5,5c-2.1,2.1-3.8,4.6-5,7.5
			c-1.2,2.9-1.8,5.9-1.8,9.2s0.6,6.4,1.8,9.3c1.2,2.9,2.9,5.4,5,7.6c2.1,2.1,4.6,3.8,7.5,5c2.9,1.2,5.9,1.8,9.2,1.8h47.3
			c9.8,0,19,1.8,27.6,5.5c8.6,3.7,16.1,8.7,22.6,15.2c6.4,6.4,11.5,14,15.2,22.6c3.7,8.6,5.5,17.8,5.5,27.6c0,9.8-1.8,18.9-5.5,27.5
			c-3.7,8.6-8.7,16.1-15.2,22.5c-6.4,6.4-14,11.5-22.6,15.2c-8.6,3.7-17.8,5.6-27.6,5.6h-105v-47.3h105c3.3,0,6.4-0.6,9.2-1.8
			c2.9-1.2,5.4-2.9,7.5-5c2.1-2.1,3.8-4.6,5-7.5c1.2-2.9,1.8-5.9,1.8-9.2s-0.6-6.4-1.8-9.2c-1.2-2.9-2.9-5.4-5-7.5
			c-2.1-2.1-4.6-3.8-7.5-5c-2.9-1.2-5.9-1.8-9.2-1.8h-47.3c-9.8,0-18.9-1.9-27.5-5.6c-8.6-3.7-16.1-8.8-22.5-15.2
			c-6.4-6.4-11.5-13.9-15.2-22.6C499.4,88.4,497.6,79.2,497.6,69.5z"/>
		<path class="st7" d="M920,234.9H758V-1.4h162v47.3H805.3v47.3h77.6v47.3h-77.6v47.1H920V234.9z"/>
		<path class="st7" d="M1040.9,234.9h-47.3V-1.4h47.3V234.9z"/>
		<path class="st7" d="M1311.6,234.9h-47.3v-47.3h-94.6v47.3h-47.1V93.2c0-13.1,2.5-25.3,7.4-36.8c4.9-11.5,11.7-21.5,20.2-30.1
			c8.5-8.6,18.5-15.3,30-20.3c11.5-4.9,23.8-7.4,36.8-7.4c13.1,0,25.3,2.5,36.8,7.4c11.5,4.9,21.5,11.7,30.1,20.3
			c8.6,8.6,15.3,18.6,20.3,30.1c4.9,11.5,7.4,23.8,7.4,36.8V234.9z M1264.3,140.5V93.2c0-6.5-1.2-12.6-3.7-18.4
			c-2.5-5.8-5.8-10.8-10.1-15.1c-4.3-4.3-9.3-7.7-15.1-10.1c-5.8-2.5-11.9-3.7-18.4-3.7c-6.5,0-12.6,1.2-18.4,3.7
			c-5.8,2.5-10.8,5.8-15.1,10.1c-4.3,4.3-7.7,9.3-10.1,15.1c-2.5,5.8-3.7,11.9-3.7,18.4v47.3H1264.3z"/>
	</g>
</g>
</svg>
