<?xml version="1.0" encoding="utf-8"?>
<!-- Generator: Adobe Illustrator 24.0.1, SVG Export Plug-In . SVG Version: 6.00 Build 0)  -->
<svg version="1.1" id="Camada_1" xmlns="http://www.w3.org/2000/svg" xmlns:xlink="http://www.w3.org/1999/xlink" x="0px" y="0px"
	 viewBox="0 0 3000 3000" style="enable-background:new 0 0 3000 3000;" xml:space="preserve">
<style type="text/css">
	.st0{fill-rule:evenodd;clip-rule:evenodd;fill:#FFFFFF;}
	.st1{fill:#FFFFFF;}
</style>
<polygon class="st0" points="315.9,2279.8 315.9,1604.4 1118.4,1907 1386.7,1573.9 1386.7,2683.5 "/>
<path class="st0" d="M1803.2,2500.3c-136,0-246.6-114-246.6-254.1v-49.9c0-140.1,110.6-254.1,246.6-254.1h282.6v-144.2L1797,1907
	l-268.3-333.1v1109.6l485.8-183.2H1803.2z"/>
<polygon class="st0" points="0,477.3 1072.3,72.9 1353.5,422.1 281.2,826.4 "/>
<polygon class="st0" points="1665.9,461.3 1561.9,422.1 1843.1,72.9 2915.4,477.3 2634.2,826.4 "/>
<polygon class="st0" points="0,1333.4 281.2,984.2 1353.5,1388.6 1072.3,1737.7 "/>
<path class="st0" d="M2085.8,1646.2v-13.5c0-140.1,110.6-254.1,246.6-254.1h46.2c74,0,140.5,33.8,185.7,87.1l351.2-132.4
	l-281.2-349.2l-1072.3,404.3l281.2,349.2L2085.8,1646.2z"/>
<path class="st1" d="M2907.7,2346.1h-436.8v481.1c0,54.9-41.6,99.9-92.3,99.9h-46.2c-50.8,0-92.3-44.9-92.3-99.9v-481.1h-436.8
	c-50.8,0-92.3-44.9-92.3-99.9v-49.9c0-54.9,41.6-99.9,92.3-99.9H2240v-463.7c0-54.9,41.6-99.9,92.3-99.9h46.2
	c50.8,0,92.3,44.9,92.3,99.9v463.7h436.8c50.8,0,92.3,44.9,92.3,99.9v49.9C3000,2301.2,2958.4,2346.1,2907.7,2346.1z"/>
</svg>
