<?xml version="1.0" encoding="utf-8"?>
<!-- Generator: Adobe Illustrator 24.0.1, SVG Export Plug-In . SVG Version: 6.00 Build 0)  -->
<svg version="1.1" id="Camada_1" xmlns="http://www.w3.org/2000/svg" xmlns:xlink="http://www.w3.org/1999/xlink" x="0px" y="0px"
	 viewBox="0 0 3000 3000" style="enable-background:new 0 0 3000 3000;" xml:space="preserve">
<style type="text/css">
	.st0{fill-rule:evenodd;clip-rule:evenodd;fill:#FFFFFF;}
	.st1{fill:#FFFFFF;}
</style>
<g>
	<polygon class="st0" points="325.1,2326.9 325.1,1632 1150.8,1943.3 1426.9,1600.6 1426.9,2742.4 	"/>
	<polygon class="st0" points="0,472.1 1103.4,56.1 1392.8,415.4 289.4,831.4 	"/>
	<polygon class="st0" points="1714.2,455.7 1607.2,415.4 1896.6,56.1 3000,472.1 2710.6,831.4 	"/>
	<polygon class="st0" points="0,1353.1 289.4,993.8 1392.8,1409.9 1103.4,1769.2 	"/>
	<path class="st0" d="M2320.4,2282.7c-3.2,0.1-6.5,0.2-9.7,0.2c-47.8,0-94.8-13.1-139.6-39.1c-35.3-20.4-68.4-48-101.2-84.5
		c-30.9-34.3-54.3-67.5-71.4-101.2c-22-43.3-33.2-87.3-33.2-130.7c0-9.5,0.6-19,1.7-28.5l-117.8,44.4l-276.1-342.7v1141.8
		l747.3-281.8V2282.7z"/>
	<path class="st0" d="M2091.1,1689.5l340.9-307.7l4.3-2.9c78.2-71.6,158.9-87.1,214.1-87.1c56.9,0,103.1,5.4,141.1,16.6l0.3,0.1
		c40.7,12,73.7,27.3,100.7,46.9l0.2,0.2c10.9,7.9,21.1,16.8,30.4,26.6l76.9-29l-289.4-359.3l-1103.4,416.1l289.4,359.3l182.7-68.9
		C2083.2,1696.7,2087.1,1693.1,2091.1,1689.5z"/>
	<path class="st1" d="M2535.9,1503.3c35.2-35.2,73.4-52.8,114.6-52.8c41.2,0,73.4,3.4,96.4,10.1c23,6.8,40.6,14.6,52.8,23.3
		c12.2,8.8,21.6,23.3,28.4,43.6c6.8,23,10.1,58.8,10.1,107.5v1130.2c0,31.1-1,54.5-3,70c-2,15.6-8.5,33.5-19.3,53.8
		c-19,36.5-71.7,54.8-158.3,54.8c-83.9,0-135.9-17.6-156.2-52.8c-10.8-20.3-17.2-38.9-19.3-55.8c-2-16.9-3-41.6-3-74.1V2037
		l-26.4,24.3c-55.5,41.9-102.8,62.9-142,62.9c-39.2,0-80.1-23.6-122.8-71c-42.6-47.3-63.9-89.3-63.9-125.8
		c0-36.5,24.3-76.4,73-119.7l332.8-300.3L2535.9,1503.3z"/>
</g>
</svg>
