<?xml version="1.0" encoding="utf-8"?>
<!-- Generator: Adobe Illustrator 23.0.2, SVG Export Plug-In . SVG Version: 6.00 Build 0)  -->
<svg version="1.1" id="Layer_5" xmlns="http://www.w3.org/2000/svg" xmlns:xlink="http://www.w3.org/1999/xlink" x="0px" y="0px"
	 viewBox="0 0 3000 3000" style="enable-background:new 0 0 3000 3000;" xml:space="preserve">
<style type="text/css">
	.st0{fill:#020202;}
</style>
<path class="st0" d="M2785.1,1749.9H1768.6v1035.2c0,118.2-96.7,214.9-214.9,214.9h-107.4c-118.2,0-214.9-96.7-214.9-214.9V1749.9
	H214.9C96.7,1749.9,0,1653.2,0,1535v-107.4c0-118.2,96.7-214.9,214.9-214.9h1016.5V214.9C1231.4,96.7,1328.1,0,1446.3,0h107.4
	c118.2,0,214.9,96.7,214.9,214.9v997.8h1016.5c118.2,0,214.9,96.7,214.9,214.9V1535C3000,1653.2,2903.3,1749.9,2785.1,1749.9z"/>
</svg>
