<?xml version="1.0" encoding="utf-8"?>
<!-- Generator: Adobe Illustrator 23.0.2, SVG Export Plug-In . SVG Version: 6.00 Build 0)  -->
<svg version="1.1" id="Layer_1" xmlns="http://www.w3.org/2000/svg" xmlns:xlink="http://www.w3.org/1999/xlink" x="0px" y="0px"
	 viewBox="0 0 3000 3000" style="enable-background:new 0 0 3000 3000;" xml:space="preserve">
<style type="text/css">
	.st0{fill:#FFFFFF;}
</style>
<path class="st0" d="M2035.6,1500l853.5-853.5c147.9-147.9,147.9-387.7,0-535.6l0,0c-147.9-147.9-387.7-147.9-535.6,0L1500,964.4
	L646.5,110.9C498.6-37,258.8-37,110.9,110.9l0,0C-37,258.8-37,498.6,110.9,646.5L964.4,1500l-853.5,853.5
	c-147.9,147.9-147.9,387.7,0,535.6l0,0c147.9,147.9,387.7,147.9,535.6,0l853.5-853.5l853.5,853.5c147.9,147.9,387.7,147.9,535.6,0
	l0,0c147.9-147.9,147.9-387.7,0-535.6L2035.6,1500z"/>
</svg>
