<?xml version="1.0" encoding="UTF-8" standalone="no"?>
<!-- Generator: Adobe Illustrator 23.0.2, SVG Export Plug-In . SVG Version: 6.00 Build 0)  -->

<svg
   version="1.1"
   id="Layer_1"
   x="0px"
   y="0px"
   viewBox="0 0 3000 3000"
   style="enable-background:new 0 0 3000 3000;"
   xml:space="preserve"
   sodipodi:docname="cancelar.svg"
   inkscape:version="1.2 (dc2aedaf03, 2022-05-15)"
   xmlns:inkscape="http://www.inkscape.org/namespaces/inkscape"
   xmlns:sodipodi="http://sodipodi.sourceforge.net/DTD/sodipodi-0.dtd"
   xmlns="http://www.w3.org/2000/svg"
   xmlns:svg="http://www.w3.org/2000/svg"><defs
   id="defs9" /><sodipodi:namedview
   id="namedview7"
   pagecolor="#ffffff"
   bordercolor="#000000"
   borderopacity="0.25"
   inkscape:showpageshadow="2"
   inkscape:pageopacity="0.0"
   inkscape:pagecheckerboard="0"
   inkscape:deskcolor="#d1d1d1"
   showgrid="false"
   inkscape:zoom="0.279"
   inkscape:cx="1498.2079"
   inkscape:cy="1498.2079"
   inkscape:window-width="1920"
   inkscape:window-height="1017"
   inkscape:window-x="-8"
   inkscape:window-y="-8"
   inkscape:window-maximized="1"
   inkscape:current-layer="Layer_1" />
<style
   type="text/css"
   id="style2">
	.st0{fill:#DE2F2F;}
</style>
<path
   class="st0"
   d="M2035.6,1500l853.5-853.5c147.9-147.9,147.9-387.7,0-535.6l0,0c-147.9-147.9-387.7-147.9-535.6,0L1500,964.4  L646.5,110.9C498.6-37,258.8-37,110.9,110.9l0,0C-37,258.8-37,498.6,110.9,646.5L964.4,1500l-853.5,853.5  c-147.9,147.9-147.9,387.7,0,535.6l0,0c147.9,147.9,387.7,147.9,535.6,0l853.5-853.5l853.5,853.5c147.9,147.9,387.7,147.9,535.6,0  l0,0c147.9-147.9,147.9-387.7,0-535.6L2035.6,1500z"
   id="path4"
   style="fill:#22499c;fill-opacity:1" />
</svg>
