<?xml version="1.0" encoding="utf-8"?>
<!-- Generator: Adobe Illustrator 24.0.1, SVG Export Plug-In . SVG Version: 6.00 Build 0)  -->
<svg version="1.1" xmlns="http://www.w3.org/2000/svg" xmlns:xlink="http://www.w3.org/1999/xlink" x="0px" y="0px"
	 viewBox="0 0 3000 3000" style="enable-background:new 0 0 3000 3000;" xml:space="preserve">
<style type="text/css">
	.st0{fill-rule:evenodd;clip-rule:evenodd;fill:#22499C;}
</style>
<g id="Layer_1">
	<path class="st0" d="M2280.5,2317c0,75.3-29.9,146.8-83.1,200c-53.2,53.2-124.7,83.1-200,83.1H920.6v163.4
		c0,62.9,25.1,122.6,69.5,167c44.4,44.4,104.1,69.5,167,69.5h1388.3c62.9,0,122.6-25.1,167-69.5c44.4-44.4,69.5-104.1,69.5-167
		V837.4c0-62.9-25.1-122.6-69.5-167c-44.4-44.4-104.1-69.5-167-69.5h-264.9V2317z"/>
	<path class="st0" d="M454.7,0c-62.9,0-122.6,25.1-167,69.5c-44.4,44.4-69.5,104.1-69.5,167v1926.2c0,62.9,25.1,122.6,69.5,167
		c44.4,44.4,104.1,69.5,167,69.5h1388.3c62.9,0,122.6-25.1,167-69.5c44.4-44.4,69.5-104.1,69.5-167V236.5
		c0-62.9-25.1-122.6-69.5-167C1965.5,25.1,1905.8,0,1842.9,0L454.7,0z"/>
</g>
<g id="Master_Layer_5">
</g>
</svg>
