<?xml version="1.0" encoding="utf-8"?>
<!-- Generator: Adobe Illustrator 24.0.1, SVG Export Plug-In . SVG Version: 6.00 Build 0)  -->
<svg version="1.1"
	 id="Layer_1" inkscape:version="1.2 (dc2aedaf03, 2022-05-15)" sodipodi:docname="livro_branco.svg" xmlns:inkscape="http://www.inkscape.org/namespaces/inkscape" xmlns:sodipodi="http://sodipodi.sourceforge.net/DTD/sodipodi-0.dtd" xmlns:svg="http://www.w3.org/2000/svg"
	 xmlns="http://www.w3.org/2000/svg" xmlns:xlink="http://www.w3.org/1999/xlink" x="0px" y="0px" viewBox="0 0 3000 2000"
	 style="enable-background:new 0 0 3000 2000;" xml:space="preserve">
<style type="text/css">
	.st0{fill:#FFFFFF;}
</style>
<path id="path2" class="st0" d="M2976.5,1267.1l-86.1-30.5c-1.1-5.6-3.3-11.7-6.1-16.7c-86.1-162.7-86.1-320.9,0-483.5
	c0.6-0.6,0.6-1.7,1.1-2.2l83.8-29.4c19.4-6.7,18.9-33.9-0.6-40l-1812-585.7L89.8,574.8c0,0-202.1,293.7,0,763.3l1351.8,606.8
	l1536.1-613.4C3008.2,1320.4,3007.1,1277.6,2976.5,1267.1L2976.5,1267.1z M2717.8,818c-37.2,132.1-28.3,265.4,26.6,397.5
	l-1271.3,496.3c-0.6-0.6-0.6-1.7-1.1-2.2c-3.3-7.8-6.7-15.5-9.4-23.3l0,0c-2.8-7.8-5.6-15.5-7.8-23.3c-0.6-1.1-1.1-2.8-1.1-3.9
	c-2.2-7.2-4.4-15-6.1-22.2c-0.6-1.7-0.6-2.8-1.1-4.4c-1.7-7.8-3.3-15-5-22.8c0-1.1-0.6-1.7-0.6-2.8c-1.7-7.2-2.8-14.4-3.9-21.6
	c0-1.1-0.6-2.2-0.6-2.8c-1.1-7.2-1.7-15-2.2-22.2c0-1.7,0-2.8-0.6-4.4c-0.6-7.2-1.1-15-1.1-22.2c0-1.1,0-2.8,0-3.9
	c0-7.8,0-15,0-22.8c0-0.6,0-0.6,0-1.1c0-7.8,0.6-15.5,1.7-23.3c0-1.1,0-2.8,0.6-3.9c0.6-7.2,1.7-15,2.8-22.2c0-1.7,0.6-2.8,0.6-4.4
	c1.1-7.8,2.2-15,3.9-22.8c0-0.6,0.6-1.7,0.6-2.2c1.7-7.2,3.3-14.4,5-22.2c0-1.1,0.6-2.2,0.6-2.8c2.2-7.8,4.4-15,6.7-22.8
	c0.6-1.7,1.1-2.8,1.7-4.4c2.2-7.8,5-15,7.8-22.8c0.6-1.1,1.1-2.2,1.1-3.3c2.8-7.8,6.1-15.5,9.4-23.3c0,0,0-0.6,0.6-0.6
	c3.3-7.8,7.2-15.5,10.6-23.3c0.6-0.6,0.6-1.7,1.1-2.2L2717.8,818z"/>
</svg>
