<?xml version="1.0" encoding="utf-8"?>
<!-- Generator: Adobe Illustrator 23.0.2, SVG Export Plug-In . SVG Version: 6.00 Build 0)  -->
<svg version="1.1" id="Layer_1" xmlns="http://www.w3.org/2000/svg" xmlns:xlink="http://www.w3.org/1999/xlink" x="0px" y="0px"
	 viewBox="0 0 3000 1414.7" style="enable-background:new 0 0 3000 1414.7;" xml:space="preserve">
<style type="text/css">
	.st0{fill:#22499c;}
	.st1{fill-rule:evenodd;clip-rule:evenodd;fill:#22499c;}
</style>
<g>
	<path class="st0" d="M2971.5,641.8c-125-116.4-254.1-218.4-384-303.2c-122.3-79.9-248.3-146.6-374.5-198.2
		c-118-48.3-239.1-84.6-359.8-107.9C1741.4,10.9,1627.1,0,1513.6,0C1252.2,0,988.5,57.1,730,169.6
		c-225.3,98.1-403.7,220.3-513.6,305.6c-64.5,50-112.2,92.4-140.9,119.2c-18.4,17.2-31,29.8-38.3,37.3C20.6,648.7,0,670,0,707.3
		c0,37.3,20.6,58.6,37.2,75.7c7.3,7.5,19.8,20.1,38.3,37.3c28.7,26.7,76.4,69.1,140.9,119.2c109.9,85.3,288.3,207.5,513.6,305.6
		c258.6,112.5,522.2,169.6,783.6,169.6c113.5,0,227.8-10.9,339.6-32.5c120.8-23.3,241.8-59.6,359.8-107.9
		c126.2-51.6,252.2-118.3,374.5-198.2c129.8-84.8,259-186.8,384-303.2c18.1-16.9,28.5-40.8,28.5-65.5
		C3000,682.6,2989.6,658.7,2971.5,641.8z M2776.8,707.3c-401.8,350.7-826.5,528.3-1263,528.3c-36.6,0-73.7-1.3-110.4-3.8
		c-372.4-25.2-685.6-176.3-882.7-298.7c-143-88.8-247.7-175.7-303.6-225.9c55.9-50.2,160.5-137.2,303.6-225.9
		C717.8,359.1,1031,208,1403.4,182.7c36.7-2.5,73.9-3.7,110.4-3.7C1950.4,179,2375,356.7,2776.8,707.3z"/>
	<path class="st1" d="M1500.3,193.3c-283.8,0-514.7,230.6-514.7,514s230.9,514,514.7,514c136.8,0,265.7-53.6,363.1-150.9
		c97.3-97.3,150.9-226.3,150.9-363.1C2014.4,423.9,1783.8,193.3,1500.3,193.3z"/>
</g>
</svg>
