<?xml version="1.0" encoding="UTF-8" standalone="no"?>
<!-- Generator: Adobe Illustrator 23.0.2, SVG Export Plug-In . SVG Version: 6.00 Build 0)  -->

<svg
   version="1.1"
   id="Layer_1"
   x="0px"
   y="0px"
   viewBox="0 0 3000 3000"
   style="enable-background:new 0 0 3000 3000;"
   xml:space="preserve"
   sodipodi:docname="papel.svg"
   inkscape:version="1.2 (dc2aedaf03, 2022-05-15)"
   xmlns:inkscape="http://www.inkscape.org/namespaces/inkscape"
   xmlns:sodipodi="http://sodipodi.sourceforge.net/DTD/sodipodi-0.dtd"
   xmlns="http://www.w3.org/2000/svg"
   xmlns:svg="http://www.w3.org/2000/svg"><defs
   id="defs11" /><sodipodi:namedview
   id="namedview9"
   pagecolor="#ffffff"
   bordercolor="#000000"
   borderopacity="0.25"
   inkscape:showpageshadow="2"
   inkscape:pageopacity="0.0"
   inkscape:pagecheckerboard="0"
   inkscape:deskcolor="#d1d1d1"
   showgrid="false"
   inkscape:zoom="0.279"
   inkscape:cx="1498.2079"
   inkscape:cy="1498.2079"
   inkscape:window-width="1920"
   inkscape:window-height="1017"
   inkscape:window-x="-8"
   inkscape:window-y="-8"
   inkscape:window-maximized="1"
   inkscape:current-layer="Layer_1" />
<style
   type="text/css"
   id="style2">
	.st0{fill:#1A1A1A;}
</style>
<polygon
   class="st0"
   points="633.1,0 633.1,196.1 1896.4,196.1 1943.4,196.1 1979.9,225.7 2399.6,566.7 2448.5,606.4 2448.5,669.5   2448.5,2723.1 2610.6,2722.3 2610.6,0 "
   id="polygon4"
   style="fill:#22499c;fill-opacity:1" />
<path
   class="st0"
   d="M1878.3,379.4h-1489V3000h1875.8V693.7L1878.3,379.4z M1434.8,2335.5H590.3c-36.6,0-66.2-29.7-66.2-66.2  c0-36.6,29.7-66.2,66.2-66.2h844.5c36.6,0,66.2,29.7,66.2,66.2C1501.1,2305.9,1471.4,2335.5,1434.8,2335.5z M1985.6,1900.2H590.3  c-36.6,0-66.2-29.7-66.2-66.2c0-36.6,29.7-66.2,66.2-66.2h1395.3c36.6,0,66.2,29.7,66.2,66.2  C2051.8,1870.5,2022.2,1900.2,1985.6,1900.2z M1985.6,1464.8H590.3c-36.6,0-66.2-29.7-66.2-66.2c0-36.6,29.7-66.2,66.2-66.2h1395.3  c36.6,0,66.2,29.7,66.2,66.2C2051.8,1435.2,2022.2,1464.8,1985.6,1464.8z M1985.6,1029.5H590.3c-36.6,0-66.2-29.7-66.2-66.2  c0-36.6,29.7-66.2,66.2-66.2h1395.3c36.6,0,66.2,29.7,66.2,66.2C2051.8,999.8,2022.2,1029.5,1985.6,1029.5z"
   id="path6"
   style="fill:#22499c;fill-opacity:1" />
</svg>
