<?xml version="1.0" encoding="utf-8"?>
<!-- Generator: Adobe Illustrator 24.0.1, SVG Export Plug-In . SVG Version: 6.00 Build 0)  -->
<svg version="1.1" id="Layer_1" xmlns="http://www.w3.org/2000/svg" xmlns:xlink="http://www.w3.org/1999/xlink" x="0px" y="0px"
	 viewBox="0 0 3000 3000" style="enable-background:new 0 0 3000 3000;" xml:space="preserve">
<style type="text/css">
	.st0{fill-rule:evenodd;clip-rule:evenodd;fill:#FFFFFF;}
</style>
<path class="st0" d="M2766.8,1223.7L1979,435.9c-1.9-2.3-3.8-4.5-6-6.6l-0.2-0.1L1574.5,30.8C1554.8,11,1528.1,0.1,1500.2,0h-0.2v0
	c-28.3,0-55.4,11-75.2,31.4l-398.1,398.1c-2,2-3.8,4-5.6,6.2L233,1223.9c-41,41-41,107.5,0,148.5c19.7,19.7,46.4,30.7,74.2,30.7
	l655.8,0V2895c0,58,47,105,105,105h432h432c58,0,105-47,105-105V1403.1h655.8c58,0,105-47,105-105
	C2797.8,1270.1,2786.6,1243.4,2766.8,1223.7z"/>
</svg>
