<?xml version="1.0" encoding="utf-8"?>
<!-- Generator: Adobe Illustrator 24.0.1, SVG Export Plug-In . SVG Version: 6.00 Build 0)  -->
<svg version="1.1" id="Layer_1" xmlns="http://www.w3.org/2000/svg" xmlns:xlink="http://www.w3.org/1999/xlink" x="0px" y="0px"
	 viewBox="0 0 3000 3000" style="enable-background:new 0 0 3000 3000;" xml:space="preserve">
<style type="text/css">
	.st0{fill-rule:evenodd;clip-rule:evenodd;fill:#FFFFFF;}
</style>
<path class="st0" d="M233.2,1776.3l787.8,787.8c1.9,2.3,3.8,4.5,6,6.6l0.2,0.1l398.3,398.3c19.7,19.8,46.4,30.7,74.3,30.8h0.2v0
	c28.3,0,55.4-11,75.2-31.4l398.1-398.1c2-2,3.8-4,5.6-6.2l788.2-788.1c41-41,41-107.5,0-148.5c-19.7-19.7-46.4-30.7-74.2-30.7
	l-655.8,0V105c0-58-47-105-105-105h-432h-432c-58,0-105,47-105,105v1491.9H307.2c-58,0-105,47-105,105
	C202.2,1729.9,213.4,1756.6,233.2,1776.3z"/>
</svg>
