<?xml version="1.0" encoding="utf-8"?>
<!-- Generator: Adobe Illustrator 24.0.1, SVG Export Plug-In . SVG Version: 6.00 Build 0)  -->
<svg version="1.1" id="Layer_1" xmlns="http://www.w3.org/2000/svg" xmlns:xlink="http://www.w3.org/1999/xlink" x="0px" y="0px"
	 viewBox="0 0 3000 3000.1" style="enable-background:new 0 0 3000 3000.1;" xml:space="preserve">
<style type="text/css">
	.st0{fill:#22499C;}
</style>
<g>
	<path class="st0" d="M1488.8,442l-869.9,648.7v0.2c-2.1-0.1-4.2-0.2-6.3-0.2H141.2c-78,0-141.2,63.2-141.2,141.2v528.9
		c0,78,63.2,141.2,141.2,141.2h471.4c2.1,0,4.2-0.1,6.3-0.2v0.2l869.4,658.1c48.8,36.9,118.8,2.1,118.8-59.1V501.4
		C1607.1,440.4,1537.6,405.6,1488.8,442z"/>
	<path class="st0" d="M2828.7,806.6c-98.4-190.6-234-355.8-395-482.2c-35.8-28.1-87.9-20-113.7,17.5l-0.9,1.4
		c-23.7,34.4-16.5,81.3,16.4,107c313.5,245.5,505.2,642.9,504.8,1055c0,1.5,0,3,0,4.6c-1.8,408.7-194.5,774.9-544.7,1039
		c-33.7,25.4-41.3,72.8-17.5,107.6l1,1.5c25.4,37,76.6,45.6,112.5,18.6c193.8-145.8,344.3-319.6,448.2-517.6
		c105.3-200.9,159.3-418.9,160.3-648.3c0-1.7,0-3.5,0-5.2C3000.2,1265.7,2941,1024.1,2828.7,806.6z"/>
	<path class="st0" d="M2368.4,1113.8c-59.6-129.6-145.4-247.1-255.6-350.5c-33.3-31.2-86-27.7-115,7.5l-1.1,1.4
		c-26.4,32-23.6,79.1,6.6,107.5c200.8,188.9,307.8,433.8,295.7,681.6c-10.7,218.9-114.2,418.5-286.6,557.3
		c-31.8,25.6-38.6,71.4-15.8,105.3l1,1.5c25.7,38.3,78.8,46.8,114.8,17.8c208.2-167.4,333.2-408.8,346.2-674.1
		C2466,1415.7,2434.8,1258.3,2368.4,1113.8z"/>
	<path class="st0" d="M1768.8,1217.2l-1,1c-24.2,24.2-27.3,62.2-7.6,90.2c80.8,115.3,80.8,270.3,0,385.6c-19.6,28-16.6,66,7.6,90.2
		l1,1c30.7,30.7,81.7,26.5,106.8-8.9c56.6-80,87.1-175.2,87.1-275.1c0-99.9-30.5-195.2-87.1-275.2
		C1850.5,1190.6,1799.5,1186.5,1768.8,1217.2z"/>
</g>
</svg>
