<?xml version="1.0" encoding="utf-8"?>
<!-- Generator: Adobe Illustrator 24.0.1, SVG Export Plug-In . SVG Version: 6.00 Build 0)  -->
<svg version="1.1" id="Layer_1" xmlns="http://www.w3.org/2000/svg" xmlns:xlink="http://www.w3.org/1999/xlink" x="0px" y="0px"
	 viewBox="0 0 3000 3000" style="enable-background:new 0 0 3000 3000;" xml:space="preserve">
<style type="text/css">
	.st0{fill:#244999;}
</style>
<g id="XMLID_589_">
	<g id="XMLID_588_">
		<path id="XMLID_3018_" class="st0" d="M610.5,1041.9c60.3,33.7,117.5,61.9,170.8,96.3c91.6,59.1,151.9,45.4,199.5-59.9
			c9.6-21.3,21.6-41.5,32.5-62.3c31.6-60.3,17.3-112.9-41.1-146.9c-62.6-36.4-125.7-71.9-188.5-107.8c-6.4-3.6-12.4-7.9-19.1-12.2
			c182.5-100.6,498.2-54.2,563.8,207.7c11.1,44.2,11.2,93.2,6.1,138.9c-8.7,77.8,8.6,142.7,67,196.6
			c96.1,88.6,191.4,178.2,286.6,267.8c165.9,156.2,331.4,312.7,497.1,469.1c48.5,45.8,58.6,100.7,26.2,159.1
			c-33.7,60.8-83.3,102.2-154.5,110.9c-42.5,5.2-75.9-13.3-104.6-43.9c-167.7-178.7-335.7-357-503.8-535.3
			c-80.2-85.1-161.6-169.1-240.6-255.2c-47.1-51.3-107.7-67.2-170.8-58.7c-109.8,14.9-201.3-17.8-281.5-88.7
			C674.5,1245.8,625.6,1156.1,610.5,1041.9z M2121.4,2124.3c0-39.6-32.8-73.3-72.2-74c-39.9-0.8-75.8,34.6-75.6,74.4
			c0.3,39.7,33,72.7,72.8,73.4C2088.1,2198.8,2121.5,2166,2121.4,2124.3z"/>
		<path id="XMLID_3017_" class="st0" d="M1719.2,1539.3c-64.9-60.4-127-118.2-192.5-179.2c25.4-24.1,48.6-47,72.7-68.8
			c57-51.5,77.2-115.3,65.9-190.3c-29.2-194.5,88.1-357.7,282.3-393c99.5-18.1,194.7-5.6,290.5,39.9c-13.2,8-23.3,14.5-33.7,20.4
			c-60,34.4-120.5,68-180.1,103c-53.7,31.5-68.2,84.2-39.8,139.6c18,35,36,70.1,55,104.5c31.8,57.5,85.9,73.4,143.4,41.7
			c67-36.9,133.5-74.6,206.5-115.5c-3.1,19.9-4.5,34-7.6,47.7c-31.5,139.7-158.6,311.3-360.3,321.1c-14.8,0.7-30,1-44.5-1.6
			c-77.2-14-141.9,6.5-194.3,65.9C1764,1496.3,1742.7,1515.7,1719.2,1539.3z"/>
		<path id="XMLID_3014_" class="st0" d="M1280.4,1594.9c64.5,68.7,128.5,136.9,194.3,206.9c-66.4,70.8-131.5,140.5-196.9,210
			c-73.7,78.3-147.3,156.7-221.4,234.5c-57.9,60.8-118,68-188.3,20.6c-56.3-38-99-87.5-91.7-160.2c2.7-26.1,17.9-56.3,37.1-74.7
			c151.2-145.3,304.8-288.1,457.6-431.7C1272.7,1599.1,1274.7,1598.3,1280.4,1594.9z M954.5,2047.8c-40.2,0.6-72.9,33.2-73.4,73
			c-0.4,39.5,35.9,75.7,75.5,74.9c39.2-0.7,72.5-34.6,72.6-73.8C1029.4,2080.4,995.9,2047.2,954.5,2047.8z"/>
	</g>
</g>
</svg>
