<?xml version="1.0" encoding="utf-8"?>
<!-- Generator: Adobe Illustrator 24.0.1, SVG Export Plug-In . SVG Version: 6.00 Build 0)  -->
<svg version="1.1" id="Layer_1" xmlns="http://www.w3.org/2000/svg" xmlns:xlink="http://www.w3.org/1999/xlink" x="0px" y="0px"
	 viewBox="0 0 3000 3000" style="enable-background:new 0 0 3000 3000;" xml:space="preserve">
<style type="text/css">
	.st0{fill:#244999;}
</style>
<g id="XMLID_558_">
</g>
<g id="XMLID_12_">
	<path id="XMLID_30_" class="st0" d="M2947.3,135.7v-3.4c0-26.2-9.7-89.6-100-113.8C2801.6,6.2,2750.4,0,2695.2,0H304.8
		c-55.2,0-106.3,6.2-152.1,18.4c-90.2,24.2-100,87.7-100,113.8v3.4l0.5,3.4c14.2,104.2,20.6,211.3,19.2,318.2
		C71,565.2,64.5,672.4,53,776.1l-0.3,5.6c0,16.7,5.6,48.2,43.2,72.1c20.1,12.8,42.5,20.3,66.6,22.4c22.9,2,46.4-0.9,69.6-8.6
		c34-11.3,57.1-37.5,63.5-72.1c22.5-110.3,47.8-200.6,74.9-268.4c25.4-63.4,58.8-113.9,99.4-150.2c39.7-35.6,91.5-60.4,153.9-73.8
		c67.6-14.5,156-21.8,262.7-21.8c152.9,0,224.5,19.3,257.6,35.6c36.3,17.8,54.7,68.9,54.7,151.9v1901.7c0,89.5-5.2,159.9-15.4,209.2
		c-8.7,42-24.8,73.9-47.9,95c-24.8,22.6-60.7,39.7-106.8,50.9c-51.8,12.6-124,23-214.6,31.1l-3.3,0.4c-32.8,5.1-58.9,22.9-75.5,51.5
		c-13.2,22.9-20,47.7-20,73.8c0,26.9,7.1,51.7,21.1,73.7c18.2,28.4,47.3,44,82.2,44c100.1,0,212.8-5.7,334.9-16.9
		c118.6-10.9,235.1-16.4,346.4-16.5c111.3,0,227.8,5.6,346.4,16.5c122.1,11.2,234.8,16.9,334.9,16.9c34.8,0,64-15.6,82.2-44
		c14-21.9,21.1-46.7,21.1-73.7c0-26.1-6.7-51-20-73.9c-16.6-28.5-42.6-46.3-75.5-51.5l-3.3-0.4c-90.5-8.1-162.7-18.6-214.6-31.1
		c-46-11.2-82-28.3-106.8-50.9c-23.1-21.1-39.2-53-47.9-95c-10.2-49.3-15.4-119.7-15.4-209.2V468.7c0-83,18.4-134.1,54.6-151.8
		c33.1-16.2,104.7-35.6,257.6-35.6c106.7,0,195.1,7.3,262.7,21.8c62.4,13.4,114.2,38.2,153.9,73.8c40.5,36.3,74,86.8,99.3,150.2
		c27.2,67.8,52.4,158.1,74.9,268.4c6.4,34.5,29.4,60.8,63.4,72c23.3,7.8,46.8,10.7,69.6,8.7c24.2-2.1,46.6-9.6,66.7-22.4
		c37.6-23.9,43.2-55.5,43.2-72.1l-0.3-5.6c-11.4-103.7-17.9-210.9-19.4-318.8c-1.4-106.9,5.1-214,19.2-318.2L2947.3,135.7z"/>
</g>
</svg>
