<?xml version="1.0" encoding="utf-8"?>
<!-- Generator: Adobe Illustrator 24.0.1, SVG Export Plug-In . SVG Version: 6.00 Build 0)  -->
<svg version="1.1" id="Layer_1" xmlns="http://www.w3.org/2000/svg" xmlns:xlink="http://www.w3.org/1999/xlink" x="0px" y="0px"
	 viewBox="0 0 3000 3000" style="enable-background:new 0 0 3000 3000;" xml:space="preserve">
<style type="text/css">
	.st0{fill-rule:evenodd;clip-rule:evenodd;fill:#FFFFFF;}
</style>
<path class="st0" d="M2895,963H1403.1V307.2c0-58-47-105-105-105c-28,0-54.7,11.2-74.4,30.9L435.9,1021c-2.3,1.9-4.5,3.8-6.6,6
	l-0.1,0.2L30.8,1425.5C11,1445.2,0.1,1471.9,0,1499.8v0.2h0c0,28.3,11,55.4,31.4,75.3l398.1,398.1c2,2,4,3.8,6.2,5.6l788.1,788.2
	c41,41,107.5,41,148.5,0c19.7-19.7,30.7-46.4,30.7-74.2l0.1-656H2895c58,0,105-47,105-105v-432v-432C3000,1010,2953,963,2895,963z"
	/>
<g id="Master_Layer_4">
</g>
</svg>
