<?xml version="1.0" encoding="utf-8"?>
<!-- Generator: Adobe Illustrator 24.0.1, SVG Export Plug-In . SVG Version: 6.00 Build 0)  -->
<svg version="1.1" id="Layer_1" xmlns="http://www.w3.org/2000/svg" xmlns:xlink="http://www.w3.org/1999/xlink" x="0px" y="0px"
	 viewBox="0 0 3000 1392.6" style="enable-background:new 0 0 3000 1392.6;" xml:space="preserve">
<style type="text/css">
	.st0{opacity:0.6;}
	.st1{fill:#091121;}
	.st2{fill:#FEA838;}
	.st3{fill:#FFFFFF;}
	.st4{fill:url(#SVGID_1_);}
	.st5{opacity:0.5;fill:#FFFFFF;}
	.st6{fill:#938B84;}
	.st7{fill:url(#SVGID_2_);}
	.st8{opacity:0.25;fill:#FFFFFF;}
	.st9{fill:#ED4D01;}
	.st10{fill:#040F2C;}
	.st11{fill:url(#SVGID_3_);}
	.st12{fill:url(#SVGID_4_);}
	.st13{fill:url(#SVGID_5_);}
	.st14{fill:url(#SVGID_6_);}
	.st15{fill:#FBA056;}
	.st16{fill:url(#SVGID_7_);}
	.st17{fill:url(#SVGID_8_);}
	.st18{fill:url(#SVGID_9_);}
	.st19{fill:url(#SVGID_10_);}
	.st20{fill:url(#SVGID_11_);}
	.st21{fill:url(#SVGID_12_);}
	.st22{fill:url(#SVGID_13_);}
	.st23{fill:url(#SVGID_14_);}
	.st24{fill:url(#SVGID_15_);}
	.st25{fill:#FA8A3F;}
	.st26{fill:#0A0C17;}
	.st27{fill:url(#SVGID_16_);}
	.st28{fill:url(#SVGID_17_);}
	.st29{fill:url(#SVGID_18_);}
	.st30{fill:url(#SVGID_19_);}
	.st31{fill:url(#SVGID_20_);}
	.st32{fill:url(#SVGID_21_);}
	.st33{fill:#8A827B;}
	.st34{fill:url(#SVGID_22_);}
	.st35{fill:#F8893E;}
	.st36{fill:url(#SVGID_23_);}
	.st37{fill:url(#SVGID_24_);}
	.st38{fill:url(#SVGID_25_);}
	.st39{fill:url(#SVGID_26_);}
	.st40{fill:url(#SVGID_27_);}
	.st41{fill:#BAB5AC;}
	.st42{fill:#978F87;}
	.st43{fill:url(#SVGID_28_);}
	.st44{fill:url(#SVGID_29_);}
	.st45{fill:url(#SVGID_30_);}
	.st46{fill:url(#SVGID_31_);}
	.st47{fill:url(#SVGID_32_);}
	.st48{fill:url(#SVGID_33_);}
	.st49{fill:url(#SVGID_34_);}
	.st50{fill:url(#SVGID_35_);}
	.st51{fill:url(#SVGID_36_);}
	.st52{fill:url(#SVGID_37_);}
	.st53{fill:#65BDD8;}
	.st54{fill:url(#SVGID_38_);}
	.st55{fill:url(#SVGID_39_);}
	.st56{fill:url(#SVGID_40_);}
	.st57{fill:url(#SVGID_41_);}
	.st58{fill:url(#SVGID_42_);}
	.st59{fill:url(#SVGID_43_);}
	.st60{fill:url(#SVGID_44_);}
	.st61{fill:url(#SVGID_45_);}
	.st62{fill:#74459E;}
	.st63{fill:#340E7D;}
	.st64{fill:url(#SVGID_46_);}
</style>
<g class="st0">
	<g>
		<g>
			<g>
				<g>
					<g>
						<g>
							<g>
								<path class="st1" d="M2828.7,1283.3c0,8.4-6.9,15.3-15.3,15.3h-2630c-8.4,0-15.3-6.9-15.3-15.3v-7.1
									c0-8.4,6.9-15.3,15.3-15.3h2630c8.4,0,15.3,6.9,15.3,15.3V1283.3z"/>
							</g>
						</g>
					</g>
				</g>
			</g>
		</g>
	</g>
	<g>
		<g>
			<g>
				<g>
					<g>
						<g>
							<g>
								<g>
									<path class="st1" d="M2856.2,1276.2c0-8.4,6.9-15.3,15.3-15.3h42.1c8.4,0,15.3,6.9,15.3,15.3v7.1c0,8.4-6.9,15.3-15.3,15.3
										h-42.1c-8.4,0-15.3-6.9-15.3-15.3V1276.2z"/>
								</g>
							</g>
						</g>
					</g>
				</g>
			</g>
		</g>
		<g>
			<g>
				<g>
					<g>
						<g>
							<g>
								<g>
									<path class="st1" d="M2956,1276.2c0-8.4,6.9-15.3,15.3-15.3h13.4c8.4,0,15.3,6.9,15.3,15.3v7.1c0,8.4-6.9,15.3-15.3,15.3
										h-13.4c-8.4,0-15.3-6.9-15.3-15.3V1276.2z"/>
								</g>
							</g>
						</g>
					</g>
				</g>
			</g>
		</g>
	</g>
	<g>
		<g>
			<g>
				<g>
					<g>
						<g>
							<g>
								<g>
									<path class="st1" d="M143.8,1283.3c0,8.4-6.9,15.3-15.3,15.3H86.4c-8.4,0-15.3-6.9-15.3-15.3v-7.1
										c0-8.4,6.9-15.3,15.3-15.3h42.1c8.4,0,15.3,6.9,15.3,15.3V1283.3z"/>
								</g>
							</g>
						</g>
					</g>
				</g>
			</g>
		</g>
		<g>
			<g>
				<g>
					<g>
						<g>
							<g>
								<g>
									<path class="st1" d="M44,1283.3c0,8.4-6.9,15.3-15.3,15.3H15.3c-8.4,0-15.3-6.9-15.3-15.3v-7.1c0-8.4,6.9-15.3,15.3-15.3
										h13.4c8.4,0,15.3,6.9,15.3,15.3V1283.3z"/>
								</g>
							</g>
						</g>
					</g>
				</g>
			</g>
		</g>
	</g>
</g>
<g>
	<g>
		<g>
			<path class="st2" d="M2602.3,1279.7c-1.2-2.1-1.8-3.2-1.8-3.2s-22.4-66,30.5-142.1c52.9-76.1,77.9-86.7,77.9-86.7
				s77.4,118.3,85.6,205c0.9,9.5,0.9,18.5,0.1,27H2602.3z"/>
			<path class="st3" d="M2599.5,1279.7l-0.1-0.2c-0.1-0.1-0.1-0.2-0.1-0.2c-0.9-2.7-22-67.3,30.6-143.2
				c51.6-74.2,76.5-86.3,78.3-87.1l0.1-0.1c0.1,0,0.1,0,0.1,0h0l0.3,0l0.2,0l0.2,0l0.2,0l0.2,0.1l0.2,0.1l0.1,0.1
				c0,0,0.1,0.1,0.1,0.1l0.1,0.1l0.1,0.1c4.5,6.9,77.6,120.5,85.7,205.4c0.7,6.9,0.8,14,0.5,21l0,0.2c0,1.1-0.1,2.3-0.2,3.6h-2.6
				l0.1-1.8l-4,1.8h-6.2l10.4-4.7l0-1.5c0.2-6-0.1-12.2-0.6-18.4c-0.7-7.8-2.1-16.2-4-25.1l-0.7-3.1l-100,52.7h-5.5l104.9-55.2
				l-0.5-1.8c-3.1-12.6-7.5-26.3-12.8-40.7l-0.9-2.5l-104.3,50.9l-0.1,1.4c-1.2,15.9-1.8,32-1.9,47.9h-2.6
				c0.1-15.8,0.7-31.9,1.9-47.8l0.1-1.5l-62.1-37.5l-0.9,3c-4.6,16.2-6.9,32.6-6.7,48.8l0,1.3l54.4,33.6h-4.9l-49.5-30.6l0.3,4.6
				c1,13.8,3.5,22.7,4,24.3l0.1,0.3c0,0,0.6,1,0.8,1.4H2599.5z M2633.4,1135.5l-1.4,2c-11.3,16.3-20.1,33.5-25.9,51.2l-0.6,1.8
				l61.5,37.1l0.3-3.8c1.6-19.1,4.1-38.1,7.3-56.6l0.3-1.4l-39.3-29L2633.4,1135.5z M2750.8,1127.6l-73.4,38.3l-0.2,1.2
				c-3.2,18.3-5.6,37.3-7.3,56.3l-0.4,4.2l103.1-50.4l-0.8-2c-5.6-14.4-12.4-29.6-20-45.3L2750.8,1127.6z M2666.3,1092.1l-1.4,1.7
				c-9,10.9-18.6,23.5-28.5,37.5l-1.4,1.9l40.3,29.7l0.7-3.7c3.1-16.9,7-33.6,11.4-49.6l0.4-1.6L2666.3,1092.1z M2728.5,1085.3
				l-38.1,22.9l-0.3,0.9c-4.4,15.7-8.1,32.1-11.3,48.8l-0.9,4.8l71.7-37.4l-1-2.1c-5.9-11.8-12.3-23.8-19-35.7L2728.5,1085.3z
				 M2706.4,1052.4l-6.9,5.6c-6,4.9-16.1,14.1-29.9,30.2l-1.7,1.9l20.6,15.2l1-3.3c4.1-14.1,8.7-28,13.8-41.3L2706.4,1052.4z
				 M2709.1,1052.8l-1.7,4.4c-5.2,13.3-10,27.2-14.2,41.5l-1.8,5.9l35.8-21.6l-1.2-2c-6.1-10.7-11.2-19.1-14.4-24.2L2709.1,1052.8z"
				/>
		</g>
		<g>
			<linearGradient id="SVGID_1_" gradientUnits="userSpaceOnUse" x1="2276.9204" y1="1064.6132" x2="2216.3218" y2="1331.2468">
				<stop  offset="0" style="stop-color:#FE9E1A"/>
				<stop  offset="1" style="stop-color:#FF5B00"/>
			</linearGradient>
			<path class="st4" d="M2320.6,1279.7c15.3-25.7,33-67.6,12.8-101.6c-31.4-52.9,42.7-111.2-9.9-143.8
				c-52.5-32.6-148.5,67.8-175.5,153.6c-9.3,29.7-10.8,61.6-7.1,91.8H2320.6z"/>
			<path class="st5" d="M2313.8,1270.1l-56.8,9.6h28.2l29.3-5c0.4-0.1,0.7-0.2,1-0.4c0.7-0.5,1.1-1.4,0.9-2.3
				C2316.3,1270.8,2315.1,1269.9,2313.8,1270.1z M2328.5,1084.1c-0.4-1.2-1.8-1.9-3-1.4l-34.4,12.4c11.6-29.1,20.8-47.7,21-48.3
				c0.6-1.2,0.1-2.6-1.1-3.2c-1.2-0.6-2.6-0.1-3.2,1.1c-0.3,0.5-10.4,21.2-22.9,53.1c-0.2,0.3-0.3,0.5-0.3,0.8
				c-5.6,14.2-11.6,30.7-17.3,48.6l-46.1-60.3c-0.8-1-2.3-1.3-3.3-0.4c-1,0.8-1.2,2.3-0.4,3.3l48.1,62.9
				c-4.3,13.6-8.4,27.9-12.1,42.6c-0.2,0.3-0.3,0.7-0.3,1.1c-3.8,15.2-7.1,30.9-9.7,46.6l-74.9-65.4c-1-0.9-2.5-0.8-3.3,0.2
				c-0.9,1-0.8,2.5,0.2,3.3l77.1,67.4c-1.6,10.4-2.8,20.8-3.6,31.1h4.7c2.1-27.2,7.2-54.9,13.7-81.3l63.9-15.4
				c0.3-0.1,0.6-0.2,0.8-0.4c0.7-0.5,1.1-1.5,0.9-2.5c-0.3-1.3-1.6-2-2.8-1.7l-61.5,14.8c8.9-34.8,20.1-67.1,30-92.4l38.3-13.8
				c0.2-0.1,0.4-0.2,0.6-0.3C2328.5,1086.2,2328.8,1085.1,2328.5,1084.1z"/>
		</g>
		<path class="st2" d="M2419.7,1279.7c4.3-17.2,11.5-33.1,17.4-52.6c12.1-39.9,29.8-119.4-35.7-136.6
			c-59.4-15.6-114.2,95.9-104.5,189.2H2419.7z"/>
		<path class="st6" d="M2346.5,1279.7c9.7-80.6,48.3-147.2,48.8-148.1c0.7-1.1,0.3-2.6-0.8-3.2c-1.1-0.7-2.6-0.3-3.2,0.8
			c-0.5,0.8-39.8,68.6-49.5,150.4H2346.5z"/>
		<g>
			<g>
				<linearGradient id="SVGID_2_" gradientUnits="userSpaceOnUse" x1="2491.7285" y1="1100.285" x2="2491.7285" y2="1308.8619">
					<stop  offset="0" style="stop-color:#FE9E1A"/>
					<stop  offset="1" style="stop-color:#FF5B00"/>
				</linearGradient>
				<path class="st7" d="M2564.3,1191.7c13,35.8-18.1,72.4-33.9,88.1h-135.5c-3.3-34.9,1.2-75,19.2-108.5
					c34.7-64.7,127-130.5,164.1-96.4C2615.4,1109,2547.1,1144.4,2564.3,1191.7z"/>
			</g>
			<path class="st8" d="M2573.2,1118.8l-32.3,5.2c-11.5,18.3-24.9,41.6-37.1,67.3l49.8-2.4c1.7-0.1,3.1,1.2,3.2,2.9
				c0.1,1.7-1.2,3.1-2.9,3.2l-53,2.6c-9.2,20-17.4,41.4-23.2,62.7l56.8,1.2c1.7,0,3,1.4,3,3.1c0,1.7-1.4,3-3.1,3l-58.2-1.2
				c-1.1,4.5-2.1,9-3,13.6h-6.2c2.8-15.1,7.1-30.3,12.4-45.2l-51.2-65.3c-1-1.3-0.8-3.2,0.5-4.2c1.3-1,3.2-0.8,4.2,0.5v0l48.9,62.3
				c4.3-11.6,9.1-23,14.2-34.1c0.1-0.3,0.2-0.6,0.4-0.8c5.1-11.1,10.6-21.9,16-32l-28.7-57.2c-0.7-1.5-0.1-3.3,1.3-4
				c1.5-0.7,3.3-0.1,4,1.3l26.8,53.5c7.1-12.8,14-24.5,20.4-34.6c0.1-0.2,0.2-0.4,0.4-0.6c14.9-23.7,26.2-38.7,26.5-39.1
				c1-1.3,2.9-1.6,4.2-0.6c1.3,1,1.6,2.9,0.6,4.2c-0.3,0.4-9.8,13-22.9,33.4l27.1-4.3c1.6-0.3,3.2,0.9,3.5,2.5
				C2576,1117,2574.9,1118.5,2573.2,1118.8z"/>
		</g>
		<g>
			<path class="st9" d="M2523.9,1279.7c-25.7-62.3-10.8-150.8,40-155.7c51.4-5,71.1,56.2,76.3,90.8c3.6,24.1,2.6,43.6,11.3,64.9
				H2523.9z"/>
			<path class="st6" d="M2588,1279.7h-4.3c-18.6-62.4-13.7-121.9-13.6-122.7c0.1-1.1,1.1-2,2.3-1.9c0,0,0,0,0,0
				c1.1,0.1,1.9,1.1,1.8,2.3C2574.2,1158.1,2569.3,1217.7,2588,1279.7z"/>
		</g>
	</g>
	<path class="st10" d="M2628.3,536.2c0,0-9.7-8.7-8.4-17.7c1.3-9,7-10.8,6.1-13.9c-1.8-6,2.1-22.9,8.5-31.6
		c8.5-11.6,18.2-26,56.5-14.1c23.9,7.4,33.2,42.1,34.8,89.9c0.8,22.4,24.5,27.2,37.7,32.3c24.2,9.4,27.1,32.7,22.3,51.9
		c-4.1,16.2-15,15.2-15.6,18c-1.7,7.4-3.5,41-55.1,33.5c-31-4.5-69.1,9.9-105.2-24.6c-36.2-34.5-21.1-78.9-6.4-94.1
		C2618,550.3,2628.3,536.2,2628.3,536.2z"/>
	<linearGradient id="SVGID_3_" gradientUnits="userSpaceOnUse" x1="2055.4253" y1="673.6691" x2="2055.4253" y2="175.6046">
		<stop  offset="0" style="stop-color:#FE9E1A"/>
		<stop  offset="1" style="stop-color:#FF5B00"/>
	</linearGradient>
	<path class="st11" d="M2236.9,343.1c-6.8,0-13.4,1.3-19.4,3.5c-0.2,0.1-0.4,0.1-0.5,0.2c-0.5,0.2-0.9,0.4-1.4,0.6
		c-0.1,0-0.2,0.1-0.3,0.1c-0.4,0.2-0.9,0.4-1.3,0.6c-0.6,0.3-1.2,0.5-1.7,0.8c-13.6,6.8-39.2,22.2-40.4,9.9V233.9
		c0-6.7-5.5-12.1-12.1-12.1h-124.9c-12.3-1.3,3.1-26.8,9.9-40.4c0.3-0.6,0.6-1.2,0.8-1.7c0.2-0.4,0.4-0.9,0.6-1.3
		c0-0.1,0.1-0.2,0.1-0.3c0.2-0.5,0.4-0.9,0.6-1.4c0.1-0.2,0.1-0.4,0.2-0.5c2.3-6,3.5-12.6,3.5-19.4c0-30.5-24.7-55.1-55.1-55.1
		c-30.5,0-55.1,24.7-55.1,55.1c0,6.8,1.3,13.4,3.5,19.4c0.1,0.2,0.1,0.4,0.2,0.5c0.2,0.5,0.4,0.9,0.6,1.4c0,0.1,0.1,0.2,0.1,0.3
		c0.2,0.4,0.4,0.9,0.6,1.3c0.3,0.6,0.5,1.2,0.8,1.7c6.8,13.6,22.2,39.2,9.9,40.4H1831c-6.7,0-12.1,5.5-12.1,12.1v124.9
		c1.3,12.3,26.8-3.1,40.4-9.9c0.6-0.3,1.2-0.6,1.7-0.8c0.4-0.2,0.9-0.4,1.3-0.6c0.1,0,0.2-0.1,0.3-0.1c0.5-0.2,0.9-0.4,1.4-0.6
		c0.2-0.1,0.4-0.1,0.5-0.2c6-2.3,12.6-3.5,19.4-3.5c30.4,0,55.1,24.7,55.1,55.1c0,30.5-24.7,55.1-55.1,55.1
		c-6.8,0-13.4-1.3-19.4-3.5c-0.2-0.1-0.4-0.1-0.5-0.2c-0.5-0.2-0.9-0.4-1.4-0.6c-0.1,0-0.2-0.1-0.3-0.1c-0.4-0.2-0.9-0.4-1.3-0.6
		c-0.6-0.3-1.2-0.5-1.7-0.8c-13.6-6.8-39.2-22.2-40.4-9.9v124.9c0,6.7,5.5,12.1,12.1,12.1h124.9c12.3-1.3-3.1-26.8-9.9-40.4
		c-0.3-0.6-0.6-1.2-0.8-1.7c-0.2-0.4-0.4-0.9-0.6-1.3c0-0.1-0.1-0.2-0.1-0.3c-0.2-0.5-0.4-0.9-0.6-1.4c-0.1-0.2-0.1-0.4-0.2-0.5
		c-2.3-6-3.5-12.6-3.5-19.4c0-30.5,24.7-55.1,55.1-55.1c30.4,0,55.1,24.7,55.1,55.1c0,6.8-1.3,13.4-3.5,19.4
		c-0.1,0.2-0.1,0.4-0.2,0.5c-0.2,0.5-0.4,0.9-0.6,1.4c0,0.1-0.1,0.2-0.1,0.3c-0.2,0.4-0.4,0.9-0.6,1.3c-0.3,0.6-0.5,1.2-0.8,1.7
		c-6.8,13.6-22.2,39.2-9.9,40.4h124.9c6.7,0,12.1-5.5,12.1-12.1V437.5c1.3-12.3,26.8,3.1,40.4,9.9c0.6,0.3,1.2,0.6,1.7,0.8
		c0.4,0.2,0.9,0.4,1.3,0.6c0.1,0,0.2,0.1,0.3,0.1c0.5,0.2,0.9,0.4,1.4,0.6c0.2,0.1,0.4,0.1,0.5,0.2c6,2.3,12.6,3.5,19.4,3.5
		c30.5,0,55.1-24.7,55.1-55.1C2292,367.7,2267.3,343.1,2236.9,343.1z"/>
	<g>
		<linearGradient id="SVGID_4_" gradientUnits="userSpaceOnUse" x1="1889.7058" y1="-604.4694" x2="1889.7058" y2="1402.4774">
			<stop  offset="0" style="stop-color:#FFFFFF"/>
			<stop  offset="1" style="stop-color:#8E857E"/>
		</linearGradient>
		<path class="st12" d="M1831,545.5v-92.4c5.6,2.3,12.9,6.1,16.3,7.9c2.4,1.2,4.6,2.4,6.5,3.4c0.7,0.3,1.4,0.7,2.1,1
			c0.5,0.2,1.1,0.5,1.6,0.7l0.3,0.1c0.6,0.3,1.2,0.5,1.8,0.7c0.3,0.1,0.6,0.2,0.9,0.3c7.5,2.8,15.4,4.2,23.4,4.2
			c37.1,0,67.3-30.2,67.3-67.3c0-37.1-30.2-67.3-67.3-67.3c-8,0-15.9,1.4-23.5,4.2c-0.3,0.1-0.6,0.2-0.9,0.3
			c-0.6,0.2-1.2,0.5-1.7,0.7l-0.4,0.2c-0.5,0.2-1.1,0.5-1.6,0.7c-0.7,0.3-1.4,0.7-2,1c-2,1-4.2,2.1-6.6,3.4
			c-3.4,1.8-10.7,5.6-16.3,7.9V240c0-6.3-2.4-12-6.4-16.3c-3.4,2.1-5.7,6-5.7,10.3v124.9c1.2,12.3,26.8-3.1,40.4-9.9
			c0.6-0.3,1.2-0.6,1.7-0.8c0.4-0.2,0.9-0.4,1.3-0.6c0.1,0,0.2-0.1,0.3-0.1c0.5-0.2,0.9-0.4,1.4-0.6c0.2-0.1,0.4-0.1,0.5-0.2
			c6-2.3,12.6-3.5,19.4-3.5c30.4,0,55.1,24.7,55.1,55.1c0,30.5-24.7,55.1-55.1,55.1c-6.8,0-13.4-1.3-19.4-3.5
			c-0.2-0.1-0.4-0.1-0.5-0.2c-0.5-0.2-0.9-0.4-1.4-0.6c-0.1,0-0.2-0.1-0.3-0.1c-0.4-0.2-0.9-0.4-1.3-0.6c-0.6-0.3-1.2-0.5-1.7-0.8
			c-13.6-6.8-39.2-22.2-40.4-9.9v124.9c0,0.4,0,0.8,0.1,1.2c0,0.1,0,0.2,0,0.3c0,0.3,0.1,0.6,0.1,0.9c0,0.1,0.1,0.3,0.1,0.4
			c0.1,0.2,0.1,0.5,0.2,0.7c0.1,0.2,0.1,0.3,0.2,0.5c0.1,0.2,0.1,0.4,0.2,0.6c0.1,0.2,0.2,0.4,0.3,0.5c0.1,0.2,0.1,0.3,0.2,0.5
			c0.1,0.2,0.2,0.4,0.3,0.6c0.1,0.1,0.2,0.3,0.2,0.4c0.1,0.2,0.3,0.4,0.4,0.6c0.1,0.1,0.2,0.2,0.2,0.3c0.2,0.2,0.3,0.4,0.5,0.6
			c0.1,0.1,0.1,0.2,0.2,0.2c0.2,0.2,0.4,0.4,0.6,0.6c0.1,0.1,0.1,0.1,0.2,0.2c0.2,0.2,0.5,0.4,0.7,0.6c0.1,0,0.1,0.1,0.2,0.1
			c0.3,0.2,0.5,0.4,0.8,0.5c0,0,0.1,0,0.1,0.1c0.3,0.2,0.6,0.3,0.9,0.5c0,0,0.1,0,0.1,0c0.3,0.2,0.6,0.3,1,0.4c0,0,0,0,0,0
			c0.3,0.1,0.7,0.2,1.1,0.3c0,0,0,0,0,0c0.4,0.1,0.7,0.2,1.1,0.2c0,0,0,0,0,0c0.6,0.1,1.3,0.2,2,0.2h124.9c9.4-1,2.7-16-4.1-29.1
			H1831z"/>
		<linearGradient id="SVGID_5_" gradientUnits="userSpaceOnUse" x1="2209.9993" y1="-241.531" x2="2209.9993" y2="941.2197">
			<stop  offset="0" style="stop-color:#FFFFFF"/>
			<stop  offset="1" style="stop-color:#8E857E"/>
		</linearGradient>
		<path class="st13" d="M2291.9,394.8c0-0.3,0-0.6-0.1-0.8c-0.1-0.9-0.2-1.9-0.3-2.8c0-0.2,0-0.4-0.1-0.6
			c-3.7-26.8-26.7-47.5-54.6-47.5c-6.8,0-13.4,1.3-19.4,3.5c-0.2,0.1-0.4,0.1-0.5,0.2c-0.5,0.2-0.9,0.4-1.4,0.6
			c-0.1,0-0.2,0.1-0.3,0.1c-0.4,0.2-0.9,0.4-1.3,0.6c-0.6,0.3-1.2,0.5-1.7,0.8c-13.6,6.8-39.2,22.2-40.4,9.9V246.5h-19.4
			c-13.4,0-24.2,10.9-24.2,24.2v124.9c0,0.4,0,0.8,0.1,1.2c0.9,9.3,8,15.5,17.7,15.5c9.2,0,20.4-5.5,34.1-12.6
			c2.2-1.2,4.3-2.2,6.2-3.2c0.5-0.2,0.9-0.4,1.4-0.7c0.4-0.2,0.7-0.3,1-0.5v0l0.3-0.1c0.3-0.1,0.6-0.3,0.9-0.4
			c0.2-0.1,0.4-0.1,0.5-0.2c4.9-1.8,10-2.8,15.2-2.8c19.7,0,36.3,13.3,41.4,31.3c-3.2,0.6-6.5,0.9-9.9,0.9c-6.8,0-13.4-1.3-19.4-3.5
			c-0.2-0.1-0.4-0.1-0.5-0.2c-0.5-0.2-0.9-0.4-1.4-0.6c-0.1,0-0.2-0.1-0.3-0.1c-0.4-0.2-0.9-0.4-1.3-0.6c-0.6-0.3-1.2-0.5-1.7-0.8
			c-13.6-6.8-39.2-22.2-40.4-9.9v29.1c1.3-12.3,26.8,3.1,40.4,9.9c0.6,0.3,1.2,0.6,1.7,0.8c0.4,0.2,0.9,0.4,1.3,0.6
			c0.1,0,0.2,0.1,0.3,0.1c0.5,0.2,0.9,0.4,1.4,0.6c0.2,0.1,0.4,0.1,0.5,0.2c6,2.3,12.6,3.5,19.4,3.5c3.4,0,6.8-0.3,10-0.9
			c0,0,0.1,0,0.1,0c0.8-0.1,1.5-0.3,2.3-0.5c0.1,0,0.1,0,0.2,0c0.8-0.2,1.5-0.4,2.2-0.6c0.1,0,0.1,0,0.2-0.1
			c0.7-0.2,1.5-0.4,2.2-0.7c0,0,0.1,0,0.1,0c5.4-1.8,10.5-4.4,15-7.7c0,0,0.1,0,0.1-0.1c0.6-0.4,1.1-0.8,1.7-1.3
			c0.1-0.1,0.2-0.2,0.3-0.3c0.5-0.4,1-0.8,1.5-1.2c0.2-0.1,0.3-0.3,0.5-0.4c0.5-0.4,0.9-0.8,1.3-1.2c0.2-0.2,0.4-0.3,0.5-0.5
			c0.4-0.4,0.8-0.8,1.2-1.2c0.2-0.2,0.4-0.4,0.6-0.6c0.4-0.4,0.8-0.8,1.1-1.2c0.2-0.2,0.4-0.4,0.6-0.6c0.4-0.4,0.7-0.8,1.1-1.3
			c0.2-0.2,0.4-0.5,0.5-0.7c0.3-0.4,0.7-0.9,1-1.3c0.2-0.2,0.3-0.5,0.5-0.7c0.3-0.4,0.6-0.9,0.9-1.3c0.1-0.2,0.3-0.4,0.4-0.6
			c0.6-0.9,1.2-1.9,1.7-2.9c0.1-0.2,0.3-0.5,0.4-0.7c0.2-0.4,0.4-0.8,0.6-1.2c0.2-0.4,0.4-0.7,0.6-1.1c0.2-0.4,0.4-0.8,0.5-1.1
			c0.2-0.4,0.4-0.8,0.5-1.2c0.2-0.4,0.3-0.8,0.5-1.1c0.2-0.4,0.3-0.8,0.5-1.3c0.1-0.4,0.3-0.8,0.4-1.2c0.2-0.4,0.3-0.9,0.4-1.3
			c0.1-0.4,0.2-0.8,0.4-1.2c0.1-0.5,0.3-0.9,0.4-1.4c0.1-0.4,0.2-0.8,0.3-1.2c0.1-0.5,0.2-0.9,0.3-1.4c0.1-0.4,0.2-0.8,0.2-1.1
			c0.1-0.5,0.2-1,0.3-1.5c0.1-0.4,0.1-0.7,0.2-1.1c0.1-0.5,0.1-1.1,0.2-1.6c0-0.4,0.1-0.7,0.1-1.1c0.1-0.6,0.1-1.2,0.1-1.8
			c0-0.3,0-0.6,0.1-0.9c0-0.9,0.1-1.8,0.1-2.7C2292,397,2291.9,395.9,2291.9,394.8z"/>
		<linearGradient id="SVGID_6_" gradientUnits="userSpaceOnUse" x1="2100.8289" y1="181.6122" x2="2100.8289" y2="850.518">
			<stop  offset="0" style="stop-color:#FFFFFF"/>
			<stop  offset="1" style="stop-color:#8E857E"/>
		</linearGradient>
		<path class="st14" d="M2128.1,473.1c0,0.4-0.1,0.8-0.1,1.2v71.1h-89.3c-6.7,13.1-13.4,28.1-4.1,29.1h93.4h31.5
			c6.7,0,12.1-5.5,12.1-12.1v-29.1v-67.3c-10.1-5-18.7-8.5-25.9-8.5C2136.1,457.6,2129,463.9,2128.1,473.1z"/>
	</g>
	<g>
		<g>
			<path class="st15" d="M2373,624.1c-3.3-2-12.6-7.4-15.6-4.3c-2,2,2.9,7.7,6.2,9.9c1.2,0.8,6,0.1,9.4,7.8
				c2.4,5.5,12.7,1.3,12.7,1.3S2381,628.9,2373,624.1z"/>
			<path class="st15" d="M2495.9,636.9c-28.4,12-91.3,15.8-105.7,16.8c-7.4,0.5-15.6,9.8-32.1,8.2c-9.5-0.9-17-16.2-11.8-28.4
				c2.1-4.9,27.8-11.3,39.4,5.2c8.2,0.8,69.2-17.5,89.7-22.7c9.3-2.4,25.2-13.4,25.7-1.8C2501.9,627.8,2506.5,632.5,2495.9,636.9z"
				/>
		</g>
		<g>
			<path class="st15" d="M2512.8,595.6c0,0-24.4,18.9-30.6,25.8c-4.5,4.9,2.9,10.6,7.4,14.1c4.5,3.5,24.9-2.1,39.8-12
				C2540.7,615.8,2515.5,595.4,2512.8,595.6z"/>
			<linearGradient id="SVGID_7_" gradientUnits="userSpaceOnUse" x1="2434.9346" y1="682.8676" x2="2590.0674" y2="582.6775">
				<stop  offset="0" style="stop-color:#FE1B01"/>
				<stop  offset="0.1597" style="stop-color:#FE2002"/>
				<stop  offset="0.3377" style="stop-color:#FE2E05"/>
				<stop  offset="0.5245" style="stop-color:#FE4409"/>
				<stop  offset="0.7173" style="stop-color:#FE620E"/>
				<stop  offset="0.913" style="stop-color:#FE8A15"/>
				<stop  offset="1" style="stop-color:#FE9E1B"/>
			</linearGradient>
			<path class="st16" d="M2591.1,541.5c-23.4,10.5-94.8,59.7-94.8,59.7s-0.7,8.5,7.4,23c12.2,21.8,22.3,25.6,22.3,25.6
				s53.7-22,88.4-40.2c27.4-14.4,37.2-42.9,23.1-62.5C2625.9,531.1,2604.1,535.7,2591.1,541.5z"/>
		</g>
	</g>
	<linearGradient id="SVGID_8_" gradientUnits="userSpaceOnUse" x1="1808.0099" y1="338.0271" x2="734.0248" y2="338.0271">
		<stop  offset="0" style="stop-color:#63BCD8"/>
		<stop  offset="1" style="stop-color:#3D7EB8"/>
	</linearGradient>
	<path class="st17" d="M1400.9,343.1c6.8,0,13.4,1.3,19.4,3.5c0.2,0.1,0.4,0.1,0.5,0.2c0.5,0.2,0.9,0.4,1.4,0.6
		c0.1,0,0.2,0.1,0.3,0.1c0.4,0.2,0.9,0.4,1.3,0.6c0.6,0.3,1.2,0.5,1.7,0.8c13.6,6.8,39.2,22.2,40.4,9.9V233.9
		c0-6.7-5.5-12.1-12.1-12.1H1329c-12.3-1.3,3.1-26.8,9.9-40.4c0.3-0.6,0.6-1.2,0.8-1.7c0.2-0.4,0.4-0.9,0.6-1.3
		c0-0.1,0.1-0.2,0.1-0.3c0.2-0.5,0.4-0.9,0.6-1.4c0.1-0.2,0.1-0.4,0.2-0.5c2.3-6,3.5-12.6,3.5-19.4c0-30.5-24.7-55.1-55.1-55.1
		s-55.1,24.7-55.1,55.1c0,6.8,1.3,13.4,3.5,19.4c0.1,0.2,0.1,0.4,0.2,0.5c0.2,0.5,0.4,0.9,0.6,1.4c0,0.1,0.1,0.2,0.1,0.3
		c0.2,0.4,0.4,0.9,0.6,1.3c0.3,0.6,0.5,1.2,0.8,1.7c6.8,13.6,22.2,39.2,9.9,40.4h-124.9c-6.7,0-12.1,5.5-12.1,12.1v124.9
		c-1.3,12.3-26.8-3.1-40.4-9.9c-0.6-0.3-1.2-0.6-1.7-0.8c-0.4-0.2-0.9-0.4-1.3-0.6c-0.1,0-0.2-0.1-0.3-0.1c-0.5-0.2-0.9-0.4-1.4-0.6
		c-0.2-0.1-0.4-0.1-0.5-0.2c-6-2.3-12.6-3.5-19.4-3.5c-30.4,0-55.1,24.7-55.1,55.1c0,30.5,24.7,55.1,55.1,55.1
		c6.8,0,13.4-1.3,19.4-3.5c0.2-0.1,0.4-0.1,0.5-0.2c0.5-0.2,0.9-0.4,1.4-0.6c0.1,0,0.2-0.1,0.3-0.1c0.4-0.2,0.9-0.4,1.3-0.6
		c0.6-0.3,1.2-0.5,1.7-0.8c13.6-6.8,39.2-22.2,40.4-9.9v124.9c0,6.7,5.5,12.1,12.1,12.1h124.9c12.3-1.3-3.1-26.8-9.9-40.4
		c-0.3-0.6-0.6-1.2-0.8-1.7c-0.2-0.4-0.4-0.9-0.6-1.3c0-0.1-0.1-0.2-0.1-0.3c-0.2-0.5-0.4-0.9-0.6-1.4c-0.1-0.2-0.1-0.4-0.2-0.5
		c-2.3-6-3.5-12.6-3.5-19.4c0-30.5,24.7-55.1,55.1-55.1s55.1,24.7,55.1,55.1c0,6.8-1.3,13.4-3.5,19.4c-0.1,0.2-0.1,0.4-0.2,0.5
		c-0.2,0.5-0.4,0.9-0.6,1.4c0,0.1-0.1,0.2-0.1,0.3c-0.2,0.4-0.4,0.9-0.6,1.3c-0.3,0.6-0.5,1.2-0.8,1.7c-6.8,13.6-22.2,39.2-9.9,40.4
		h124.9c6.7,0,12.1-5.5,12.1-12.1V437.5c-1.3-12.3-26.8,3.1-40.4,9.9c-0.6,0.3-1.2,0.6-1.7,0.8c-0.4,0.2-0.9,0.4-1.3,0.6
		c-0.1,0-0.2,0.1-0.3,0.1c-0.5,0.2-0.9,0.4-1.4,0.6c-0.2,0.1-0.4,0.1-0.5,0.2c-6,2.3-12.6,3.5-19.4,3.5c-30.4,0-55.1-24.7-55.1-55.1
		C1345.7,367.7,1370.4,343.1,1400.9,343.1z"/>
	<linearGradient id="SVGID_9_" gradientUnits="userSpaceOnUse" x1="1642.4667" y1="259.1752" x2="1642.4667" y2="613.7424">
		<stop  offset="0" style="stop-color:#76469F"/>
		<stop  offset="1" style="stop-color:#643E9A"/>
	</linearGradient>
	<path class="st18" d="M1884.1,343.1c-6.8,0-13.4,1.3-19.4,3.5c-0.2,0.1-0.4,0.1-0.5,0.2c-0.5,0.2-0.9,0.4-1.4,0.6
		c-0.1,0-0.2,0.1-0.3,0.1c-0.4,0.2-0.9,0.4-1.3,0.6c-0.6,0.3-1.2,0.5-1.7,0.8c-13.6,6.8-39.2,22.2-40.4,9.9V233.9
		c0-6.7-5.5-12.1-12.1-12.1h-124.9c-12.3,1.2,3.1,26.8,9.9,40.4c0.3,0.6,0.6,1.2,0.8,1.7c0.2,0.4,0.4,0.9,0.6,1.3
		c0,0.1,0.1,0.2,0.1,0.3c0.2,0.5,0.4,0.9,0.6,1.4c0.1,0.2,0.1,0.4,0.2,0.5c2.3,6,3.5,12.6,3.5,19.4c0,30.4-24.7,55.1-55.1,55.1
		c-30.4,0-55.1-24.7-55.1-55.1c0-6.8,1.3-13.4,3.5-19.4c0.1-0.2,0.1-0.4,0.2-0.5c0.2-0.5,0.4-0.9,0.6-1.4c0-0.1,0.1-0.2,0.1-0.3
		c0.2-0.4,0.4-0.9,0.6-1.3c0.3-0.6,0.5-1.2,0.8-1.7c6.8-13.6,22.2-39.2,9.9-40.4h-124.9c-6.7,0-12.1,5.5-12.1,12.1v124.9
		c-1.3,12.3-26.8-3.1-40.4-9.9c-0.6-0.3-1.2-0.6-1.7-0.8c-0.4-0.2-0.9-0.4-1.3-0.6c-0.1,0-0.2-0.1-0.3-0.1c-0.5-0.2-0.9-0.4-1.4-0.6
		c-0.2-0.1-0.4-0.1-0.5-0.2c-6-2.3-12.6-3.5-19.4-3.5c-30.4,0-55.1,24.7-55.1,55.1c0,30.5,24.7,55.1,55.1,55.1
		c6.8,0,13.4-1.3,19.4-3.5c0.2-0.1,0.4-0.1,0.5-0.2c0.5-0.2,0.9-0.4,1.4-0.6c0.1,0,0.2-0.1,0.3-0.1c0.4-0.2,0.9-0.4,1.3-0.6
		c0.6-0.3,1.2-0.5,1.7-0.8c13.6-6.8,39.2-22.2,40.4-9.9v124.9c0,6.7,5.5,12.1,12.1,12.1h108.4c12.3,1.2-3.1,26.8-9.9,40.4
		c-0.3,0.6-0.6,1.2-0.8,1.7c-0.2,0.4-0.4,0.9-0.6,1.3c0,0.1-0.1,0.2-0.1,0.3c-0.2,0.5-0.4,0.9-0.6,1.4c-0.1,0.2-0.1,0.4-0.2,0.5
		c-2.3,6-3.5,12.6-3.5,19.4c0,30.5,24.7,55.1,55.1,55.1s55.1-24.7,55.1-55.1c0-6.8-1.3-13.4-3.5-19.4c-0.1-0.2-0.1-0.4-0.2-0.5
		c-0.2-0.5-0.4-0.9-0.6-1.4c0-0.1-0.1-0.2-0.1-0.3c-0.2-0.4-0.4-0.9-0.6-1.3c-0.3-0.6-0.5-1.2-0.8-1.7c-6.8-13.6-22.2-39.1-9.9-40.4
		h141.4c6.7,0,12.1-5.5,12.1-12.1V437.5c1.3-12.3,26.8,3.1,40.4,9.9c0.6,0.3,1.2,0.6,1.7,0.8c0.4,0.2,0.9,0.4,1.3,0.6
		c0.1,0,0.2,0.1,0.3,0.1c0.5,0.2,0.9,0.4,1.4,0.6c0.2,0.1,0.4,0.1,0.5,0.2c6,2.3,12.6,3.5,19.4,3.5c30.4,0,55.1-24.7,55.1-55.1
		C1939.2,367.7,1914.5,343.1,1884.1,343.1z"/>
	<g>
		<linearGradient id="SVGID_10_" gradientUnits="userSpaceOnUse" x1="1395.2278" y1="157.4756" x2="1395.2278" y2="739.0873">
			<stop  offset="0" style="stop-color:#FFFFFF"/>
			<stop  offset="1" style="stop-color:#8E857E"/>
		</linearGradient>
		<path class="st19" d="M1400.9,343.1c6.8,0,13.4,1.3,19.4,3.5c0.2,0.1,0.4,0.1,0.5,0.2c0.5,0.2,0.9,0.4,1.4,0.6
			c0.1,0,0.2,0.1,0.3,0.1c0.4,0.2,0.9,0.4,1.3,0.6c0.6,0.3,1.2,0.5,1.7,0.8c13.6,6.8,39.2,22.2,40.4,9.9V233.9
			c0-4.3-2.3-8.1-5.7-10.3c-3.9,4.3-6.4,10-6.4,16.3v115.5c-5.6-2.3-12.9-6.1-16.3-7.9c-2.4-1.2-4.6-2.4-6.5-3.4
			c-0.7-0.3-1.4-0.7-2-1c-0.6-0.3-1.1-0.5-1.7-0.8l-0.3-0.1c-0.6-0.3-1.2-0.5-1.8-0.7c-0.3-0.1-0.6-0.2-1-0.3
			c-7.5-2.8-15.4-4.2-23.5-4.2c-37.1,0-67.3,30.2-67.3,67.3c0,37.1,30.2,67.3,67.3,67.3c8,0,15.9-1.4,23.4-4.2
			c0.3-0.1,0.6-0.2,0.9-0.3c0.6-0.2,1.2-0.5,1.8-0.8l0.3-0.2c0.5-0.2,1-0.5,1.6-0.7c0.7-0.3,1.4-0.7,2-1c2-1,4.2-2.1,6.6-3.4
			c3.4-1.8,10.7-5.6,16.3-7.9v92.4h-120.9c-6.7,13.1-13.4,28.1-4.1,29.1h124.9c0.7,0,1.3-0.1,2-0.2h0c0.4-0.1,0.8-0.1,1.1-0.2
			c0,0,0,0,0,0c0.4-0.1,0.7-0.2,1.1-0.3c0,0,0,0,0,0c0.3-0.1,0.7-0.3,1-0.4c0,0,0.1,0,0.1,0c0.3-0.1,0.6-0.3,0.9-0.5
			c0,0,0.1,0,0.1-0.1c0.3-0.2,0.5-0.3,0.8-0.5c0,0,0.1-0.1,0.2-0.1c0.2-0.2,0.5-0.4,0.7-0.6c0.1-0.1,0.1-0.1,0.2-0.2
			c0.2-0.2,0.4-0.4,0.6-0.6c0.1-0.1,0.1-0.2,0.2-0.2c0.2-0.2,0.4-0.4,0.5-0.6c0.1-0.1,0.2-0.2,0.2-0.3c0.1-0.2,0.3-0.4,0.4-0.6
			c0.1-0.1,0.2-0.3,0.2-0.4c0.1-0.2,0.2-0.4,0.3-0.6c0.1-0.1,0.1-0.3,0.2-0.5c0.1-0.2,0.2-0.4,0.3-0.6c0.1-0.2,0.1-0.4,0.2-0.5
			c0.1-0.2,0.1-0.4,0.2-0.5c0.1-0.2,0.1-0.4,0.2-0.6c0-0.2,0.1-0.3,0.1-0.5c0-0.2,0.1-0.5,0.1-0.8c0-0.1,0-0.3,0.1-0.4
			c0-0.4,0.1-0.8,0.1-1.2v-29.1v-95.8c-1.3-12.3-26.8,3.1-40.4,9.9c-0.6,0.3-1.2,0.6-1.7,0.8c-0.4,0.2-0.9,0.4-1.3,0.6
			c-0.1,0-0.2,0.1-0.3,0.1c-0.5,0.2-0.9,0.4-1.4,0.6c-0.2,0.1-0.4,0.1-0.5,0.2c-6,2.3-12.6,3.5-19.4,3.5
			c-30.4,0-55.1-24.7-55.1-55.1C1345.7,367.7,1370.4,343.1,1400.9,343.1z"/>
		<linearGradient id="SVGID_11_" gradientUnits="userSpaceOnUse" x1="1053.1078" y1="370.5063" x2="1053.1078" y2="485.9798">
			<stop  offset="0" style="stop-color:#FFFFFF"/>
			<stop  offset="1" style="stop-color:#8E857E"/>
		</linearGradient>
		<path class="st20" d="M1113.3,408.4c-1.3-12.3-26.8,3.1-40.4,9.9c-0.6,0.3-1.2,0.6-1.7,0.8c-0.4,0.2-0.9,0.4-1.3,0.6
			c-0.1,0-0.2,0.1-0.3,0.1c-0.5,0.2-0.9,0.4-1.4,0.6c-0.2,0.1-0.4,0.1-0.5,0.2c-6,2.3-12.6,3.5-19.4,3.5
			c-25.4,0-46.8-17.2-53.2-40.6c-1.3,4.6-2,9.5-2,14.5c0,30.5,24.7,55.1,55.1,55.1c6.8,0,13.4-1.3,19.4-3.5c0.2-0.1,0.4-0.1,0.5-0.2
			c0.5-0.2,0.9-0.4,1.4-0.6c0.1,0,0.2-0.1,0.3-0.1c0.4-0.2,0.9-0.4,1.3-0.6c0.6-0.3,1.2-0.5,1.7-0.8c13.6-6.8,39.2-22.2,40.4-9.9
			V408.4z"/>
		<linearGradient id="SVGID_12_" gradientUnits="userSpaceOnUse" x1="1184.1052" y1="525.6112" x2="1184.1052" y2="593.9004">
			<stop  offset="0" style="stop-color:#FFFFFF"/>
			<stop  offset="1" style="stop-color:#8E857E"/>
		</linearGradient>
		<path class="st21" d="M1125.4,545.5c-6.7,0-12.1-5.5-12.1-12.1v29.1c0,6.7,5.5,12.1,12.1,12.1h124.9c9.4-1,2.7-16-4.1-29.1H1125.4
			z"/>
	</g>
	<linearGradient id="SVGID_13_" gradientUnits="userSpaceOnUse" x1="1642.4667" y1="278.5659" x2="1642.4667" y2="952.533">
		<stop  offset="0" style="stop-color:#FFFFFF"/>
		<stop  offset="1" style="stop-color:#8E857E"/>
	</linearGradient>
	<path class="st22" d="M1466.1,408.4c-1.3-12.3-26.8,3.1-40.4,9.9c-0.6,0.3-1.2,0.6-1.7,0.8c-0.4,0.2-0.9,0.4-1.3,0.6
		c-0.1,0-0.2,0.1-0.3,0.1c-0.5,0.2-0.9,0.4-1.4,0.6c-0.2,0.1-0.4,0.1-0.5,0.2c-6,2.3-12.6,3.5-19.4,3.5c-25.4,0-46.8-17.2-53.2-40.6
		c-1.3,4.6-2,9.5-2,14.5c0,30.5,24.7,55.1,55.1,55.1c6.8,0,13.4-1.3,19.4-3.5c0.2-0.1,0.4-0.1,0.5-0.2c0.5-0.2,0.9-0.4,1.4-0.6
		c0.1,0,0.2-0.1,0.3-0.1c0.4-0.2,0.9-0.4,1.3-0.6c0.6-0.3,1.2-0.5,1.7-0.8c13.6-6.8,39.2-22.2,40.4-9.9V408.4z M1937.2,383.6
		c-6.4,23.4-27.8,40.6-53.2,40.6c-6.8,0-13.4-1.3-19.4-3.5c-0.2-0.1-0.4-0.1-0.5-0.2c-0.5-0.2-0.9-0.4-1.4-0.6
		c-0.1,0-0.2-0.1-0.3-0.1c-0.4-0.2-0.9-0.4-1.3-0.6c-0.6-0.3-1.2-0.5-1.7-0.8c-13.6-6.8-39.2-22.2-40.4-9.9v29.1
		c1.3-12.3,26.8,3.1,40.4,9.9c0.6,0.3,1.2,0.6,1.7,0.8c0.4,0.2,0.9,0.4,1.3,0.6c0.1,0,0.2,0.1,0.3,0.1c0.5,0.2,0.9,0.4,1.4,0.6
		c0.2,0.1,0.4,0.1,0.5,0.2c6,2.3,12.6,3.5,19.4,3.5c30.4,0,55.1-24.7,55.1-55.1C1939.2,393.1,1938.5,388.3,1937.2,383.6z
		 M1586.6,545.5h-108.4c-6.7,0-12.1-5.5-12.1-12.1v29.1c0,6.7,5.5,12.1,12.1,12.1h104.4C1589.3,561.5,1596,546.4,1586.6,545.5z
		 M1806.7,545.5h-141.4c-9.4,1-2.7,16,4.1,29.1h137.4c6.7,0,12.1-5.5,12.1-12.1v-29.1C1818.9,540,1813.4,545.5,1806.7,545.5z
		 M1626,665.8c-25.4,0-46.8-17.2-53.2-40.6c-1.3,4.6-2,9.5-2,14.5c0,30.5,24.7,55.1,55.1,55.1s55.1-24.7,55.1-55.1
		c0-5-0.7-9.9-2-14.5C1672.8,648.6,1651.4,665.8,1626,665.8z"/>
	
		<linearGradient id="SVGID_14_" gradientUnits="userSpaceOnUse" x1="-1755.4005" y1="-4220.6802" x2="-2829.3855" y2="-4220.6802" gradientTransform="matrix(0 -1 -1 0 -1843.9866 -1843.9856)">
		<stop  offset="0" style="stop-color:#63BCD8"/>
		<stop  offset="1" style="stop-color:#3D7EB8"/>
	</linearGradient>
	<path class="st23" d="M2371.7,318.5c0-6.8-1.3-13.4-3.5-19.4c-0.1-0.2-0.1-0.4-0.2-0.5c-0.2-0.5-0.4-0.9-0.6-1.4
		c0-0.1-0.1-0.2-0.1-0.3c-0.2-0.4-0.4-0.9-0.6-1.3c-0.3-0.6-0.5-1.2-0.8-1.7c-6.8-13.6-22.2-39.2-9.9-40.4h124.9
		c6.7,0,12.1,5.5,12.1,12.1v124.9c1.3,12.3,26.8-3.1,40.4-9.9c0.6-0.3,1.2-0.6,1.7-0.8c0.4-0.2,0.9-0.4,1.3-0.6
		c0.1,0,0.2-0.1,0.3-0.1c0.5-0.2,0.9-0.4,1.4-0.6c0.2-0.1,0.4-0.1,0.5-0.2c6-2.3,12.6-3.5,19.4-3.5c30.4,0,55.1,24.7,55.1,55.1
		c0,30.5-24.7,55.1-55.1,55.1c-6.8,0-13.4-1.3-19.4-3.5c-0.2-0.1-0.4-0.1-0.5-0.2c-0.5-0.2-0.9-0.4-1.4-0.6c-0.1,0-0.2-0.1-0.3-0.1
		c-0.4-0.2-0.9-0.4-1.3-0.6c-0.6-0.3-1.2-0.5-1.7-0.8c-13.6-6.8-39.2-22.2-40.4-9.9V594c0,6.7-5.5,12.1-12.1,12.1h-124.9
		c-12.3,1.2,3.1,26.8,9.9,40.4c0.3,0.6,0.6,1.2,0.8,1.7c0.2,0.4,0.4,0.9,0.6,1.3c0,0.1,0.1,0.2,0.1,0.3c0.2,0.5,0.4,0.9,0.6,1.4
		c0.1,0.2,0.1,0.4,0.2,0.5c2.3,6,3.5,12.6,3.5,19.4c0,30.4-24.7,55.1-55.1,55.1c-30.5,0-55.1-24.7-55.1-55.1
		c0-6.8,1.3-13.4,3.5-19.4c0.1-0.2,0.1-0.4,0.2-0.5c0.2-0.5,0.4-0.9,0.6-1.4c0-0.1,0.1-0.2,0.1-0.3c0.2-0.4,0.4-0.9,0.6-1.3
		c0.3-0.6,0.5-1.2,0.8-1.7c6.8-13.6,22.2-39.2,9.9-40.4h-124.9c-6.7,0-12.1-5.5-12.1-12.1V469.1c1.3-12.3,26.8,3.1,40.4,9.9
		c0.6,0.3,1.2,0.6,1.7,0.8c0.4,0.2,0.9,0.4,1.3,0.6c0.1,0,0.2,0.1,0.3,0.1c0.5,0.2,0.9,0.4,1.4,0.6c0.2,0.1,0.4,0.1,0.5,0.2
		c6,2.3,12.6,3.5,19.4,3.5c30.5,0,55.1-24.7,55.1-55.1c0-30.4-24.7-55.1-55.1-55.1c-6.8,0-13.4,1.3-19.4,3.5
		c-0.2,0.1-0.4,0.1-0.5,0.2c-0.5,0.2-0.9,0.4-1.4,0.6c-0.1,0-0.2,0.1-0.3,0.1c-0.4,0.2-0.9,0.4-1.3,0.6c-0.6,0.3-1.2,0.5-1.7,0.8
		c-13.6,6.8-39.2,22.2-40.4,9.9V265.5c0-6.7,5.5-12.1,12.1-12.1h124.9c12.3,1.2-3.1,26.8-9.9,40.4c-0.3,0.6-0.6,1.2-0.8,1.7
		c-0.2,0.4-0.4,0.9-0.6,1.3c0,0.1-0.1,0.2-0.1,0.3c-0.2,0.5-0.4,0.9-0.6,1.4c-0.1,0.2-0.1,0.4-0.2,0.5c-2.3,6-3.5,12.6-3.5,19.4
		c0,30.4,24.7,55.1,55.1,55.1C2347,373.7,2371.7,349,2371.7,318.5z"/>
	<linearGradient id="SVGID_15_" gradientUnits="userSpaceOnUse" x1="2376.6936" y1="48.764" x2="2376.6936" y2="2077.4021">
		<stop  offset="0" style="stop-color:#FFFFFF"/>
		<stop  offset="1" style="stop-color:#8E857E"/>
	</linearGradient>
	<path class="st24" d="M2277.2,579.1h-124.9c-6.7,0-12.1-5.5-12.1-12.1V594c0,6.7,5.5,12.1,12.1,12.1h121.9
		C2280.5,593.6,2286.1,580,2277.2,579.1z M2316.5,699.4c-25.8,0-47.4-17.7-53.4-41.6c-1.1,4.3-1.7,8.8-1.7,13.5
		c0,30.4,24.7,55.1,55.1,55.1c30.4,0,55.1-24.7,55.1-55.1c0-4.7-0.6-9.2-1.7-13.5C2363.9,681.7,2342.3,699.4,2316.5,699.4z
		 M2611.6,416.2c-6,23.9-27.7,41.6-53.5,41.6c-6.8,0-13.4-1.3-19.4-3.5c-0.2-0.1-0.4-0.1-0.5-0.2c-0.5-0.2-0.9-0.4-1.4-0.6
		c-0.1,0-0.2-0.1-0.3-0.1c-0.4-0.2-0.9-0.4-1.3-0.6c-0.6-0.3-1.2-0.5-1.7-0.8c-13.6-6.8-39.2-22.2-40.4-9.9v27.1
		c1.3-12.3,26.8,3.1,40.4,9.9c0.6,0.3,1.2,0.6,1.7,0.8c0.4,0.2,0.9,0.4,1.3,0.6c0.1,0,0.2,0.1,0.3,0.1c0.5,0.2,0.9,0.4,1.4,0.6
		c0.2,0.1,0.4,0.1,0.5,0.2c6,2.3,12.6,3.5,19.4,3.5c30.4,0,55.1-24.7,55.1-55.1C2613.3,425.1,2612.7,420.5,2611.6,416.2z
		 M2480.8,579.1h-124.9c-8.9,0.9-3.3,14.5,3,27.1h121.9c6.7,0,12.1-5.5,12.1-12.1V567C2492.9,573.6,2487.5,579.1,2480.8,579.1z"/>
	<g>
		<g>
			<path class="st25" d="M2506.8,688.8c0,0-91.9,87-109.6,105.2c-17.7,18.2,11.3,57.6,44.5,45.4c33.2-12.2,78.8-29.8,103.5-52.2
				c24.7-22.4,38-45.5,36.3-76.5C2579.9,679.7,2531.6,665.4,2506.8,688.8z"/>
			<g>
				<path class="st26" d="M2550.8,977.4c0,0,21.7-32.2,23.2-34.6c1.6-2.7,4.1-7.2,11.1-0.1c7,7.1,9.4,9.2,9.4,9.2
					s-32.5,29-36.4,31.7C2554.3,986.2,2549.2,986,2550.8,977.4z"/>
				<path class="st25" d="M2403.3,848.2c27,15.4,12.7,8.5,44.8,28.1c32.1,19.5,124.2,76.2,124.2,76.2s3.8-0.5,5.3-3.2
					c2.3-4.1,0.6-6.2,0.6-6.2s-21.4-16-32.8-30.4c-11.3-14.4-94.9-103.2-110.6-119c-15.7-15.8-24.1-13.6-33.5-4.3
					C2383.4,807.3,2382.3,836.2,2403.3,848.2z"/>
			</g>
		</g>
		<g>
			<path class="st26" d="M2473.7,1088.1c0,0,37.4-10.3,40.2-11.2c3-1,7.8-2.8,8.5,7.1c0.7,9.9,1.1,13,1.1,13s-43.5,0.8-48.2,0.4
				C2470.6,1097,2466.8,1093.6,2473.7,1088.1z"/>
			<path class="st15" d="M2555.8,712.9c0,0-56.5,113.2-66.8,136.4c-10.4,23.1,30.4,50.3,57.4,27.4c27-22.9,63.8-55.1,79.3-84.6
				c15.5-29.5,20.1-55.7,7.9-84.3C2621.3,679.2,2570.9,682.3,2555.8,712.9z"/>
			<path class="st15" d="M2486.8,854.7c-0.3,31,3.8,47.8,6.6,85.3c2.8,37.5,10.2,145.4,10.2,145.4s3.7,0.5,7.2-1.3
				c3.8-2,4.1-5.6,4.1-5.6s0.3-20.5,5.4-38.1c5.1-17.6,28.7-137.2,32.5-159.2c3.7-22-2.9-30.2-28.2-32.4
				C2499.4,846.7,2486.9,850.2,2486.8,854.7z"/>
		</g>
		<linearGradient id="SVGID_16_" gradientUnits="userSpaceOnUse" x1="2408.978" y1="765.9897" x2="2646.6318" y2="765.9897">
			<stop  offset="0" style="stop-color:#0A0E1A"/>
			<stop  offset="1" style="stop-color:#040F2C"/>
		</linearGradient>
		<path class="st27" d="M2483.1,706c-15.1,13.8-74.1,70.6-74.1,70.6s-0.6,22,62,60.8c75,46.5,103.2,26.5,103.2,26.5
			s29.2-31.5,44.1-49.9c22.1-27.3,48.8-107.9,4.5-125.9c-44.2-18-78.8-31.9-99.4-19.2C2502.8,681.5,2492.5,697.3,2483.1,706z"/>
		<linearGradient id="SVGID_17_" gradientUnits="userSpaceOnUse" x1="2611.1943" y1="613.5181" x2="2536.8599" y2="800.1619">
			<stop  offset="0" style="stop-color:#FE9E1A"/>
			<stop  offset="1" style="stop-color:#FF5B00"/>
		</linearGradient>
		<path class="st28" d="M2669.2,551.5c-8.6-4.8-15.2-8.1-23.9-11.3c-30.6-11.1-56.9-3.8-64.9,14.5c-1.2,2.7-2,5.6-3.6,8
			c-6.7,10.4-31.2,3.7-44.3,20.1c-8.2,10.2,0.8,30.4,10,40c-31.8,50.3-60.6,79.8-60.6,79.8s0.5,19.1,75.2,52.9
			c57.6,26,85.1,16.1,85.1,16.1s30.4-78.9,43.4-138.6C2691.9,603.9,2704.1,570.8,2669.2,551.5z"/>
		<g>
			<path class="st10" d="M2621.7,534.5c-6.9,9.8-25.1,29.9,0.9,40.2c30.6,12.1,51.1-15.8,51-20.1c-0.2-9.7-14-10.8-21.8-13.7
				C2644.1,538,2627.5,526.2,2621.7,534.5z"/>
			<g>
				
					<linearGradient id="SVGID_18_" gradientUnits="userSpaceOnUse" x1="11561.8359" y1="83.9636" x2="11561.8359" y2="610.0566" gradientTransform="matrix(-0.8559 -0.5169 -0.5169 0.8559 12665.2061 6317.3354)">
					<stop  offset="0" style="stop-color:#FDAA65"/>
					<stop  offset="1" style="stop-color:#F47124"/>
				</linearGradient>
				<path class="st29" d="M2666,550.5c-1.4-0.8-2.8-1.5-4.3-2.3c-8.3-4.1-15.3-6.5-24.7-9.4c-3-0.9-5.8-1.6-8.5-2
					c-4.1,6.5-19.7,22.6-0.4,30.9C2648,576.2,2663.4,557.3,2666,550.5z"/>
				<g>
					
						<linearGradient id="SVGID_19_" gradientUnits="userSpaceOnUse" x1="11573.9473" y1="85.7582" x2="11573.9473" y2="605.6064" gradientTransform="matrix(-0.8559 -0.5169 -0.5169 0.8559 12665.2061 6317.3354)">
						<stop  offset="0" style="stop-color:#FDAA65"/>
						<stop  offset="1" style="stop-color:#F47124"/>
					</linearGradient>
					<path class="st30" d="M2660.5,550.3c8.1-20,8.4-34,8.2-52.7c0.2-0.6-26.1-5.8-27.7-20.8c0,0-8,15.6-10.9,30
						c-2.7,13.6-1.6,22,13.2,20.6c-3.2,5.6-7.3,12.3-10.8,16.9c-7.2,9.4-2.1,16.4,2.7,19.1C2640.2,566.2,2652.3,570.6,2660.5,550.3z
						"/>
					
						<linearGradient id="SVGID_20_" gradientUnits="userSpaceOnUse" x1="11559.8086" y1="85.7336" x2="11559.8086" y2="605.6854" gradientTransform="matrix(-0.8559 -0.5169 -0.5169 0.8559 12665.2061 6317.3354)">
						<stop  offset="0" style="stop-color:#FDAA65"/>
						<stop  offset="1" style="stop-color:#F47124"/>
					</linearGradient>
					<path class="st31" d="M2680.2,507.6c0.7,3.8-3.3,7.6-8.8,8.7c-5.6,1-10.6-1.2-11.3-5c-0.7-3.8,3.3-7.6,8.8-8.7
						C2674.4,501.6,2679.5,503.8,2680.2,507.6z"/>
				</g>
			</g>
		</g>
		<g>
			<g>
				<path class="st15" d="M2529.4,403.7c1.7-3.5,6.1-15.2,2.5-16c-2.8-0.7-7.3,3.7-9.1,7.3c-0.6,1.3,0.5,5.9-6.7,10.2
					c-5.2,3,0,10.6,0,10.6S2526,411,2529.4,403.7z"/>
				<path class="st15" d="M2532.7,538.3c-15.1-26.8-28.2-99.9-30.9-114.2c-1.3-7.3-7.6-8.6-10.1-23.3c-0.9-5.4-0.6-11.9,3.9-16.1
					c4.4-4.1,22-4.4,27.1,0c4.2,3.6,3.2,24.6-6.5,33.3c0.1,8.3,27.4,77.8,35,97.6c3.4,8.9,16.2,23.5,4.7,25.4
					C2542.5,543.1,2538.4,548.2,2532.7,538.3z"/>
			</g>
			<g>
				<path class="st15" d="M2578.5,532.8c0,0-29.3-9.6-38.5-10.9c-6.6-0.9-7.1,8.3-7.5,14c-0.4,5.7,15.7,19.5,32.3,26.2
					C2577.4,567.2,2580.1,534.9,2578.5,532.8z"/>
				<linearGradient id="SVGID_21_" gradientUnits="userSpaceOnUse" x1="2465.0625" y1="482.3575" x2="2653.5256" y2="602.3438">
					<stop  offset="0" style="stop-color:#FE1B01"/>
					<stop  offset="0.1597" style="stop-color:#FE2002"/>
					<stop  offset="0.3377" style="stop-color:#FE2E05"/>
					<stop  offset="0.5245" style="stop-color:#FE4409"/>
					<stop  offset="0.7173" style="stop-color:#FE620E"/>
					<stop  offset="0.913" style="stop-color:#FE8A15"/>
					<stop  offset="1" style="stop-color:#FE9E1B"/>
				</linearGradient>
				<path class="st32" d="M2667.1,567.3c-21.8-13.5-102.6-45-102.6-45s-7.4,4.1-14.9,19c-11.2,22.3-8.7,32.8-8.7,32.8
					s48.3,32.2,82.8,50.6c27.3,14.6,56.3,6.8,64.7-15.9C2695.3,590.3,2679.3,574.8,2667.1,567.3z"/>
			</g>
		</g>
		<path class="st33" d="M2597.6,649.9c-19.8-8-34.2-15.6-55.1-27.1c-1.3,2.1-2.6,4.1-3.9,6c10.3,6.3,37.5,22.2,56.8,27.7
			c24.2,6.9,29.1-11.1,29.1-11.1S2617.4,657.9,2597.6,649.9z"/>
	</g>
	<linearGradient id="SVGID_22_" gradientUnits="userSpaceOnUse" x1="1123.9468" y1="321.3898" x2="1123.9468" y2="494.2995">
		<stop  offset="0" style="stop-color:#FFFFFF"/>
		<stop  offset="1" style="stop-color:#8E857E"/>
	</linearGradient>
	<path class="st34" d="M1250.3,574.6c12.3-1.3-3.1-26.8-9.9-40.4c-0.3-0.6-0.6-1.2-0.8-1.7c-0.2-0.4-0.4-0.9-0.6-1.3
		c0-0.1-0.1-0.2-0.1-0.3c-0.2-0.5-0.4-0.9-0.6-1.4c-0.1-0.2-0.1-0.4-0.2-0.5c-2.3-6-3.5-12.6-3.5-19.4c0-7.3,1.4-14.3,4-20.7
		c-10.1-5.1-21-8.7-32.3-10.6c2.3-9.1,3.4-18.4,3.4-27.9c0-56.9-41.9-104.2-96.4-112.8v21.5c-1.3,12.3-26.8-3.1-40.4-9.9
		c-0.6-0.3-1.2-0.6-1.7-0.8c-0.4-0.2-0.9-0.4-1.3-0.6c-0.1,0-0.2-0.1-0.3-0.1c-0.5-0.2-0.9-0.4-1.4-0.6c-0.2-0.1-0.4-0.1-0.5-0.2
		c-6-2.3-12.6-3.5-19.4-3.5c-30.4,0-55.1,24.7-55.1,55.1c0,30.5,24.7,55.1,55.1,55.1c6.8,0,13.4-1.3,19.4-3.5
		c0.2-0.1,0.4-0.1,0.5-0.2c0.5-0.2,0.9-0.4,1.4-0.6c0.1,0,0.2-0.1,0.3-0.1c0.4-0.2,0.9-0.4,1.3-0.6c0.6-0.3,1.2-0.5,1.7-0.8
		c13.6-6.8,39.2-22.2,40.4-9.9v124.9c0,6.7,5.5,12.1,12.1,12.1H1250.3z"/>
	<g>
		<g>
			<g>
				<path class="st35" d="M545.5,754.9c1.5-3.6,5.9-13.9,8.9-11.8c2.4,1.6,3.4,7.8,1.9,11.6c-0.5,1.3-4.7,2.9-3.1,11.2
					c1.2,5.9-7.9,7.1-7.9,7.1S542.4,762.3,545.5,754.9z"/>
				<path class="st35" d="M452.4,839.1c30-6.7,83.9-42.9,96.5-50.1c15.2-8.7,16.7-4.4,29.4-12.2c8.5-5.3,3.4-26.5-4.8-27.9
					c-11.8-2-29.9,6.7-29.7,25.3c-6.2,5.5-73.8,29.8-93.5,37.5c-8.9,3.5-17.7,10.1-15.7,17.5C437.3,839.9,441.2,841.6,452.4,839.1z"
					/>
			</g>
			<g>
				<path class="st35" d="M429.5,797.5c0,0,22.4,21.2,27.8,28.7c3.9,5.4-4,10.2-8.8,13.2c-4.8,3-24.6-4.6-38.3-16
					C399.7,814.7,426.9,797,429.5,797.5z"/>
				<linearGradient id="SVGID_23_" gradientUnits="userSpaceOnUse" x1="341.0229" y1="762.9457" x2="408.8933" y2="818.6964">
					<stop  offset="0" style="stop-color:#76469F"/>
					<stop  offset="1" style="stop-color:#391C89"/>
				</linearGradient>
				<path class="st36" d="M353,723.2c20.8,14.9,92.3,81.6,92.3,81.6s-0.1,8.5-9.7,22.1c-14.3,20.4-27,32.2-27,32.2s-49-36.3-81.6-58
					c-25.8-17.1-30.7-44.9-16.6-64.5C323.4,718.7,338.8,713,353,723.2z"/>
			</g>
		</g>
		<g>
			<g>
				<path class="st15" d="M1304.8,675.7c-0.7-3.8-3.8-13.8-7.1-11.9c-2.5,1.4-2.3,7.3-1.7,11.2c0.2,1.4,2.2,2-1.1,9.7
					c-2.4,5.5,7.6,10.3,7.6,10.3S1306.4,684.9,1304.8,675.7z"/>
				<path class="st15" d="M1372.9,774.7c-28-12.9-65-60.8-78.5-66.3c-22.7-9.2-26.9-17.2-26.5-28.1c0.2-6.2,10-15.3,18.4-15.6
					c5.3-0.2,13.6,9.9,16.2,30.3c4.9,6.7,66,44.5,83.7,56.2c8,5.3,25.2,14.5,16.3,18.9C1390.8,775.9,1382.6,779.2,1372.9,774.7z"/>
			</g>
			<g>
				<path class="st15" d="M1409.9,746.2c0,0-30.1,6.8-38.6,10.4c-6.1,2.6-1.8,10.8,0.7,15.9c2.6,5.1,23.4,8.6,41.1,5.9
					C1426.7,776.3,1412.4,747.1,1409.9,746.2z"/>
				<linearGradient id="SVGID_24_" gradientUnits="userSpaceOnUse" x1="1525.4534" y1="755.4317" x2="1295.5834" y2="806.7379">
					<stop  offset="0" style="stop-color:#65BDD8"/>
					<stop  offset="0.2136" style="stop-color:#59A9C5"/>
					<stop  offset="0.6391" style="stop-color:#3B7A99"/>
					<stop  offset="1" style="stop-color:#205376"/>
				</linearGradient>
				<path class="st37" d="M1513.6,721.6c-25.5,2.1-121.1,22.7-121.1,22.7s-4.2,7.4-3,23.9c1.1,14.3,3.3,25.8,4.6,33.1
					c1.6,8.5,6.3,8,13.4,7.3c19.4-1.8,59.7-5.5,88.4-6.9c30.9-1.5,49.4-22.8,47.4-46.9C1541.4,732.9,1531.1,720.2,1513.6,721.6z"/>
			</g>
		</g>
		<g>
			<linearGradient id="SVGID_25_" gradientUnits="userSpaceOnUse" x1="958.3976" y1="255.3283" x2="958.3976" y2="1357.1154">
				<stop  offset="0" style="stop-color:#63BCD8"/>
				<stop  offset="1" style="stop-color:#3D7EB8"/>
			</linearGradient>
			<path class="st38" d="M980,835.2c-12,0-23.4,2.2-34,6.2c-0.3,0.1-0.6,0.2-0.9,0.3c-0.8,0.3-1.6,0.7-2.5,1
				c-0.2,0.1-0.4,0.2-0.6,0.2c-0.8,0.3-1.5,0.7-2.3,1.1c-1,0.5-2,1-3,1.5c-24.8,12.3-53.1,34.5-53.1,4.9c0,0-43.1,34.5-43.1,78.9
				c0,53.5,43.1,83.6,43.1,83.6c0-29.6,28.2-7.5,53.1,4.9c1,0.5,2,1,3,1.5c0.8,0.4,1.6,0.7,2.3,1.1c0.2,0.1,0.4,0.2,0.6,0.2
				c0.8,0.4,1.7,0.7,2.5,1c0.3,0.1,0.6,0.2,0.9,0.3c10.6,4,22,6.2,34,6.2c53.2,0,96.4-43.2,96.4-96.4
				C1076.4,878.4,1033.2,835.2,980,835.2z"/>
			<linearGradient id="SVGID_26_" gradientUnits="userSpaceOnUse" x1="672.489" y1="438.5472" x2="672.489" y2="1228.2175">
				<stop  offset="0" style="stop-color:#63BCD8"/>
				<stop  offset="1" style="stop-color:#3D7EB8"/>
			</linearGradient>
			<path class="st39" d="M807.2,433.3c13.9,0,27.6,2.5,40.6,7.3c0.6,0.2,1.1,0.4,1.6,0.6c1,0.4,2,0.8,3.1,1.3
				c0.2,0.1,0.4,0.2,0.6,0.3c1,0.4,2,0.9,2.9,1.3c1.2,0.5,2.4,1.1,3.5,1.7c4.9,2.4,9.7,5.1,14.3,7.6c2.8,1.6,6.3,3.5,9.6,5.2V348.7
				c0-7-2.8-13.9-7.9-20.2c-11.9-29.5-40.8-50.3-74.5-50.3c-40.2,0-73.4,29.4-79.4,67.9c-0.8,0-1.8,0-3.1,0.1
				c-8.6-2.4-17.7-3.6-27-3.6c-56.4,0-102.1,45.7-102.1,102c0,13.6,2.7,26.7,7.5,38.6c-54.6,1.3-98.5,46-98.5,101
				c0,24.4,8.6,46.7,23,64.2c-35.3,16-59.8,51.5-59.8,92.8c0,33.8,16.4,63.7,41.8,82.3c-20,21.1-32.3,49.7-32.3,81.1
				c0,55.2,37.9,101.5,89,114.3c-0.1,1.8-0.1,3.5-0.1,5.3c0,56.4,43.8,102.5,99.2,106.3c20.2,37.3,59.6,62.6,105,62.6
				c65.9,0,119.3-53.4,119.3-119.3V640.9c-3.3,1.7-6.8,3.6-9.6,5.2c-4.7,2.6-9.5,5.3-14.3,7.7c-1.1,0.6-2.3,1.2-3.6,1.7
				c-0.9,0.4-1.8,0.8-2.7,1.2c0,0-0.5,0.2-0.7,0.3c-1,0.4-2,0.8-3,1.2c-0.5,0.2-1.1,0.4-1.6,0.6c-13,4.8-26.7,7.3-40.6,7.3
				c-64.2,0-116.5-52.2-116.5-116.5C690.8,485.5,743,433.3,807.2,433.3z"/>
			<g>
				<linearGradient id="SVGID_27_" gradientUnits="userSpaceOnUse" x1="1114.4232" y1="265.6995" x2="1114.4232" y2="1519.8778">
					<stop  offset="0" style="stop-color:#FE9E1A"/>
					<stop  offset="1" style="stop-color:#FF5B00"/>
				</linearGradient>
				<path class="st40" d="M1325.4,741.2c0-41.3-24.5-76.8-59.8-92.8c14.4-17.4,23-39.8,23-64.2c0-55-43.9-99.7-98.5-101
					c4.9-11.9,7.5-24.9,7.5-38.6c0-56.4-45.7-102-102.1-102c-9.4,0-18.4,1.3-27,3.6c-1.3-0.1-2.3-0.1-3.1-0.1
					c-6-38.5-39.3-67.9-79.4-67.9c-33.7,0-62.6,20.8-74.5,50.3c-5.1,6.3-7.9,13.2-7.9,20.2v491.9c3.4-1.8,7-3.7,9.9-5.4
					c4.7-2.6,9.5-5.3,14.3-7.7c1.1-0.6,2.3-1.2,3.6-1.7c0.9-0.4,1.8-0.8,2.7-1.2c0,0,0.5-0.2,0.7-0.3c1-0.4,2-0.8,3-1.2
					c0.5-0.2,1.1-0.4,1.6-0.6c13-4.8,26.7-7.3,40.6-7.3c64.2,0,116.5,52.2,116.5,116.5c0,64.2-52.2,116.5-116.5,116.5
					c-13.9,0-27.6-2.5-40.6-7.3c-0.6-0.2-1.1-0.4-1.6-0.6c-1-0.4-2-0.8-3.1-1.3c-0.2-0.1-0.4-0.2-0.6-0.3c-1-0.4-2-0.9-2.9-1.3
					c-1.2-0.5-2.4-1.1-3.5-1.7c-4.9-2.4-9.7-5.1-14.3-7.6c-2.9-1.6-6.5-3.6-9.9-5.3v51.1c0,65.9,53.4,119.3,119.3,119.3
					c45.4,0,84.8-25.3,105-62.6c55.4-3.8,99.2-49.9,99.2-106.3c0-1.8,0-3.6-0.1-5.3c51.2-12.9,89-59.2,89-114.3
					c0-31.4-12.3-60-32.3-81.1C1308.9,804.9,1325.4,774.9,1325.4,741.2z"/>
				<path class="st41" d="M1061.8,342.6c1,0,2,0,2.9,0c-7.4-36.8-39.9-64.4-78.8-64.4c-5.8,0-11.4,0.6-16.9,1.8
					c32.3,6.9,57.4,33.2,62.6,66.1c0.8,0,1.8,0,3.1,0.1C1043.4,343.9,1052.5,342.6,1061.8,342.6z M1006,1191.9
					c5.5,0.8,11.1,1.2,16.8,1.2c45.4,0,84.8-25.3,105-62.6c55.4-3.8,99.2-49.9,99.2-106.3c0-1.8,0-3.6-0.1-5.3
					c51.2-12.9,89-59.2,89-114.3c0-31.4-12.3-60-32.3-81.1c25.3-18.5,41.8-48.5,41.8-82.3c0-41.3-24.5-76.8-59.8-92.8
					c14.4-17.4,23-39.8,23-64.2c0-55-43.9-99.7-98.5-101c4.9-11.9,7.5-24.9,7.5-38.6c0-56.4-45.7-102-102.1-102
					c-5.7,0-11.4,0.5-16.9,1.4c48.3,8,85.2,50,85.2,100.7c0,13.6-2.7,26.7-7.5,38.6c54.6,1.3,98.5,46,98.5,101
					c0,24.4-8.6,46.7-23,64.2c35.3,16,59.8,51.5,59.8,92.8c0,33.8-16.4,63.7-41.8,82.3c20,21.1,32.3,49.7,32.3,81.1
					c0,55.2-37.9,101.5-89,114.3c0.1,1.8,0.1,3.5,0.1,5.3c0,56.4-43.8,102.5-99.2,106.3C1076.5,1163,1044.1,1186.5,1006,1191.9z"/>
				<path class="st42" d="M1054.1,509.7c14.9-13.3,36.9-13.6,52.1-1.7c-6.8,7.2-12.6,15.5-17.4,24.5l9.2,4.8
					c16.9-32.2,50.6-54.2,89.5-54.2c0.8,0,1.7,0,2.5,0c0.7-1.6,1.3-3.2,1.8-4.9c0.1-0.4,0.2-0.7,0.4-1.1c0.4-1.3,0.9-2.6,1.3-4
					c0-0.1,0.1-0.2,0.1-0.4c-2-0.1-4-0.2-6-0.2c-27.7,0-53.8,10.2-73.8,27.9c-19.1-15.9-47.5-15.8-66.6,1.2L1054.1,509.7z
					 M1198,776.2c-57.2,0-105.7,37.6-122.3,89.3c2.7,3.9,5.2,8,7.4,12.2c12.1-52.2,58.9-91.1,114.8-91.1c33.7,0,64.1,14.1,85.6,36.8
					c0,0,0,0,0,0c1.3-1,2.6-2,3.9-3c0.1-0.1,0.2-0.1,0.2-0.2c1.3-1.1,2.6-2.2,3.8-3.3l0,0C1268.2,791.9,1234.9,776.2,1198,776.2z
					 M1101.9,643.2c-10.2,10.3-23.8,16.1-38.3,16.2c-14.5,0.1-28.2-5.5-38.5-15.7c-11.7-11.5-17.4-27.5-15.9-43.6
					c5.5,1.1,11.1,1.6,16.8,1.6c0.2,0,0.4,0,0.6,0c23.6-0.2,45.6-9.5,62.2-26.3l-7.4-7.3c-14.6,14.8-34.1,23-54.8,23.2
					c-20.8,0.1-40.4-7.8-55.1-22.4c-18.7-18.5-26.8-44.9-21.6-70.7l-10.2-2.1c-5.9,29.3,3.3,59.3,24.5,80.2
					c10,9.8,21.9,17,34.9,21.2c-2.3,19.8,4.5,39.6,18.8,53.7c12.2,12,28.3,18.7,45.5,18.7c0.1,0,0.3,0,0.4,0
					c17.3-0.1,33.5-7,45.7-19.3L1101.9,643.2z M1120,697.5l9.6,4.1c15.5-36.6,51.7-62.2,93.9-62.2c15,0,29.3,3.3,42.1,9.1
					c0,0,0,0,0,0c1.1-1.3,2.1-2.7,3.1-4c0.1-0.1,0.2-0.3,0.3-0.4c1-1.3,1.9-2.7,2.8-4.1c-14.7-7-31.1-11-48.4-11
					C1178.2,628.9,1137.6,655.8,1120,697.5z M1170.3,898.9c18.6,39.9,2.2,87.3-36.7,107.2c-3.2-5.3-6.8-10.3-10.8-15.1l-8,6.7
					c17.1,20.7,27.4,47.2,27.4,76.1c0,20.5-5.2,39.8-14.3,56.7c0,0,0,0,0,0c1.5-0.1,3.1-0.3,4.6-0.4c0.3,0,0.7-0.1,1-0.1
					c1.4-0.2,2.8-0.4,4.2-0.6c0.4-0.1,0.7-0.1,1.1-0.2c0.5-0.1,1-0.2,1.5-0.3c7.9-16.7,12.3-35.4,12.3-55.1c0-20.4-4.9-40.5-14-58.5
					c43.6-22.5,62.1-75.9,41.1-120.7L1170.3,898.9z M947.8,800.9l9.8,3.5c13.8-38.7,56.5-58.9,95.2-45.1l3.5-9.8
					C1012.2,733.8,963.6,756.8,947.8,800.9z M1068.5,346.2c-1.3-0.1-2.3-0.1-3.1-0.1c-0.2-1-0.3-2-0.5-3c-0.1-0.4-0.2-0.9-0.3-1.3
					c-0.1-0.4-0.2-0.9-0.3-1.3c-0.3-1.2-0.6-2.4-0.9-3.6c0,0,0-0.1,0-0.1c-46.4,13.9-80.3,56.9-80.3,107.8h10.4
					C993.5,397.7,1025.2,358.1,1068.5,346.2z"/>
				<linearGradient id="SVGID_28_" gradientUnits="userSpaceOnUse" x1="958.3976" y1="438.5504" x2="958.3976" y2="1228.2159">
					<stop  offset="0" style="stop-color:#63BCD8"/>
					<stop  offset="1" style="stop-color:#3D7EB8"/>
				</linearGradient>
				<path class="st43" d="M980,835.2c-12,0-23.4,2.2-34,6.2c-0.3,0.1-0.6,0.2-0.9,0.3c-0.8,0.3-1.6,0.7-2.5,1
					c-0.2,0.1-0.4,0.2-0.6,0.2c-0.8,0.3-1.5,0.7-2.3,1.1c-1,0.5-2,1-3,1.5c-24.8,12.3-53.1,34.5-53.1,4.9c0,0-43.1,34.5-43.1,78.9
					c0,53.5,43.1,83.6,43.1,83.6c0-29.6,28.2-7.5,53.1,4.9c1,0.5,2,1,3,1.5c0.8,0.4,1.6,0.7,2.3,1.1c0.2,0.1,0.4,0.2,0.6,0.2
					c0.8,0.4,1.7,0.7,2.5,1c0.3,0.1,0.6,0.2,0.9,0.3c10.6,4,22,6.2,34,6.2c53.2,0,96.4-43.2,96.4-96.4
					C1076.4,878.4,1033.2,835.2,980,835.2z"/>
				
					<linearGradient id="SVGID_29_" gradientUnits="userSpaceOnUse" x1="-9437.7607" y1="971.9105" x2="-9780.8027" y2="971.9105" gradientTransform="matrix(-1 0 0 1 -8549.5918 0)">
					<stop  offset="0" style="stop-color:#FFFFFF"/>
					<stop  offset="1" style="stop-color:#8E857E"/>
				</linearGradient>
				<path class="st44" d="M936.6,986.2c1,0.5,2,1,3,1.5c0.8,0.4,1.6,0.7,2.3,1.1c0.2,0.1,0.4,0.2,0.6,0.2c0.8,0.4,1.7,0.7,2.5,1
					c0.3,0.1,0.6,0.2,0.9,0.3c10.6,4,22,6.2,34,6.2c47.9,0,87.6-34.9,95.1-80.6c0.8,5.1,1.3,10.4,1.3,15.8
					c0,53.2-43.2,96.4-96.4,96.4c-12,0-23.4-2.2-34-6.2c-0.3-0.1-0.6-0.2-0.9-0.3c-0.8-0.3-1.6-0.7-2.5-1c-0.2-0.1-0.4-0.2-0.6-0.2
					c-0.8-0.3-1.5-0.7-2.3-1.1c-1-0.5-2-1-3-1.5c-23.8-11.8-50.7-32.7-52.9-8.3v-31.5C885.9,953.5,912.8,974.4,936.6,986.2z"/>
			</g>
			<path class="st41" d="M752.1,346.2c1.3-0.1,2.3-0.1,3.1-0.1c5.1-32.9,30.3-59.2,62.6-66.1c-5.4-1.2-11.1-1.8-16.9-1.8
				c-38.9,0-71.4,27.7-78.8,64.4c1,0,2,0,2.9,0C734.5,342.6,743.5,343.9,752.1,346.2z M692.8,1130.5c-55.4-3.8-99.2-49.9-99.2-106.3
				c0-1.8,0-3.6,0.1-5.3c-51.2-12.9-89-59.2-89-114.3c0-31.4,12.3-60,32.3-81.1c-25.3-18.5-41.8-48.5-41.8-82.3
				c0-41.3,24.5-76.8,59.8-92.8c-14.4-17.4-23-39.8-23-64.2c0-55,43.9-99.7,98.5-101c-4.9-11.9-7.5-24.9-7.5-38.6
				c0-50.6,36.9-92.6,85.2-100.7c-5.5-0.9-11.1-1.4-16.8-1.4c-56.4,0-102.1,45.7-102.1,102c0,13.6,2.7,26.7,7.5,38.6
				c-54.6,1.3-98.5,46-98.5,101c0,24.4,8.6,46.7,23,64.2c-35.3,16-59.8,51.5-59.8,92.8c0,33.8,16.4,63.7,41.8,82.3
				c-20,21.1-32.3,49.7-32.3,81.1c0,55.2,37.9,101.5,89,114.3c-0.1,1.8-0.1,3.5-0.1,5.3c0,56.4,43.8,102.5,99.2,106.3
				c20.2,37.3,59.6,62.6,105,62.6c5.7,0,11.3-0.4,16.8-1.2C742.8,1186.5,710.4,1163,692.8,1130.5z"/>
			<path class="st42" d="M873.7,961c0-0.1,0-0.3-0.1-0.4c-2.7-17.1-11.8-32.1-25.8-42.3l-6.1,8.4c11.7,8.6,19.4,21.2,21.7,35.5
				c2.2,14.3-1.2,28.7-9.8,40.4c-9.7,13.3-24.6,21.3-40.8,22.2c0.2-5.6-0.1-11.2-0.9-16.9c0-0.2-0.1-0.4-0.1-0.6
				c-3.6-23.3-16.1-43.7-35.1-57.6l-6.1,8.4c16.8,12.2,27.8,30.3,31,50.8c3.2,20.5-1.8,41.1-14,57.8c-15.5,21.2-40.5,33.1-66.8,31.8
				l-0.5,10.4c29.8,1.5,58.1-12,75.7-36.1c8.3-11.3,13.6-24.2,15.8-37.6c19.9-0.6,38.5-10.3,50.3-26.6
				C872,994.9,876.2,977.9,873.7,961z M667.1,802.8c36.9-36.3,96.2-38.1,135.3-3.2l6.9-7.8c-43.7-39-110.3-36.5-150.9,4.9
				c-20-13-43.9-20.5-69.5-20.5c-36.9,0-70.2,15.7-93.6,40.7c0,0,0,0,0,0c1.3,1.1,2.5,2.2,3.9,3.3c0.1,0.1,0.1,0.1,0.2,0.2
				c1.3,1.1,2.6,2.1,4,3.1c21.5-22.7,51.9-36.8,85.6-36.8c65.1,0,117.9,52.8,117.9,117.9h10.4C717.2,863.2,697.5,826.3,667.1,802.8z
				 M518.2,644.3c1,1.4,2.1,2.7,3.2,4.1c0,0,0,0,0,0c12.8-5.8,27.1-9.1,42.1-9.1c42.2,0,78.4,25.7,93.9,62.2l9.6-4.1
				c-17.6-41.7-58.2-68.6-103.5-68.6c-17.3,0-33.7,3.9-48.4,11c0.9,1.4,1.9,2.8,2.9,4.1C518,644.1,518.1,644.2,518.2,644.3z
				 M594.7,477.3c0.1,0.4,0.2,0.7,0.3,1.1c0.6,1.6,1.2,3.3,1.8,4.9c0.8,0,1.7,0,2.5,0c38.9,0,72.6,22,89.5,54.2l2.7-1.4
				c0.5-3.8,1.1-7.6,1.9-11.3c-3.8-6-8.1-11.5-12.8-16.6c6.3-4.9,13.8-7.8,21.4-8.5c1.7-3.6,3.7-7.1,5.7-10.5
				c-12.3-0.5-24.8,3.4-34.7,11.7c-20-17.7-46.1-27.9-73.8-27.9c-2,0-4,0.1-6,0.2c0,0.1,0.1,0.2,0.1,0.4
				C593.8,474.6,594.2,476,594.7,477.3z M792.9,434.1c3.4-0.4,6.9-0.7,10.4-0.8c-4.6-45.8-36.8-83.6-79.7-96.4c0,0,0,0,0,0.1
				c-0.3,1.2-0.6,2.4-0.9,3.6c-0.1,0.4-0.2,0.9-0.3,1.3c-0.1,0.4-0.2,0.9-0.3,1.3c-0.2,1-0.4,2-0.5,3c-0.2,0-0.4,0-0.6,0
				c-0.7,0-1.5,0-2.5,0.1C758.4,357.2,788.5,391.8,792.9,434.1z M679.6,721.5c9.1,9.3,21.4,14.4,34.4,14.5h0.3
				c12.9,0,25.1-5,34.2-14.1c11.7-11.6,16.8-28.2,13.6-44.4l-10.2,2.1c2.6,12.7-1.4,25.8-10.7,34.9c-7.2,7.1-16.8,11-26.9,11
				c-0.1,0-0.2,0-0.3,0c-10.2-0.1-19.8-4.1-27-11.4L679.6,721.5z M664.2,991c-7,8.5-12.9,17.8-17.6,27.7
				c-22.1-15-30.8-44.4-19.1-69.3l-9.4-4.4c-14.2,30.3-3.2,66.1,24.4,83.5c-5.4,14.4-8.2,29.7-8.2,45.3c0,19.7,4.4,38.4,12.3,55.1
				c0.5,0.1,1,0.2,1.5,0.3c0.4,0.1,0.8,0.1,1.1,0.2c1.4,0.2,2.8,0.4,4.2,0.6c0.3,0,0.7,0.1,1,0.1c1.5,0.2,3,0.3,4.6,0.4c0,0,0,0,0,0
				c-9.1-16.9-14.3-36.2-14.3-56.7c0-28.9,10.3-55.5,27.4-76.1L664.2,991z M805.6,841.9c-0.1,0-0.2,0-0.3,0
				c-10.2-0.1-19.8-4.1-27-11.4l-7.4,7.3c9.1,9.3,21.4,14.4,34.4,14.5h0.3c12.9,0,25.1-5,34.2-14.1c11.7-11.6,16.8-28.2,13.6-44.4
				l-10.2,2.1c2.6,12.7-1.4,25.8-10.7,34.9C825.3,838,815.7,841.9,805.6,841.9z"/>
			<linearGradient id="SVGID_30_" gradientUnits="userSpaceOnUse" x1="807.1672" y1="265.6976" x2="807.1672" y2="1519.8821">
				<stop  offset="0" style="stop-color:#FE9E1A"/>
				<stop  offset="1" style="stop-color:#FF5B00"/>
			</linearGradient>
			<path class="st45" d="M903.5,471.9c-2.2,24.4-29.1,3.5-52.9-8.3c-1-0.5-2-1-3-1.5c-0.8-0.4-1.6-0.7-2.3-1.1
				c-0.2-0.1-0.4-0.2-0.6-0.2c-0.8-0.4-1.7-0.7-2.5-1c-0.3-0.1-0.6-0.2-0.9-0.3c-10.6-4-22-6.2-34-6.2c-53.2,0-96.4,43.2-96.4,96.4
				c0,53.2,43.2,96.4,96.4,96.4c12,0,23.4-2.2,34-6.2c0.3-0.1,0.6-0.2,0.9-0.3c0.8-0.3,1.6-0.7,2.5-1c0.2-0.1,0.4-0.2,0.6-0.2
				c0.8-0.3,1.5-0.7,2.3-1.1c1-0.5,2-1,3-1.5c23.8-11.8,50.7-32.7,52.9-8.3V471.9z"/>
			<linearGradient id="SVGID_31_" gradientUnits="userSpaceOnUse" x1="899.0298" y1="590.03" x2="555.9888" y2="590.03">
				<stop  offset="0" style="stop-color:#FFFFFF"/>
				<stop  offset="1" style="stop-color:#8E857E"/>
			</linearGradient>
			<path class="st46" d="M850.6,604.3c-1,0.5-2,1-3,1.5c-0.8,0.4-1.6,0.7-2.3,1.1c-0.2,0.1-0.4,0.2-0.6,0.2c-0.8,0.4-1.7,0.7-2.5,1
				c-0.3,0.1-0.6,0.2-0.9,0.3c-10.6,4-22,6.2-34,6.2c-47.9,0-87.6-34.9-95.1-80.6c-0.8,5.1-1.3,10.4-1.3,15.8
				c0,53.2,43.2,96.4,96.4,96.4c12,0,23.4-2.2,34-6.2c0.3-0.1,0.6-0.2,0.9-0.3c0.8-0.3,1.6-0.7,2.5-1c0.2-0.1,0.4-0.2,0.6-0.2
				c0.8-0.3,1.5-0.7,2.3-1.1c1-0.5,2-1,3-1.5c23.8-11.8,50.7-32.7,52.9-8.3V596C901.3,571.6,874.4,592.5,850.6,604.3z"/>
		</g>
		<g>
			<g>
				
					<linearGradient id="SVGID_32_" gradientUnits="userSpaceOnUse" x1="14079.1152" y1="990.903" x2="14079.1152" y2="1510.7186" gradientTransform="matrix(-0.9997 -1.990000e-02 -1.990000e-02 0.9997 15564.3564 -144.4917)">
					<stop  offset="0" style="stop-color:#FDAA65"/>
					<stop  offset="1" style="stop-color:#F47124"/>
				</linearGradient>
				<path class="st47" d="M1493.8,716.2c-3-21.3-9.7-33.6-19.2-49.8c-0.1-0.6-25.5,8-34.4-4.2c0,0,0.9,17.5,5.6,31.5
					c4.4,13.1,9.6,19.8,21.8,11.3c0,6.4-0.2,14.3-0.9,20.1c-1.5,11.7,6.3,15.2,11.9,15.2C1484.2,740.1,1496.9,737.9,1493.8,716.2z"
					/>
			</g>
			<path class="st10" d="M1441.6,675.4c-13-5.7-25.8-40-8-47.1c30.3-12.1,28,9.4,40.8,7.1c27.8-4.8,32.8,8.7,31.8,35.7
				c-0.7,16.5-3.5,30.8-13.9,31.8c-12.5,1.2-19.3-11.4-26.8-19.2C1458.8,676.8,1447.8,678.1,1441.6,675.4z"/>
			
				<linearGradient id="SVGID_33_" gradientUnits="userSpaceOnUse" x1="14699.2686" y1="1316.1254" x2="14699.2686" y2="1740.5659" gradientTransform="matrix(-0.9494 0.3136 0.3136 0.9494 14972.5508 -5264.3931)">
				<stop  offset="0" style="stop-color:#FDAA65"/>
				<stop  offset="1" style="stop-color:#F47124"/>
			</linearGradient>
			<path class="st48" d="M1462.1,672.7c2.7,1.6,3,6.1,0.7,10.1c-2.3,4-6.4,6-9.1,4.4c-2.7-1.6-3-6.1-0.7-10.1
				C1455.3,673.1,1459.4,671.1,1462.1,672.7z"/>
			<path class="st10" d="M1463.4,718c1.8-4,2.9-8.1,17.5-10c13.2-1.8,16.5-0.2,15.5,5.8c-0.8,4.7-9.8,7.4-17.2,8.4
				C1471.9,723.3,1461,723.3,1463.4,718z"/>
			<path class="st26" d="M1530.4,1266.5c-0.1-1-0.2-1.8-0.3-2.6c-1.3-7-5.4-5.5-8.1-4.6c-0.5,0.2-8.6,0.1-9.1,0
				c-19.8-0.8-21.6,20.3-21.6,20.3s18.4,0,26.2,0c7.9-0.1,14-0.1,14-0.1S1531.1,1276.5,1530.4,1266.5z"/>
			<g>
				<linearGradient id="SVGID_34_" gradientUnits="userSpaceOnUse" x1="1526.8302" y1="954.4435" x2="1526.8302" y2="1183.0521">
					<stop  offset="0" style="stop-color:#0A0E1A"/>
					<stop  offset="1" style="stop-color:#040F2C"/>
				</linearGradient>
				<path class="st49" d="M1483.7,910.9c0,0-11,126.1-12.2,151.4c-1.2,25.3,46.7,35.6,63.5,4.5c16.8-31.2,42.8-89.2,46.4-122.3
					c3.6-33.1-5.3-44.7-27.2-66.8C1532.3,855.6,1486.6,877,1483.7,910.9z"/>
				<linearGradient id="SVGID_35_" gradientUnits="userSpaceOnUse" x1="1505.0326" y1="954.4441" x2="1505.0326" y2="1183.0513">
					<stop  offset="0" style="stop-color:#0A0E1A"/>
					<stop  offset="1" style="stop-color:#040F2C"/>
				</linearGradient>
				<path class="st50" d="M1471.5,1065.4c5.4,38.6,42,194.9,42.4,197.4c4.5,4.9,11.3-0.4,11.3-0.4s-2.6-27.7,0.8-45.7
					c3.4-18,10.7-100.7,12.3-123c1.6-22.3-1-68.4-26.4-68.1C1486.4,1026,1470.9,1061,1471.5,1065.4z"/>
			</g>
			<path class="st26" d="M1368.2,1270.2c0,0,37.5-10.2,40.2-11.1c3-1,7.8-2.8,8.5,7.2c0.7,9.9,1.1,13,1.1,13s-43.5,0.7-48.2,0.2
				C1365,1279.1,1361.3,1275.6,1368.2,1270.2z"/>
			<linearGradient id="SVGID_36_" gradientUnits="userSpaceOnUse" x1="1451.7975" y1="954.4435" x2="1451.7975" y2="1183.0513">
				<stop  offset="0" style="stop-color:#0A0E1A"/>
				<stop  offset="1" style="stop-color:#040F2C"/>
			</linearGradient>
			<path class="st51" d="M1437.5,892.7c0,0-48.2,117-56.9,140.8c-8.7,23.8,33.9,48,59.2,23.2c25.3-24.7,59.7-59.5,73-90
				c13.3-30.5,16.1-57,1.8-84.7C1500.4,854.4,1450.4,861.1,1437.5,892.7z"/>
			<linearGradient id="SVGID_37_" gradientUnits="userSpaceOnUse" x1="1413.1516" y1="954.4437" x2="1413.1516" y2="1183.0515">
				<stop  offset="0" style="stop-color:#0A0E1A"/>
				<stop  offset="1" style="stop-color:#040F2C"/>
			</linearGradient>
			<path class="st52" d="M1379.4,1037.5c0.4,31,4.9,47.7,8.6,85.1c3.7,37.4,13.8,144.6,13.8,144.6s2.5,1.5,5.6,1.2
				c3.1-0.3,5.3-1.6,5.3-1.6s-0.1-26.8,4.6-44.4c4.7-17.7,25.5-137.8,28.7-159.9c3.2-22.1-3.6-30.1-28.9-31.7
				C1391.8,1029.2,1379.4,1033,1379.4,1037.5z"/>
			<path class="st53" d="M1501.9,712.8c18.4,1.1,37.5,13.7,48.3,41.4c25.3,65.5,35.6,186.4,35.6,186.4s-16.8,14.5-72.9,13.1
				c-82-2.1-94.6-28-94.6-28s15.4-65,8.3-165.9c-2.3-32.9,16.9-39.3,49-45C1484.7,713.3,1492.1,712.2,1501.9,712.8z"/>
			<g>
				<g>
					<path class="st15" d="M1278.3,700.7c0.5-3.9,0.5-14.3-3.2-13.5c-2.8,0.6-4.4,6.2-5,10.2c-0.2,1.4,1.5,2.6-4,8.9
						c-3.9,4.5,4.2,12.1,4.2,12.1S1277,709.9,1278.3,700.7z"/>
					<path class="st15" d="M1313.6,815.5c-22.8-20.6-43.9-77.5-55-86.7c-18.9-15.6-20.5-24.4-16.8-34.7c2.1-5.8,14.1-11.6,22.2-9.4
						c5.2,1.4,10.1,13.5,6.4,33.8c2.7,7.8,49.6,62.2,63,78.6c6.1,7.4,19.7,21.4,9.9,22.9C1330.3,822,1321.6,822.7,1313.6,815.5z"/>
				</g>
				<g>
					<path class="st15" d="M1355.1,781.7c0,0-26,16.5-32.8,22.8c-4.9,4.5,1.9,10.8,6,14.7c4.1,3.9,25,0.2,40.7-8.3
						C1381.1,804.3,1357.8,781.7,1355.1,781.7z"/>
					<linearGradient id="SVGID_38_" gradientUnits="userSpaceOnUse" x1="1448.5306" y1="765.2974" x2="1304.3057" y2="828.32">
						<stop  offset="0" style="stop-color:#65BDD8"/>
						<stop  offset="0.2136" style="stop-color:#59A9C5"/>
						<stop  offset="0.6391" style="stop-color:#3B7A99"/>
						<stop  offset="1" style="stop-color:#205376"/>
					</linearGradient>
					<path class="st54" d="M1444.5,723.5c-23.3,10.6-106.3,62.3-106.3,62.3s-1.5,8.4,5.2,23.6c5.8,13.1,11.8,23.2,15.5,29.6
						c4.4,7.5,8.7,5.4,15.1,2.4c17.7-8.3,54.4-25.3,80.9-36.3c28.6-11.8,38.8-38.1,28.8-60.1
						C1474.5,724.8,1460.5,716.3,1444.5,723.5z"/>
				</g>
			</g>
		</g>
		<g>
			<g>
				<path class="st26" d="M361.5,1269.7c0,0-37.6-9.6-40.4-10.4c-3-1-7.8-2.7-8.4,7.3c-0.5,9.9-0.9,13.1-0.9,13.1s43.5,0,48.2-0.6
					C364.8,1278.6,368.5,1275,361.5,1269.7z"/>
				<linearGradient id="SVGID_39_" gradientUnits="userSpaceOnUse" x1="346.6691" y1="1011.6445" x2="346.6691" y2="1254.4331">
					<stop  offset="0" style="stop-color:#0A0E1A"/>
					<stop  offset="1" style="stop-color:#040F2C"/>
				</linearGradient>
				<path class="st55" d="M395.5,941.3c0,0-14.9,89.8-20.1,114.6c-5.2,24.8-54.1,22.9-62.6-11.5c-8.5-34.4-19.3-82-14.6-115
					c4.8-33,16.4-56.9,43.1-72.9C368.1,840.6,401.2,907.7,395.5,941.3z"/>
				<linearGradient id="SVGID_40_" gradientUnits="userSpaceOnUse" x1="343.9117" y1="1011.6442" x2="343.9117" y2="1254.4314">
					<stop  offset="0" style="stop-color:#0A0E1A"/>
					<stop  offset="1" style="stop-color:#040F2C"/>
				</linearGradient>
				<path class="st56" d="M378.5,1039.9c-4.1,30.8-10.6,46.8-18.7,83.5c-8.1,36.7-31,142-31,142s-2.7,1.1-5.7,0.5
					c-3-0.7-5.1-2.2-5.1-2.2s3.3-26.5,0.7-44.7c-2.6-18.1-8.9-139.9-9.5-162.2c-0.6-22.3,7.1-29.5,32.5-28
					C367.2,1030.2,379.1,1035.5,378.5,1039.9z"/>
			</g>
			<g>
				<path class="st26" d="M242.8,1266.5c-0.1-1-0.2-1.8-0.3-2.6c-1.3-7-5.4-5.5-8.1-4.6c-0.5,0.2-8.6,0.1-9.1,0
					c-19.8-0.8-21.6,20.3-21.6,20.3s18.4,0,26.2,0c7.9-0.1,14-0.1,14-0.1S243.5,1276.5,242.8,1266.5z"/>
				<path class="st10" d="M346.9,931.9c0,0-43.3,118.9-53,142.3c-9.7,23.4-57.4,12.5-59.4-22.8c-2-35.3-1.1-98.9,9.7-130.5
					c10.7-31.5,23.7-38.2,52.9-49C326.2,861.1,358.6,899.8,346.9,931.9z"/>
				<path class="st10" d="M301.6,1054.2c-9.3,37.8-64,209.1-64,209.1s-0.8,0.3-5.5,0c-4.3-0.3-5.6-1.5-5.6-1.5s5.4-27.3,3.9-45.6
					c-1.6-18.2-0.4-101.3,0.2-123.6c0.7-22.3,8-67.9,33.2-65.1C289.1,1030.4,302.7,1049.8,301.6,1054.2z"/>
			</g>
			<linearGradient id="SVGID_41_" gradientUnits="userSpaceOnUse" x1="317.4897" y1="840.1151" x2="317.4897" y2="935.4602">
				<stop  offset="0" style="stop-color:#76469F"/>
				<stop  offset="1" style="stop-color:#643E9A"/>
			</linearGradient>
			<path class="st57" d="M280.1,719.5c-39.3,6.6-38.7,43.3-38.3,73c0.8,51.8-7.2,153.5-7.2,153.5s20.6,16.4,83.5,11
				c81.7-7,82.3-14.7,82.3-14.7s-34.4-188.8-42.9-211c-5.8-15-18.5-14.9-51.1-14.6C297.1,716.9,289.8,717.9,280.1,719.5z"/>
			<g>
				<path class="st10" d="M332.2,678.1c12.5-10.8,18.3-50.3-0.5-54c-32-6.3-24,14.3-36.9,14.5c-28.2,0.4-32.5,14.6-26.5,41
					c3.7,16.1,12.6,20.8,19.5,28.7c3.8,4.4,6-17.8,20.2-25.1C322.2,675.7,332.2,678.1,332.2,678.1z"/>
				<path class="st10" d="M330.5,719.4c3.3,11.5,13.8,36.6-14.2,37.7c-32.9,1.3-42.9-31.9-41.4-35.9c3.4-9.1,16.8-5.5,25.1-5.7
					C308.3,715.3,327.8,709.7,330.5,719.4z"/>
				<g>
					
						<linearGradient id="SVGID_42_" gradientUnits="userSpaceOnUse" x1="23147.7891" y1="3767.3508" x2="23147.7891" y2="4293.4512" gradientTransform="matrix(0.979 -0.2033 0.2033 0.979 -23155.084 1587.7997)">
						<stop  offset="0" style="stop-color:#FDAA65"/>
						<stop  offset="1" style="stop-color:#F47124"/>
					</linearGradient>
					<path class="st58" d="M283.4,719.8c1.6-0.3,3.2-0.5,4.8-0.7c9.2-1.1,16.6-1.1,26.4-0.7c3.1,0.1,6,0.4,8.6,1
						c1.7,7.5,11.1,27.9-9.9,29.3C291.8,750,283.6,727.1,283.4,719.8z"/>
					<g>
						
							<linearGradient id="SVGID_43_" gradientUnits="userSpaceOnUse" x1="23159.9355" y1="3768.9944" x2="23159.9355" y2="4288.8159" gradientTransform="matrix(0.979 -0.2033 0.2033 0.979 -23155.084 1587.7997)">
							<stop  offset="0" style="stop-color:#FDAA65"/>
							<stop  offset="1" style="stop-color:#F47124"/>
						</linearGradient>
						<path class="st59" d="M288.7,721.3c-1-21.5,3.4-34.8,9.7-52.4c0-0.7,26.6,3.2,33.1-10.4c0,0,2.3,17.4,0.3,31.9
							c-1.9,13.7-5.8,21.2-19.3,15.1c1.2,6.3,2.8,14,4.6,19.5c3.7,11.2-3.4,16.1-8.9,17.1C302.6,743,289.7,743.2,288.7,721.3z"/>
						
							<linearGradient id="SVGID_44_" gradientUnits="userSpaceOnUse" x1="23145.7969" y1="3768.9624" x2="23145.7969" y2="4288.9111" gradientTransform="matrix(0.979 -0.2033 0.2033 0.979 -23155.084 1587.7997)">
							<stop  offset="0" style="stop-color:#FDAA65"/>
							<stop  offset="1" style="stop-color:#F47124"/>
						</linearGradient>
						<path class="st60" d="M284.3,674.5c-1.9,3.3,0.5,8.3,5.4,11.1c4.9,2.8,10.4,2.4,12.3-0.9c1.9-3.3-0.5-8.3-5.4-11.1
							C291.7,670.7,286.2,671.2,284.3,674.5z"/>
					</g>
				</g>
			</g>
			<g>
				<path class="st15" d="M489.7,747.8c1.2-3.7,4.8-14.3,8-12.5c2.5,1.4,3.9,7.6,2.8,11.4c-0.4,1.4-4.5,3.3-2.2,11.3
					c1.6,5.8-7.3,7.6-7.3,7.6S487.1,755.5,489.7,747.8z"/>
				<path class="st15" d="M402.9,838.6c29.5-8.9,80.6-48.9,92.6-57c14.6-9.8,16.3-5.6,28.4-14.3c8.1-5.9,1.5-26.7-6.8-27.5
					c-11.9-1.2-29.3,8.9-27.7,27.4c-5.8,5.9-71.5,35.1-90.6,44.2c-8.6,4.1-28,5.8-20.9,15.1C386,837.3,391.9,841.9,402.9,838.6z"/>
			</g>
			<g>
				<path class="st15" d="M375.5,801.7c0,0,26.9,15,34.1,20.9c5.1,4.2-1.3,10.9-5.2,15c-3.9,4.1-24.9,1.6-41.1-6
					C350.9,825.8,372.8,801.9,375.5,801.7z"/>
				<linearGradient id="SVGID_45_" gradientUnits="userSpaceOnUse" x1="265.2937" y1="779.2372" x2="397.8032" y2="853.5713">
					<stop  offset="0" style="stop-color:#76469F"/>
					<stop  offset="1" style="stop-color:#391C89"/>
				</linearGradient>
				<path class="st61" d="M283,748.7c23.9,9.3,109.7,56.1,109.7,56.1s2,8.3-3.9,23.8c-8.8,23.4-18.2,37.9-18.2,37.9
					s-56.5-23.1-93.4-36c-29.2-10.2-40.9-35.9-32.1-58.4C253.1,751.7,266.7,742.3,283,748.7z"/>
			</g>
		</g>
	</g>
	<g>
		<g>
			<polygon class="st62" points="2544.8,1279.7 2446.8,1110.9 2470.4,1097.3 2576.3,1279.7 			"/>
			<g>
				<rect x="2531.4" y="1226.4" class="st63" width="117.8" height="27.3"/>
				<rect x="2493.7" y="1161.8" class="st63" width="117.3" height="27.3"/>
			</g>
		</g>
		<linearGradient id="SVGID_46_" gradientUnits="userSpaceOnUse" x1="2548.0208" y1="1260.8705" x2="2548.0208" y2="1140.0948">
			<stop  offset="0" style="stop-color:#FFFFFF"/>
			<stop  offset="1" style="stop-color:#8E857E"/>
		</linearGradient>
		<polygon class="st64" points="2649.2,1226.4 2545.3,1226.4 2523.7,1189.1 2611,1189.1 2611,1161.8 2507.9,1161.8 2470.4,1097.3 
			2446.8,1110.9 2544.8,1279.7 2576.3,1279.7 2561.2,1253.7 2649.2,1253.7 		"/>
		<polygon class="st62" points="2336.2,1279.7 2434.1,1110.9 2410.5,1097.3 2304.6,1279.7 		"/>
		<rect x="2410.4" y="1097.3" class="st63" width="127.3" height="27.3"/>
		<g>
			<rect x="2335.6" y="1226.4" class="st63" width="117.8" height="27.3"/>
			<rect x="2373" y="1161.8" class="st63" width="119.8" height="27.3"/>
		</g>
		<rect x="2515.8" y="1097.3" class="st62" width="60.6" height="27.3"/>
		<g>
			<polygon class="st62" points="2441.8,1279.7 2539.7,1110.9 2516.1,1097.3 2410.3,1279.7 			"/>
			<polygon class="st62" points="2650.4,1279.7 2552.5,1110.9 2576.1,1097.3 2681.9,1279.7 			"/>
		</g>
	</g>
</g>
</svg>
