<?xml version="1.0" encoding="utf-8"?>
<!-- Generator: Adobe Illustrator 21.1.0, SVG Export Plug-In . SVG Version: 6.00 Build 0)  -->
<svg version="1.1" id="Layer_1" xmlns="http://www.w3.org/2000/svg" xmlns:xlink="http://www.w3.org/1999/xlink" x="0px" y="0px"
	 viewBox="0 0 2800 1800" style="enable-background:new 0 0 2800 1800;" xml:space="preserve">
<g>
	<path d="M676.3,461.5h-8.7v-22.3c0-6.2-5-11.2-11.2-11.2H416.9H177.5c-6.2,0-11.2,5-11.2,11.2v22.3h-8.7c-7,0-12.6,5.7-12.6,12.6
		v297.4c0,7,5.7,12.6,12.6,12.6h518.8c7,0,12.6-5.7,12.6-12.6V474.1C688.9,467.2,683.3,461.5,676.3,461.5z M188.7,450.4h217v299.2
		h-217V450.4z M645.1,749.6h-217V450.4h217V749.6z"/>
</g>
<path d="M1345.9,460.4c-1.4-0.6-2.7-1.2-4.1-1.9v-7.2c0-4.1-2.2-7.8-5.8-9.8c-81.2-45-163.6-45.9-244.9-2.9
	c-81.3-43-163.6-42-244.9,2.9c-3.6,2-5.8,5.7-5.8,9.8v7.2c-1.4,0.6-2.7,1.2-4.1,1.9C828.8,464,824,471.6,824,480v302
	c0,11.3,10.8,19.3,21.6,16.2c81.8-23.7,163.7-21.4,245.5,6.9c81.8-28.3,163.7-30.6,245.5-6.9c10.8,3.1,21.6-4.9,21.6-16.2V480
	C1358.4,471.6,1353.5,464,1345.9,460.4z M863,458c72.9-38.4,144.1-38.4,217,0v299.2c-36-11.6-72.3-17.4-108.5-17.4
	c-36.2,0-72.5,5.8-108.5,17.4V458z M1319.4,458v299.2c-72.1-23.2-144.9-23.2-217,0V458C1175.4,419.6,1246.5,419.6,1319.4,458z"/>
<path d="M2029.6,657.5l-15.5-5.5c-0.2-1-0.6-2.1-1.1-3c-15.5-29.3-15.5-57.8,0-87.1c0.1-0.1,0.1-0.3,0.2-0.4l15.1-5.3
	c3.5-1.2,3.4-6.1-0.1-7.2l-326.4-105.5l-192.2,89.3c0,0-36.4,52.9,0,137.5l243.5,109.3l276.7-110.5
	C2035.3,667.1,2035.1,659.4,2029.6,657.5z M1983,576.6c-6.7,23.8-5.1,47.8,4.8,71.6l-229,89.4c-0.1-0.1-0.1-0.3-0.2-0.4
	c-0.6-1.4-1.2-2.8-1.7-4.2c0,0,0,0,0,0c-0.5-1.4-1-2.8-1.4-4.2c-0.1-0.2-0.2-0.5-0.2-0.7c-0.4-1.3-0.8-2.7-1.1-4
	c-0.1-0.3-0.1-0.5-0.2-0.8c-0.3-1.4-0.6-2.7-0.9-4.1c0-0.2-0.1-0.3-0.1-0.5c-0.3-1.3-0.5-2.6-0.7-3.9c0-0.2-0.1-0.4-0.1-0.5
	c-0.2-1.3-0.3-2.7-0.4-4c0-0.3,0-0.5-0.1-0.8c-0.1-1.3-0.2-2.7-0.2-4c0-0.2,0-0.5,0-0.7c0-1.4,0-2.7,0-4.1c0-0.1,0-0.1,0-0.2
	c0-1.4,0.1-2.8,0.3-4.2c0-0.2,0-0.5,0.1-0.7c0.1-1.3,0.3-2.7,0.5-4c0-0.3,0.1-0.5,0.1-0.8c0.2-1.4,0.4-2.7,0.7-4.1
	c0-0.1,0.1-0.3,0.1-0.4c0.3-1.3,0.6-2.6,0.9-4c0-0.2,0.1-0.4,0.1-0.5c0.4-1.4,0.8-2.7,1.2-4.1c0.1-0.3,0.2-0.5,0.3-0.8
	c0.4-1.4,0.9-2.7,1.4-4.1c0.1-0.2,0.2-0.4,0.2-0.6c0.5-1.4,1.1-2.8,1.7-4.2c0,0,0-0.1,0.1-0.1c0.6-1.4,1.3-2.8,1.9-4.2
	c0.1-0.1,0.1-0.3,0.2-0.4L1983,576.6z"/>
<path d="M658.7,971.9c0-3.1-1.2-6-3.5-8.1c-2.2-2.1-5.2-3.2-8.2-3.1c-51,2.1-96.6,9.3-135.5,21.4c-37.6,11.7-70.2,28.3-96.9,49.5
	c-26.8-21.2-59.3-37.8-96.9-49.5c-38.9-12.1-84.5-19.3-135.5-21.4c-3.1-0.1-6,1-8.2,3.1c-2.2,2.1-3.5,5-3.5,8.1V987h-19.9v338.4
	c0,0,175.2,8.2,264,53.3c88.8-45.1,264-53.3,264-53.3V987h-19.9V971.9z M636.3,983.7V1279c-65.2,2.5-134.4,24.1-210.4,65.9v-293.6
	C474.4,1011.7,545.1,989,636.3,983.7z M193,983.7c91.2,5.3,161.9,28,210.4,67.6v293.6c-76.1-41.8-145.2-63.5-210.4-65.9V983.7z"/>
<path d="M1260,990.7h-3.6c-1-0.3-2-0.4-3-0.4h-23.8v-12.6c0-6.2-5-11.2-11.2-11.2H908.1c-6.2,0-11.2,5-11.2,11.2v23.8v304.2v31.1
	c0,20,16.3,36.3,36.3,36.3h3h36.3h281.1c0.7,0,1.4-0.1,2.1-0.2h4.5c7.9,0,14.2-6.4,14.2-14.2v-353.8
	C1274.3,997.1,1267.9,990.7,1260,990.7z M1242.3,1350.7H972.4h-36.3c-9.3,0-16.9-7.6-16.9-16.9s7.6-16.9,16.9-16.9H988h230.5
	c6.2,0,11.2-5,11.2-11.2v-293h12.6V1350.7z"/>
<path d="M2019.6,1033.6h-24.4v-21.3v0c0-4.1-2.2-7.8-5.8-9.8c-2.5-1.4-4.9-2.7-7.4-3.9c-0.7-0.4-1.4-0.7-2-1
	c-1.8-0.9-3.5-1.8-5.3-2.7c-0.9-0.4-1.9-0.9-2.8-1.3c-1.5-0.7-3.1-1.4-4.6-2.1c-1-0.5-2-0.9-3.1-1.3c-1.4-0.6-2.9-1.3-4.3-1.9
	c-1.1-0.4-2.1-0.9-3.2-1.3c-1.4-0.6-2.8-1.1-4.2-1.6c-1.1-0.4-2.2-0.8-3.3-1.2c-1.4-0.5-2.7-1-4.1-1.5c-1.1-0.4-2.3-0.8-3.4-1.1
	c-1.3-0.4-2.7-0.9-4-1.3c-1.1-0.4-2.3-0.7-3.4-1c-1.3-0.4-2.6-0.8-4-1.2c-1.2-0.3-2.3-0.6-3.5-0.9c-1.3-0.3-2.6-0.7-3.9-1
	c-1.2-0.3-2.3-0.5-3.5-0.8c-1.3-0.3-2.6-0.6-3.9-0.9c-1.2-0.2-2.3-0.5-3.5-0.7c-1.3-0.3-2.6-0.5-3.9-0.7c-1.2-0.2-2.3-0.4-3.5-0.6
	c-1.3-0.2-2.6-0.4-3.9-0.6c-1.2-0.2-2.4-0.3-3.5-0.5c-1.3-0.2-2.6-0.3-3.9-0.5c-1.2-0.1-2.4-0.2-3.5-0.3c-1.3-0.1-2.6-0.2-3.9-0.3
	c-1.2-0.1-2.4-0.2-3.5-0.2c-1.3-0.1-2.6-0.1-3.9-0.2c-1.2,0-2.4-0.1-3.5-0.1c-1.3,0-2.6-0.1-3.9-0.1c-1.2,0-2.4,0-3.5,0
	c-1.3,0-2.6,0-3.9,0.1c-1.2,0-2.4,0.1-3.5,0.1c-1.3,0.1-2.6,0.1-3.9,0.2c-1.2,0.1-2.4,0.2-3.5,0.3c-1.3,0.1-2.6,0.2-3.9,0.3
	c-1.2,0.1-2.4,0.2-3.5,0.4c-1.3,0.1-2.6,0.3-3.9,0.5c-1.2,0.2-2.4,0.3-3.5,0.5c-1.3,0.2-2.6,0.4-3.9,0.6c-1.2,0.2-2.3,0.4-3.5,0.6
	c-1.3,0.2-2.6,0.5-3.9,0.7c-1.2,0.2-2.3,0.5-3.5,0.7c-1.3,0.3-2.6,0.6-3.9,0.9c-1.2,0.3-2.3,0.5-3.5,0.8c-1.3,0.3-2.6,0.7-3.9,1
	c-1.2,0.3-2.3,0.6-3.5,1c-1.3,0.4-2.6,0.8-3.9,1.1c-1.2,0.3-2.3,0.7-3.5,1.1c-1.3,0.4-2.6,0.8-3.9,1.3c-1.2,0.4-2.3,0.8-3.5,1.2
	c-1.3,0.5-2.6,0.9-3.9,1.4c-1.2,0.4-2.3,0.9-3.5,1.3c-1.3,0.5-2.6,1-3.9,1.6c-1.2,0.5-2.3,0.9-3.5,1.4c-1.3,0.6-2.6,1.1-3.9,1.7
	c-1.1,0.5-2.3,1-3.4,1.5c-1.3,0.6-2.6,1.2-3.9,1.8c-1.1,0.5-2.3,1.1-3.4,1.6c-1.3,0.6-2.6,1.3-3.9,2c-1.1,0.6-2.3,1.2-3.4,1.7
	c-0.3,0.2-0.7,0.3-1,0.5c-0.3-0.2-0.7-0.3-1-0.5c-1.2-0.6-2.3-1.2-3.5-1.8c-1.3-0.7-2.6-1.3-3.9-2c-1.2-0.6-2.3-1.1-3.5-1.7
	c-1.3-0.6-2.6-1.2-3.9-1.8c-1.2-0.5-2.4-1-3.5-1.6c-1.3-0.6-2.6-1.1-3.8-1.7c-1.2-0.5-2.4-1-3.6-1.5c-1.3-0.5-2.5-1-3.8-1.5
	c-1.2-0.5-2.4-0.9-3.6-1.3c-1.3-0.5-2.5-0.9-3.8-1.4c-1.2-0.4-2.4-0.8-3.6-1.2c-1.3-0.4-2.5-0.8-3.8-1.2c-1.2-0.4-2.4-0.7-3.6-1.1
	c-1.3-0.4-2.5-0.8-3.8-1.1c-1.2-0.3-2.4-0.7-3.6-1c-1.3-0.3-2.5-0.7-3.8-1c-1.2-0.3-2.4-0.6-3.6-0.9c-1.3-0.3-2.5-0.6-3.8-0.8
	c-1.2-0.3-2.4-0.5-3.6-0.7c-1.3-0.2-2.5-0.5-3.8-0.7c-1.2-0.2-2.4-0.4-3.6-0.6c-1.2-0.2-2.5-0.4-3.7-0.6c-1.2-0.2-2.4-0.3-3.7-0.5
	c-1.2-0.2-2.5-0.3-3.7-0.4c-1.2-0.1-2.4-0.3-3.7-0.4c-1.2-0.1-2.5-0.2-3.7-0.3c-1.2-0.1-2.4-0.2-3.7-0.3c-1.2-0.1-2.5-0.1-3.7-0.2
	c-1.2-0.1-2.4-0.1-3.7-0.1c-1.2,0-2.5-0.1-3.7-0.1c-1.2,0-2.4,0-3.7,0c-1.3,0-2.5,0-3.8,0.1c-1.2,0-2.4,0.1-3.7,0.1
	c-1.3,0.1-2.5,0.1-3.8,0.2c-1.2,0.1-2.4,0.1-3.6,0.2c-1.3,0.1-2.5,0.2-3.8,0.3c-1.2,0.1-2.4,0.2-3.6,0.4c-1.3,0.1-2.5,0.3-3.8,0.5
	c-1.2,0.2-2.4,0.3-3.6,0.5c-1.3,0.2-2.5,0.4-3.8,0.6c-1.2,0.2-2.4,0.4-3.6,0.6c-1.3,0.2-2.5,0.5-3.8,0.7c-1.2,0.2-2.4,0.5-3.6,0.7
	c-1.3,0.3-2.6,0.6-3.8,0.9c-1.2,0.3-2.4,0.5-3.6,0.8c-1.3,0.3-2.6,0.7-3.9,1c-1.2,0.3-2.4,0.6-3.5,0.9c-1.3,0.4-2.6,0.8-3.9,1.1
	c-1.2,0.3-2.3,0.7-3.5,1c-1.3,0.4-2.6,0.9-3.9,1.3c-1.1,0.4-2.3,0.7-3.4,1.1c-1.3,0.5-2.7,1-4,1.4c-1.1,0.4-2.3,0.8-3.4,1.2
	c-1.4,0.5-2.7,1.1-4.1,1.6c-1.1,0.4-2.2,0.9-3.3,1.3c-1.4,0.6-2.8,1.2-4.3,1.8c-1,0.5-2.1,0.9-3.1,1.3c-1.5,0.7-3,1.4-4.6,2.1
	c-0.9,0.4-1.9,0.9-2.8,1.3c-1.8,0.9-3.5,1.8-5.3,2.6c-0.7,0.4-1.4,0.7-2.1,1c-2.5,1.3-4.9,2.6-7.4,3.9c-3.6,2-5.8,5.7-5.8,9.8v0
	v21.3H1492c-6.2,0-11.2,5-11.2,11.2v325c0,3.7,1.8,7.1,4.8,9.2c3,2.1,6.8,2.6,10.3,1.3l47.9-17.6c32.7-12,65.6-18.1,97.9-18.1
	c32.3,0,65.3,6.1,98,18.1l12.3,4.5c0.1,0,0.2,0.1,0.4,0.1c0.1,0,0.2,0.1,0.3,0.1c0.1,0,0.2,0.1,0.3,0.1c0.3,0.1,0.6,0.1,0.9,0.2
	c0,0,0.1,0,0.1,0c0.1,0,0.1,0,0.2,0c0.1,0,0.2,0,0.2,0c0.2,0,0.3,0.1,0.5,0.1c0,0,0,0,0.1,0c0.3,0,0.7,0,1,0h0h0h0h0
	c0.3,0,0.7,0,1,0c0.1,0,0.2,0,0.3,0c0.1,0,0.2,0,0.3,0c0.1,0,0.2,0,0.2,0c0.1,0,0.1,0,0.2,0c0.2,0,0.4-0.1,0.6-0.1
	c0.1,0,0.2,0,0.4-0.1c0.1,0,0.2-0.1,0.3-0.1c0.1,0,0.2-0.1,0.3-0.1c0.1,0,0.3-0.1,0.4-0.1l12.3-4.5c32.7-12,65.6-18.1,98-18.1
	c32.3,0,65.3,6.1,98,18.1l47.9,17.6c1.3,0.5,2.6,0.7,3.9,0.7c2.3,0,4.5-0.7,6.4-2c3-2.1,4.8-5.5,4.8-9.2v-325
	C2030.8,1038.7,2025.8,1033.6,2019.6,1033.6z M1811.2,1323.8c-9.8,3.6-19.5,7.3-29.2,11.1c-1.4,0.5-2.9,1.1-4.3,1.6
	c-0.8,0.3-1.5,0.6-2.3,0.9c-1,0.4-2.1,0.8-3.1,1.2c-1.4,0.5-2.7,1-4.1,1.6c-0.4,0.2-0.8,0.3-1.2,0.5v-321.5c0.1-0.1,0.3-0.2,0.4-0.2
	c1-0.5,2.1-1.1,3.1-1.6c1.1-0.6,2.3-1.2,3.4-1.7c1.1-0.5,2.1-1,3.2-1.5c1.1-0.5,2.2-1.1,3.3-1.6c1.1-0.5,2.2-1,3.3-1.4
	c1.1-0.5,2.2-1,3.3-1.4c1.1-0.5,2.2-0.9,3.3-1.4c1.1-0.4,2.2-0.9,3.2-1.3c1.1-0.4,2.2-0.8,3.3-1.3c1.1-0.4,2.1-0.8,3.2-1.2
	c1.1-0.4,2.2-0.8,3.3-1.2c1.1-0.4,2.1-0.7,3.2-1.1c1.1-0.4,2.2-0.7,3.4-1.1c1.1-0.3,2.1-0.7,3.2-1c1.1-0.3,2.2-0.6,3.4-0.9
	c1.1-0.3,2.1-0.6,3.2-0.9c1.1-0.3,2.2-0.6,3.4-0.8c1-0.3,2.1-0.5,3.1-0.7c1.1-0.3,2.2-0.5,3.4-0.7c1-0.2,2.1-0.4,3.1-0.6
	c1.1-0.2,2.2-0.4,3.4-0.6c1-0.2,2.1-0.4,3.1-0.5c1.1-0.2,2.2-0.3,3.4-0.5c1-0.1,2.1-0.3,3.1-0.4c1.1-0.1,2.2-0.3,3.4-0.4
	c1-0.1,2.1-0.2,3.1-0.3c1.1-0.1,2.2-0.2,3.4-0.3c1-0.1,2.1-0.1,3.1-0.2c1.1-0.1,2.2-0.1,3.3-0.2c1,0,2.1-0.1,3.1-0.1
	c1.1,0,2.2,0,3.3-0.1c1.1,0,2.1,0,3.2,0c1.1,0,2.2,0,3.3,0.1c1.1,0,2.1,0.1,3.2,0.1c1.1,0,2.2,0.1,3.3,0.2c1.1,0.1,2.1,0.1,3.2,0.2
	c1.1,0.1,2.2,0.2,3.3,0.3c1.1,0.1,2.1,0.2,3.2,0.3c1.1,0.1,2.2,0.2,3.3,0.4c1.1,0.1,2.1,0.3,3.2,0.4c1.1,0.2,2.2,0.3,3.3,0.5
	c1.1,0.2,2.2,0.4,3.3,0.6c1.1,0.2,2.2,0.4,3.2,0.6c1.1,0.2,2.2,0.4,3.3,0.7c1.1,0.2,2.1,0.4,3.2,0.7c1.1,0.3,2.2,0.5,3.3,0.8
	c1.1,0.3,2.1,0.5,3.2,0.8c1.1,0.3,2.2,0.6,3.4,0.9c1,0.3,2.1,0.6,3.1,0.9c1.1,0.3,2.3,0.7,3.4,1.1c1,0.3,2.1,0.6,3.1,1
	c1.2,0.4,2.3,0.8,3.5,1.2c1,0.3,2,0.7,3,1.1c1.2,0.4,2.4,0.9,3.6,1.3c1,0.4,2,0.7,2.9,1.1c1.2,0.5,2.5,1,3.7,1.5
	c0.9,0.4,1.9,0.8,2.8,1.2c1.3,0.6,2.6,1.2,3.9,1.7c0.9,0.4,1.7,0.8,2.6,1.2c1.5,0.7,2.9,1.4,4.4,2.1c0.7,0.3,1.4,0.7,2.2,1
	c2.2,1.1,4.4,2.2,6.6,3.3v284.5C1918.1,1289.1,1864,1304.4,1811.2,1323.8z M1597.8,1298.3c-4.6-0.3-9.2-0.5-13.9-0.5
	c-15,0-30,1.7-45.1,5.7v-284.5c0.4-0.2,0.8-0.4,1.3-0.6c1.8-0.9,3.5-1.8,5.3-2.7c0.8-0.4,1.6-0.8,2.5-1.2c1.4-0.7,2.7-1.3,4.1-2
	c0.9-0.4,1.8-0.8,2.7-1.2c1.3-0.6,2.6-1.1,3.8-1.7c1-0.4,1.9-0.8,2.9-1.2c1.2-0.5,2.5-1,3.7-1.5c1-0.4,1.9-0.7,2.9-1.1
	c1.2-0.5,2.4-0.9,3.6-1.4c1-0.4,2-0.7,3-1c1.2-0.4,2.4-0.8,3.6-1.2c1-0.3,2-0.6,3-0.9c1.2-0.4,2.3-0.7,3.5-1.1c1-0.3,2-0.6,3-0.9
	c1.2-0.3,2.3-0.7,3.5-1c1-0.3,2.1-0.5,3.1-0.8c1.1-0.3,2.3-0.6,3.4-0.8c1-0.2,2.1-0.4,3.1-0.7c1.1-0.2,2.3-0.5,3.4-0.7
	c1-0.2,2.1-0.4,3.1-0.6c1.1-0.2,2.3-0.4,3.4-0.6c1-0.2,2.1-0.3,3.1-0.5c1.1-0.2,2.2-0.3,3.4-0.5c1.1-0.1,2.1-0.3,3.2-0.4
	c1.1-0.1,2.2-0.2,3.3-0.3c1.1-0.1,2.1-0.2,3.2-0.3c1.1-0.1,2.2-0.2,3.3-0.2c1.1-0.1,2.1-0.1,3.2-0.2c1.1,0,2.2-0.1,3.3-0.1
	c1.1,0,2.1,0,3.2-0.1c1.1,0,2.2,0,3.3,0c1.1,0,2.1,0,3.2,0.1c1.1,0,2.2,0.1,3.3,0.1c1.1,0,2.1,0.1,3.2,0.2c1.1,0.1,2.2,0.1,3.3,0.2
	c1.1,0.1,2.2,0.2,3.2,0.3c1.1,0.1,2.2,0.2,3.3,0.3c1.1,0.1,2.2,0.2,3.2,0.4c1.1,0.1,2.2,0.3,3.3,0.4c1.1,0.2,2.2,0.3,3.3,0.5
	c1.1,0.2,2.2,0.4,3.2,0.5c1.1,0.2,2.2,0.4,3.3,0.6c1.1,0.2,2.2,0.4,3.3,0.7c1.1,0.2,2.2,0.5,3.3,0.7c1.1,0.2,2.2,0.5,3.2,0.8
	c1.1,0.3,2.2,0.5,3.3,0.8c1.1,0.3,2.2,0.6,3.3,0.9c1.1,0.3,2.2,0.6,3.3,0.9c1.1,0.3,2.2,0.7,3.3,1c1.1,0.3,2.2,0.7,3.2,1
	c1.1,0.4,2.2,0.7,3.3,1.1c1.1,0.4,2.2,0.7,3.2,1.1c1.1,0.4,2.2,0.8,3.3,1.2c1.1,0.4,2.2,0.8,3.2,1.2c1.1,0.4,2.2,0.9,3.3,1.3
	c1.1,0.4,2.1,0.9,3.2,1.3c1.1,0.5,2.2,1,3.3,1.5c1.1,0.5,2.1,0.9,3.2,1.4c1.1,0.5,2.3,1.1,3.4,1.6c1.1,0.5,2.1,1,3.2,1.5
	c1.1,0.6,2.3,1.2,3.4,1.7c1,0.5,2.1,1,3.1,1.6c0.1,0.1,0.3,0.2,0.4,0.2v321.5c-0.4-0.1-0.7-0.3-1.1-0.4c-1.6-0.6-3.2-1.2-4.8-1.8
	c-0.7-0.3-1.5-0.6-2.2-0.9c-2.3-0.9-4.6-1.8-6.8-2.6C1686.5,1318.3,1642.4,1301.3,1597.8,1298.3z M1536,1341.7l-32.8,12v-297.7h13.2
	v262.7c0,0.5,0,0.9,0.1,1.4c0.3,2.2,1.2,4.3,2.7,6c0.6,0.7,1.3,1.3,2,1.8c3,2.1,6.8,2.6,10.3,1.3c28.8-10.6,57.6-11.1,86.8-6
	C1590.9,1325.6,1563.3,1331.7,1536,1341.7z M2008.4,1353.8l-32.8-12c-27.3-10-54.9-16.2-82.2-18.4c29.2-5,58-4.5,86.8,6
	c3.4,1.3,7.3,0.8,10.3-1.3c3-2.1,4.8-5.5,4.8-9.2v-262.7h13.2V1353.8z"/>
<path d="M2633.1,1031.3v-19c0-4.1-2.2-7.8-5.8-9.8c-73.4-40.6-145.2,0.3-214.7,39.8c-6.2,3.5-12.6,7.2-18.9,10.7
	c-6.3-3.5-12.7-7.2-18.9-10.7c-69.4-39.6-141.3-80.5-214.7-39.8c-3.6,2-5.8,5.7-5.8,9.8v19h-22v338.5c0,0,49.9-42.9,127.1-19.2
	c55.1,16.9,99.9,31.2,121.1,38.1c3.1,1.3,6.2,2.5,9.4,3.6c0.1,0,0.2,0.1,0.4,0.1c0.1,0,0.2,0.1,0.3,0.1c0.5,0.1,1,0.3,1.4,0.3
	c0.1,0,0.2,0,0.2,0c0.5,0.1,1,0.1,1.5,0.1c0,0,0,0,0,0h0h0h0l0,0l0,0h0c0,0,0,0,0,0c0.5,0,1,0,1.5-0.1c0.1,0,0.2,0,0.2,0
	c0.5-0.1,1-0.2,1.4-0.3c0.1,0,0.2-0.1,0.3-0.1c0.1,0,0.3-0.1,0.4-0.1c3.1-1.1,6.2-2.4,9.4-3.6c21.2-6.8,66-21.2,121.1-38.1
	c77.3-23.7,127.1,19.2,127.1,19.2v-338.5H2633.1z M2176.8,1019.2c60.5-29.3,122,5.7,186.9,42.7c6.2,3.5,12.5,7.1,18.8,10.7v292.7
	c-15.8-6.7-31.8-14.6-47.3-22.3c-42.2-20.9-85.6-42.4-129.8-42.4c-9.5,0-19,1-28.6,3.2V1019.2z M2610.6,1303.8
	c-54.1-12.4-107.1,13.8-158.4,39.2c-15.6,7.7-31.5,15.6-47.3,22.3v-292.7c6.3-3.5,12.6-7.1,18.8-10.7c64.9-37,126.4-72,186.9-42.7
	V1303.8z"/>
<g>
	<path d="M2238.5,815h310.4c6.2,0,11.2-5,11.2-11.2v-36.4V419.5c0-6.2-5-11.2-11.2-11.2h-310.4c-6.2,0-11.2,5-11.2,11.2v347.8v36.4
		C2227.3,810,2232.3,815,2238.5,815z M2249.7,430.7h288v325.4h-288V430.7z"/>
	<path d="M2491.7,459.8h-191.9c-6.2,0-11.2,5-11.2,11.2v68.5c0,6.2,5,11.2,11.2,11.2h191.9c6.2,0,11.2-5,11.2-11.2V471
		C2502.9,464.8,2497.9,459.8,2491.7,459.8z M2480.5,528.3h-169.5v-46h169.5V528.3z"/>
</g>
</svg>
