<?xml version="1.0" encoding="utf-8"?>
<!-- Generator: Adobe Illustrator 23.0.2, SVG Export Plug-In . SVG Version: 6.00 Build 0)  -->
<svg version="1.1" id="Layer_1" xmlns="http://www.w3.org/2000/svg" xmlns:xlink="http://www.w3.org/1999/xlink" x="0px" y="0px"
	 viewBox="0 0 700.3 545.6" style="enable-background:new 0 0 700.3 545.6;" xml:space="preserve">
<style type="text/css">
	.st0{fill:#F7941E;}
	.st1{fill:#4AABBC;}
	.st2{fill:#FABDBA;}
	.st3{fill:#F3736F;}
	.st4{fill:#64CADE;}
	.st5{fill:#183145;}
	.st6{fill:#ADADAD;}
	.st7{fill:#E6E7E8;}
	.st8{fill:#A7A9AC;}
	.st9{fill:#D1D3D4;}
	.st10{fill:#414042;}
	.st11{fill:#58595B;}
	.st12{fill:#FFFFFF;}
	.st13{fill:#FBBCA1;}
	.st14{fill:#FFDE17;}
</style>
<g>
	<g>
		<path class="st0" d="M400.1,360.6c0,0-32.7-15.6-43.7-9.2s6.8,36.3,6.8,36.3l6.3-2.3l-5.1-23.6l27.1,16.7
			C391.5,378.4,404.9,373.5,400.1,360.6z"/>
		<ellipse class="st1" cx="366.6" cy="540" rx="57" ry="5.6"/>
		<g>
			<g>
				<path class="st2" d="M215.6,217.3h9.8c1-18.6,18.6-29.4,18.6-29.4c14.7,3.9,21.5-2.3,21.5-2.3c26.4,12.4,40.6-7.7,40.6-7.7
					c22.9-0.2,28.1-25.7,28.1-25.7c24.5-12.1,9.9-42.7,9.9-42.7c11.8-22.5-14.6-41-14.6-41c-0.8-24.3-24.6-25.4-24.6-25.4
					C290.3,13,261,23,261,23c-25.2-25.7-51.4-5.3-51.4-5.3c-30.5-11.4-40.7,6.7-40.7,6.7c-32-6.7-40.1,16.5-40.1,16.5
					c-31-5-42.6,35.3-42.6,35.3s-23,9-10.9,31.4c0,0-5.7,24.1,19.8,28.2c0,0,11.6,18.4,37.1,15.2c0,0,15.1,15.8,35,10.7
					c0,0,10.8,19.8,32.5,19.6C199.7,181.2,215.6,195.7,215.6,217.3z"/>
				<path class="st3" d="M349.2,126.3c-0.5-8.1-3.4-15-4.1-16.7c4.8-9.4,3.7-19.6-3.1-29.5c-4.5-6.6-10.1-10.9-11.6-12
					c-1-22.4-21.3-25.4-24.9-25.8c-8.9-17.9-22.9-21.7-33.2-21.7c-5.4,0-9.6,1.1-11,1.5c-8.5-8.5-18.1-12.9-28.4-12.9
					c-12.2,0-21.4,6.1-23.4,7.5c-6.6-2.4-12.9-3.7-18.5-3.7c-14.6,0-21,8.1-22.5,10.3c-3.7-0.7-7.3-1.1-10.6-1.1
					c-20.6,0-28.1,14.2-29.6,17.6c-1.6-0.2-3.1-0.3-4.7-0.3c-11.4,0-21.6,6.3-29.6,18.3c-5.3,8-7.9,15.8-8.5,17.7
					c-2,0.9-10.4,4.9-13.5,13.3c-2.1,5.6-1.3,12,2.4,18.8c-0.4,1.9-1.9,11.3,3.3,19.1c3.5,5.2,9.2,8.5,16.9,9.8
					c1.6,2.3,11.9,15.6,31.8,15.6c1.8,0,3.7-0.1,5.6-0.3c2,1.9,12.6,11.7,27.4,11.7c2.5,0,5.1-0.3,7.6-0.9c2,3.3,13,19.5,32.6,19.5
					c2,1.9,15.3,15.7,15.3,35.2c0,0.5,0.4,0.9,0.9,0.9h9.8c0.5,0,0.9-0.4,0.9-0.8c0.9-16.6,15.5-26.9,17.9-28.5
					c3.1,0.8,6.2,1.2,9,1.2c7.1,0,11.2-2.5,12.5-3.5c5.7,2.6,11.2,3.9,16.5,3.9c14.6,0,22.8-9.6,24.4-11.7
					c21.3-0.5,27.6-22.6,28.4-25.9C345,147.7,350,138.5,349.2,126.3z M303.4,42.3c-8.9,0.7-13.4,9.9-14.7,13.4
					c-5.7,0.2-10,2.8-11.5,3.8c-5.3-3-11.4-1.3-14.1-0.3c-0.2-3.8-1.4-14.2-9.5-16.2c-0.9-0.2-1.8-0.3-2.7-0.4
					c-0.2-3.6,0.2-14.4,10.3-18.7c0.4-0.1,4.8-1.6,10.9-1.6C281.8,22.3,294.9,25.8,303.4,42.3z M282.2,188.7
					c-5.2,0-10.7-1.3-16.3-3.9c-0.3-0.2-0.7-0.1-1,0.1c0,0-3.9,3.4-11.7,3.4c-2.8,0-5.8-0.4-9-1.3c-0.2-0.1-0.5,0-0.7,0.1
					c-0.7,0.4-17.5,10.9-19,29.3h-8.1c-0.4-17.4-10.8-30.2-14.7-34.4c10.1-1,19.5-10.1,21.8-12.6c2,1.3,8.1,4.9,15.2,4.9
					c4.2,0,8.8-1.3,13-5.1c2.7,0.8,14.9,3.8,19.1-6.3l-1.7-0.7c-4,9.8-16.8,5.3-17.3,5.2c-0.3-0.1-0.7,0-0.9,0.2
					c-11.7,11.1-26.3,0.4-26.9-0.1c-0.4-0.3-0.9-0.2-1.2,0.1c-0.1,0.1-11.5,12.7-22.9,12.7c-0.1,0-0.1,0-0.2,0l0,0l0,0h-0.3
					c-20,0-30.6-17.7-31.3-19.1c-2-6.7-1.8-12,0.6-15.9c2.7-4.4,7.3-5.3,7.4-5.3l-0.2-0.9l-0.2-0.9c-0.2,0-5.4,1.1-8.5,6.1
					c-2.5,4.1-2.9,9.7-1,16.5c-2.3,0.5-4.6,0.8-6.9,0.8c-12.2,0-21.7-7.2-25.1-10.2c13.6-2.4,18.3-15.8,19.3-19.4
					c2.5,0.5,9.7,1.6,15.7-1.9c3.6-2.1,6.2-5.4,7.6-9.9c3.6,3.3,15.9,12.1,33.1,2.1c1.6,1.8,6.7,6.9,14.1,7.7
					c5.2,0.6,10.4-1,15.5-4.8c0.4,0.7,0.9,1.4,1.4,2.1c6.8,8.7,17.4,3.4,21.1,1.1c0.3,3.3,2.1,10.4,11.1,11.7
					c0.8,0.1,1.5,0.2,2.2,0.2c9.9,0,12.8-10.5,12.8-10.6l-1.7-0.4c-0.1,0.4-2.9,10.6-13.1,9.1c-10.1-1.5-9.7-11.1-9.7-11.5
					c0-0.3-0.2-0.7-0.5-0.8c-0.3-0.2-0.7-0.1-1,0.1c-0.5,0.4-12.8,9.5-20,0.2c-7.3-9.5-0.3-19.7,0-20.2l-1.5-1
					c-0.1,0.1-6.4,9.2-2.2,18.6c-4.8,3.7-9.6,5.2-14.4,4.7c-6.5-0.7-11.2-5.2-12.8-7c8.1-6.6,5.4-18.6,4.6-21.6
					c2.4-1.6,10.7-7.8,8.3-17.3c-2.3-9.3-12.8-9.7-16.2-9.6c0.1-2.4,0.1-8.2-3.7-12.3c-2.9-3.2-7.3-4.6-13-4.3l0.1,1.8
					c5.2-0.3,9.1,1,11.6,3.7c4.2,4.6,3.2,11.8,3.1,11.9c0,0.3,0.1,0.6,0.2,0.8c0.2,0.2,0.5,0.3,0.7,0.3c0.5-0.1,13-1.4,15.4,8.2
					c2.4,9.7-7.6,15.4-8.1,15.7c-0.4,0.2-0.5,0.7-0.4,1.1c0,0.1,4.6,14.5-4.5,20.9c-19.6,11.8-32-1.9-32.5-2.5
					c-0.2-0.2-0.6-0.4-0.9-0.3c-0.3,0.1-0.6,0.3-0.7,0.6c-1.2,4.7-3.6,8.2-7.2,10.2c-6.6,3.8-15.1,1.6-15.2,1.6
					c-0.2-0.1-0.5,0-0.7,0.1s-0.4,0.3-0.4,0.6c0,0.2-4,17.7-19.9,19.2l0,0l0,0c-2,0.2-3.9,0.4-5.8,0.4c-20.7,0-30.4-15-30.5-15.1
					c-0.1-0.2-0.4-0.4-0.6-0.4c-7.4-1.2-12.8-4.3-16.1-9.1c-5.1-7.6-3.1-17.2-3-18c0.5-1.4,7.8-19.8,24.8-13.8
					c0.3,0.1,0.6,0,0.9-0.2c0.2-0.2,0.4-0.5,0.3-0.8c0-0.1-1.7-12.5,8.6-17.4c10.4-4.9,20.7,3.7,20.8,3.8l0.1,0.1l0,0
					c5.8,3.5,7.3,11.7,5,16.8c-0.1,0.3-0.1,0.7,0.2,1c0.2,0.3,0.6,0.3,1,0.2c0.1,0,7.6-2.8,12.9,0.2c2.6,1.5,4.2,4.2,4.9,8l1.8-0.3
					c-0.8-4.4-2.7-7.5-5.8-9.2c-4.4-2.5-9.8-1.6-12.6-0.8c1.6-5.7-0.1-13.2-5.7-17c0.8-2.3,4.2-10.8,13.2-11.8
					c10.3-1.2,15.2,8.9,15.4,9.3l1.6-0.8c-0.1-0.1-5.6-11.7-17.2-10.3c-9.4,1.1-13.3,9.3-14.5,12.5c-3-2.2-12.1-7.8-21.7-3.3
					c-9.4,4.4-9.9,14.2-9.8,17.8c-14.8-4.4-22.6,8.6-25,13.6c-2.8-5.8-3.3-11.2-1.6-16c3.2-8.6,12.8-12.4,12.8-12.5
					c0.3-0.1,0.5-0.3,0.5-0.6c0.1-0.4,10.4-35.1,36.5-35.1c1.3,0,2.7,0.1,4.1,0.3c-1.2,5-0.7,9.9,1.4,13.7c1.7,3.1,4.3,5.2,7.6,6
					l0.5-1.7c-2.8-0.8-5-2.5-6.5-5.2c-2-3.6-2.4-8.5-1-13.3c0.3-0.9,6.4-17.1,28.2-17.1c3.4,0,7,0.4,10.8,1.2
					c9,2.6,14.3,10.2,13.1,18.5l1.8,0.3c1.4-8.8-4-17-13.2-20.1c1.9-2.5,8.1-9.1,20.7-9.1c5.5,0,11.7,1.3,18.3,3.7
					c0.3,0.1,0.6,0.1,0.9-0.1c0.1-0.1,9.8-7.5,22.8-7.5c9.6,0,18.5,4,26.6,11.8c-9.8,5-10.3,16-10.2,19.8c-7.8,0.6-14.7,7.1-15,7.4
					l1.2,1.3c0.1-0.1,9.2-8.7,17.8-6.6c8.3,2.1,8.1,15.6,8.1,15.8c0,0.3,0.2,0.6,0.4,0.8c0.3,0.2,0.6,0.2,0.9,0
					c0.1,0,9.6-4.9,15.9,1.5c6.3,6.3-0.1,16.8-0.1,16.9l1.5,0.9c0.3-0.5,7.1-11.8-0.1-19.1c-0.4-0.4-0.7-0.7-1.1-1
					c1.8-1.1,5.9-3.2,11-3.1h0.1l0,0c1.3,0,2.7,0.2,4.1,0.6c8.6,2.4,7.6,12.7,7.5,13.1c0,0.3,0.1,0.6,0.3,0.8
					c0.2,0.2,0.6,0.2,0.9,0.1c0.1,0,7-2.7,11.7,2.7c4.7,5.3-0.1,13.9-0.1,14l1.6,0.9c0.2-0.4,5.5-9.8-0.1-16
					c-4.3-4.8-10-4.1-12.5-3.5c0-3.2-0.8-11.5-8.9-13.7c-1.4-0.4-2.7-0.6-3.9-0.7c1.5-3.7,5.8-11.7,13.9-11.7c0.1,0,0.2,0,0.3,0
					c1,0,23,1.4,23.8,24.5c0,0.3,0.2,0.5,0.4,0.7c0.3,0.2,25.6,18.3,14.3,39.8v0.1l0,0c-4.5,11-16,10.7-22.2,8.7
					c-1.9-2.6-4.8-4.2-8.8-5c-2-9.9-13.7-10.8-13.8-10.8l-0.1,1.8c0.5,0,13,1.1,12.4,12.8c-0.6,12-9.2,15.4-9.5,15.5
					s-0.5,0.4-0.6,0.7c-0.1,0.3,0,0.6,0.3,0.8c0.1,0.1,9.5,8.8,3.2,18.1c-6.3,9.4-18.1,5.4-18.6,5.3l-0.6,1.7c0.1,0,3,1,6.8,1
					c3.9,0,8.6-1,12.3-5c2,1.2,3.5,3.1,4.3,5.6c1.5,4.8,0.4,11.1-2.9,17.1C304.8,178.2,296.8,188.7,282.2,188.7z M307.6,176.9
					c3-6,3.8-12.3,2.4-17.1c-0.9-2.8-2.5-5.1-4.8-6.5c0.1-0.2,0.3-0.4,0.4-0.6c5.9-8.7-0.2-16.8-2.6-19.5c2.7-1.4,9-6,9.5-16.5
					c0-0.7,0-1.3,0-2c3.5,0.8,6.1,2.4,7.6,4.9c3.1,5.1,0.8,12,0.8,12.1c-0.1,0.2-0.1,0.5,0.1,0.7c0.1,0.2,0.3,0.4,0.5,0.4
					c10.7,3.4,12.4,9.8,11.8,19.2C333,153.3,327.8,175.7,307.6,176.9z M335.1,150.7c0.4-9-1.8-15.7-12.3-19.3c0.5-2,1.4-7-0.5-11.4
					c1.7,0.4,3.7,0.7,5.7,0.7c5.8,0,12.3-2.1,16-9.1C346.5,118.2,353.5,140.4,335.1,150.7z"/>
			</g>
			<path class="st4" d="M55.6,154.5c-18.5,55.1-41.1,87.8-52.5,99.2c-8.7,8.7,1.7,18.1,9.4,23.3c4.1,2.8,6.5,7.5,6.5,12.5
				c-0.2,21.5-6.2,106,20.8,130.5c33.8,30.6,93.2-2.8,108.9,17.1c5.5,7,5.4,42.8,3.8,78.6h157.3c0.2-38.9,3.8-83.8,16.7-114.5
				c18.2-43.6,64.3-159.3,38.2-246.6L55.6,154.5L55.6,154.5z"/>
			<circle class="st5" cx="274.4" cy="101.4" r="11.8"/>
			<g>
				<path class="st6" d="M587.2,398.3v73.5c0,11,8.9,19.8,19.8,19.8h73.5c11,0,19.8-8.9,19.8-19.8v-73.5c0-11-8.9-19.8-19.8-19.8
					h-73.4C596.1,378.4,587.2,387.3,587.2,398.3z"/>
				<path class="st7" d="M579,398.3v73.5c0,11,8.9,19.8,19.8,19.8h73.5c11,0,19.8-8.9,19.8-19.8v-73.5c0-11-8.9-19.8-19.8-19.8
					h-73.5C587.9,378.4,579,387.3,579,398.3z"/>
				<path class="st6" d="M595.4,408.9v52.2c0,7.8,6.3,14.1,14.1,14.1h52.2c7.8,0,14.1-6.3,14.1-14.1v-52.2c0-7.8-6.3-14.1-14.1-14.1
					h-52.2C601.7,394.8,595.4,401.2,595.4,408.9z"/>
				<path class="st8" d="M601.8,461.1v-52.2c0-7.8,6.3-14.1,14.1-14.1h-6.4c-7.8,0-14.1,6.3-14.1,14.1v52.2
					c0,7.8,6.3,14.1,14.1,14.1h6.4C608.1,475.2,601.8,468.9,601.8,461.1z"/>
				<path class="st9" d="M626.8,415.6v37.9c0,5.5,4.4,9.9,9.9,9.9l0,0c5.5,0,9.9-4.4,9.9-9.9v-37.9c0-5.5-4.4-9.9-9.9-9.9l0,0
					C631.2,405.7,626.8,410.1,626.8,415.6z"/>
				<circle class="st5" cx="636.7" cy="416.5" r="7.9"/>
				<circle class="st5" cx="636.7" cy="453.5" r="7.9"/>
			</g>
			<g>
				<g>
					<g>
						<path class="st9" d="M629.7,409.5h-35.9v13.9h35.9c3.9,0,7-3.1,7-7l0,0C636.7,412.6,633.6,409.5,629.7,409.5z"/>
						<path class="st9" d="M629.7,446.5h-35.9v13.9h35.9c3.9,0,7-3.1,7-7l0,0C636.7,449.7,633.6,446.5,629.7,446.5z"/>
					</g>
					<path class="st10" d="M590.5,390.8H558c-24.4,0-44.2,19.8-44.2,44.2l0,0c0,24.4,19.8,44.2,44.2,44.2h32.5
						c13.7,0,24.8-19.8,24.8-44.2C615.3,410.6,604.2,390.8,590.5,390.8z"/>
					<path class="st10" d="M521,418.4h-21.6v33.3H521c5.2,0,9.3-7.4,9.3-16.6C530.3,425.8,526.1,418.4,521,418.4z"/>
					<ellipse class="st11" cx="499.4" cy="435" rx="9.3" ry="16.6"/>
					<circle class="st12" cx="629.4" cy="413.3" r="1.9"/>
					<circle class="st12" cx="629.4" cy="450.5" r="1.9"/>
				</g>
				<path class="st3" d="M502.5,434c-0.4-2.7-1.9-4.7-3.4-4.6l0,0c0,0,0,0-0.1,0l0,0l0,0c-2.3,0.3-73.3,7.9-114.2-34.1
					c-33.9-34.9-32.3-96.7-30.9-151.3c0.9-33.5,1.7-65.1-5.8-89c-14.6-46.6-53.8-58.9-72.5-58.9c-1.6,0-2.8,2.2-2.8,5s1.3,5,2.8,5
					c16.2,0,50.2,10.9,63,51.9c7,22.3,6.2,53.1,5.3,85.7c-1.5,56.5-3.1,120.6,33.7,158.5c32.1,33.1,80.2,37.9,105.6,37.9
					c10.3,0,16.9-0.8,17.1-0.8v-0.1l0,0C501.9,439.1,502.8,436.7,502.5,434z"/>
			</g>
		</g>
		<g>
			<path class="st12" d="M333.8,524.7c0,0-2.3,4.9-4.9,7.1c-2.7,2.1,11.2,11.9,14.5,10.8c3.3-1.1-7.6-7.7-7.8-9.8
				c-0.2-2.1,1.5-5.8,1.5-5.8L333.8,524.7z"/>
			<path class="st12" d="M387.7,527.5c0,0,0.3,5.4-1.1,8.6c-1.4,3.1,15.5,5.3,17.8,2.9c2.4-2.4-10.3-3.3-11.5-5.1s-1.3-5.8-1.3-5.8
				L387.7,527.5z"/>
			<path class="st5" d="M349.6,415.6c0,0-5,9.1-5,21.4s3,30.8,2,39.4c-1.1,8.6-16,51.9-16,51.9l7,2.4c0,0,21.3-28.1,29-51.4
				c7.7-23.3,10.8-62,10.8-62L349.6,415.6z"/>
			<path class="st5" d="M389,417.3c0,0,8,27.6,9,52.6s-4.5,60.8-4.5,60.8h-7.8c0,0-5.2-46.2-8.2-57.6c-3-11.3-22.5-34.2-20.5-57.6
				L389,417.3z"/>
		</g>
		<g>
			<path class="st13" d="M415.5,346.1c5.9-2.7,13.3-0.5,14,8.6s-6.4,19-10.2,18.1c-5.8-1.4-9.7-7.2-11.3-13.9
				C406.6,352.6,411.5,347.9,415.5,346.1z"/>
			<path class="st5" d="M430.3,349.3c1.9,4.4,0.6,12.7-9.2,14.8c0,0-3,8.1-10.3,5.8c-7.3-2.3-3-5.4-4-13.1s3.6-15,12-14.7
				s15.7,3.4,15.6,6.4C434.4,351.5,430.3,349.3,430.3,349.3z"/>
		</g>
		<path class="st14" d="M349.6,415.6c0,0,5.3-28.9,26.4-48.9c9.7-9.2,25-9.2,34.8,0l3.4,3.2c6.7,6.2,6.3,16.9-0.8,22.6
			c-7.4,5.9-16.5,14.2-24.6,24.9C389,417.3,374.9,424.6,349.6,415.6z"/>
		<path class="st14" d="M418.8,378.2c0,0,7.6,24.7,14.5,32.3c6.9,7.6,25.4,21.8,25.4,21.8l-1.6,4.1c0,0-27.8-10.5-37.6-21.5
			c-4.4-5-9.2-16.7-13-27.7C404,379.9,412.5,373.6,418.8,378.2L418.8,378.2z"/>
		<path class="st13" d="M458.7,432.2c0,0,2.2-1.3,5.1-1.5c2.9-0.3-2.5,3.1-2.5,3.1l6.4,5.8c0,0-6.6,2.8-10.5-3.2L458.7,432.2z"/>
	</g>
	<g>
		<polygon class="st14" points="394,101 384.1,97.6 406,73.2 371.1,93.1 380.9,96.5 359,121 		"/>
		<polygon class="st14" points="282.7,30.3 272.4,30.4 284.9,0 258.5,30.4 268.9,30.4 256.3,60.7 		"/>
		<polygon class="st14" points="51.3,85.8 47.5,95.5 24,72.6 42.5,108.4 46.2,98.7 69.8,121.5 		"/>
		<polygon class="st14" points="166.1,21.3 159.8,29.5 143.4,1.1 151.4,40.6 157.7,32.3 174.1,60.7 		"/>
	</g>
	<g>
		<g>
			<path class="st10" d="M124.2,217.8c-12.6,0-25.3-4.8-34.9-14.4l3.5-3.5c17.3,17.3,45.4,17.3,62.7,0l3.5,3.5
				C149.4,213,136.8,217.8,124.2,217.8z"/>
		</g>
		<g>
			<g>
				<rect x="121.7" y="215.3" class="st10" width="5" height="17.2"/>
			</g>
			<g>
				
					<rect x="140.7" y="212" transform="matrix(0.9397 -0.342 0.342 0.9397 -66.798 62.2885)" class="st10" width="5" height="17.2"/>
			</g>
			<g>
				
					<rect x="157.4" y="202.3" transform="matrix(0.766 -0.6428 0.6428 0.766 -98.1781 152.1626)" class="st10" width="5" height="17.2"/>
			</g>
			<g>
				
					<rect x="79.9" y="208.4" transform="matrix(0.6429 -0.7659 0.7659 0.6429 -129.902 143.115)" class="st10" width="17.2" height="5"/>
			</g>
			<g>
				
					<rect x="96.7" y="218" transform="matrix(0.3418 -0.9398 0.9398 0.3418 -137.938 244.0683)" class="st10" width="17.2" height="5"/>
			</g>
		</g>
	</g>
</g>
</svg>
