<?xml version="1.0" encoding="utf-8"?>
<!-- Generator: Adobe Illustrator 23.0.2, SVG Export Plug-In . SVG Version: 6.00 Build 0)  -->
<svg version="1.1" id="Layer_1" xmlns="http://www.w3.org/2000/svg" xmlns:xlink="http://www.w3.org/1999/xlink" x="0px" y="0px"
	 viewBox="0 0 3000 1944" style="enable-background:new 0 0 3000 1944;" xml:space="preserve">
<style type="text/css">
	.st0{fill:url(#SVGID_1_);}
	.st1{fill:url(#SVGID_2_);}
	.st2{opacity:0.6;}
	.st3{fill:#B3B3FF;}
	.st4{fill:#FFB839;}
	.st5{fill:#DCDCFF;}
	.st6{fill:#D7D7FF;}
	.st7{fill:#C7C7FF;}
	.st8{fill:#FFFFFF;}
	.st9{fill:#FF9912;}
	.st10{fill:#F5F5F5;}
	.st11{opacity:0.5;fill:url(#SVGID_3_);}
	.st12{fill:#F12F56;}
	.st13{opacity:0.5;fill:url(#SVGID_4_);}
	.st14{opacity:0.5;fill:url(#SVGID_5_);}
	.st15{fill:#514EDD;}
	.st16{opacity:0.5;fill:url(#SVGID_6_);}
	.st17{opacity:0.5;fill:url(#SVGID_7_);}
	.st18{opacity:0.5;fill:url(#SVGID_8_);}
	.st19{fill:#8C8CF2;}
	.st20{fill:#FFB680;}
	.st21{fill:url(#SVGID_9_);}
	.st22{fill:#20154F;}
	.st23{fill:url(#SVGID_10_);}
	.st24{fill:url(#SVGID_11_);}
	.st25{fill:#2B1963;}
	.st26{fill:url(#SVGID_12_);}
	.st27{fill:url(#SVGID_13_);}
	.st28{fill:url(#SVGID_14_);}
	.st29{fill:url(#SVGID_15_);}
	.st30{fill:url(#SVGID_16_);}
	.st31{fill:url(#SVGID_17_);}
	.st32{fill:#1F163C;}
	.st33{fill:url(#SVGID_18_);}
	.st34{fill:url(#SVGID_19_);}
	.st35{fill:#FFAB24;}
	.st36{fill:url(#SVGID_20_);}
	.st37{fill:url(#SVGID_21_);}
	.st38{fill:url(#SVGID_22_);}
	.st39{opacity:0.5;fill:url(#SVGID_23_);}
	.st40{fill:url(#SVGID_24_);}
	.st41{opacity:0.5;fill:url(#SVGID_25_);}
	.st42{opacity:0.5;fill:url(#SVGID_26_);}
	.st43{opacity:0.5;fill:url(#SVGID_27_);}
	.st44{opacity:0.5;fill:url(#SVGID_28_);}
	.st45{fill:url(#SVGID_29_);}
	.st46{fill:url(#SVGID_30_);}
	.st47{fill:url(#SVGID_31_);}
	.st48{fill:#FFAA71;}
	.st49{fill:url(#SVGID_32_);}
	.st50{fill:url(#SVGID_33_);}
	.st51{fill:url(#SVGID_34_);}
	.st52{fill:url(#SVGID_35_);}
	.st53{fill:url(#SVGID_36_);}
	.st54{fill:url(#SVGID_37_);}
	.st55{fill:#FFAD36;}
	.st56{fill:url(#SVGID_38_);}
	.st57{fill:url(#SVGID_39_);}
	.st58{fill:url(#SVGID_40_);}
	.st59{fill:url(#SVGID_41_);}
</style>
<g>
	<g>
		
			<radialGradient id="SVGID_1_" cx="-562.1924" cy="1780.8572" r="2664.9734" gradientTransform="matrix(1 0 0 -1 0 1942)" gradientUnits="userSpaceOnUse">
			<stop  offset="5.562700e-04" style="stop-color:#7929B7"/>
			<stop  offset="5.013059e-02" style="stop-color:#7628B5"/>
			<stop  offset="1" style="stop-color:#310B7A"/>
		</radialGradient>
		<path class="st0" d="M1633.5,1891.2H2c0,0-32.5-242.2,162.4-209.7c194.9,32.5,292.4,136.9,287.8-37.2
			c-4.7-174.1,32.5-391,206.6-436.8c174.1-45.8,505.5-15.4,571.8,341.9s187.7-37.3,346.3,55.6s70.4,252.8,209.6,208.8
			c139.2-44,127.7,77.5,127.7,77.5H1633.5z"/>
		
			<radialGradient id="SVGID_2_" cx="1936.8202" cy="372.6143" r="1281.4077" gradientTransform="matrix(1 0 0 -1 0 1942)" gradientUnits="userSpaceOnUse">
			<stop  offset="5.562700e-04" style="stop-color:#7929B7"/>
			<stop  offset="5.013059e-02" style="stop-color:#7628B5"/>
			<stop  offset="1" style="stop-color:#310B7A"/>
		</radialGradient>
		<path class="st1" d="M963.2,1898.1H201.2c0,0,19.8-151.9,162-123.2s180.7,31.5,247.8-110.6s340.9-217,530.6-23.1
			s237-111,407,256.8H963.2V1898.1z"/>
	</g>
	<g>
		<g>
			<g class="st2">
				<g>
					<g>
						<g>
							<path class="st3" d="M2112.6,1550c-164.1-8.4-322.4-39.7-470.5-93c-118.5-42.7-230.8-99.4-333.8-168.7
								c-175.4-118-264.1-233.2-265-234.3l7.3-5.5c0.9,1.1,88.9,115.3,263.1,232.5c160.8,108.1,429.9,241,799.3,260L2112.6,1550z"/>
						</g>
						<path class="st3" d="M1762.5,1535.9c0,0-127.1,62.8-168.6,111c-41.5,48.2-75.4,108.2-28.8,144.6
							c46.5,36.4,106.3-39.3,136.6-102.2C1732,1626.5,1762.5,1535.9,1762.5,1535.9z"/>
						<path class="st3" d="M1628,1506.4c0,0-178,12.5-249.4,48.8c-71.3,36.3-139.4,90.1-102.6,154.7c36.8,64.6,142.6,4.9,207.9-53.8
							C1549.3,1597.3,1628,1506.4,1628,1506.4z"/>
						<path class="st3" d="M1302,1329.1c0,0-165.8-31.8-239.8-15.9c-74,15.8-149.3,48.5-131.3,116.5c18,67.9,129.1,39.1,203.1,1.3
							C1208,1393.1,1302,1329.1,1302,1329.1z"/>
						<path class="st3" d="M1148.5,1212.9c0,0-135.7-68.4-203.7-72.9c-68-4.5-141.2,5.2-142.4,68.5c-1.2,63.3,102.1,65.7,175.5,51.2
							C1051.3,1245.1,1148.5,1212.9,1148.5,1212.9z"/>
						<path class="st3" d="M1085.1,1096.9c0,0-33.5-126.2-69.4-172.4c-35.9-46.2-83.9-87.7-125.2-52.4
							c-41.3,35.3,16.1,103.1,67.3,141.9C1009,1052.9,1085.1,1096.9,1085.1,1096.9z"/>
						<path class="st3" d="M1476.9,1432.3c0,0-202.3-16.4-288.7,12.2c-86.4,28.6-172.1,77.4-141.8,156.3
							c30.4,78.9,159.4,30,242.9-24.9C1372.9,1521,1476.9,1432.3,1476.9,1432.3z"/>
						<g>
							<path class="st3" d="M1796,1460.2c0,0-39.8-136.1-32.5-199.2c7.3-63.2,28.6-128.7,86.9-119.1c58.3,9.6,43,104.8,17.3,169.7
								C1842,1376.4,1796,1460.2,1796,1460.2z"/>
							<path class="st3" d="M1679.5,1419.4c0,0-93.9-151.8-106.2-230.9c-12.3-79.1-8.4-165.8,65.5-173.6
								c73.9-7.9,87.4,112.8,77.9,200.1C1707.2,1302.4,1679.5,1419.4,1679.5,1419.4z"/>
							<path class="st3" d="M1342.6,1238.7c0,0-96.5-121.7-115-188.9c-18.6-67.1-24-142.4,39.1-156.7
								c63.1-14.2,86.9,88.7,87.5,165.1C1354.8,1134.7,1342.6,1238.7,1342.6,1238.7z"/>
							<path class="st3" d="M1190.1,1143.8c0,0-88-96.6-107.5-151.9c-19.5-55.3-28.4-118.2,23.8-133.8c52.2-15.6,78.1,69.4,83,133.6
								C1194.3,1055.8,1190.1,1143.8,1190.1,1143.8z"/>
							<path class="st3" d="M1516.5,1348.9c0,0-109.5-161.8-126.4-247.8c-16.9-86-16.6-181,63.9-192.8
								c80.5-11.9,100.6,119.5,94.1,215.4C1541.7,1219.7,1516.5,1348.9,1516.5,1348.9z"/>
						</g>
					</g>
					<path class="st4" d="M959.4,1041.2c14.6,24.8,6.3,56.8-18.6,71.4c-24.8,14.6-56.8,6.3-71.4-18.6c-14.6-24.8-6.3-56.8,18.6-71.4
						C912.9,1008,944.9,1016.3,959.4,1041.2z"/>
					<path class="st4" d="M1498,1745.2c11.7,19.9,5.1,45.6-14.9,57.3c-19.9,11.7-45.6,5-57.3-14.9c-11.7-19.9-5.1-45.6,14.9-57.3
						C1460.6,1718.6,1486.3,1725.3,1498,1745.2z"/>
					<path class="st4" d="M1373.2,1358.9c7.7,13.1,3.3,30.1-9.8,37.8c-13.1,7.7-30.1,3.3-37.8-9.8c-7.7-13.1-3.3-30.1,9.8-37.8
						C1348.5,1341.4,1365.5,1345.8,1373.2,1358.9z"/>
					<path class="st4" d="M988.7,1291.6c6,10.2,2.6,23.3-7.6,29.3c-10.2,6-23.3,2.6-29.3-7.6c-6-10.2-2.6-23.3,7.6-29.3
						C969.6,1278,982.7,1281.4,988.7,1291.6z"/>
					<path class="st4" d="M1227.2,870.3c5.1,8.6,2.2,19.8-6.5,24.9c-8.6,5.1-19.8,2.2-24.9-6.5c-5.1-8.7-2.2-19.8,6.5-24.9
						C1211,858.8,1222.1,861.7,1227.2,870.3z"/>
				</g>
				<g>
					<g>
						<path class="st5" d="M1915.2,1122.6l-4.2,8.1c-257.5-133.6-406.4-316.1-486.1-445.6c-86.3-140.4-112-250.8-112.3-251.9l8.9-2
							c0.3,1.1,25.8,110.3,111.4,249.5C1511.9,809.1,1659.7,990,1915.2,1122.6z"/>
						<path class="st5" d="M1823.6,1127.2c0,0-141.1,14.1-196.9,44.5c-55.8,30.5-108.6,74.8-77.9,125.2
							c30.7,50.4,113.3,0.6,163.9-47.5C1763.2,1201.2,1823.6,1127.2,1823.6,1127.2z"/>
						<path class="st5" d="M1718.3,1070.5c0,0-171.1-50.9-250.6-42.1c-79.5,8.9-162.2,35.3-150.4,108.7
							c11.7,73.4,131.7,54.8,213.5,22.8C1612.6,1127.9,1718.3,1070.5,1718.3,1070.5z"/>
						<path class="st5" d="M1457.9,795.1c0,0-144-88.1-218.8-99.3c-74.8-11.2-156.8-7.2-163.9,62.8c-7.1,69.9,107.1,82.1,189.6,72.7
							C1347.4,821.9,1457.9,795.1,1457.9,795.1z"/>
						<path class="st5" d="M1355.1,632.3c0,0-103-111.8-165-139.9c-62-28.2-134-44.9-157.4,14c-23.4,58.8,72.5,97.5,146.3,109.7
							S1355.1,632.3,1355.1,632.3z"/>
						<path class="st5" d="M1589.7,941.8c0,0-183.6-86.5-274.5-90.2c-90.9-3.7-188.4,11.9-187.7,96.4
							c0.6,84.5,138.6,84.2,236.1,62.2C1461.1,988.2,1589.7,941.8,1589.7,941.8z"/>
						<path class="st5" d="M1863.4,1065.5c0,0-46.9-133.8-42.9-197.3c4-63.5,21.9-130,80.6-123.5c58.7,6.6,48.5,102.4,26.2,168.6
							C1905,979.5,1863.4,1065.5,1863.4,1065.5z"/>
						<path class="st5" d="M1708.4,968.1c0,0-73.2-162.8-75-242.8c-1.8-80,13.4-165.4,87.7-163.6c74.3,1.9,71.8,123.2,51,208.6
							C1751.2,855.8,1708.4,968.1,1708.4,968.1z"/>
						<path class="st5" d="M1402.6,584.8c0,0-42.2-121.3-38.5-178.7c3.7-57.5,20-117.7,73.2-111.7c53.1,6,43.7,92.8,23.4,152.7
							C1440.3,507,1402.6,584.8,1402.6,584.8z"/>
						<path class="st5" d="M1330.9,489.2c0,0-62.1-85.6-72.7-131.9c-10.7-46.2-12.1-97.6,31.2-105.5c43.3-7.9,56.5,62.9,54.7,114.9
							C1342.2,418.9,1330.9,489.2,1330.9,489.2z"/>
						<path class="st5" d="M1568.6,816.4c0,0-73.6-136.8-80.1-206.2c-6.5-69.4,1.5-144.5,66.1-147.4c64.6-2.9,69.9,102.6,57.1,178
							C1598.9,716.2,1568.6,816.4,1568.6,816.4z"/>
					</g>
					<path class="st4" d="M1372,669.2c9.2,12.8,6.3,30.6-6.5,39.8c-12.8,9.2-30.6,6.3-39.8-6.5c-9.2-12.8-6.3-30.6,6.5-39.8
						C1345,653.5,1362.9,656.4,1372,669.2z"/>
					<path class="st4" d="M1246,397.1c13.9,19.4,9.5,46.3-9.8,60.3c-19.4,13.9-46.3,9.5-60.3-9.8c-13.9-19.4-9.5-46.3,9.8-60.3
						C1205,373.4,1232,377.8,1246,397.1z"/>
					<path class="st4" d="M1804.6,850.6c7,9.7,4.8,23.3-5,30.3c-9.7,7-23.3,4.8-30.3-4.9c-7-9.7-4.8-23.3,4.9-30.3
						C1784,838.7,1797.6,840.9,1804.6,850.6z"/>
					<path class="st4" d="M1523.2,429.4c5.9,8.1,4,19.5-4.1,25.4c-8.1,5.9-19.5,4-25.4-4.1c-5.9-8.1-4-19.5,4.1-25.4
						C1505.9,419.4,1517.3,421.2,1523.2,429.4z"/>
				</g>
				<g>
					<g>
						<path class="st6" d="M1934.5,1161.4l5.7,7.2c228-179.4,340.2-386.4,394.3-528.5c58.6-154.1,63.2-267.4,63.2-268.5l-9.1-0.3
							c0,1.1-4.7,113.2-62.8,265.9C2272.1,778.1,2160.7,983.5,1934.5,1161.4z"/>
						<path class="st6" d="M2025.3,1148.8c0,0,141.3-12.6,201.8,6.9c60.5,19.5,120.7,53.1,99.9,108.4
							c-20.8,55.3-111.2,21.8-169.8-16.1C2098.5,1210.2,2025.3,1148.8,2025.3,1148.8z"/>
						<path class="st6" d="M2118.2,1073.4c0,0,158.5-82,238.3-88.2c79.8-6.2,165.9,4.3,168.1,78.6c2.2,74.3-119.1,78.5-205.5,62.3
							C2232.7,1110.1,2118.2,1073.4,2118.2,1073.4z"/>
						<path class="st6" d="M2322.5,754.3c0,0,125-113.4,196.4-138.4c71.4-25,152.7-36.3,172.7,31.1c20,67.4-89.8,100.6-172.7,106.8
							C2436.1,760,2322.5,754.3,2322.5,754.3z"/>
						<path class="st6" d="M2393,575.1c0,0,80.3-129,135.9-168.3c55.7-39.3,123.3-69.1,157.2-15.7c33.9,53.4-53,109.3-123.2,135.1
							C2492.8,552,2393,575.1,2393,575.1z"/>
						<path class="st6" d="M2220.4,923c0,0,164.1-119.3,252.8-139.9c88.6-20.6,187.3-23.5,202.4,59.6
							c15.2,83.1-120.5,108.6-220.3,105.2C2355.4,944.5,2220.4,923,2220.4,923z"/>
						<path class="st6" d="M1974.6,1095.7c0,0,21-140.2,5.2-201.8c-15.8-61.6-45.8-123.7-102.2-106.3
							c-56.4,17.4-28.5,109.7,5.8,170.5C1917.8,1018.9,1974.6,1095.7,1974.6,1095.7z"/>
						<path class="st6" d="M2108.8,971c0,0,41.5-173.6,28.4-252.5c-13.2-78.9-44.1-160-116.7-144.3
							c-72.6,15.7-47.6,134.5-11.1,214.4C2045.7,868.6,2108.8,971,2108.8,971z"/>
						<path class="st6" d="M2337.6,537.3c0,0,18.8-127,4.4-182.8c-14.4-55.7-41.6-111.9-92.7-96.1c-51.1,15.9-25.6,99.4,5.5,154.4
							C2285.9,467.9,2337.6,537.3,2337.6,537.3z"/>
						<path class="st6" d="M2390.1,430c0,0,45-95.7,46.8-143.1c1.9-47.4-6.3-98.2-50.4-97.8c-44,0.4-43.8,72.3-32.3,123.1
							C2365.8,363,2390.1,430,2390.1,430z"/>
						<path class="st6" d="M2217.7,795.8c0,0,46.7-148.2,40.1-217.5c-6.6-69.3-28.4-141.7-92.5-132.5c-64,9.2-49.6,113.8-22.8,185.5
							C2169.2,703,2217.7,795.8,2217.7,795.8z"/>
					</g>
					<path class="st4" d="M2317.7,597.6c-3.7,13.2-17.4,21-30.6,17.3c-13.2-3.7-21-17.4-17.3-30.6c3.7-13.2,17.4-21,30.6-17.3
						C2313.6,570.7,2321.4,584.4,2317.7,597.6z"/>
					<path class="st4" d="M2518.6,363.9c-5.7,20.5-26.9,32.5-47.5,26.8c-20.5-5.7-32.5-26.9-26.8-47.4c5.7-20.5,26.9-32.5,47.5-26.8
						C2512.3,322.2,2524.3,343.4,2518.6,363.9z"/>
					<path class="st4" d="M2644.4,563.7c-2.7,9.7-12.7,15.3-22.4,12.6c-9.7-2.7-15.3-12.7-12.6-22.4c2.7-9.7,12.7-15.3,22.4-12.6
						C2641.4,544,2647.1,554,2644.4,563.7z"/>
					<path class="st4" d="M2699.4,773.4c-2.7,9.7-12.7,15.3-22.4,12.6c-9.7-2.7-15.3-12.7-12.6-22.4c2.7-9.7,12.7-15.3,22.4-12.6
						C2696.4,753.7,2702.1,763.7,2699.4,773.4z"/>
				</g>
				<g>
					<g>
						<path class="st3" d="M1995.3,1063.7l-8.8,2.6c-83.3-277.9-56-511.8-18.4-659.1c40.7-159.7,102.1-255.1,102.7-256l7.7,5
							c-0.6,0.9-61.3,95.3-101.6,253.7C1939.7,556,1912.7,788,1995.3,1063.7z"/>
						<path class="st3" d="M1928.3,1001.2c0,0-108.3-91.5-169-110.4c-60.7-18.9-129.3-26-144.1,31.2
							c-14.8,57.2,78.4,81.8,148.2,84.6C1833.1,1009.3,1928.3,1001.2,1928.3,1001.2z"/>
						<path class="st3" d="M1895.7,886.1c0,0-82.5-158.3-144.2-209.2c-61.7-50.9-138.2-91.9-182.7-32.4
							c-44.5,59.5,52.3,132.7,132.2,169.2C1780.9,850.1,1895.7,886.1,1895.7,886.1z"/>
						<path class="st3" d="M1912.1,507.5c0,0-37-164.7-81-226.2c-44-61.5-104-117.6-159.2-74c-55.1,43.6,15.6,134,79.8,186.7
							C1816,446.8,1912.1,507.5,1912.1,507.5z"/>
						<path class="st3" d="M1957.5,320.3c0,0,8.6-151.7-14.4-215.9c-23-64.1-61.1-127.4-119.6-103.3
							c-58.5,24.2-19.5,119.9,23.1,181.4C1889.2,244.1,1957.5,320.3,1957.5,320.3z"/>
						<path class="st3" d="M1898.6,704.2c0,0-65.6-192-126.3-259.9c-60.6-67.8-139.6-127-199.9-67.7
							c-60.2,59.3,36.1,158.1,119.7,212.8C1775.8,644.1,1898.6,704.2,1898.6,704.2z"/>
						<path class="st3" d="M2000.3,986.8c0,0,63.5-126.8,111.8-168.1c48.3-41.3,108.6-74.8,144.7-28.1
							c36.1,46.7-39.8,106.1-102.8,136.1C2091,956.8,2000.3,986.8,2000.3,986.8z"/>
						<path class="st3" d="M1962.3,807.7c0,0,65.9-165.9,122.1-222.9c56.2-57,128.1-105.6,178.5-50.9
							c50.4,54.7-38.5,137.4-114.3,181.8C2072.8,760.2,1962.3,807.7,1962.3,807.7z"/>
						<path class="st3" d="M2024.6,321.3c0,0,57.7-114.7,101.5-152.1c43.9-37.3,98.5-67.6,131.1-25.2c32.7,42.4-36.2,96-93.3,123.1
							C2106.8,294.3,2024.6,321.3,2024.6,321.3z"/>
						<path class="st3" d="M2043.4,203.3c0,0,18.3-104.2,44-144c25.7-39.8,61.6-76.7,97.5-51c35.8,25.7-5.8,84.3-44.4,119.3
							C2101.8,162.5,2043.4,203.3,2043.4,203.3z"/>
						<path class="st3" d="M1974,601.7c0,0,47-148.1,92.3-201c45.3-52.9,104.7-99.5,151.8-55.1c47.1,44.4-25,121.6-88,164.9
							C2067,553.7,1974,601.7,1974,601.7z"/>
					</g>
					<path class="st4" d="M2006.2,382.1c-4.6,12.9,2.1,27.2,15.1,31.8c12.9,4.6,27.2-2.1,31.8-15.1c4.6-12.9-2.2-27.2-15.1-31.8
						C2025,362.4,2010.8,369.1,2006.2,382.1z"/>
					<path class="st4" d="M1976.3,75.3c-7.1,20.1,3.3,42.1,23.4,49.2c20.1,7.1,42.1-3.3,49.2-23.4c7.1-20.1-3.3-42.1-23.4-49.2
						C2005.5,44.8,1983.4,55.3,1976.3,75.3z"/>
					<path class="st4" d="M1758.5,166.4c-3.4,9.4,1.6,19.8,11,23.2c9.5,3.4,19.9-1.6,23.2-11c3.4-9.5-1.6-19.8-11-23.2
						C1772.3,152,1761.9,156.9,1758.5,166.4z"/>
					<path class="st4" d="M1592.9,306.2c-3.4,9.5,1.6,19.8,11,23.2c9.5,3.4,19.8-1.6,23.2-11c3.4-9.5-1.6-19.8-11-23.2
						C1606.6,291.8,1596.2,296.8,1592.9,306.2z"/>
				</g>
				<g>
					<g>
						<path class="st7" d="M1931.7,1448.7l0.6,9.1c289.5-19.5,498.9-127.1,623.7-214c135.3-94.2,203-185.1,203.7-186l-7.4-5.4
							c-0.7,0.9-67.7,90.8-201.9,184.1C2426.7,1322.7,2218.9,1429.4,1931.7,1448.7z"/>
						<path class="st7" d="M2013.8,1489.5c0,0,123.7,69.3,162.7,119.5c39,50.2,69.7,112,21.3,145.9
							c-48.3,33.9-104.1-44.7-131.2-109.1C2039.6,1581.5,2013.8,1489.5,2013.8,1489.5z"/>
						<path class="st7" d="M2133,1479.7c0,0,177.2,21.7,246.5,61.6c69.4,39.9,134.6,97.2,94.4,159.8
							c-40.1,62.6-142.6-2.4-204.8-64.5C2207,1574.5,2133,1479.7,2133,1479.7z"/>
						<path class="st7" d="M2481.8,1331.5c0,0,167.2-23.2,240.3-3.5c73.1,19.6,146.6,56.2,125.1,123.1
							c-21.5,66.9-130.9,32.4-202.9-9.2C2572.4,1400.2,2481.8,1331.5,2481.8,1331.5z"/>
						<path class="st7" d="M2641.1,1223.3c0,0,139.1-61.3,207.2-62.3c68.1-1,140.8,12.5,138.7,75.8c-2.1,63.3-105.4,60.3-177.9,42
							C2736.5,1260.5,2641.1,1223.3,2641.1,1223.3z"/>
						<path class="st7" d="M2302.3,1413.1c0,0,202.8-5.9,287.6,27.1c84.8,33,167.9,86.2,133.5,163.4
							c-34.4,77.2-160.7,21.7-241.3-37.4C2401.6,1507.1,2302.3,1413.1,2302.3,1413.1z"/>
						<path class="st7" d="M2002,1417.1c0,0,96.5-103.9,118.2-163.7c21.7-59.8,32-127.9-24.4-145.4c-56.4-17.5-85.4,74.5-91.4,144.1
							C1998.3,1321.6,2002,1417.1,2002,1417.1z"/>
						<path class="st7" d="M2183,1389.8c0,0,132.2-119.9,165.9-192.5c33.6-72.6,53.9-157-15-185c-68.9-28-115.1,84.2-130.2,170.8
							C2188.7,1269.7,2183,1389.8,2183,1389.8z"/>
						<path class="st7" d="M2616.6,1160.8c0,0,87.2-94.3,106.8-148.4c19.5-54.2,28.8-115.9-22.4-131.7
							c-51.1-15.7-77.2,67.6-82.5,130.6C2613.1,1074.3,2616.6,1160.8,2616.6,1160.8z"/>
						<path class="st7" d="M2720.5,1101.9c0,0,91.1-53.7,119.4-91.7c28.3-38.1,50.2-84.6,13.6-109.1c-36.6-24.5-76.9,35-96.1,83.5
							C2738.3,1032.8,2720.5,1101.9,2720.5,1101.9z"/>
						<path class="st7" d="M2371.8,1306.6c0,0,122.2-96,155.8-156.9c33.7-61,56.5-133-1.6-161.5c-58.1-28.5-105.1,66-123.5,140.3
							C2384.2,1202.7,2371.8,1306.6,2371.8,1306.6z"/>
					</g>
					<path class="st4" d="M2879.8,1107.4c-6.4,20.3-28,31.6-48.3,25.2c-20.3-6.4-31.6-28-25.2-48.3c6.4-20.3,28-31.6,48.3-25.2
						C2874.9,1065.4,2886.2,1087,2879.8,1107.4z"/>
					<path class="st4" d="M2623.9,1278.2c-4.3,13.7-18.9,21.4-32.7,17.1c-13.7-4.3-21.4-18.9-17.1-32.7
						c4.3-13.7,18.9-21.4,32.7-17.1C2620.5,1249.9,2628.2,1264.5,2623.9,1278.2z"/>
					<path class="st4" d="M2482.9,1388.7c-3,9.6-13.2,14.9-22.8,11.9c-9.6-3-14.9-13.2-11.9-22.8c3-9.6,13.2-14.9,22.8-11.9
						C2480.5,1368.9,2485.9,1379.1,2482.9,1388.7z"/>
					<path class="st4" d="M2316,1331.3c-3,9.6-13.2,14.9-22.8,11.9c-9.6-3-14.9-13.2-11.9-22.8c3-9.6,13.2-14.9,22.8-11.9
						C2313.7,1311.5,2319,1321.7,2316,1331.3z"/>
				</g>
			</g>
			<g>
				
					<image style="overflow:visible;" width="4505" height="5494" xlink:href="E06F7852.png"  transform="matrix(0.24 0 0 0.24 1361.12 328.64)">
				</image>
				<path class="st8" d="M2372.7,869.1c0-260.1-210.9-471-471-471h0l0,0c-260.1,0-471,210.9-471,471c0,109.3,37.3,209.9,99.8,289.9
					l0,0c55.4,77.3,135.8,113.6,135.8,220.2v187.4c0,6,4.9,10.9,10.9,10.9h449.2c6,0,10.9-4.9,10.9-10.9v-187.4
					c0-106.6,80.4-143,135.8-220.2l0,0C2335.4,1079.1,2372.7,978.5,2372.7,869.1z"/>
				<g>
					<g>
						<path class="st4" d="M2058.4,1092.7v242.4h84c18.6-74.5,83.6-110.6,130.6-176.2l0,0c16.2-20.8,30.7-42.9,43.4-66.3H2058.4z"/>
						<path class="st9" d="M2171.5,1274.4c8.3-11.4,17.6-22.1,27.4-32.7C2185,1247.2,2174.5,1259.4,2171.5,1274.4z M2247.4,1114.2
							c-7.7-10.7-8.8-20.3,1.9-21.5H2181c10.7,1.2,9.7,10.8,1.9,21.5c-7.6,8-12.3,18.7-12.3,30.6c0,24.6,19.9,44.5,44.5,44.5
							c24.6,0,44.5-19.9,44.5-44.5C2259.7,1132.9,2255,1122.2,2247.4,1114.2z"/>
					</g>
					<g>
						<polygon class="st4" points="2058.4,1092.7 2058.4,850.3 1942.7,850.3 1860.6,850.3 1744.9,850.3 1744.9,1092.7 						"/>
						<path class="st10" d="M1869.4,871.7c-7.6,8-12.3,18.7-12.3,30.6c0,24.6,19.9,44.5,44.5,44.5c24.6,0,44.5-19.9,44.5-44.5
							c0-11.9-4.7-22.6-12.3-30.6c-7.7-10.7-8.7-20.3,1.9-21.5h-68.3C1878.2,851.5,1877.2,861.1,1869.4,871.7z"/>
						<path class="st9" d="M1933.9,1071.3c7.6-8,12.3-18.7,12.3-30.6c0-24.6-19.9-44.5-44.5-44.5c-24.6,0-44.5,19.9-44.5,44.5
							c0,11.9,4.7,22.6,12.3,30.6c7.7,10.7,8.7,20.3-1.9,21.5h68.4C1925.2,1091.5,1926.2,1081.9,1933.9,1071.3z"/>
					</g>
					<path class="st9" d="M2371.9,850.3h-313.5v242.4l257.9,0c31.9-59.1,51.6-125.7,55.6-196.6V850.3z"/>
					<path class="st4" d="M2350.4,939.3c-8-7.6-18.7-12.3-30.6-12.3c-24.6,0-44.5,19.9-44.5,44.5c0,24.6,19.9,44.5,44.5,44.5
						c11.9,0,22.6-4.7,30.6-12.3c1.1-0.8,2.2-1.5,3.3-2.2c5.4-18.4,9.7-37.3,12.8-56.6C2362.6,946,2356.7,943.8,2350.4,939.3z"/>
					<path class="st4" d="M2079.9,1003.7c8,7.6,18.7,12.3,30.6,12.3c24.6,0,44.5-19.9,44.5-44.5c0-24.6-19.9-44.5-44.5-44.5
						c-11.9,0-22.6,4.7-30.6,12.3c-10.7,7.7-20.3,8.7-21.5-1.9v68.4C2059.6,995,2069.2,996,2079.9,1003.7z"/>
					<path class="st9" d="M1744.9,850.3h-313.5v45.8c4,70.9,23.7,137.5,55.6,196.6l257.9,0V850.3z"/>
					<path class="st4" d="M1723.5,939.3c-8-7.6-18.7-12.3-30.6-12.3c-24.6,0-44.5,19.9-44.5,44.5c0,24.6,19.9,44.5,44.5,44.5
						c11.9,0,22.6-4.7,30.6-12.3c10.7-7.7,20.3-8.7,21.5,1.9v-68.4C1743.8,948,1734.2,947,1723.5,939.3z"/>
					<path class="st4" d="M1449.6,1001.5c1.1,0.7,2.2,1.4,3.4,2.2c8,7.6,18.7,12.3,30.6,12.3c24.6,0,44.5-19.9,44.5-44.5
						c0-24.6-19.9-44.5-44.5-44.5c-11.9,0-22.6,4.7-30.6,12.3c-6.3,4.5-12.1,6.7-16.2,5.6C1439.9,964.2,1444.2,983.1,1449.6,1001.5z
						"/>
					<g>
						<polygon class="st4" points="2058.4,1577.6 2058.4,1335.2 1942.7,1335.2 1860.6,1335.2 1744.9,1335.2 1744.9,1577.6 						"/>
						<path class="st9" d="M1869.4,1356.6c-7.6,8-12.3,18.7-12.3,30.6c0,24.6,19.9,44.5,44.5,44.5c24.6,0,44.5-19.9,44.5-44.5
							c0-11.9-4.7-22.6-12.3-30.6c-7.7-10.7-8.7-20.3,1.9-21.5h-68.3C1878.2,1336.3,1877.2,1345.9,1869.4,1356.6z"/>
						<path class="st9" d="M1933.9,1556.1c7.6-8,12.3-18.7,12.3-30.6c0-24.6-19.9-44.5-44.5-44.5c-24.6,0-44.5,19.9-44.5,44.5
							c0,11.9,4.7,22.6,12.3,30.6c7.7,10.7,8.7,20.3-1.9,21.5h68.4C1925.2,1576.4,1926.2,1566.8,1933.9,1556.1z"/>
					</g>
					<path class="st9" d="M2137.2,1379.2c0-16.2,1.9-30.7,5.2-44.1h-84v242.4h67.9c6,0,10.9-4.9,10.9-10.9V1379.2z"/>
					<path class="st4" d="M2137.2,1420.8c-7.4-5.6-16.7-9-26.7-9c-11.9,0-22.6,4.7-30.6,12.3c-10.7,7.7-20.3,8.7-21.5-1.9v68.4
						c1.2-10.7,10.8-9.6,21.5-1.9c8,7.6,18.7,12.3,30.6,12.3c10,0,19.2-3.4,26.7-9V1420.8z"/>
					<path class="st9" d="M1661,1335.2c3.3,13.3,5.2,27.9,5.2,44.1v187.4c0,6,4.9,10.9,10.9,10.9h67.9v-242.4H1661z"/>
					<path class="st4" d="M1723.5,1488.6c10.7-7.7,20.3-8.7,21.5,1.9v-68.3c-1.2,10.7-10.8,9.6-21.5,1.9c-8-7.6-18.7-12.3-30.6-12.3
						c-10,0-19.3,3.4-26.7,9v71.1c7.4,5.6,16.7,9,26.7,9C1704.7,1500.9,1715.5,1496.2,1723.5,1488.6z"/>
					<path class="st4" d="M1901.7,398.1L1901.7,398.1c-55,0-107.7,9.4-156.7,26.7v183l313.5,0v-183
						C2009.4,407.6,1956.6,398.1,1901.7,398.1z"/>
					<path class="st9" d="M1901.7,398.1c-13.8,0-27.4,0.6-40.8,1.8c-2.3,5.4-3.7,11.3-3.7,17.6c0,24.6,19.9,44.5,44.5,44.5
						c24.6,0,44.5-19.9,44.5-44.5c0-6.3-1.3-12.2-3.7-17.6C1929.1,398.8,1915.4,398.1,1901.7,398.1L1901.7,398.1z"/>
					<path class="st10" d="M1933.9,586.4c7.6-8,12.3-18.7,12.3-30.6c0-24.6-19.9-44.5-44.5-44.5c-24.6,0-44.5,19.9-44.5,44.5
						c0,11.9,4.7,22.6,12.3,30.6c7.7,10.7,8.7,20.3-1.9,21.5h68.4C1925.2,606.7,1926.2,597.1,1933.9,586.4z"/>
					<path class="st9" d="M2058.4,424.9v183l235.2,0C2237.5,523.9,2155.2,459,2058.4,424.9z"/>
					<path class="st4" d="M2155,486.6c0-5.9-1.2-11.5-3.3-16.7c-15.9-10-32.4-19-49.4-27c-8.6,1.6-16.3,5.7-22.4,11.5
						c-10.7,7.7-20.3,8.7-21.5-1.9v68.4c1.2-10.7,10.8-9.6,21.5-1.9c8,7.6,18.7,12.3,30.6,12.3C2135.1,531.1,2155,511.2,2155,486.6z
						"/>
					<path class="st9" d="M1744.9,424.9c-96.8,34.2-179.1,99-235.2,183l235.2,0V424.9z"/>
					<path class="st4" d="M1723.5,518.9c10.7-7.7,20.3-8.7,21.5,1.9v-68.3c-1.2,10.7-10.8,9.6-21.5,1.9c-6.1-5.8-13.8-9.9-22.4-11.5
						c-17.1,8-33.6,17.1-49.4,27c-2.1,5.2-3.3,10.8-3.3,16.7c0,24.6,19.9,44.5,44.5,44.5C1704.7,531.1,1715.5,526.5,1723.5,518.9z"
						/>
					<path class="st4" d="M2371.9,842.2c-4.9-86.4-33-166.5-78.3-234.3h-235.2v242.4l313.5,0V842.2z"/>
					<path class="st9" d="M2182.9,629.3c-7.6,8-12.3,18.7-12.3,30.6c0,24.6,19.9,44.5,44.5,44.5c24.6,0,44.5-19.9,44.5-44.5
						c0-11.9-4.7-22.6-12.2-30.6c-7.7-10.7-8.8-20.3,1.9-21.5H2181C2191.7,609,2190.6,618.6,2182.9,629.3z"/>
					<path class="st9" d="M2247.4,828.8c7.6-8,12.3-18.7,12.3-30.6c0-24.6-19.9-44.5-44.5-44.5c-24.6,0-44.5,19.9-44.5,44.5
						c0,11.9,4.7,22.6,12.3,30.6c7.7,10.7,8.7,20.3-1.9,21.5h68.3C2238.7,849.1,2239.7,839.5,2247.4,828.8z"/>
					<path class="st4" d="M1744.9,607.8h-235.2c-45.3,67.8-73.4,148-78.3,234.4v8.1l313.5,0V607.8z"/>
					<path class="st9" d="M1556,629.3c-7.6,8-12.3,18.7-12.3,30.6c0,24.6,19.9,44.5,44.5,44.5c24.6,0,44.5-19.9,44.5-44.5
						c0-11.9-4.7-22.6-12.3-30.6c-7.7-10.7-8.7-20.3,1.9-21.5H1554C1564.7,609,1563.7,618.6,1556,629.3z"/>
					<path class="st9" d="M1620.4,828.8c7.6-8,12.3-18.7,12.3-30.6c0-24.6-19.9-44.5-44.5-44.5c-24.6,0-44.5,19.9-44.5,44.5
						c0,11.9,4.7,22.6,12.3,30.6c7.7,10.7,8.7,20.3-1.9,21.5h68.4C1611.7,849.1,1612.7,839.5,1620.4,828.8z"/>
					<g>
						<polygon class="st10" points="2058.4,850.3 2058.4,607.8 1942.7,607.8 1860.6,607.8 1744.9,607.8 1744.9,850.3 						"/>
						<path class="st4" d="M2037,696.8c-8-7.6-18.7-12.3-30.6-12.3c-24.6,0-44.5,19.9-44.5,44.5s19.9,44.5,44.5,44.5
							c11.9,0,22.6-4.7,30.6-12.3c10.7-7.7,20.3-8.7,21.5,1.9v-68.4C2057.2,705.6,2047.7,704.5,2037,696.8z"/>
						<path class="st4" d="M1766.4,761.3c8,7.6,18.7,12.3,30.6,12.3c24.6,0,44.5-19.9,44.5-44.5s-19.9-44.5-44.5-44.5
							c-11.9,0-22.6,4.7-30.6,12.3c-10.7,7.7-20.3,8.7-21.5-1.9v68.4C1746.1,752.6,1755.7,753.6,1766.4,761.3z"/>
					</g>
					<path class="st4" d="M1744.9,1092.7h-257.9c12.6,23.3,27.1,45.5,43.4,66.3l0,0c47,65.5,111.9,101.6,130.6,176.1h84V1092.7z"/>
					<path class="st9" d="M1632.7,1144.8c0-11.9-4.7-22.6-12.3-30.6c-7.7-10.7-8.7-20.3,1.9-21.5H1554c10.7,1.2,9.6,10.8,1.9,21.5
						c-7.6,8-12.3,18.7-12.3,30.6c0,24.6,19.9,44.5,44.5,44.5C1612.8,1189.3,1632.7,1169.4,1632.7,1144.8z M1604.5,1241.7
						c9.8,10.6,19.1,21.3,27.4,32.7C1628.9,1259.4,1618.4,1247.2,1604.5,1241.7z"/>
					<g>
						<polygon class="st9" points="2058.4,1335.2 2058.4,1092.7 1942.7,1092.7 1860.6,1092.7 1744.9,1092.7 1744.9,1335.2 						"/>
						<path class="st4" d="M2037,1181.7c-8-7.6-18.7-12.3-30.6-12.3c-24.6,0-44.5,19.9-44.5,44.5c0,24.6,19.9,44.5,44.5,44.5
							c11.9,0,22.6-4.7,30.6-12.2c10.7-7.7,20.3-8.7,21.5,1.9v-68.3C2057.2,1190.4,2047.7,1189.4,2037,1181.7z"/>
						<path class="st4" d="M1766.4,1246.2c8,7.6,18.7,12.3,30.6,12.3c24.6,0,44.5-19.9,44.5-44.5c0-24.6-19.9-44.5-44.5-44.5
							c-11.9,0-22.6,4.7-30.6,12.3c-10.7,7.7-20.3,8.7-21.5-1.9v68.3C1746.1,1237.4,1755.7,1238.5,1766.4,1246.2z"/>
					</g>
				</g>
				<linearGradient id="SVGID_3_" gradientUnits="userSpaceOnUse" x1="1901.6749" y1="660.4037" x2="1901.6749" y2="1539.1539">
					<stop  offset="0" style="stop-color:#FFFFFF"/>
					<stop  offset="1" style="stop-color:#B7B7B7"/>
				</linearGradient>
				<path class="st11" d="M2372.7,869.1c0-260.1-210.9-471-471-471c211.5,0,415.3,205.8,415.3,459.7c0,106.7-62.7,204.9-113.5,282.9
					l0,0c-45.1,75.4-110.4,110.9-110.4,215v182.9c0,5.9-4,10.6-8.9,10.6h-365.2c-4.9,0-8.9-4.8-8.9-10.6v-182.9
					c0-104.1-65.3-139.6-110.4-215v0c-50.8-78-113.5-176.2-113.5-282.9c0-253.9,203.8-459.7,415.3-459.7c-260.1,0-471,210.9-471,471
					c0,109.3,37.3,209.9,99.8,289.9l0,0c55.4,77.3,135.8,113.6,135.8,220.2v187.4c0,6,4.9,10.9,10.9,10.9h449.2
					c6,0,10.9-4.9,10.9-10.9v-187.4c0-106.6,80.4-143,135.8-220.2l0,0C2335.4,1079.1,2372.7,978.5,2372.7,869.1z"/>
				
					<image style="overflow:visible;" width="3926" height="4915" xlink:href="E06F7856.png"  transform="matrix(0.24 0 0 0.24 1430.48 398)">
				</image>
				<path class="st12" d="M1702.5,1658.6v65c0,110.2,89.6,200.4,199.2,200.4c109.5,0,199.1-90.2,199.1-200.4v-65H1702.5z"/>
				<linearGradient id="SVGID_4_" gradientUnits="userSpaceOnUse" x1="1901.6779" y1="1826.6949" x2="1901.6779" y2="1571.3671">
					<stop  offset="0" style="stop-color:#FFFFFF"/>
					<stop  offset="1" style="stop-color:#B7B7B7"/>
				</linearGradient>
				<path class="st13" d="M1702.5,1658.6v65c0,110.2,89.6,200.4,199.2,200.4c109.5,0,199.1-90.2,199.1-200.4v-65H1702.5z"/>
				<linearGradient id="SVGID_5_" gradientUnits="userSpaceOnUse" x1="1901.6779" y1="2288.4858" x2="1901.6779" y2="1232.5573">
					<stop  offset="0" style="stop-color:#FFFFFF"/>
					<stop  offset="1" style="stop-color:#B7B7B7"/>
				</linearGradient>
				<path class="st14" d="M1744.2,1845.8l233.2,63c20.3-8.5,38.9-20.2,55.2-34.6l-319.4-86.2
					C1720.4,1809,1730.9,1828.5,1744.2,1845.8z M1702.5,1658.6v13.1l390.9,105.6c4.2-15.2,6.7-31.1,7.2-47.5l-263.5-71.2H1702.5z
					 M1956,1658.6l144.8,39.1v-39.1H1956z M1901.7,1923.9c2,0,4-0.1,6.1-0.2l-110.5-29.8C1827.7,1912.9,1863.5,1923.9,1901.7,1923.9
					z M1702.5,1723.6c0,10.2,0.8,20.3,2.3,30.1l352.1,95.1c10.3-12.9,19.1-27.2,26-42.4l-380.4-102.7V1723.6z"/>
				<path class="st15" d="M2126.6,1691.7c-0.7,3-6.1,5.5-12.1,5.5h-425.7c-5.9,0-11.4-2.5-12.1-5.5l-33.3-140.4
					c-0.7-3,3.6-5.5,9.5-5.5h497.5c5.9,0,10.2,2.5,9.5,5.5L2126.6,1691.7z"/>
				<linearGradient id="SVGID_6_" gradientUnits="userSpaceOnUse" x1="1901.6794" y1="1472.4081" x2="1901.6794" y2="1976.0321">
					<stop  offset="0" style="stop-color:#FFFFFF"/>
					<stop  offset="1" style="stop-color:#B7B7B7"/>
				</linearGradient>
				<path class="st16" d="M2150.4,1545.8h-36l-24,134.3c-0.6,3.3-5.2,6.1-10.1,6.1h-357.3c-5,0-9.5-2.7-10.1-6.1l-24-134.3h-36
					c-5.9,0-10.2,2.5-9.5,5.5l33.3,140.4c0.7,3,6.1,5.5,12.1,5.5h425.7c5.9,0,11.4-2.5,12.1-5.5l33.3-140.4
					C2160.6,1548.3,2156.4,1545.8,2150.4,1545.8z"/>
				<linearGradient id="SVGID_7_" gradientUnits="userSpaceOnUse" x1="2103.1843" y1="1987.9694" x2="2103.1843" y2="564.1744">
					<stop  offset="0" style="stop-color:#FFFFFF"/>
					<stop  offset="1" style="stop-color:#B7B7B7"/>
				</linearGradient>
				<path class="st17" d="M2273,1159L2273,1159c62.5-79.9,99.7-180.5,99.7-289.9c0-260.1-210.9-471-471-471h0
					c-23.1,0-45.8,1.7-68,4.9c227.9,33,403,229.1,403,466.1c0,109.3-37.2,209.9-99.7,289.9l0,0c-55.4,77.3-135.8,113.6-135.8,220.2
					v166.6h13.3c5.9,0,10.2,2.5,9.5,5.5l-33.3,140.4c-0.7,3-6.2,5.5-12.1,5.5h-13.7v26.4c0,86.2-54.8,160.1-131.2,188.3
					c21.2,7.8,44.1,12.1,68,12.1c109.5,0,199.1-90.2,199.1-200.4v-26.4h13.7c5.9,0,11.4-2.5,12.1-5.5l33.3-140.4
					c0.7-3-3.6-5.5-9.5-5.5h-13.3v-166.6C2137.2,1272.6,2217.5,1236.3,2273,1159z"/>
			</g>
			<linearGradient id="SVGID_8_" gradientUnits="userSpaceOnUse" x1="2159.2847" y1="1853.4801" x2="2159.2847" y2="992.1943">
				<stop  offset="0" style="stop-color:#FFFFFF"/>
				<stop  offset="1" style="stop-color:#B7B7B7"/>
			</linearGradient>
			<path class="st18" d="M2311.2,972.2c0-3.5-3-6.3-6.6-6.3h-23c-3.6,0-6.6,2.8-6.6,6.3l0.3,157.4h-231.8l-0.3-157.4
				c0-3.5-3-6.3-6.6-6.3h-23c-3.6,0-6.6,2.8-6.6,6.3l0.8,448.4l0.8,471.7c8.4-5.4,16.4-11.5,23.8-18c0,0,0,0,0,0
				c4.3-3.8,8.3-7.7,12.2-11.8l-0.1-82h47.9c0.3-1,0.6-2.1,0.9-3.1c0,0,0,0,0,0c2.4-8.7,4.3-17.7,5.6-26.9h-54.4l-0.3-176.9h110.4
				l5.3-22.2c0.7-3-3.6-5.5-9.5-5.5h-13.3v-2.4h-92.9l0-25.2l-0.2-151.7h93.7c0.7-10.7,2.2-20.7,4.5-30h-98.2l-0.3-176.9h228.9
				c0.1-0.2,0.3-0.4,0.5-0.6l0,0c14.2-18.1,27-37.3,38.5-57.4L2311.2,972.2z"/>
			<path class="st19" d="M2583,1937.8l-127.6-448.4l-147.2-517.2c-1-3.5-4.8-6.3-8.4-6.3h-23c-3.6,0-5.8,2.8-4.8,6.3l44.8,157.4
				h-231.8l-44.8-157.4c-1-3.5-4.8-6.3-8.4-6.3h-23c-3.6,0-5.8,2.8-4.8,6.3l127.6,448.4l147.2,517.2c1,3.5,4.8,6.3,8.4,6.3h23
				c3.6,0,5.8-2.8,4.8-6.3l-44.8-157.4h231.8l44.8,157.4c1,3.5,4.8,6.3,8.4,6.3h23C2581.8,1944.1,2584,1941.2,2583,1937.8z
				 M2375.8,1336.5H2144l-50.3-176.9h231.8L2375.8,1336.5z M2152.5,1366.5h231.8l7.2,25.2l43.2,151.7h-231.8l-7.2-25.2
				L2152.5,1366.5z M2211.4,1573.5h231.8l50.3,176.9h-231.8L2211.4,1573.5z"/>
			<g>
				<g>
					<path class="st20" d="M2216.6,794.8c0,0-17.2,18.2-24.2,24.6c-7.1,6.5-16.6-2.5-20.3-9.7c-3.7-7.3,5.2-23.9,18.5-38.5
						C2203.9,756.7,2217.7,791,2216.6,794.8z"/>
					<path class="st12" d="M2312,702.6c-22.8,31.6-101.5,106.1-101.5,106.1s-12.9-3.7-19.7-14.9c-8.1-13.3-6-23.3-6-23.3l63.7-92.1
						c0,0,29.5-41.4,49.3-31.9C2326,660,2329.4,678.5,2312,702.6z"/>
				</g>
				<linearGradient id="SVGID_9_" gradientUnits="userSpaceOnUse" x1="2190.7534" y1="786.3028" x2="2536.1816" y2="537.0812">
					<stop  offset="0" style="stop-color:#FFFFFF"/>
					<stop  offset="1" style="stop-color:#B7B7B7"/>
				</linearGradient>
				<path class="st21" d="M2255.7,710.9c0,0-44.9,61.1-58.4,78.2c-6.3,8-13.4,18.9-19.3,28.3c4.4,4,9.8,6.1,14.3,2
					c3.1-2.9,8.2-8,12.9-12.9c3,1.5,5.2,2.1,5.2,2.1s78.7-74.5,101.5-106.1c11.9-16.5,14-30.3,5.2-41.7
					C2303.9,667.6,2279.9,682.4,2255.7,710.9z"/>
				<g>
					<path class="st22" d="M2383.8,930.1c0,0-17.1-24-54.6-40.7c-71.1-31.8-177.4-73.5-197.1-80.7c-30.4-11-61.1,43.3-29.6,75.6
						c31.6,32.2,75.4,70.5,113.8,93.8c44.2,26.8,67.4,34.1,100.1,19.4C2356.9,979.3,2372.2,955.2,2383.8,930.1z"/>
					
						<linearGradient id="SVGID_10_" gradientUnits="userSpaceOnUse" x1="-178.5159" y1="836.2452" x2="-169.0409" y2="1210.5121" gradientTransform="matrix(1 -6.100000e-03 6.100000e-03 1 2283.4604 127.9323)">
						<stop  offset="0" style="stop-color:#FF3B73"/>
						<stop  offset="1" style="stop-color:#2E1158"/>
					</linearGradient>
					<path class="st23" d="M2085.8,1117.4c0,0,47.8-12.8,51.3-13.9c3.9-1.3,9.9-3.5,10.8,9.2c0.9,12.7,1.4,16.6,1.4,16.6
						s-55.5,0.7-61.5,0C2081.8,1128.7,2077,1124.3,2085.8,1117.4z"/>
					<path class="st22" d="M2082.8,846.8c5.6,37,7,37.6,15,84.8c8,47.2,29.8,180.9,29.8,180.9s3.2,0.7,7-0.2c7-1.7,7-6.3,7-6.3
						s-2.1-27.1,2.3-50c4.4-22.9,14.1-128.4,16.2-156.8c2.1-28.4,12.2-75.4-19.7-87.7C2110.3,799.8,2077,808.7,2082.8,846.8z"/>
				</g>
				<linearGradient id="SVGID_11_" gradientUnits="userSpaceOnUse" x1="1749.4402" y1="866.1818" x2="3250.4768" y2="1297.3116">
					<stop  offset="0" style="stop-color:#FFFFFF"/>
					<stop  offset="0.2189" style="stop-color:#F5F5F5"/>
					<stop  offset="0.5841" style="stop-color:#DCDCDC"/>
					<stop  offset="1" style="stop-color:#B7B7B7"/>
				</linearGradient>
				<path class="st24" d="M2157.1,934.6c19.6,16.5,40.1,31.8,59.3,43.4c44.2,26.8,67.4,34.1,100.1,19.4
					c40.4-18.1,55.7-42.2,67.3-67.3c0,0-17.1-24-54.6-40.7c-60.8-27.2-147.3-61.6-183.4-75.5c-0.1,3.8,2.8,10.2,14.6,20.5
					c24,21,55.9,35.7,56.2,49.7c0.2,14,14.7,20.6,27.6,22c12.9,1.4,18.3,45.4-24.3,23.9c-42.6-21.5-76.9-67.8-87.4-63.3
					c-13.5,5.9-8.5,17.4-5.5,86.5c3.1,69,6.9,151.4,6.9,159.7c0,8.3,0.7,12.4-22.2,12.4c-22.9,0-33.6,0.8-26-7.9
					c-8.8,6.9-4,11.3,1.9,11.9c6,0.6,61.5,0,61.5,0s-0.5-4-1.4-16.6c-0.6-8.5-3.5-10.3-6.5-10.2c-0.4-8.1-0.9-28.5,2.5-46.5
					C2147.2,1039.1,2153.3,977.3,2157.1,934.6z"/>
				<g>
					<path class="st20" d="M2465,774.3c-6.7,9.9-9.2,17.7,2.3,25.4c14.3,9.5,40.3,26,65.3,39.7c25.3,13.9,38.1,21.2,38.9,21.1
						c4.7-0.1,9.1-10,4.5-18.1c-5.9-10.3-60.1-46.7-79.2-57.4C2488.3,780.2,2475.9,758.3,2465,774.3z"/>
					<g>
						<path class="st20" d="M2477.1,761c0,0,16.2,19.1,21.8,26.8c5.6,7.7-4.3,16.2-11.9,19.1c-7.6,2.9-23.2-7.8-36.2-22.7
							C2437.8,769.4,2473.5,759.5,2477.1,761z"/>
						<path class="st12" d="M2396,655.9c28.9,26.1,94.3,112.6,94.3,112.6s-5.1,12.4-17,18c-14.1,6.6-23.8,3.4-23.8,3.4l-84.6-73.5
							c0,0-37.9-33.9-26.2-52.5C2355.2,637.4,2373.9,636,2396,655.9z"/>
					</g>
				</g>
				<g>
					<path class="st25" d="M2261.9,795.5c0,0-10.6,27.5-3.9,68c12.6,76.9,36.4,188.5,41.3,208.9c7.5,31.4,75.3,43.7,78.3-1.3
						c3.8-58.6,18.4-117.4,16.7-162.3c-2-51.6-8.7-75-39-94.2C2317.7,790.9,2289.2,791.3,2261.9,795.5z"/>
					<linearGradient id="SVGID_12_" gradientUnits="userSpaceOnUse" x1="2343.1882" y1="1155.958" x2="2353.5818" y2="1566.507">
						<stop  offset="0" style="stop-color:#FF3B73"/>
						<stop  offset="1" style="stop-color:#2E1158"/>
					</linearGradient>
					<path class="st26" d="M2363.1,1320c-0.1-1.5-0.3-2.7-0.5-3.8c-1.7-8.3-6.9-6.4-10.3-5.3c-0.5,0.2-2.2,0.6-4.5,1.3
						c-2.4-0.6-4-1.1-4.5-1.3c-3.4-1.1-8.5-3-10.3,5.3c-0.2,1.1-0.4,2.4-0.5,3.8c-0.9,12.7-1.4,16.6-1.4,16.6s7.2,0.1,16.7,0.2
						c9.5-0.1,16.7-0.2,16.7-0.2S2363.9,1332.7,2363.1,1320z"/>
					<path class="st25" d="M2296.6,1055.3c6.5,36.9,7.2,39.7,15.1,86.9s28.4,174.4,28.4,174.4s2.5,5.3,8,4.4
						c7.4-1.2,6.5-6.6,6.5-6.6s-1.7-24.8,2.8-47.7c4.5-22.9,14.5-128.3,16.8-156.7c2.2-28.4,12.4-75.3-19.4-87.8
						C2324.6,1010.4,2291.9,1029,2296.6,1055.3z"/>
				</g>
				<linearGradient id="SVGID_13_" gradientUnits="userSpaceOnUse" x1="2253.5496" y1="1391.5107" x2="2473.4519" y2="179.6029">
					<stop  offset="0" style="stop-color:#FFFFFF"/>
					<stop  offset="0.2189" style="stop-color:#F5F5F5"/>
					<stop  offset="0.5841" style="stop-color:#DCDCDC"/>
					<stop  offset="1" style="stop-color:#B7B7B7"/>
				</linearGradient>
				<path class="st27" d="M2394.1,908.8c-2-51.6-8.7-75-39-94.2c-37.4-23.7-65.9-23.3-93.3-19.1c0,0-10.6,27.5-3.9,68
					c2.3,14,5,29.3,7.9,44.9c6,2.5,17.1,6.1,32.7,7.3c24.3,1.8,30,5,23.8,21.8c-5.7,15.4-25.1,29.5-47.3,19.1
					c7.4,37.6,14.8,73,19.6,95.2h47.4c19.2,0,18.6,7.8,6,22.7c-12.6,14.9-11.9,45.1-4.6,61c7.3,15.9,3.1,33,3.1,51.9
					c0,18.9,0.8,109,0.8,122.5c0,13.6,0.6,14,0.6,17.1c0,3.1,1.2,4.7-5.6,4.7h-10.6c-0.3,3.6-0.5,5-0.5,5s7.2,0.1,16.7,0.2
					c9.5-0.1,16.7-0.2,16.7-0.2s-0.5-4-1.4-16.6c-0.1-1.5-0.3-2.7-0.5-3.8c-1.4-6.8-5.1-6.8-8.3-6c-0.2-8-0.3-26.3,3-43.5
					c4.5-22.9,14.5-128.3,16.8-156.7c0.9-11,2.9-24.9,3.3-38.4c0-0.2,0-0.3,0.1-0.5C2381.2,1012.5,2395.9,953.7,2394.1,908.8z"/>
				<path class="st12" d="M2236.5,877.1c0,0,12.2-131,22.9-196.5c5.4-33,27.7-43.1,90.8-40.5c56.5,2.3,55.9,30.3,50.9,75.4
					c-8.7,78.3-3,163-3,163s-15.5,27.5-81.8,27.6C2250,906.2,2236.5,877.1,2236.5,877.1z"/>
				<linearGradient id="SVGID_14_" gradientUnits="userSpaceOnUse" x1="2319.8538" y1="716.0959" x2="2319.8538" y2="1160.2406">
					<stop  offset="0" style="stop-color:#FFFFFF"/>
					<stop  offset="1" style="stop-color:#B7B7B7"/>
				</linearGradient>
				<path class="st28" d="M2398.1,878.4c0,0-5.7-84.7,3-163c3.4-30.1,4.7-52.5-11.5-64.8c-8.1,1.4-15.5,3.8-21.2,7.8
					c-23.8,16.8-33.2,22.1-18.2,42.4c7.9,10.7-17.9,29.7-11.5,60c6.4,30.3,16,32.5-33.4,32.5H2245c-5,45.5-8.6,83.8-8.6,83.8
					s6.5,14,32.7,22.5c5.9-5,15-9.8,27.4-8.5c10.7,1.1,17.9,7.8,22.7,14.9C2383.1,905,2398.1,878.4,2398.1,878.4z"/>
				<path class="st15" d="M2502.7,880.1c11.9,0,22.6,4.7,30.6,12.3c10.7,7.7,20.3,8.7,21.5-1.9v-87h-122.6
					c-10.7-1.2-9.7-10.8-1.9-21.5c7.6-8,12.3-18.7,12.3-30.6c0-24.6-19.9-44.5-44.5-44.5c-24.6,0-44.5,19.9-44.5,44.5
					c0,11.9,4.7,22.6,12.3,30.6c7.7,10.7,8.7,20.3-1.9,21.5h-122.6v87c1.2,10.7,10.8,9.6,21.5,1.9c8-7.6,18.7-12.3,30.6-12.3
					c24.6,0,44.5,19.9,44.5,44.5c0,24.6-19.9,44.5-44.5,44.5c-11.9,0-22.6-4.7-30.6-12.3c-10.7-7.7-20.3-8.7-21.5,1.9v87h122.6h0
					l0,0c1.3,0.2,2.5,0.4,3.5,0.8c2.8,1.2,4.2,3.3,4.4,6.1c0,0.1,0,0.2,0,0.3c0,0,0,0.1,0,0.1c0.1,3.9-2.1,8.9-5.9,14.2
					c-6.5,6.9-10.9,15.8-12,25.7c0,0.2-0.1,0.3-0.1,0.5c-0.1,0.9-0.1,1.8-0.1,2.7c0,0.6-0.1,1.1-0.1,1.7c0,0,0,0,0,0l0,0
					c0,24.6,19.9,44.5,44.5,44.5l0,0h0c16,0,30-8.5,37.9-21.2c4.2-6.8,6.6-14.7,6.6-23.3l0,0c0,0,0,0,0,0c0-1.2-0.1-2.3-0.2-3.4
					c0-0.3,0-0.6,0-0.9c-0.2-2.4-0.7-4.7-1.3-7c-0.1-0.5-0.2-0.9-0.3-1.4c-0.1-0.3-0.2-0.6-0.3-0.9c-2.1-6.4-5.5-12.2-10.1-16.9
					c-5.3-7.3-7.4-14.2-4.8-18.1c1.2-1.8,3.4-3,6.7-3.3h0h0h122.6v-87c-1.2-10.7-10.8-9.6-21.5-1.9c-8,7.6-18.7,12.3-30.6,12.3
					c-24.6,0-44.5-19.9-44.5-44.5C2458.2,900,2478.2,880.1,2502.7,880.1z"/>
				<linearGradient id="SVGID_15_" gradientUnits="userSpaceOnUse" x1="2172.1882" y1="809.9197" x2="2400.6233" y2="921.6945">
					<stop  offset="0" style="stop-color:#FFFFFF"/>
					<stop  offset="1" style="stop-color:#B7B7B7"/>
				</linearGradient>
				<path class="st29" d="M2256.6,825.4c-4.5-5.6-10.9-7.8-15.3-8.6v55C2270.6,873.7,2263.9,834.6,2256.6,825.4z"/>
				<g>
					<path class="st20" d="M2176.7,790c-7.1,10.8-12.9,22.5-3.2,32.3c40.2,40.9,60.5,38.3,61.3,38.2c4.7-0.1-0.2-16.2-8.5-20.3
						c-15-7.3-16.8-14.8-27.3-31.5C2193.8,800.4,2187.3,773.9,2176.7,790z"/>
					<g>
						<path class="st20" d="M2228.4,835.2c4.5-7.7,15.7-9.3,15.9-13c0.3-4-10.4-3.2-16.1-2.1c-8,1.6-10.3,9.7-15.3,14.4
							C2204.8,840,2228.4,835.2,2228.4,835.2z"/>
						<path class="st20" d="M2239.1,828.1c18.4-2.4,16.4,31.9,10.1,36.1c-5.6,4.6-12.8,2.7-30.1-6.1c-4.6-2.3-1.8-1.8-6.4-4.7
							c-4.1-2.5-5.6-18.8,0.1-19C2228.5,833.8,2222.1,823.7,2239.1,828.1z"/>
					</g>
				</g>
				<linearGradient id="SVGID_16_" gradientUnits="userSpaceOnUse" x1="2680.7937" y1="796.4129" x2="2176.2546" y2="985.7684">
					<stop  offset="0" style="stop-color:#FFFFFF"/>
					<stop  offset="1" style="stop-color:#B7B7B7"/>
				</linearGradient>
				<path class="st30" d="M2554.8,818.3c-3.3-0.4-7-0.6-11.1-0.2c-18.6,1.5-24.4,21.9-22.3,42.4c2,18.9,14.3,21,33.4,13.9V818.3z"/>
				<g>
					<path class="st20" d="M2557.8,841c-4.5-7.7-15.7-9.3-15.9-13c-0.3-4,10.4-3.2,16.1-2.1c8,1.6,10.3,9.7,15.4,14.4
						C2581.4,845.7,2557.8,841,2557.8,841z"/>
					<path class="st20" d="M2547.1,833.9c-18.4-2.4-16.4,31.9-10.1,36.1c5.6,4.6,12.8,2.7,30.1-6.2c4.6-2.3,1.8-1.8,6.4-4.6
						c4-2.5,5.6-18.8-0.2-19C2557.7,839.6,2564.1,829.5,2547.1,833.9z"/>
				</g>
				<linearGradient id="SVGID_17_" gradientUnits="userSpaceOnUse" x1="2570.1294" y1="853.3721" x2="2514.0449" y2="853.3721">
					<stop  offset="0" style="stop-color:#FFFFFF"/>
					<stop  offset="1" style="stop-color:#B7B7B7"/>
				</linearGradient>
				<path class="st31" d="M2573.4,859.2c2.1-1.3,3.5-6.2,3.6-10.7c-7.4,2.6-13.6,9.8-25.8,12c-15.1,2.7-17.4-20.5-9.3-26.2
					c-12.6,4.3-10.4,31.9-4.9,35.7c5.6,4.6,12.8,2.7,30.1-6.2C2571.6,861.5,2568.8,862,2573.4,859.2z"/>
				<g>
					<path class="st32" d="M2296,595.2c-25.4-5-50.8-23.6-46.2-52.8c4.4-28.5,19.7-38.7,34.4-48.6c2.4-1.6,5-3.3,7.4-5.1l1.1,1.5
						c-2.4,1.8-5,3.5-7.4,5.1c-14.4,9.7-29.3,19.7-33.6,47.3c-4.3,28,20.2,45.9,44.8,50.7L2296,595.2z"/>
				</g>
				<path class="st32" d="M2275.8,592.2c-16.9-3.3-25.1-40.8-11.6-72.4c13.4-31.6,46.9-56,75.7-23.8c27.3,30.6,59,43.9,59.2,65.9
					c0.2,23-44.9,56.8-51,75.2c-6.1,18.4-32.3-18.8-32.3-18.8L2275.8,592.2z"/>
				<path class="st20" d="M2347.6,601.9c5.8,11.8,1.6,20.3,5.4,40c2,10.1-11.6,33-41.5,29.3c-19.5-2.4,1.1-20.9,1-31.2
					c-0.1-10.3-1.7-44.9-1.7-44.9S2343.1,592.7,2347.6,601.9z"/>
				<path class="st20" d="M2353.1,573.1c3.2,4.2,0.8,11.5-5.4,16.2c-6.2,4.8-13.9,5.2-17.1,1.1c-3.2-4.2-0.8-11.5,5.4-16.2
					C2342.2,569.3,2349.9,568.9,2353.1,573.1z"/>
				<path class="st20" d="M2338.9,572.3c0-0.8-36.8-10.5-50.3-36.3c-6.8-0.7-10,7.1-11.1,17.6c-1.5,13.8-4.3,24.3-0.3,50
					c3.7,24.3,10.7,37.6,34.6,26.4c15.6-11.2,26.3-15.7,35.7-28C2339.6,588.8,2342.4,581.6,2338.9,572.3z"/>
				<g>
					<path class="st25" d="M2368.7,594.8L2368.7,594.8c-0.5-0.1-0.8-0.6-0.8-1.1c5.1-25.7-22.5-38.4-44.7-48.7
						c-12.4-5.7-23.2-10.7-27.2-17c-11.4-18,9.2-38.4,9.4-38.6c0.4-0.4,1-0.3,1.3,0c0.4,0.4,0.4,0.9,0,1.3
						c-0.2,0.2-19.7,19.6-9.1,36.3c3.7,5.9,14.2,10.7,26.4,16.3c22.8,10.5,51.1,23.5,45.8,50.7
						C2369.6,594.6,2369.2,594.9,2368.7,594.8z"/>
				</g>
				<g>
					<path class="st32" d="M2368.9,602.1l-0.5-1.8c19.3-5,37.7-24.5,40.1-42.5c0.9-7-0.3-16.7-11.3-23c-6.8-3.9-13-7.3-18.4-10.3
						c-17.2-9.4-29.7-16.3-43.4-29.9l1.3-1.3c13.5,13.5,25.9,20.3,43,29.6c5.4,3,11.6,6.4,18.4,10.3c9.3,5.4,13.6,14.2,12.2,24.9
						C2407.8,576.8,2388.8,596.9,2368.9,602.1z"/>
				</g>
				<linearGradient id="SVGID_18_" gradientUnits="userSpaceOnUse" x1="2176.9438" y1="799.1189" x2="2273.4565" y2="879.7507">
					<stop  offset="0" style="stop-color:#FFFFFF"/>
					<stop  offset="1" style="stop-color:#B7B7B7"/>
				</linearGradient>
				<path class="st33" d="M2249.2,864.2c6-4,8-35.4-7.7-36.2c7.5,1,5.5,13.1,0.8,24.3c-4.7,11.2-22.4-0.8-45.5-19.8
					c-17.1-14.1-21.4-30.9-22.5-38.7c-5.8,9.7-9.3,19.8-0.8,28.4c17.5,17.8,31.3,27.4,41.3,32.5c1.8,1.4,0.8,1.5,4.4,3.3
					C2236.4,866.9,2243.6,868.8,2249.2,864.2z"/>
				<linearGradient id="SVGID_19_" gradientUnits="userSpaceOnUse" x1="2380.98" y1="686.6276" x2="2589.2786" y2="909.5866">
					<stop  offset="0" style="stop-color:#FFFFFF"/>
					<stop  offset="0.2189" style="stop-color:#F5F5F5"/>
					<stop  offset="0.5841" style="stop-color:#DCDCDC"/>
					<stop  offset="1" style="stop-color:#B7B7B7"/>
				</linearGradient>
				<path class="st34" d="M2354,705.3c5.8,6.6,10.8,11.1,10.8,11.1l2.8,2.4c8-7.5,18.6-12,30.4-12c24.6,0,44.5,19.9,44.5,44.5
					c0,9.5-3,18.3-8.1,25.5l8.9,7.8c2.9-5.4,5.7-12.3,6-19c0.6-14,12.9,12.5,24.9,22.3c12,9.8,12.8,11.8-7,11.8
					c0.1,0.1,0.2,0.1,0.2,0.2c1.8,1.3,3.6,2.5,5.3,3.5h53.3c-11.6-7.8-22.6-14.6-29.3-18.3c-2.6-3.3-6-7.5-9.3-11.5
					c1.8-2.9,2.7-5,2.7-5s-65.4-86.5-94.3-112.6c-16.1-14.5-30.3-17.7-43.3-8.1c8.7,9.5,36.6,40.1,36.8,42.9
					C2389.7,693.8,2366.8,687.2,2354,705.3z"/>
			</g>
			<g>
				<path class="st35" d="M2947.8,1145.4c-11.9,0-22.6,4.7-30.6,12.3c-10.7,7.7-20.3,8.7-21.5-1.9v-87h-122.6
					c-10.7,1.2-9.6,10.8-1.9,21.5c7.6,8,12.3,18.7,12.3,30.6c0,24.6-19.9,44.5-44.5,44.5c-24.6,0-44.5-19.9-44.5-44.5
					c0-11.9,4.7-22.6,12.3-30.6c7.7-10.7,8.7-20.3-1.9-21.5h-122.6v87c-1.2,10.7-10.8,9.6-21.5,1.9c-8-7.6-18.7-12.3-30.6-12.3
					c-24.6,0-44.5,19.9-44.5,44.5s19.9,44.5,44.5,44.5c11.9,0,22.6-4.7,30.6-12.3c10.7-7.7,20.3-8.7,21.5,1.9v87h122.6
					c10.7-1.2,9.6-10.8,1.9-21.5c-7.6-8-12.3-18.7-12.3-30.6c0-24.6,19.9-44.5,44.5-44.5c24.6,0,44.5,19.9,44.5,44.5
					c0,11.9-4.7,22.6-12.3,30.6c-7.7,10.7-8.7,20.3,1.9,21.5l122.6,0v-87c1.2-10.7,10.8-9.6,21.5-1.9c8,7.6,18.7,12.3,30.6,12.3
					c24.6,0,44.5-19.9,44.5-44.5S2972.4,1145.4,2947.8,1145.4z"/>
				<path class="st35" d="M2947.8,1145.4c-11.9,0-22.6,4.7-30.6,12.3c-10.7,7.7-20.3,8.7-21.5-1.9v-87h-122.6
					c-10.7,1.2-9.6,10.8-1.9,21.5c7.6,8,12.3,18.7,12.3,30.6c0,24.6-19.9,44.5-44.5,44.5c-24.6,0-44.5-19.9-44.5-44.5
					c0-11.9,4.7-22.6,12.3-30.6c7.7-10.7,8.7-20.3-1.9-21.5h-122.6v87c-1.2,10.7-10.8,9.6-21.5,1.9c-8-7.6-18.7-12.3-30.6-12.3
					c-24.6,0-44.5,19.9-44.5,44.5s19.9,44.5,44.5,44.5c11.9,0,22.6-4.7,30.6-12.3c10.7-7.7,20.3-8.7,21.5,1.9v87h122.6
					c10.7-1.2,9.6-10.8,1.9-21.5c-7.6-8-12.3-18.7-12.3-30.6c0-24.6,19.9-44.5,44.5-44.5c24.6,0,44.5,19.9,44.5,44.5
					c0,11.9-4.7,22.6-12.3,30.6c-7.7,10.7-8.7,20.3,1.9,21.5l122.6,0v-87c1.2-10.7,10.8-9.6,21.5-1.9c8,7.6,18.7,12.3,30.6,12.3
					c24.6,0,44.5-19.9,44.5-44.5S2972.4,1145.4,2947.8,1145.4z"/>
				<linearGradient id="SVGID_20_" gradientUnits="userSpaceOnUse" x1="2540.4363" y1="1130.2886" x2="2666.8782" y2="1486.7084">
					<stop  offset="0" style="stop-color:#FFFFFF"/>
					<stop  offset="1" style="stop-color:#B7B7B7"/>
				</linearGradient>
				<path class="st36" d="M2612.4,1271.7c-6.6-12.4-20.2-15.8-30.1-16.6v56h40.8C2616.8,1302.1,2620.6,1287.1,2612.4,1271.7z"/>
				<linearGradient id="SVGID_21_" gradientUnits="userSpaceOnUse" x1="2877.7302" y1="1025.1775" x2="2877.7302" y2="1394.4436">
					<stop  offset="0" style="stop-color:#FFFFFF"/>
					<stop  offset="1" style="stop-color:#B7B7B7"/>
				</linearGradient>
				<path class="st37" d="M2947.8,1145.4c-1.1,0-2.3,0.1-3.4,0.2c2.1,15.3,3.8,34.7,9.4,48.2c5.9,14.3,7.2,28,7.2,38.6
					c18.1-5.6,31.2-22.5,31.2-42.5C2992.3,1165.3,2972.4,1145.4,2947.8,1145.4z M2910.9,1177.7c0.8-5.8,3.4-12.4,5.2-19.3
					c-10.2,7-19.2,7.6-20.4-2.7v-87h-113.6c-5.3,3.9-10.5,8.8-14.8,14.9c1,2.1,2.3,4.3,3.9,6.6c7.6,8,12.3,18.7,12.3,30.6
					c0,15.6-8.1,29.4-20.3,37.3c7.6,23,18.2,42.1,13.6,57.5c-1.2,4.2-2.7,9-4.4,14.2c6.9,7.8,11.1,18.1,11.1,29.3
					c0,11.9-4.7,22.6-12.3,30.6c-7.7,10.7-8.7,20.3,1.9,21.5l122.6,0v-87c1.2-10.7,10.8-9.6,21.5-1.9c4.3,4.1,9.4,7.3,15.1,9.4
					C2918.8,1212.3,2907.2,1204.8,2910.9,1177.7z"/>
				<g>
					<path class="st20" d="M2945.3,1368.2c3-21.7,22.2-110.8,25-130.1c2.8-19.3,2.1-22.6-3.7-44.2c-4.4-16.3,11.5-30.5,15.1-34.6
						c6.1-6.7,24.5,25.2,16,39.2c-3.2,5.3-6.4,15.6-7.8,21.1c-1.1,4.2-3,14.7-3.4,17c-2.8,18.3-3.7,48.5-2.7,77.3
						c1,28.8,0.6,49.7-3.1,66.5c-3,13.4-13.3,25.9-24.3,21.3C2937.6,1394,2944,1377.9,2945.3,1368.2z"/>
				</g>
				<g>
					<path class="st20" d="M2964.9,1353.9c0,0,8.6,23.5,11.2,32.7c2.6,9.2-9.6,13.7-17.8,13.8c-8.2,0.1-19-15.4-26.1-33.8
						C2925.1,1348.2,2962,1351.3,2964.9,1353.9z"/>
					<path class="st12" d="M2940.8,1255.1c20.6,43.9,33.8,110.4,33.8,110.4s-6.6,7.1-22.2,11c-15.1,3.8-22.6,0.6-22.6,0.6
						s-23.5-36-35.2-61.4c-16.1-34.9-16.5-54.6-3.5-76.6C2906.5,1213,2932,1236.3,2940.8,1255.1z"/>
				</g>
				<g>
					<path class="st25" d="M2840,1398.7c0,0-10.6,27.5-3.9,68c12.6,76.9,36.4,188.5,41.3,208.9c7.5,31.4,75.3,43.7,78.3-1.3
						c3.8-58.6,18.4-117.4,16.7-162.3c-2-51.6-8.7-75-39-94.2C2895.9,1394,2867.4,1394.5,2840,1398.7z"/>
					<linearGradient id="SVGID_22_" gradientUnits="userSpaceOnUse" x1="2921.3459" y1="1759.0802" x2="2931.7395" y2="2169.627">
						<stop  offset="0" style="stop-color:#FF3B73"/>
						<stop  offset="1" style="stop-color:#2E1158"/>
					</linearGradient>
					<path class="st38" d="M2941.2,1923.2c-0.1-1.5-0.3-2.7-0.5-3.8c-1.7-8.3-6.9-6.4-10.3-5.3c-0.5,0.2-2.2,0.6-4.5,1.3
						c-2.4-0.7-4-1.1-4.5-1.3c-3.4-1.1-8.5-3-10.3,5.3c-0.2,1.1-0.4,2.4-0.5,3.8c-0.9,12.7-1.4,16.6-1.4,16.6s7.2,0.1,16.7,0.2
						c9.5-0.1,16.7-0.2,16.7-0.2S2942.1,1935.8,2941.2,1923.2z"/>
					<path class="st25" d="M2874.7,1658.4c6.5,36.9,7.2,39.7,15.1,86.9c7.8,47.3,28.4,174.4,28.4,174.4s2.5,5.3,8,4.4
						c7.4-1.2,6.5-6.6,6.5-6.6s-1.7-24.8,2.8-47.7c4.5-22.9,14.5-128.3,16.8-156.7c2.2-28.4,12.4-75.3-19.4-87.8
						C2902.7,1613.5,2870.1,1632.1,2874.7,1658.4z"/>
				</g>
				<linearGradient id="SVGID_23_" gradientUnits="userSpaceOnUse" x1="2903.1694" y1="2154.0093" x2="2903.1694" y2="138.1498">
					<stop  offset="0" style="stop-color:#FFFFFF"/>
					<stop  offset="1" style="stop-color:#B7B7B7"/>
				</linearGradient>
				<path class="st39" d="M2848.4,1535.2c8.7,45.5,18.1,91.1,24,118.3c10.1-23.2,32.5-77.2,39.9-113.4
					C2919.9,1502.8,2869.8,1524.5,2848.4,1535.2z M2972.3,1512c-2-51.6-8.7-75-39-94.2c-20.6-13-38.4-18.7-54.9-20.6
					c-11.6,7.6-27.7,18.3-43.9,29.4c-0.9,10.9-0.9,24.5,1.6,40.1c3.3,20.4,7.5,43.2,11.8,66.1l28.2-23.3c0,0,35.3,0.9,56.9,0
					c21.5-0.9-10.1,85.7-12.8,155.3c-2.7,69.6,6.3,243.7,6,259.5c-0.2,15.8-1.3,11.1-16.5,11.1c-0.3,3.2-0.4,4.5-0.4,4.5
					s7.2,0.1,16.7,0.2c9.5-0.1,16.7-0.2,16.7-0.2s-0.5-4-1.4-16.6c-0.1-1.5-0.3-2.7-0.5-3.8c-1.4-6.8-5.1-6.8-8.3-6
					c-0.3-8-0.3-26.3,3-43.5c4.5-22.9,14.5-128.3,16.8-156.7c0.9-11,2.9-24.9,3.3-38.4c0-0.2,0-0.3,0.1-0.5
					C2959.4,1615.6,2974,1556.8,2972.3,1512z"/>
				<g>
					<path class="st25" d="M2826.7,1372.6c0,0-18.3,23-24.1,63.7c-11,77.1-21.7,190.8-23.1,211.7c-2.2,32.2,58.8,64.3,75.1,22.2
						c21.2-54.8,52.7-106.5,64.5-149.9c13.6-49.8,14.2-74.1-9-101.6C2881.4,1384.9,2854,1376.8,2826.7,1372.6z"/>
					
						<linearGradient id="SVGID_24_" gradientUnits="userSpaceOnUse" x1="8469.0996" y1="1755.5042" x2="8479.7148" y2="2174.8198" gradientTransform="matrix(-1 0 0 1 11265.3613 0)">
						<stop  offset="0" style="stop-color:#FF3B73"/>
						<stop  offset="1" style="stop-color:#2E1158"/>
					</linearGradient>
					<path class="st40" d="M2798.7,1914c0.6,0,2.2,0.6,4.5,1.3c2.4-0.7,4-1.1,4.5-1.3c3.4-1.1,8.5-3,10.3,5.3
						c0.2,1.1,0.4,2.4,0.5,3.8c0.9,12.7,1.4,16.6,1.4,16.6s-7.2,0.1-16.7,0.2c-9.5-0.1-39.9-0.2-39.9-0.2S2762,1913,2798.7,1914z"/>
					<path class="st25" d="M2779.5,1647.4c3.2,37.3,3.7,40.1,7.3,87.9c3.6,47.8,12.9,182.3,12.9,182.3s2,5.5,7.6,5.1
						c7.5-0.5,7-6,7-6s0.5-30.9,7-53.3c6.5-22.4,25.8-126.6,30.5-154.6c9.6-56.7,17.1-74.9-11.5-89.2
						C2811.4,1605.2,2777.2,1620.7,2779.5,1647.4z"/>
				</g>
				<linearGradient id="SVGID_25_" gradientUnits="userSpaceOnUse" x1="2845.8726" y1="2154.0098" x2="2845.8726" y2="138.1429">
					<stop  offset="0" style="stop-color:#FFFFFF"/>
					<stop  offset="1" style="stop-color:#B7B7B7"/>
				</linearGradient>
				<path class="st41" d="M2807.9,1899.7c-1.4,33,0.7,34.4-16.3,34.4H2764c-0.8,3.3-0.7,5.7-0.7,5.7s30.4,0.1,39.9,0.2
					c9.5-0.1,16.7-0.2,16.7-0.2s-0.5-4-1.4-16.6c-0.1-1.5-0.3-2.7-0.5-3.8c-0.7-3.4-2-5.1-3.6-5.9c0.3-8.5,1.7-32,6.9-50.1
					c6.5-22.4,25.8-126.6,30.5-154.6c3.9-23.4,7.5-40.2,8.4-52.9c17.1-40.7,38.4-79.3,51.5-113.8c-11.1,18-62.7,76.9-72.7,134.5
					C2829,1734.4,2809.3,1866.8,2807.9,1899.7z M2924.7,1443.5l-54.3,2.6c0,0-43.8-3.4-68.4-4.9c-2.6,18.3-5.1,38.4-7.5,58.7
					c11.2,2.8,36.7,8.6,60.3,9.1c24.6,0.5,55,0.6,67.1,0.6C2929,1480.8,2930.8,1461,2924.7,1443.5z"/>
				<path class="st20" d="M2869.4,1181.7c7.6,10.8,3.6,24.1,7.4,43.8c2,10.1-11.6,33-41.5,29.3c-19.5-2.4,1.1-20.9,1-31.2
					c-0.1-10.3-4.3-42.8-4.3-42.8S2863.5,1173.3,2869.4,1181.7z"/>
				<path class="st20" d="M2870.3,1152.3c3.9,3.6,2.6,11.2-2.7,16.9c-5.4,5.7-12.8,7.4-16.7,3.7c-3.9-3.6-2.6-11.2,2.7-16.9
					C2859,1150.4,2866.4,1148.7,2870.3,1152.3z"/>
				<path class="st20" d="M2854.7,1153.8c-0.1-0.8-38-4.5-55.4-27.9c-6.8,0.4-8.7,8.6-8.2,19.1c0.7,13.9-0.4,24.6,7.6,49.4
					c7.5,23.4,16.5,35.4,38.4,20.5c13.7-13.6,23.5-19.7,30.8-33.3C2858.1,1170,2859.7,1162.5,2854.7,1153.8z"/>
				<path class="st12" d="M2792.4,1490.3c0,0,22.8-117.7,0-213c-8.9-37.4,28.4-52.8,82.9-54.9c43.8-1.7,59.7,15.1,74.3,58.1
					c26.4,77.6,27.7,203,27.7,203s-44.1,23.2-114.2,18.3C2796.9,1497.2,2792.4,1490.3,2792.4,1490.3z"/>
				<linearGradient id="SVGID_26_" gradientUnits="userSpaceOnUse" x1="2822.9087" y1="1445.4387" x2="2822.9087" y2="1181.1483">
					<stop  offset="0" style="stop-color:#FFFFFF"/>
					<stop  offset="1" style="stop-color:#B7B7B7"/>
				</linearGradient>
				<path class="st42" d="M2851.4,1492.5c-16-0.7-15.3-25.8-13.3-66c2-40.2,6.7-123.5,6.7-123.5c1.9-33.2-6.1-40.8-40.9-40.8
					c-3.9,0-8.2,0.7-12.7,2c-0.3,4.1,0.1,8.4,1.2,13.2c22.8,95.3,0,213,0,213s4,6,58.6,10.6
					C2855.2,1496.2,2856.5,1492.7,2851.4,1492.5z"/>
				<linearGradient id="SVGID_27_" gradientUnits="userSpaceOnUse" x1="2815.9507" y1="1250.2499" x2="2989.4299" y2="1674.1779">
					<stop  offset="0" style="stop-color:#FFFFFF"/>
					<stop  offset="1" style="stop-color:#B7B7B7"/>
				</linearGradient>
				<path class="st43" d="M2949.6,1280.5c-13.3-39.2-27.8-56.5-63.4-58c8.9,1.1,45.6,9.9,53.7,80.5c9.2,80.5,25.3,154.4,14,168.7
					c-5.9,7.5-46.1,25.4-102.4,20.8c-35-2.8-50.9-6.2-57.9-8.4c-0.7,4-1.1,6.2-1.1,6.2s4.5,6.9,70.7,11.5
					c70.1,4.9,114.2-18.3,114.2-18.3S2976,1358.1,2949.6,1280.5z"/>
				<path class="st32" d="M2798.3,1173.7c-17.4-9.7-32.5-26.6-24.3-59.9c8.3-33.3,51.9-67.5,81.1-35.6
					c26.9,29.3,55.2,34.1,58.8,55.9c3.8,22.6-32.4,53.5-36.9,72.3c-5.7,23.8-36.4-3.4-36.4-3.4S2808.8,1179.6,2798.3,1173.7z"/>
				<path class="st20" d="M2836.3,1220.4c0,4.4-0.2,5.9-4.1,7.9c-2.9,1.4,14.2,10.7,37.3,5.2c17.3-4.1,12.4-11.1,10-11.1
					c-2.4,0-3.6-3-3.9-6.2c-0.3-3.2-3.7,5.9-14.7,3.6C2849.9,1217.5,2836.3,1216.5,2836.3,1220.4z"/>
				<path class="st20" d="M2968.8,1197.9c-1.2-6.6-5.2-13.1-7.7-24c-2.7-11.9-0.1-14.3,4.8-16.2c3.2-1.3,4,9.9,8.6,16.9
					C2979,1181.3,2968.8,1197.9,2968.8,1197.9z"/>
				<g>
					<g>
						<path class="st20" d="M2699.2,1426.6c-16.3-14.7-79-80.8-93.4-93.9c-14.4-13.2-7.4-10.9-26.8-10c-14.4,0.7-14-9.1-15.3-14.4
							c-2.1-8.8,5.8-38.2,18.5-33.4c6.1,2.3-3.4,16.1,16.4,26.3c1.5,0.8,13.4,15.6,15.1,17.2c13.5,12.6,38,30.4,62.4,45.8
							c24.4,15.4,41.5,27.5,53.2,40c9.4,10,13.9,25.6,3.9,32.1C2716.1,1447.5,2706.5,1433.2,2699.2,1426.6z"/>
					</g>
					<g>
						<path class="st20" d="M2756.7,1405.7c0,0-14.6,20.3-20.7,27.7c-6.1,7.4-16.7-0.2-21.4-6.9c-4.7-6.7,2-24.4,13.2-40.6
							C2739,1369.7,2757.3,1401.9,2756.7,1405.7z"/>
						<path class="st12" d="M2844.9,1303c-24.6,41.8-92.3,117.4-92.3,117.4s-11-3.8-21.6-12.1c-12.2-9.7-13.2-18.3-13.2-18.3
							s37.5-83.6,51.9-107.7c19.7-33,35.8-44.4,61.2-46.1C2861.2,1234.1,2855.4,1285,2844.9,1303z"/>
					</g>
					<path class="st20" d="M2606.8,1310.3c-2.5-6.2-2.5-13.8-6.2-24.4c-4-11.5-7.5-12.1-12.7-11.2c-3.4,0.6,1.9,10.5,1.7,18.8
						C2589.4,1301.6,2606.8,1310.3,2606.8,1310.3z"/>
				</g>
				<linearGradient id="SVGID_28_" gradientUnits="userSpaceOnUse" x1="2750.0027" y1="1216.4359" x2="2638.2185" y2="1415.2654">
					<stop  offset="0" style="stop-color:#FFFFFF"/>
					<stop  offset="1" style="stop-color:#B7B7B7"/>
				</linearGradient>
				<path class="st44" d="M2840.5,1237.7c-15.7,23.8-102.1,155.2-109.9,165.1c-8.6,10.9-15.7,14.1-41.8-8.4
					c-26.1-22.4-82-72.8-92-79.3c-9.9-6.4-16.3-13.5-18.1-22.9c-1.8-9.4-0.5-15.1,2.6-14.9c3.1,0.2,3.8,5.7,3.8,5.7s0,0,0,0
					c-0.5-4.1-0.2-7.2-2.8-8.2c-12.7-4.7-20.6,24.6-18.5,33.4c1.3,5.3,0.9,15.1,15.3,14.4c19.4-0.9,12.4-3.2,26.8,10
					c14.4,13.2,77.1,79.2,93.4,93.9c7.2,6.6,16.9,20.9,34.1,9.6c1.9-1.3,3.3-2.9,4.2-4.7c2.8-3.5,6.5-8.5,10-13.2c3,1.4,5,2.1,5,2.1
					s67.7-75.6,92.3-117.4C2854.1,1287.2,2859.7,1246.2,2840.5,1237.7z"/>
				<g>
					<path class="st32" d="M2909.9,1149.7l-2.5-1.1c11.1-25.3,6.2-42.1-14.9-51.6c-24.7-11-34.6-15.8-56-26.7l1.2-2.5
						c21.3,10.8,31.2,15.6,55.8,26.6C2916.1,1104.6,2921.6,1123.1,2909.9,1149.7z"/>
				</g>
				<g>
					<path class="st32" d="M2851.3,1193.1c-11.3-7.2-25-8.4-38.3-9.5c-15.2-1.3-29.6-2.5-37.6-13.1c-14-18.5-11.4-40.3,9-75.3
						l2.4,1.4c-19.8,33.9-22.4,54.9-9.2,72.3c7.3,9.6,21.1,10.8,35.7,12c13.6,1.2,27.7,2.4,39.5,9.9L2851.3,1193.1z"/>
				</g>
				<path class="st20" d="M2840.8,1178.9c4.1,3.4,3.4,11-1.5,17c-5,6.1-12.3,8.3-16.4,4.9c-4.1-3.3-3.4-11,1.6-17
					C2829.3,1177.7,2836.7,1175.6,2840.8,1178.9z"/>
				<g>
					<linearGradient id="SVGID_29_" gradientUnits="userSpaceOnUse" x1="2872.4219" y1="1184.0986" x2="2812.8667" y2="1088.8102">
						<stop  offset="0" style="stop-color:#1F163C"/>
						<stop  offset="1" style="stop-color:#2B1963"/>
					</linearGradient>
					<path class="st45" d="M2868,1210.7c-2,0-3.6-0.7-4.8-2c-3.5-3.7-2.8-12.2-2-23c0.6-8.4,1.4-17.9,0.3-27.1
						c-1.1-10-12.7-11.8-26.1-13.9c-16.2-2.5-34.5-5.3-35.3-25.2c-1.4-35.3,42.8-38.1,43.3-38.1c0.9,0,1.4,0.5,1.4,1.3
						c0,0.8-0.5,1.4-1.3,1.4c-1.7,0.1-42,2.6-40.7,35.2c0.7,17.6,17.1,20.1,33,22.6c13.9,2.2,27,4.2,28.4,16.3
						c1.1,9.5,0.3,19.1-0.3,27.6c-0.7,9.7-1.4,18,1.3,20.9c0.7,0.7,1.6,1.1,2.8,1.1c0.8,0,1.4,0.6,1.4,1.4
						C2869.4,1210.1,2868.8,1210.7,2868,1210.7z"/>
				</g>
			</g>
			<g>
				<path class="st32" d="M1259.3,1138.1c0,0,20.1-64.5,63.8-33.8c47.9,33.7,31.2,94.5,70.4,119.1c56.5,35.5,110.1,151.2,1.1,201.2
					c-82.5,37.9-48.4,31.2-103.4-54.3C1236.3,1285,1242,1172.2,1259.3,1138.1z"/>
				<g>
					<path class="st20" d="M1447.9,1399.1c-9.9-8.4-33.6,9.3-25.9,20.7c32.1,47.6,119.3,131.3,119.4,130.5
						c1.5-8.3,8.2-18.6,0.4-27.4C1505.6,1482.1,1464.2,1412.9,1447.9,1399.1z"/>
					<path class="st20" d="M1440.3,1384.7c0,0,11.9,22,15.8,30.7c3.9,8.7-7.5,15-15.6,16.2c-8.1,1.3-21.1-12.5-30.7-29.7
						C1400.1,1384.8,1437.1,1382.5,1440.3,1384.7z"/>
					<path class="st12" d="M1382.7,1265.1c22.8,31.5,68.9,129.7,68.9,129.7s-7.6,11.1-20.3,14.1c-15.1,3.5-24-1.6-24-1.6
						l-80.2-116.8c0,0-9.1-16.7-1-25.2C1347.8,1242.7,1365.3,1241,1382.7,1265.1z"/>
				</g>
				<linearGradient id="SVGID_30_" gradientUnits="userSpaceOnUse" x1="1624.203" y1="1713.2338" x2="973.6607" y2="654.0408">
					<stop  offset="0" style="stop-color:#FFFFFF"/>
					<stop  offset="0.2189" style="stop-color:#F5F5F5"/>
					<stop  offset="0.5841" style="stop-color:#DCDCDC"/>
					<stop  offset="1" style="stop-color:#B7B7B7"/>
				</linearGradient>
				<path class="st46" d="M1520.9,1497.3c-13.3-7.5-26.2-9.4-27.4-12.6c-1.8-4.6-5-11.5-16.6-25.7c-11.5-14.2-9.6-12.4-5.9-27.3
					c0.2-1,0.5-2,0.8-2.9c-10-14.1-18.4-25-23.9-29.7c0,0,0,0,0,0c1.3-1.3,2.3-2.5,2.9-3.3c-12.4-2.5-23.4-5.1-26.9-8.5
					c-5-4.8-26.8-50.1-26.8-50.1c-7.5-15.2-23.3-22.1-44.8-10.2l55.1,80.2c0,0,2.5,1.4,7.1,2.2c2.5,3.8,5.1,7.2,7.7,10.3
					c0,0,0,0,0,0c32.1,47.6,119.3,131.3,119.4,130.5c1.5-8.3,8.2-18.6,0.4-27.4C1535,1515.2,1527.9,1506.5,1520.9,1497.3z"/>
				<g>
					<g>
						
							<linearGradient id="SVGID_31_" gradientUnits="userSpaceOnUse" x1="6802.2002" y1="1445.7408" x2="6811.6738" y2="1819.9432" gradientTransform="matrix(-0.9997 2.500000e-02 2.500000e-02 0.9997 8218.7275 159.4489)">
							<stop  offset="0" style="stop-color:#FF3B73"/>
							<stop  offset="1" style="stop-color:#2E1158"/>
						</linearGradient>
						<path class="st47" d="M1483.7,1926.1c0,0-48.2-11.3-51.7-12.3c-3.9-1.1-10-3.2-10.5,9.5c-0.5,12.7-0.8,16.7-0.8,16.7
							s55.5-1,61.5-1.9C1488.1,1937.3,1492.7,1932.7,1483.7,1926.1z"/>
						<path class="st48" d="M1412.7,1637.3c4.8,43.7,7,52.2,11.6,99.9c4.7,47.7,18.6,184.4,18.6,184.4s-3.6,2.2-7.4,1
							c-6.5-2.1-7.8-5.6-7.8-5.6s-5.1-26.7-15.3-47.7c-10.2-20.9-47.2-120.2-56.7-147.1c-9.5-26.8-27.4-75,4.1-89.6
							C1389.2,1619.1,1411.8,1629.1,1412.7,1637.3z"/>
					</g>
					<path class="st48" d="M1378,1387.3c0,0,17.3,23.8,21.5,64.7c7.8,77.5,13.9,191.5,14.4,212.4c0.9,32.3-60.4,44.4-81,4.2
						c-20.6-40.1-43.2-93.8-53.2-137.6c-11.5-50.4-5.3-65.8,19-92.3C1328.6,1406.2,1350.5,1390.4,1378,1387.3z"/>
				</g>
				<linearGradient id="SVGID_32_" gradientUnits="userSpaceOnUse" x1="1420.665" y1="1993.9031" x2="1351.0294" y2="1500.9547">
					<stop  offset="0" style="stop-color:#FFFFFF"/>
					<stop  offset="0.2189" style="stop-color:#F5F5F5"/>
					<stop  offset="0.5841" style="stop-color:#DCDCDC"/>
					<stop  offset="1" style="stop-color:#B7B7B7"/>
				</linearGradient>
				<path class="st49" d="M1421.4,1923.3c-0.5,12.7-0.8,16.7-0.8,16.7s55.5-1,61.5-1.9c6-0.8,10.6-5.4,1.6-12
					c7.6,11.6-21.4,8.4-39.4,8.4c-18.1,0-6.6-13.3-13.1-45.4c-6.4-32.1-35.7-137.7-44.9-180.8c-9.2-43.1-15.6-54.7,10.7-59.6
					c6.9-1.3,12.2-2.9,16.5-4.7c-0.2-2.2-0.5-4.4-0.8-6.8c-2.2-43.7-7.2-125.4-13.2-185.4c-4.1-40.9-21.5-64.7-21.5-64.7
					c-27.5,3.1-49.3,18.9-79.3,51.5c-24.3,26.5-30.5,41.9-19,92.3c10,43.8,32.5,97.4,53.2,137.6c2.9,5.7,6.7,10.3,10.9,13.9
					c2.8,14.3,8,28.7,11.9,39.7c9.5,26.8,46.5,126.1,56.7,147.1c7.8,16,12.6,35.4,14.5,43.7
					C1424.1,1913.3,1421.7,1915.6,1421.4,1923.3z"/>
				<g>
					<g>
						
							<linearGradient id="SVGID_33_" gradientUnits="userSpaceOnUse" x1="1155.9913" y1="3100.6465" x2="1165.4642" y2="3474.8306" gradientTransform="matrix(-0.2548 -0.967 -0.967 0.2548 4504.354 2088.5947)">
							<stop  offset="0" style="stop-color:#FF3B73"/>
							<stop  offset="1" style="stop-color:#2E1158"/>
						</linearGradient>
						<path class="st50" d="M1070.9,1823.9c0,0-0.1-49.5,0.1-53.2c0.2-4,0.8-10.5-11.7-8c-12.5,2.5-16.4,3-16.4,3s13.8,53.8,16,59.4
							C1061.1,1830.7,1066.6,1834.1,1070.9,1823.9z"/>
						<path class="st20" d="M1334.6,1688c-41.4,14.7-49.2,18.8-94.5,34.4c-45.3,15.5-175.2,60.6-175.2,60.6s-3-3-2.7-6.9
							c0.5-6.8,3.7-8.9,3.7-8.9s24.9-11.1,42.9-25.9c18-14.8,106.1-73.7,130-89.1c23.9-15.4,66.7-44,88.1-16.7
							C1346.9,1660.9,1342.4,1685.2,1334.6,1688z"/>
					</g>
					<path class="st20" d="M1360,1389.4c0,0,13.2,26.3,10.4,67.3c-5.2,77.7-18.1,191.1-21.1,211.9c-4.5,32-66.9,33.7-80.6-9.3
						c-13.7-43-27-99.7-29.6-144.5c-3-51.6,5.7-65.8,34.1-87.9C1308.3,1399.8,1332.4,1387.8,1360,1389.4z"/>
				</g>
				<linearGradient id="SVGID_34_" gradientUnits="userSpaceOnUse" x1="1008.3826" y1="1750.7516" x2="1506.8295" y2="1409.9023">
					<stop  offset="0" style="stop-color:#FFFFFF"/>
					<stop  offset="0.2189" style="stop-color:#F5F5F5"/>
					<stop  offset="0.5841" style="stop-color:#DCDCDC"/>
					<stop  offset="1" style="stop-color:#B7B7B7"/>
				</linearGradient>
				<path class="st51" d="M1360,1389.4c-27.6-1.5-51.8,10.4-86.7,37.6c-28.4,22.1-37.1,36.3-34.1,87.9
					c2.2,37.6,11.9,83.6,23.1,122.8c-8.7,4.8-16.8,10.2-23.5,14.4c-23.9,15.4-112,74.3-130,89.1c-13.3,11-30.4,19.9-38.4,23.8
					c-1.1-2.3-4-3.7-11-2.3c-12.5,2.5-16.4,3-16.4,3s13.8,53.8,16,59.4c2.2,5.6,7.7,9,12-1.2c-10,7.9-10.8-19.4-12.9-36.3
					c-2.1-17-1.1-11.5,21.8-19.2c22.9-7.8,165.4-78.3,186-93c20.6-14.7,44.4-8.7,84.7-14.9h0c4.2-33.5,15.3-133.3,20-203.7
					C1373.2,1415.7,1360,1389.4,1360,1389.4z"/>
				<path class="st32" d="M1238,1482.6c-1.9,9-2.4,35.3,0.7,62.3c3.1,27,18.4,91.1,18.4,91.1s6.9,23,75.6,15.7
					c68.7-7.3,91.2-31.2,91.2-31.2s-17.5-114.1-20-132.4c-2.5-18.3-28.6-44.1-81.1-48.4C1270.2,1435.4,1242.4,1461.4,1238,1482.6z"
					/>
				<linearGradient id="SVGID_35_" gradientUnits="userSpaceOnUse" x1="1375.1575" y1="1705.0619" x2="1284.5125" y2="1414.043">
					<stop  offset="0" style="stop-color:#FFFFFF"/>
					<stop  offset="0.2098" style="stop-color:#F7F7F7"/>
					<stop  offset="0.535" style="stop-color:#E1E1E1"/>
					<stop  offset="0.9331" style="stop-color:#BEBEBE"/>
					<stop  offset="1" style="stop-color:#B7B7B7"/>
				</linearGradient>
				<path class="st52" d="M1423.8,1620.5c0,0-17.5-114.1-20-132.4c-2.5-18.3-28.6-44.1-81.1-48.4c-52.5-4.3-80.3,21.7-84.7,42.9
					c-0.8,4-1.4,11.4-1.5,20.8l0,0c0,0.5,0,1.1,0,1.7c0,0.6,0,1.1,0,1.7c0,0.9,0,1.8,0,2.6c0,0.6,0,1.1,0,1.7c0,1,0,1.9,0.1,2.9
					c0,0.5,0,1,0,1.4c0,1.1,0.1,2.2,0.1,3.4c0,0.3,0,0.6,0,0.9c0.3,7.2,0.8,15,1.7,22.8c0,0.2,0,0.3,0.1,0.5l0,0
					c0.1,0.6,0.1,1.2,0.2,1.9c3.1,27,18.4,91.1,18.4,91.1s6.9,23,75.6,15.7c24.2-2.6,42.6-7.2,56.4-12.1c0.4-0.1,0.7-0.3,1.1-0.4
					c1.2-0.5,2.4-0.9,3.6-1.4c0.3-0.1,0.6-0.2,0.8-0.3c1.4-0.6,2.8-1.1,4-1.7c0.1-0.1,0.3-0.1,0.4-0.2c1.1-0.5,2.2-1,3.3-1.5
					c0.3-0.1,0.6-0.3,0.8-0.4c1-0.5,2-0.9,2.9-1.4c0.1-0.1,0.3-0.1,0.4-0.2c1-0.5,2-1.1,3-1.6c0.2-0.1,0.4-0.2,0.5-0.3
					c0.8-0.4,1.5-0.8,2.1-1.2c0.2-0.1,0.4-0.2,0.6-0.3c1.6-1,3-1.9,4.3-2.7c0.2-0.1,0.3-0.2,0.5-0.3c0.5-0.3,0.9-0.7,1.4-1
					c0.1-0.1,0.2-0.2,0.3-0.2c0.5-0.4,1-0.7,1.4-1.1c0.1,0,0.1-0.1,0.2-0.1c0.4-0.3,0.7-0.5,1-0.8c0.1-0.1,0.2-0.1,0.3-0.2
					c0.3-0.2,0.5-0.4,0.7-0.6c0,0,0.1-0.1,0.1-0.1c0.2-0.2,0.4-0.4,0.6-0.5c0,0,0.1-0.1,0.1-0.1c0.1-0.1,0.2-0.2,0.3-0.3
					C1423.7,1620.7,1423.7,1620.6,1423.8,1620.5C1423.8,1620.6,1423.8,1620.5,1423.8,1620.5z M1292.6,1522.9
					c25.7,15.6,13.1,51.3-9.6,60c-2,0.8-4,1.7-5.8,2.7c-11.2-46.3-13.9-61.5-14-61.7C1272.6,1519.1,1283.1,1517.2,1292.6,1522.9z
					 M1289.2,1621.4c0.4,0.1,0.7,0.2,1.1,0.3c16.8,3.7,45.5,9.6,73.6,15.4C1319.2,1642.2,1300.6,1641.4,1289.2,1621.4z"/>
				<path class="st32" d="M1305.5,1130.3c40.3,32.3,1.5,84.4-31.5,133.3c-23.9,35.3-27.4,97.7-2.1,133.4
					c25.3,35.7,75.2,45.6,10.2,64.8c-94,27.8-166.6-61.7-133.7-138c34.9-80.9,66.7-62.4,59.5-138.9
					C1201.5,1117,1260.3,1094.1,1305.5,1130.3z"/>
				<path class="st12" d="M1405.1,1489.5c0,0-1.4-142.4-16.4-204.6c-7.9-32.5-21.1-42.2-74.9-42c-43.8,0.2-67.7,29.9-63.4,70
					c7.6,70.8-13.5,170.2-13.5,170.2s10.3,28.7,86.1,27.8C1389.3,1510.1,1405.1,1489.5,1405.1,1489.5z"/>
				<path class="st12" d="M1405.1,1489.5c0,0-1.4-142.4-16.4-204.6c-7.9-32.5-21.1-42.2-74.9-42c-43.8,0.2-67.7,29.9-63.4,70
					c7.6,70.8-13.5,170.2-13.5,170.2s10.3,28.7,86.1,27.8C1389.3,1510.1,1405.1,1489.5,1405.1,1489.5z"/>
				<linearGradient id="SVGID_36_" gradientUnits="userSpaceOnUse" x1="1321.0381" y1="1699.5459" x2="1321.0381" y2="172.3909">
					<stop  offset="0" style="stop-color:#FFFFFF"/>
					<stop  offset="0.2189" style="stop-color:#F5F5F5"/>
					<stop  offset="0.5841" style="stop-color:#DCDCDC"/>
					<stop  offset="1" style="stop-color:#B7B7B7"/>
				</linearGradient>
				<path class="st53" d="M1405.1,1489.5c0,0-0.5-52.4-4.3-107.6c-10.4-2.9-30.5-8.5-50.6-13.8c-29-7.6-17.5,24.3-11.3,47
					c6.2,22.7-14.4,50.1-38.7,45.5c-24.3-4.6-34-28-28.5-50.6c5.5-22.6,33.9-30.9,33-44c-0.9-13.1-11.5-12.6-11.9-20.5
					c-0.6-10.4,0.2-27.8,0.2-27.8s10.5-44.3-15.5-46.5c-12-1-19.4,4.1-23.9,9.9c-3.3,9.4-4.4,20.1-3.2,31.7
					c7.6,70.8-13.5,170.2-13.5,170.2s10.3,28.7,86.1,27.8C1389.3,1510.1,1405.1,1489.5,1405.1,1489.5z"/>
				<path class="st20" d="M1301.5,1196.6c-7.4,7.7-3.4,28.8-8.2,48.3c-2.5,10,13.4,38.4,41.3,24.8c17.6-8.6,5.6-22.7,6.2-33
					c0.6-10.3,0.7-40.8,0.7-40.8S1308.6,1189.2,1301.5,1196.6z"/>
				<path class="st20" d="M1278.2,1204c0,5.3,6.3,9.6,14.2,9.6c7.8,0,14.2-4.3,14.2-9.6c0-5.3-6.3-9.6-14.1-9.6
					C1284.6,1194.4,1278.2,1198.7,1278.2,1204z"/>
				<path class="st20" d="M1289,1194.7c-0.5-0.7,19.9-29.7,14.9-58.4c5-4.7,15.1-1.5,22.4,6.2c9.6,10.1,18.1,16.7,30.7,39.5
					c11.9,21.5,14.4,36.3-11.4,42c-19.2,0.6-32.5,2.5-47.4-1.5C1298.7,1205.3,1291.9,1204.3,1289,1194.7z"/>
				<g>
					<path class="st20" d="M1190.1,1389.2c0,0-19.8,15.4-27.7,20.7c-8,5.3-16-5-18.6-12.7c-2.6-7.7,8.8-22.8,24.2-35.2
						C1183.4,1349.6,1191.7,1385.7,1190.1,1389.2z"/>
					<path class="st12" d="M1298.5,1312.6c-27.3,27.8-116.5,89.4-116.5,89.4s-12.2-5.6-17.2-17.7c-6-14.4-2.4-23.9-2.4-23.9
						l105.2-101c0,0,11.7-9.2,21.4-2.6C1314.8,1274.4,1319.3,1291.4,1298.5,1312.6z"/>
					<path class="st20" d="M1162.4,1409.8c11.6-5.8-1.8-28.1-15.3-25.5c-56.3,11-113.7,43.4-114.1,44.1c-2.5,4,2.3,21.3,10.3,16.6
						C1057.8,1436.6,1143.4,1419.5,1162.4,1409.8z"/>
				</g>
				<linearGradient id="SVGID_37_" gradientUnits="userSpaceOnUse" x1="1299.9825" y1="1270.04" x2="970.1236" y2="1521.0996">
					<stop  offset="0" style="stop-color:#FFFFFF"/>
					<stop  offset="0.2189" style="stop-color:#F5F5F5"/>
					<stop  offset="0.5841" style="stop-color:#DCDCDC"/>
					<stop  offset="1" style="stop-color:#B7B7B7"/>
				</linearGradient>
				<path class="st54" d="M1222.3,1335.2c5.9-3.3,61.6-54.4,78-69.4c-3.1-3-6.9-6-11.3-9c-9.7-6.6-21.4,2.6-21.4,2.6l-105.2,101
					c0,0-1,2.7-1.1,7.4c-6,5.6-11,11.4-14.2,16.6c0,0,0,0,0,0c-56.3,11-113.7,43.4-114.1,44.1c-2.5,4,2.3,21.3,10.3,16.6
					c10.6-6.2,59.7-17.1,92.5-26.3c-0.9-0.8-2.4-2-4.7-3.7c-6.5-4.8-2.6-10.6,3.2-12.5c5.8-1.9,10.8-4.1,10.8-0.5
					c0,3.2-0.6,9.8-1.4,14.5c6.6-2,12.2-3.8,16.1-5.5c0.8-0.2,1.7-0.6,2.5-1.1c0.7-0.4,1.4-0.8,1.9-1.3c3.5-2.5,8.3-6,12.8-9.4
					c2.8,2,4.9,2.9,4.9,2.9s41-28.4,76-55.3C1241.9,1341.6,1222.3,1335.2,1222.3,1335.2z"/>
				<path class="st55" d="M1502.4,1494.3c-11.5-2.8-23.1-0.9-32.7,4.6c-12.2,4.9-21.8,3.6-20.4-7l20.8-84.5l-119-29.4
					c-10.6-1.4-11.9,8.1-7,20.4c5.4,9.6,7.4,21.1,4.6,32.7c-5.9,23.9-30,38.4-53.9,32.5c-23.9-5.9-38.4-30-32.5-53.9
					c2.8-11.5,10-20.9,19.2-26.8c10-8.5,13.3-17.6,3.3-21.3l-119-29.4l-20.9,84.5c-3.7,10.1-12.8,6.8-21.3-3.3
					c-5.9-9.3-15.3-16.4-26.8-19.2c-23.9-5.9-48,8.7-53.9,32.5c-5.9,23.9,8.7,48,32.6,53.9c11.5,2.8,23.1,0.9,32.7-4.6
					c12.2-4.9,21.8-3.6,20.4,7l-20.9,84.5l119,29.4c10.6,1.4,11.9-8.2,7-20.4c-5.4-9.6-7.4-21.1-4.6-32.7
					c5.9-23.9,30-38.4,53.9-32.5c23.9,5.9,38.4,30,32.5,53.9c-2.8,11.5-10,20.9-19.2,26.8c-10,8.5-13.3,17.6-3.3,21.3l119,29.4
					l20.9-84.5c3.7-10.1,12.8-6.8,21.3,3.3c5.9,9.3,15.3,16.4,26.8,19.2c23.9,5.9,48-8.7,53.9-32.5
					C1540.8,1524.3,1526.2,1500.2,1502.4,1494.3z"/>
				<linearGradient id="SVGID_38_" gradientUnits="userSpaceOnUse" x1="1316.6484" y1="1393.443" x2="1157.8285" y2="1933.4358">
					<stop  offset="0" style="stop-color:#FFFFFF"/>
					<stop  offset="1" style="stop-color:#B7B7B7"/>
				</linearGradient>
				<path class="st56" d="M1526.6,1510c-4.3,1.3-10,3.1-16.7,5.4c-14.2,4.9-24.1,52.2,10.2,56.3c7-5.9,12.4-13.9,14.7-23.5
					C1538.3,1534.3,1534.8,1520.4,1526.6,1510z M1058.4,1402.8c-7.4,5.9-12.9,14.1-15.4,24c-3,12.3-0.6,24.6,5.6,34.5
					c36.3,13.5,46.1-17.3,38.6-41.2C1082.1,1403.5,1068.4,1401.7,1058.4,1402.8z"/>
				<g>
					<path class="st20" d="M1051.2,1427.2c4.7-7.6,15.8-8.9,16.2-12.7c0.3-4-10.3-3.4-16-2.4c-8.1,1.4-10.5,9.5-15.6,14
						C1027.5,1431.4,1051.2,1427.2,1051.2,1427.2z"/>
					<path class="st20" d="M1062,1420.3c10.5-0.3,8.4,29.9,2.1,34c-5.7,4.4-10.6,1.7-22.7-4.4c-4.6-2.3-1.8-1.9-6.3-4.8
						c-4-2.6-5.2-18.9,0.6-19C1051.3,1425.8,1045.1,1415.6,1062,1420.3z"/>
				</g>
				<g>
					<path class="st20" d="M1531.9,1533c-4.9-7.4-13-7.5-13.4-11.2c-0.5-4,7.4-3.7,12.8-1.6c8.4,3.3,11.3,5.1,13.2,11.7
						C1547.7,1543,1531.9,1533,1531.9,1533z"/>
					<path class="st20" d="M1521,1526.4c-10.6,0-7.5,30.1-1.1,34c5.8,4.3,16.4-4.2,20.9-7.2c3.9-2.7,10.4-19,2.6-28.3
						C1533.3,1512.9,1537.7,1521.2,1521,1526.4z"/>
				</g>
				<linearGradient id="SVGID_39_" gradientUnits="userSpaceOnUse" x1="1541.8311" y1="1539.1715" x2="1510.6801" y2="1547.1113">
					<stop  offset="0" style="stop-color:#FFFFFF"/>
					<stop  offset="0.2189" style="stop-color:#F5F5F5"/>
					<stop  offset="0.5841" style="stop-color:#DCDCDC"/>
					<stop  offset="1" style="stop-color:#B7B7B7"/>
				</linearGradient>
				<path class="st57" d="M1546.9,1534.6c0.2,10.2-11.1,20-21.1,19.7c-10-0.3-9.4-24.6-5.8-27.7c-9.3,2-6.3,30.1-0.1,33.8
					c5.8,4.3,16.4-4.2,20.9-7.2C1543.5,1551.3,1547.4,1542.8,1546.9,1534.6z"/>
				<linearGradient id="SVGID_40_" gradientUnits="userSpaceOnUse" x1="1002.5817" y1="1437.2284" x2="1085.9594" y2="1438.6028">
					<stop  offset="0" style="stop-color:#FFFFFF"/>
					<stop  offset="0.2189" style="stop-color:#F5F5F5"/>
					<stop  offset="0.5841" style="stop-color:#DCDCDC"/>
					<stop  offset="1" style="stop-color:#B7B7B7"/>
				</linearGradient>
				<path class="st58" d="M1035.1,1445.1c4.5,2.9,1.7,2.5,6.3,4.8c12,6.2,17,8.9,22.7,4.4c6.3-4.1,8.5-34.2-2.1-34
					c-0.7-0.2-1.3-0.3-1.9-0.5c3.4,3.3,6.1,15.1,2.2,24.9c-3.9,9.7-25.7,1.1-26.8-6.9c-1.1-8.1,0.2-11.7,0.2-11.7
					C1030,1426.2,1031.1,1442.5,1035.1,1445.1z"/>
				<g>
					<path class="st32" d="M1147.1,1368.9c-6.1-21-17.4-72.9,7.7-102.8c20.2-24.1,20.2-36.2,20.1-65.5c0-3.9,0-8.1,0-12.6
						c0.3-38.6,36.5-66.1,69.9-69.6l0.3,2.7c-32.2,3.3-67.2,29.8-67.5,66.8c0,4.5,0,8.7,0,12.6c0.1,30,0.1,42.4-20.8,67.3
						c-24.3,28.9-13.1,79.7-7.1,100.3L1147.1,1368.9z"/>
				</g>
				<g>
					<path class="st32" d="M1441.7,1296.3c-4-10-7.6-20.3-11.5-31.3c-10.3-29.2-21.9-62.3-44.3-100.4
						c-30.2-51.5-78.4-66.2-78.9-66.3l0.8-2.6c0.5,0.1,49.8,15.2,80.5,67.6c22.5,38.4,34.2,71.6,44.5,100.9
						c3.9,10.9,7.5,21.3,11.4,31.2L1441.7,1296.3z"/>
				</g>
				<g>
					<linearGradient id="SVGID_41_" gradientUnits="userSpaceOnUse" x1="1250.9548" y1="1130.0588" x2="1231.7134" y2="1256.5035">
						<stop  offset="0" style="stop-color:#1F163C"/>
						<stop  offset="1" style="stop-color:#2B1963"/>
					</linearGradient>
					<path class="st59" d="M1182.5,1329.2l-1.9-2c0.1-0.1,15.1-13.9,50-48.9c19.3-19.3,22-36.8,24.4-52.2c1.9-12.4,3.8-24.1,14.2-34
						c21.8-20.7,14.3-60.7,14.2-61.1l2.7-0.5c0.3,1.7,7.9,41.9-15,63.6c-9.7,9.2-11.4,20-13.3,32.4c-2.5,15.8-5.3,33.8-25.2,53.8
						C1197.5,1315.3,1182.6,1329.1,1182.5,1329.2z"/>
				</g>
			</g>
		</g>
	</g>
</g>
</svg>
