<?xml version="1.0" encoding="UTF-8" standalone="no"?>
<!-- Generator: Adobe Illustrator 23.0.2, SVG Export Plug-In . SVG Version: 6.00 Build 0)  -->

<svg
   version="1.1"
   id="Layer_1"
   x="0px"
   y="0px"
   viewBox="0 0 2634.3 1620"
   style="enable-background:new 0 0 2634.3 1620;"
   xml:space="preserve"
   sodipodi:docname="meus_estimulos.svg"
   inkscape:version="1.2 (dc2aedaf03, 2022-05-15)"
   xmlns:inkscape="http://www.inkscape.org/namespaces/inkscape"
   xmlns:sodipodi="http://sodipodi.sourceforge.net/DTD/sodipodi-0.dtd"
   xmlns="http://www.w3.org/2000/svg"
   xmlns:svg="http://www.w3.org/2000/svg"><defs
   id="defs893">
	
	
	
	
	
	
	
</defs><sodipodi:namedview
   id="namedview891"
   pagecolor="#ffffff"
   bordercolor="#000000"
   borderopacity="0.25"
   inkscape:showpageshadow="2"
   inkscape:pageopacity="0.0"
   inkscape:pagecheckerboard="0"
   inkscape:deskcolor="#d1d1d1"
   showgrid="false"
   inkscape:zoom="0.46957445"
   inkscape:cx="485.54601"
   inkscape:cy="809.24335"
   inkscape:window-width="1920"
   inkscape:window-height="1017"
   inkscape:window-x="-8"
   inkscape:window-y="-8"
   inkscape:window-maximized="1"
   inkscape:current-layer="Layer_1" />
<style
   type="text/css"
   id="style173">
	.st0{fill:#E5E3DE;}
	.st1{fill:#FFF2D6;}
	.st2{fill:url(#SVGID_1_);}
	.st3{fill:#D5D2CA;}
	.st4{fill:#D7F0F6;}
	.st5{fill:url(#SVGID_2_);}
	.st6{fill:#E9F6C3;}
	.st7{fill:#FDA01B;}
	.st8{fill:#C0BBB2;}
	.st9{fill:url(#SVGID_3_);}
	.st10{fill:url(#SVGID_4_);}
	.st11{fill:#0A0C17;}
	.st12{fill:#F76C1F;}
	.st13{fill:#FA8A3F;}
	.st14{fill:#040F2C;}
	.st15{fill:url(#SVGID_5_);}
	.st16{fill:#65BDD8;}
	.st17{fill:#D3D0C8;}
	.st18{fill:url(#SVGID_6_);}
	.st19{fill:url(#SVGID_7_);}
	.st20{fill:#FBA056;}
	.st21{fill:url(#SVGID_8_);}
	.st22{fill:url(#SVGID_9_);}
	.st23{fill:url(#SVGID_10_);}
	.st24{fill:url(#SVGID_11_);}
	.st25{fill:url(#SVGID_12_);}
	.st26{fill:url(#SVGID_13_);}
	.st27{fill:url(#SVGID_14_);}
	.st28{fill:url(#SVGID_15_);}
	.st29{fill:url(#SVGID_16_);}
	.st30{fill:url(#SVGID_17_);}
	.st31{fill:url(#SVGID_18_);}
	.st32{fill:url(#SVGID_19_);}
	.st33{filter:url(#Adobe_OpacityMaskFilter);}
	.st34{filter:url(#Adobe_OpacityMaskFilter_1_);}
	.st35{mask:url(#SVGID_20_);fill:url(#SVGID_21_);}
	.st36{fill:url(#SVGID_22_);}
	.st37{fill:#090F21;}
	.st38{fill:url(#SVGID_23_);}
	.st39{fill:url(#SVGID_24_);}
	.st40{fill:url(#SVGID_25_);}
	.st41{fill:url(#SVGID_26_);}
	.st42{fill:url(#SVGID_27_);}
	.st43{fill:url(#SVGID_28_);}
	.st44{fill:url(#SVGID_29_);}
	.st45{fill:url(#SVGID_30_);}
	.st46{fill:#8A827B;}
	.st47{opacity:0.5;}
	.st48{fill:#72CAD4;}
	.st49{fill:#AEE0EB;}
	.st50{fill:#74459E;}
	.st51{fill:url(#SVGID_31_);}
	.st52{fill:url(#SVGID_32_);}
	.st53{filter:url(#Adobe_OpacityMaskFilter_2_);}
	.st54{filter:url(#Adobe_OpacityMaskFilter_3_);}
	.st55{mask:url(#SVGID_33_);fill:url(#SVGID_34_);}
	.st56{fill:url(#SVGID_35_);}
	.st57{fill:url(#SVGID_36_);}
	.st58{fill:url(#SVGID_37_);}
	.st59{fill:url(#SVGID_38_);}
	.st60{fill:url(#SVGID_39_);}
	.st61{fill:url(#SVGID_40_);}
	.st62{fill:url(#SVGID_41_);}
	.st63{fill:url(#SVGID_42_);}
	.st64{fill:url(#SVGID_43_);}
	.st65{fill:url(#SVGID_44_);}
	.st66{fill:url(#SVGID_45_);}
	.st67{fill:url(#SVGID_46_);}
	.st68{fill:url(#SVGID_47_);}
</style>
<g
   id="g1355"
   style="fill:#080f21;fill-opacity:0.46792454"><g
     id="g189"
     style="fill:#080f21;fill-opacity:0.46792454">
		<g
   id="g187"
   style="fill:#080f21;fill-opacity:0.46792454">
			<g
   id="g185"
   style="fill:#080f21;fill-opacity:0.46792454">
				<g
   id="g183"
   style="fill:#080f21;fill-opacity:0.46792454">
					<g
   id="g181"
   style="fill:#080f21;fill-opacity:0.46792454">
						<g
   id="g179"
   style="fill:#080f21;fill-opacity:0.46792454">
							<g
   id="g177"
   style="fill:#080f21;fill-opacity:0.46792454">
								<path
   class="st0"
   d="m 2318.8,1560.2 c 0,13.1 -10.7,23.9 -23.9,23.9 H 23.9 C 10.8,1584.1 0,1573.4 0,1560.2 v -11.1 c 0,-13.1 10.7,-23.9 23.9,-23.9 H 2295 c 13.1,0 23.9,10.7 23.9,23.9 v 11.1 z"
   id="path175"
   style="fill:#080f21;fill-opacity:0.46792454" />
							</g>
						</g>
					</g>
				</g>
			</g>
		</g>
	</g><g
     id="g205"
     style="fill:#080f21;fill-opacity:0.46792454">
		<g
   id="g203"
   style="fill:#080f21;fill-opacity:0.46792454">
			<g
   id="g201"
   style="fill:#080f21;fill-opacity:0.46792454">
				<g
   id="g199"
   style="fill:#080f21;fill-opacity:0.46792454">
					<g
   id="g197"
   style="fill:#080f21;fill-opacity:0.46792454">
						<g
   id="g195"
   style="fill:#080f21;fill-opacity:0.46792454">
							<g
   id="g193"
   style="fill:#080f21;fill-opacity:0.46792454">
								<path
   class="st0"
   d="m 2546.8,1560.2 c 0,13.1 -10.7,23.9 -23.9,23.9 h -144.2 c -13.1,0 -23.9,-10.7 -23.9,-23.9 v -11.1 c 0,-13.1 10.7,-23.9 23.9,-23.9 h 144.2 c 13.1,0 23.9,10.7 23.9,23.9 z"
   id="path191"
   style="fill:#080f21;fill-opacity:0.46792454" />
							</g>
						</g>
					</g>
				</g>
			</g>
		</g>
	</g><g
     id="g221"
     style="fill:#080f21;fill-opacity:0.46792454">
		<g
   id="g219"
   style="fill:#080f21;fill-opacity:0.46792454">
			<g
   id="g217"
   style="fill:#080f21;fill-opacity:0.46792454">
				<g
   id="g215"
   style="fill:#080f21;fill-opacity:0.46792454">
					<g
   id="g213"
   style="fill:#080f21;fill-opacity:0.46792454">
						<g
   id="g211"
   style="fill:#080f21;fill-opacity:0.46792454">
							<g
   id="g209"
   style="fill:#080f21;fill-opacity:0.46792454">
								<path
   class="st0"
   d="m 2645.2,1560.2 c 0,13.1 -10.7,23.9 -23.9,23.9 h -14.6 c -13.1,0 -23.9,-10.7 -23.9,-23.9 v -11.1 c 0,-13.1 10.7,-23.9 23.9,-23.9 h 14.6 c 13.1,0 23.9,10.7 23.9,23.9 z"
   id="path207"
   style="fill:#080f21;fill-opacity:0.46792454" />
							</g>
						</g>
					</g>
				</g>
			</g>
		</g>
	</g></g><g
   id="g315">
		<g
   id="g244">
			<g
   id="g242">
				<rect
   x="781.79999"
   y="1289.6"
   class="st1"
   width="405.79999"
   height="130.39999"
   id="rect223" />
				<g
   id="g240">
					<linearGradient
   id="SVGID_1_"
   gradientUnits="userSpaceOnUse"
   x1="1403.198"
   y1="1354.7861"
   x2="-192.77811"
   y2="1354.7861">
						<stop
   offset="0"
   style="stop-color:#42238C"
   id="stop225" />
						<stop
   offset="0.2522"
   style="stop-color:#46258E"
   id="stop227" />
						<stop
   offset="0.5332"
   style="stop-color:#522D92"
   id="stop229" />
						<stop
   offset="0.8269"
   style="stop-color:#653A98"
   id="stop231" />
						<stop
   offset="1"
   style="stop-color:#74459E"
   id="stop233" />
					</linearGradient>
					<path
   class="st2"
   d="m 845.2,1299.4 c 0.5,-0.1 0.9,-0.2 1.4,-0.2 h 346.8 c 3.8,0 6.9,-3.1 6.9,-6.9 v -2.7 c 0,-3.8 -3.1,-6.9 -61,-6.9 0,0 -924.8,0.1 -925.3,0.2 -1.7,-0.1 -3.5,-0.2 -5.3,-0.2 -39.8,0 -72,32.2 -72,72 0,39.8 32.2,72 72,72 1.8,0 3.5,-0.1 5.3,-0.2 0.5,0.1 925.3,0.2 925.3,0.2 57.9,0 61,-3.1 61,-6.9 v -2.7 c 0,-3.8 -3.1,-6.9 -6.9,-6.9 H 846.6 c -0.5,0 -1,-0.1 -1.4,-0.2 -28.8,-2 -51.6,-26 -51.6,-55.4 0,-29.2 22.7,-53.2 51.6,-55.2 z"
   id="path236"
   style="fill:url(#SVGID_1_)" />
					<path
   class="st3"
   d="m 1200.2,1419.9 v -2.7 c 0,-3.8 -3.1,-6.9 -6.9,-6.9 H 846.6 c -0.5,0 -1,-0.1 -1.4,-0.2 -28.8,-2 -51.6,-26 -51.6,-55.4 0,-29.4 22.8,-53.4 51.6,-55.4 0.5,-0.1 0.9,-0.2 1.4,-0.2 h 346.8 c 3.8,0 6.9,-3.1 6.9,-6.9 v -2.7 c 0,-3.8 -3.1,-6.9 -6.9,-6.9 H 853.1 c -0.6,0 -1.1,0.1 -1.6,0.2 -1.7,-0.1 -3.5,-0.2 -5.3,-0.2 -39.8,0 -72,32.2 -72,72 0,39.8 32.2,72 72,72 1.8,0 3.5,-0.1 5.3,-0.2 0.5,0.1 1.1,0.2 1.6,0.2 h 340.3 c 3.8,0.2 6.8,-2.9 6.8,-6.7 z"
   id="path238" />
				</g>
			</g>
		</g>
		<g
   id="g265">
			<g
   id="g263">
				<rect
   x="127.3"
   y="1435.9"
   class="st4"
   width="636.20001"
   height="108.6"
   id="rect246" />
				<linearGradient
   id="SVGID_2_"
   gradientUnits="userSpaceOnUse"
   x1="-964.57562"
   y1="1490.7404"
   x2="2010.3064"
   y2="1490.7404">
					<stop
   offset="0"
   style="stop-color:#468EC0"
   id="stop248" />
					<stop
   offset="0.2749"
   style="stop-color:#4992C3"
   id="stop250" />
					<stop
   offset="0.5812"
   style="stop-color:#519FC9"
   id="stop252" />
					<stop
   offset="0.9013"
   style="stop-color:#60B4D4"
   id="stop254" />
					<stop
   offset="1"
   style="stop-color:#65BDD8"
   id="stop256" />
				</linearGradient>
				<path
   class="st5"
   d="m 116.1,1426.8 c -4.3,0 -7.8,3.5 -7.8,7.8 v 3.1 c 0,4.3 3.5,7.8 7.8,7.8 H 700 c 4.3,0 7.8,3.5 7.8,7.8 v 74.6 c 0,4.3 -3.5,7.8 -7.8,7.8 H 116.1 c -4.3,0 -7.8,3.5 -7.8,7.8 v 3.1 c 0,4.3 3.5,7.8 7.8,7.8 H 770.9 1181 c 4.3,0 7.8,-3.5 7.8,-7.8 v -112.2 c 0,-4.3 -3.5,-7.8 -7.8,-7.8 H 753.6 116.1 Z"
   id="path259"
   style="fill:url(#SVGID_2_)" />
				<path
   class="st3"
   d="m 729.3,1546.9 v -112.2 c 0,-4.3 -3.5,-7.8 -7.8,-7.8 H 116.1 c -4.3,0 -7.8,3.5 -7.8,7.8 v 3.1 c 0,4.3 3.5,7.8 7.8,7.8 H 700 c 4.3,0 7.8,3.5 7.8,7.8 v 74.6 c 0,4.3 -3.5,7.8 -7.8,7.8 H 116.1 c -4.3,0 -7.8,3.5 -7.8,7.8 v 3.1 c 0,4.3 3.5,7.8 7.8,7.8 h 605.4 c 4.3,0.2 7.8,-3.3 7.8,-7.6 z"
   id="path261" />
			</g>
		</g>
		<g
   id="g279">
			<g
   id="g277">
				<g
   id="g275">
					<g
   id="g271">
						<rect
   x="187.39999"
   y="1141.5"
   class="st6"
   width="944.29999"
   height="130.10001"
   id="rect267" />
						<path
   class="st7"
   d="m 202.5,1266 c -4.6,0 -8.4,-3.8 -8.4,-8.4 v -100.9 c 0,-4.6 3.8,-8.4 8.4,-8.4 H 1139 c 4.6,0 8.4,-3.8 8.4,-8.4 v 0 c 0,-4.6 -3.8,-8.4 -8.4,-8.4 H 185.7 c -4.6,0 -8.4,3.8 -8.4,8.4 v 134.6 c 0,4.6 3.8,8.4 8.4,8.4 H 1139 c 4.6,0 8.4,-3.8 8.4,-8.4 v 0 c 0,-4.6 -3.8,-8.4 -8.4,-8.4 H 202.5 Z"
   id="path269" />
					</g>
					<path
   class="st8"
   d="m 1139,1148.2 c 4.6,0 8.4,-3.8 8.4,-8.4 0,-4.6 -3.8,-8.4 -8.4,-8.4 H 704.9 v 151.4 H 1139 c 4.6,0 8.4,-3.8 8.4,-8.4 0,-4.6 -3.8,-8.4 -8.4,-8.4 h -7.3 v -117.8 z"
   id="path273" />
				</g>
			</g>
		</g>
		<g
   id="g313">
			<g
   id="g298">
				<rect
   x="123.4"
   y="1012.6"
   class="st4"
   width="446.10001"
   height="108.6"
   id="rect281" />
				
					<linearGradient
   id="SVGID_3_"
   gradientUnits="userSpaceOnUse"
   x1="-4034.1208"
   y1="1067.4385"
   x2="-4988.6372"
   y2="1067.4385"
   gradientTransform="matrix(-1,0,0,1,-3927.957,0)">
					<stop
   offset="0"
   style="stop-color:#42238C"
   id="stop283" />
					<stop
   offset="0.2522"
   style="stop-color:#46258E"
   id="stop285" />
					<stop
   offset="0.5332"
   style="stop-color:#522D92"
   id="stop287" />
					<stop
   offset="0.8269"
   style="stop-color:#653A98"
   id="stop289" />
					<stop
   offset="1"
   style="stop-color:#74459E"
   id="stop291" />
				</linearGradient>
				<path
   class="st9"
   d="m 112.2,1003.5 c -4.3,0 -7.8,3.5 -7.8,7.8 v 3.1 c 0,4.3 3.5,7.8 7.8,7.8 H 506 c 4.3,0 7.8,3.5 7.8,7.8 v 74.6 c 0,4.3 -3.5,7.8 -7.8,7.8 H 112.2 c -4.3,0 -7.8,3.5 -7.8,7.8 v 3.1 c 0,4.3 3.5,7.8 7.8,7.8 h 464.7 519 c 4.3,0 7.8,-3.5 7.8,-7.8 v -112.2 c 0,-4.3 -3.5,-7.8 -7.8,-7.8 H 559.6 112.2 Z"
   id="path294"
   style="fill:url(#SVGID_3_)" />
				<path
   class="st3"
   d="m 535.3,1123.6 v -112.2 c 0,-4.3 -3.5,-7.8 -7.8,-7.8 H 112.2 c -4.3,0 -7.8,3.5 -7.8,7.8 v 3.1 c 0,4.3 3.5,7.8 7.8,7.8 H 506 c 4.3,0 7.8,3.5 7.8,7.8 v 74.6 c 0,4.3 -3.5,7.8 -7.8,7.8 H 112.2 c -4.3,0 -7.8,3.5 -7.8,7.8 v 3.1 c 0,4.3 3.5,7.8 7.8,7.8 h 415.3 c 4.2,0.2 7.8,-3.3 7.8,-7.6 z"
   id="path296" />
			</g>
			
				<linearGradient
   id="SVGID_4_"
   gradientUnits="userSpaceOnUse"
   x1="-5721.6812"
   y1="1131.3971"
   x2="-3270.0925"
   y2="1131.3971"
   gradientTransform="matrix(-1,0,0,1,-3927.957,0)">
				<stop
   offset="0"
   style="stop-color:#468EC0"
   id="stop300" />
				<stop
   offset="0.2749"
   style="stop-color:#4992C3"
   id="stop302" />
				<stop
   offset="0.5812"
   style="stop-color:#519FC9"
   id="stop304" />
				<stop
   offset="0.9013"
   style="stop-color:#60B4D4"
   id="stop306" />
				<stop
   offset="1"
   style="stop-color:#65BDD8"
   id="stop308" />
			</linearGradient>
			<polygon
   class="st10"
   points="234.9,1069.7 276.4,1069.7 276.4,1193.1 227.7,1146.2 178.9,1193.1 178.9,1069.7 220.4,1069.7 "
   id="polygon311"
   style="fill:url(#SVGID_4_)" />
		</g>
	</g><g
   id="g419">
		<g
   id="g323">
			<path
   class="st11"
   d="m 1275.1,1320.9 c 0,0 -46.4,-39.2 -49.6,-42.3 -3.6,-3.4 -9.2,-9.1 -16.8,4.5 -7.6,13.6 -10.2,17.7 -10.2,17.7 0,0 61.2,29.8 68.2,32.2 7,2.6 14.6,0.1 8.4,-12.1 z"
   id="path317" />
			<path
   class="st12"
   d="m 997.1,840.8 c 0,0 129.5,59 164.8,76.9 35.3,17.9 12.5,91 -42.8,89.7 -55.3,-1.2 -131.7,-4.2 -179.5,-24.8 -47.8,-20.6 -86.5,-59.1 -74.5,-109.3 11.3,-47.2 83.6,-54.7 132,-32.5 z"
   id="path319" />
			<path
   class="st12"
   d="m 1176.3,934.4 c 11.6,47.1 11.3,74.1 20.5,132.1 9.2,58 36.1,224.2 36.1,224.2 0,0 -5.8,3.9 -11.5,1.3 -6.5,-2.9 -7.7,-7 -7.7,-7 0,0 -7.9,-31.2 -21.9,-56.1 -14.1,-24.9 -92.9,-198.4 -106.5,-230.6 -13.6,-32.1 -6.5,-47 31.3,-59.3 37.7,-12.3 58,-11.4 59.7,-4.6 z"
   id="path321" />
		</g>
		<path
   class="st13"
   d="m 943.8,851.9 c 0,0 115.9,82.6 147.2,106.9 31.3,24.3 -5,91.7 -59.1,80 -54.1,-11.7 -128.5,-29.2 -171.5,-58.5 -43,-29.3 -63.6,-71.2 -63.5,-125.4 -0.1,-48.6 103.6,-34 146.9,-3 z"
   id="path325" />
		<g
   id="g331">
			<path
   class="st11"
   d="m 1138.6,1364.4 c 0,0 -50.6,-33.5 -54.2,-36.2 -4,-3 -10.2,-8 -16.1,6.4 -5.9,14.4 -8.1,18.8 -8.1,18.8 0,0 64.3,22.5 71.5,24.1 7.2,1.6 14.5,-1.7 6.9,-13.1 z"
   id="path327" />
			<path
   class="st13"
   d="m 1102.6,978.9 c 3,48.5 -2.1,75 -3.5,133.7 -1.4,58.7 -4.7,227.1 -4.7,227.1 0,0 -6,3.2 -10.6,1.7 -6.8,-2.2 -6.8,-5.3 -6.8,-5.3 0,0 -2.6,-37.5 -12,-64.5 -9.4,-27 -55.8,-211.9 -63.4,-245.9 -7.6,-34.1 2,-47.4 41.4,-52.8 39.3,-5.5 59.2,-1 59.6,6 z"
   id="path329" />
		</g>
		<path
   class="st14"
   d="m 793.4,852.4 c 0,32 15.4,151.1 69.4,151.1 37.9,0 125,35.2 129.2,36.6 4.3,1.4 9.6,22.2 9.6,22.2 0,0 19.9,14.8 65.4,12.9 45.5,-1.9 128.8,-55.6 128.8,-55.6 0,0 -7.5,-86.5 -22.1,-98.5 -14.5,-12 -116.1,-55 -140.5,-68.8 -24.4,-13.8 -72.9,-70.8 -136.7,-70.8 -63.8,0 -103.1,38.2 -103.1,70.9 z"
   id="path333" />
		<path
   class="st14"
   d="m 968.5,513.3 c 0,0 17,-11.3 17,-25.5 0,-14.1 -8.5,-18.2 -6.3,-22.9 4.1,-8.8 1.9,-35.9 -6.1,-50.9 -10.5,-19.8 -22.3,-44.2 -84.2,-34.5 -38.6,6.1 -60.8,57.7 -74,131.2 -6.2,34.5 -44,36.5 -65.6,41.5 -39.5,9.1 -49.2,44.6 -46.1,75.3 2.7,25.9 19.8,26.8 20.1,31.3 0.9,11.8 -3.8,64.2 77.8,64.2 49,0 104.6,30.8 168.3,-14.5 63.7,-45.3 50.4,-117.3 31,-144.2 -19.2,-26.8 -31.9,-51 -31.9,-51 z"
   id="path335" />
		<g
   id="g341">
			<path
   class="st13"
   d="m 1143.4,661 c 17.5,-44.9 17.5,-146.3 19.2,-168.9 2,-27.4 10.4,-21.4 10.6,-44.6 0.1,-15.9 -29.5,-8.5 -37.2,-7.4 -20.8,3 -21.5,29.8 2.9,45.8 1.7,12.8 -25.8,121.7 -33,154 -3.3,14.6 -20,41.6 -1.8,41.4 21,-0.3 32.8,-3.6 39.3,-20.3 z"
   id="path337" />
			<path
   class="st13"
   d="m 1114.9,467.2 c -3,-5.3 -11.5,-20.6 -6,-22.4 4.3,-1.4 10.6,5.4 13.8,10.8 1.1,1.9 1.4,6.6 13.1,12.4 8.4,4.2 1.2,16.5 1.2,16.5 0,0 -15.9,-6.3 -22.1,-17.3 z"
   id="path339" />
		</g>
		<g
   id="g356">
			<path
   class="st13"
   d="m 1074.9,621.8 c 0,0 42,23.7 53.1,33 8,6.6 -2.1,17 -8.2,23.4 -6.1,6.4 -39,2.4 -64.2,-9.7 -19.4,-9.3 15.1,-46.4 19.3,-46.7 z"
   id="path343" />
			<linearGradient
   id="SVGID_5_"
   gradientUnits="userSpaceOnUse"
   x1="948.51282"
   y1="593.32062"
   x2="1119.0186"
   y2="689.94061">
				<stop
   offset="0"
   style="stop-color:#65BDD8"
   id="stop345" />
				<stop
   offset="0.2136"
   style="stop-color:#59A9C5"
   id="stop347" />
				<stop
   offset="0.6391"
   style="stop-color:#3B7A99"
   id="stop349" />
				<stop
   offset="1"
   style="stop-color:#205376"
   id="stop351" />
			</linearGradient>
			<path
   class="st15"
   d="m 955.9,537.9 c 37.1,15.1 151.6,87.9 151.6,87.9 0,0 1.6,13.2 -10.2,36.3 -17.8,34.8 -33.2,51.2 -33.2,51.2 0,0 -122.2,-54 -164.7,-91.8 -11,-9.8 -39.2,-42.2 -18.4,-73.6 17,-25.8 54.2,-18.4 74.9,-10 z"
   id="path354"
   style="fill:url(#SVGID_5_)" />
		</g>
		<path
   class="st16"
   d="m 810.1,639.2 c 1.9,-46.4 8.1,-103.5 70.3,-108 15.3,-1.1 26.8,-1.6 41.3,-0.4 50.8,4.3 56.1,20.3 66,43.8 1.4,3.3 10,33.4 11.3,37.3 v 0 c 5,17.4 45.6,55.4 51,84.2 10.3,54.7 -33.6,51.2 -33.6,51.2 14.7,83.2 22.7,104.6 22.7,104.6 0,0 -54,42 -150.1,27.2 -80.3,-12.4 -99.8,-29.4 -99.8,-29.4 0,0 13.7,-36.3 20.9,-210.5 z"
   id="path358" />
		<path
   class="st17"
   d="m 892.4,752.3 c -28.9,-21.8 -18.9,-50.7 -18.9,-50.7 0,0 -5.7,21.8 19.4,38.2 25.1,16.5 79.6,8.6 123.6,7.4 0.8,4.3 1.5,8.4 2.2,12.4 -21.6,2.8 -101.4,11.5 -126.3,-7.3 z"
   id="path360" />
		<g
   id="g378">
			<polygon
   class="st14"
   points="987,460.7 1227.1,443.6 1227.1,494.3 987,477.3 "
   id="polygon362" />
			<linearGradient
   id="SVGID_6_"
   gradientUnits="userSpaceOnUse"
   x1="1229.0938"
   y1="438.71219"
   x2="1229.0938"
   y2="490.25089">
				<stop
   offset="0"
   style="stop-color:#76469F"
   id="stop364" />
				<stop
   offset="1"
   style="stop-color:#391C89"
   id="stop366" />
			</linearGradient>
			<path
   class="st18"
   d="m 1223.3,496 c 0,1.5 1.2,2.7 2.7,2.7 h 6.2 c 1.5,0 2.7,-1.2 2.7,-2.7 v -54 c 0,-1.5 -1.2,-2.6 -2.7,-2.6 h -6.2 c -1.5,0 -2.7,1.2 -2.7,2.6 z"
   id="path369"
   style="fill:url(#SVGID_6_)" />
			<linearGradient
   id="SVGID_7_"
   gradientUnits="userSpaceOnUse"
   x1="989.0592"
   y1="438.71021"
   x2="989.0592"
   y2="490.25089">
				<stop
   offset="0"
   style="stop-color:#76469F"
   id="stop371" />
				<stop
   offset="1"
   style="stop-color:#391C89"
   id="stop373" />
			</linearGradient>
			<path
   class="st19"
   d="m 983.3,479.2 c 0,1.5 1.2,2.7 2.6,2.7 h 6.2 c 1.5,0 2.7,-1.2 2.7,-2.7 v -20.5 c 0,-1.5 -1.2,-2.7 -2.7,-2.7 H 986 c -1.5,0 -2.6,1.2 -2.6,2.7 v 20.5 z"
   id="path376"
   style="fill:url(#SVGID_7_)" />
		</g>
		<path
   class="st13"
   d="m 1172.9,444.6 c 0.9,4.8 0.3,12.4 -5.2,16.7 -5.5,4.3 -12.9,9.6 -20.6,9.6 -7.6,0 -21.1,-3.4 -23.7,-8.6 -2.7,-5.2 -5.4,-16.1 5.3,-19.9 10.7,-3.8 25.7,-6.2 34.6,-4.7 8.9,1.6 9.6,6.9 9.6,6.9 z"
   id="path380" />
		<path
   class="st14"
   d="m 916.8,523.8 c -17,-1 -37.4,-6.2 -41.4,3.3 -4,9.5 2.7,75.5 58.2,75.5 49.2,0 34.7,-24.3 30.1,-43.3 -3.2,-13.5 2.6,-35.3 -19.2,-35.3 -21.8,0 -15.9,0.5 -27.7,-0.2 z"
   id="path382" />
		<g
   id="g396">
			<path
   class="st20"
   d="m 885.7,530.8 c 12.8,-0.9 23.3,-1.1 36.1,0 10.5,0.9 19,2.3 26,4.1 6.2,32.3 22,56.2 -8.3,56.2 -37.3,0 -52.1,-25 -53.8,-60.3 z"
   id="path384" />
			<g
   id="g394">
				<g
   id="g392">
					<g
   id="g390">
						<path
   class="st20"
   d="m 893.5,535.2 c 1.6,-32.6 9.8,-52.4 21.6,-77.6 0.4,-0.8 1.4,-2.4 4.7,-2.6 8.1,-0.5 28.4,0.2 42,-14.9 1.4,-1.5 7.2,-1.7 7.6,2.8 1.1,14.1 -0.7,35.3 -4.3,50.5 -5,21.1 -12.1,32.2 -32.3,20.6 0.9,10 2.3,22.2 4.3,31.1 4,18 -7.7,24.6 -16.4,25.3 -8.8,0.7 -28.8,-1 -27.2,-35.2 z"
   id="path386" />
						<path
   class="st20"
   d="m 892.4,464.7 c -3.4,4.9 -0.4,13 6.8,18.1 7.2,5.1 15.9,5.3 19.3,0.4 3.4,-4.9 0.4,-13 -6.8,-18.1 -7.2,-5.2 -15.8,-5.3 -19.3,-0.4 z"
   id="path388" />
					</g>
				</g>
			</g>
		</g>
		<g
   id="g402">
			<path
   class="st20"
   d="m 1056.2,481.1 c -3.6,-4.9 -13.9,-19.1 -8.7,-21.5 4.1,-1.9 11.2,4.1 15,9.1 1.4,1.8 2.2,6.4 14.5,10.7 8.8,3.1 3.2,16.2 3.2,16.2 0,0 -16.5,-4.2 -24,-14.5 z"
   id="path398" />
			<path
   class="st20"
   d="m 1093.9,673.8 c 15.2,-45.7 10.1,-147 10.7,-169.6 0.6,-27.4 7.5,-25.9 7.3,-49.2 -0.3,-28 -31.3,-10.1 -38.9,-8.7 -18.4,3.3 -17.4,38.1 7.7,52.8 2.3,12.7 -19.6,122.9 -25.2,155.5 -2.5,14.7 -17.8,40.9 0.4,40.3 21.1,-0.7 32.3,-4.1 38,-21.1 z"
   id="path400" />
		</g>
		<g
   id="g417">
			<path
   class="st20"
   d="m 1024.2,638.2 c 0,0 43.8,20.1 55.7,28.4 8.5,5.9 -0.7,17.1 -6.2,24 -5.5,6.9 -38.6,5.7 -64.8,-4.2 -20.1,-7.6 11.1,-47.6 15.3,-48.2 z"
   id="path404" />
			<linearGradient
   id="SVGID_8_"
   gradientUnits="userSpaceOnUse"
   x1="846.7818"
   y1="619.58337"
   x2="1045.7068"
   y2="701.99512">
				<stop
   offset="0"
   style="stop-color:#65BDD8"
   id="stop406" />
				<stop
   offset="0.2136"
   style="stop-color:#59A9C5"
   id="stop408" />
				<stop
   offset="0.6391"
   style="stop-color:#3B7A99"
   id="stop410" />
				<stop
   offset="1"
   style="stop-color:#205376"
   id="stop412" />
			</linearGradient>
			<path
   class="st21"
   d="m 873.5,567.1 c 38.4,11.4 177.9,73.7 177.9,73.7 0,0 4.1,12.6 -3.1,37.6 -10.8,37.5 -23.6,61.4 -23.6,61.4 0,0 -90.9,-28.9 -150,-44.3 -46.8,-12.2 -68.2,-50.8 -57.3,-87 9.9,-32.9 29.8,-49.2 56.1,-41.4 z"
   id="path415"
   style="fill:url(#SVGID_8_)" />
		</g>
	</g><g
   id="g546">
		<g
   id="g425">
			<path
   class="st11"
   d="m 709.4,959.3 c 0,0 -4.6,-1.7 -18.9,-8 -14.3,-6.3 -15.3,1.6 -16.1,6.5 -0.5,2.8 -5.9,27.3 -9.9,45.1 0,0 13.3,0 17.7,0 4.2,0 6.7,-3.9 7.7,-5.9 9.5,-18.1 19.5,-37.7 19.5,-37.7 z"
   id="path421" />
			<path
   class="st11"
   d="m 669.6,980.2 c -10.2,3.2 -26,8.3 -26,8.3 -10.4,8.8 -3.5,14.5 3,14.5 9.4,0 26.4,0 26.4,0 z"
   id="path423" />
		</g>
		<g
   id="g436">
			<path
   class="st20"
   d="m 203.3,188.5 c 0,0 -48,4.8 -61.9,8.8 -10,2.9 -4.9,16.4 -1.9,24.7 3,8.3 34.7,17.9 62.7,17 21.4,-0.7 4.8,-48.6 1.1,-50.5 z"
   id="path427" />
			<linearGradient
   id="SVGID_9_"
   gradientUnits="userSpaceOnUse"
   x1="326.40411"
   y1="209.7251"
   x2="234.2037"
   y2="250.77299">
				<stop
   offset="0"
   style="stop-color:#76469F"
   id="stop429" />
				<stop
   offset="1"
   style="stop-color:#391C89"
   id="stop431" />
			</linearGradient>
			<path
   class="st22"
   d="m 351.9,181.6 c -39.7,-5.4 -175.2,0.6 -175.2,0.6 0,0 -8,10.6 -9.3,36.6 -1.9,39 8.3,52.4 8.3,52.4 0,0 89.4,15.4 150.4,20 48.3,3.6 84.8,-26 82.4,-63.7 -1.9,-30.8 -34.4,-42.8 -56.6,-45.9 z"
   id="path434"
   style="fill:url(#SVGID_9_)" />
		</g>
		<g
   id="g454">
			<path
   class="st11"
   d="m 122.6,987.5 c 0,0 58.8,-15 63.1,-16.3 4.7,-1.5 12.2,-4.2 13.1,11.4 0.9,15.5 1.4,20.4 1.4,20.4 0,0 -68.1,0 -75.4,-0.8 -7.4,-0.9 -13.1,-6.5 -2.2,-14.7 z"
   id="path438" />
			
				<linearGradient
   id="SVGID_10_"
   gradientUnits="userSpaceOnUse"
   x1="-281.24689"
   y1="904.77692"
   x2="-351.34189"
   y2="1149.163"
   gradientTransform="matrix(0.9943,0.1069,-0.1069,0.9943,697.8556,-337.4337)">
				<stop
   offset="0"
   style="stop-color:#0A0E1A"
   id="stop440" />
				<stop
   offset="1"
   style="stop-color:#040F2C"
   id="stop442" />
			</linearGradient>
			<path
   class="st23"
   d="m 354,467.7 c 0,0 -165.4,108.4 -197.6,131.5 -32.2,23.1 1.4,91.8 55.9,82.2 54.5,-9.6 129.5,-24.1 173.7,-51.7 44.1,-27.6 71.1,-59.4 77,-107.6 6,-48.2 -64.4,-83.6 -109,-54.4 z"
   id="path445"
   style="fill:url(#SVGID_10_)" />
			
				<linearGradient
   id="SVGID_11_"
   gradientUnits="userSpaceOnUse"
   x1="603.75128"
   y1="-940.08588"
   x2="533.6554"
   y2="-695.69678"
   gradientTransform="matrix(0.975,0.2222,-0.2222,0.975,-485.5126,1319.5073)">
				<stop
   offset="0"
   style="stop-color:#0A0E1A"
   id="stop447" />
				<stop
   offset="1"
   style="stop-color:#040F2C"
   id="stop449" />
			</linearGradient>
			<path
   class="st24"
   d="m 143.8,619.9 c 0.1,48.5 6.8,74.7 11.9,133.2 5.1,58.5 18.7,227.1 18.7,227.1 0,0 4.1,4.3 9,3.7 7.4,-0.9 8.3,-5 8.3,-5 0,0 0.3,-41.8 8,-69.4 7.7,-27.5 42.4,-215 47.8,-249.4 5.4,-34.5 -5,-47.1 -44.6,-50.1 -39.6,-2.9 -59.1,2.8 -59.1,9.9 z"
   id="path452"
   style="fill:url(#SVGID_11_)" />
		</g>
		<path
   class="st14"
   d="m 375.4,501.3 c 0,0 6.8,197.7 9.8,237.2 3,39.5 79.2,46.4 99.3,-5.1 20.1,-51.5 46.6,-123.2 45.9,-175.3 -0.7,-52.1 -13.9,-91.6 -52,-121.7 -38.1,-30.2 -104.9,11.6 -103,64.9 z"
   id="path456" />
		<path
   class="st14"
   d="m 392.3,756 c 36.4,32.1 60.5,44.4 107.6,79.3 47.2,35 175.2,135.6 175.2,135.6 0,0 11.8,-5.4 10.6,-15 C 676,947.8 661.8,930 646.3,906 630.8,882 513.4,731.8 491.2,704.9 469,678 452.6,677.4 424.1,705.2 395.7,732.9 387,751.4 392.3,756 Z"
   id="path458" />
		
			<linearGradient
   id="SVGID_12_"
   gradientUnits="userSpaceOnUse"
   x1="199.5432"
   y1="911.28778"
   x2="164.1736"
   y2="1143.7234"
   gradientTransform="matrix(0.9671,-0.2543,0.2543,0.9671,-53.4757,-540.3728)">
			<stop
   offset="0"
   style="stop-color:#76469F"
   id="stop460" />
			<stop
   offset="1"
   style="stop-color:#643E9A"
   id="stop462" />
		</linearGradient>
		<path
   class="st25"
   d="m 406,170.3 c 62.3,0.2 70.5,54.7 83.7,99.2 27.2,91.6 45.3,243.5 45.3,243.5 0,0 -29,23.3 -127.4,31 -127.8,10 -151,-15.5 -151,-15.5 0,0 42.5,-149.4 30.1,-287 -2.8,-31.1 27.6,-60.9 78,-68.7 14.4,-2.3 25.9,-2.6 41.3,-2.5 z"
   id="path465"
   style="fill:url(#SVGID_12_)" />
		<linearGradient
   id="SVGID_13_"
   gradientUnits="userSpaceOnUse"
   x1="681.76678"
   y1="402.1427"
   x2="212.8224"
   y2="402.1427">
			<stop
   offset="0"
   style="stop-color:#FFFFFF"
   id="stop467" />
			<stop
   offset="1"
   style="stop-color:#8E857E"
   id="stop469" />
		</linearGradient>
		<path
   class="st26"
   d="m 503.3,323.1 h -80.6 c -5.7,0 -10.3,4.6 -10.3,10.3 V 471 c 0,5.7 4.6,10.3 10.3,10.3 H 530.8 C 525.7,444 516.1,380.3 503.3,323.1 Z"
   id="path472"
   style="fill:url(#SVGID_13_)" />
		<linearGradient
   id="SVGID_14_"
   gradientUnits="userSpaceOnUse"
   x1="527.83539"
   y1="319.35641"
   x2="527.83539"
   y2="567.11218">
			<stop
   offset="0"
   style="stop-color:#63BCD8"
   id="stop474" />
			<stop
   offset="1"
   style="stop-color:#3D7EB8"
   id="stop476" />
		</linearGradient>
		<path
   class="st27"
   d="m 636.4,465.4 c 0,5.2 -4.3,9.5 -9.5,9.5 H 428.8 c -5.2,0 -9.5,-4.3 -9.5,-9.5 V 338.9 c 0,-5.2 4.3,-9.5 9.5,-9.5 H 627 c 5.2,0 9.5,4.3 9.5,9.5 v 126.5 z"
   id="path479"
   style="fill:url(#SVGID_14_)" />
		<linearGradient
   id="SVGID_15_"
   gradientUnits="userSpaceOnUse"
   x1="758.49353"
   y1="402.1427"
   x2="74.282799"
   y2="402.1427">
			<stop
   offset="0"
   style="stop-color:#FFFFFF"
   id="stop481" />
			<stop
   offset="1"
   style="stop-color:#8E857E"
   id="stop483" />
		</linearGradient>
		<path
   class="st28"
   d="m 613.6,384.8 c 7.9,-9.9 15.7,-21.8 22.8,-33.4 v -12.5 c 0,-5.2 -4.3,-9.5 -9.5,-9.5 H 516.8 c 10.7,4.8 43.7,19.9 45.3,20.9 1.9,1.3 -10.4,30.9 -18.9,46.7 -8.5,15.8 -16.4,38.8 -17.7,39.5 -1.3,0.6 -18.3,2.5 -30.6,11.7 -12.3,9.2 -17.4,18.2 -27.5,18.2 h -29.5 c -5.2,0 -9.5,-4.3 -9.5,-9.5 V 330.3 c 0,-0.3 0.1,-0.6 0.1,-0.9 -5.1,0.1 -9.3,4.3 -9.3,9.5 v 126.6 c 0,5.2 4.3,9.5 9.5,9.5 h 36.9 97.9 63.4 c 4.9,0 8.9,-3.8 9.4,-8.5 -0.1,0 -0.1,0 -0.2,0 h -72.6 c -0.8,-6.5 -2.7,-13.1 -2.7,-13.1 0,0 27.5,-37 52.8,-68.6 z"
   id="path486"
   style="fill:url(#SVGID_15_)" />
		<circle
   class="st8"
   cx="527.79999"
   cy="402.10001"
   r="20.799999"
   id="circle488" />
		<g
   id="g507">
			<g
   id="g492">
				<path
   class="st20"
   d="m 625.1,285.4 c -33.9,34.1 -83.6,138.2 -93.5,158.6 -14.1,4.6 -24.4,22.1 -32.9,30.9 -8.9,9.1 38.1,11.6 48,7 7.2,-3.4 10.1,-8.2 7,-28.5 3.6,-12.5 67.1,-90.6 86.6,-117.4 8.8,-12 8.3,-35.6 -15.2,-50.6 z"
   id="path490" />
			</g>
			<g
   id="g503">
				<path
   class="st20"
   d="m 583.9,255.4 c 0,0 39.7,27.3 50,37.5 7.4,7.3 -3.6,16.7 -10.3,22.6 -6.6,5.9 -39,-1.1 -63.1,-15.3 -18.4,-10.9 19.2,-44.9 23.4,-44.8 z"
   id="path494" />
				
					<linearGradient
   id="SVGID_16_"
   gradientUnits="userSpaceOnUse"
   x1="947.03461"
   y1="-1730.3695"
   x2="1053.7529"
   y2="-1708.2682"
   gradientTransform="matrix(0.9691,0.2469,-0.2469,0.9691,-857.1167,1697.1915)">
					<stop
   offset="0"
   style="stop-color:#76469F"
   id="stop496" />
					<stop
   offset="1"
   style="stop-color:#391C89"
   id="stop498" />
				</linearGradient>
				<path
   class="st29"
   d="m 457,177.8 c 37.4,14.4 153.2,85 153.2,85 0,0 1.9,13.1 -9.5,36.5 -17.1,35.1 -32.6,41.9 -32.6,41.9 0,0 -85.8,-29.6 -141.4,-55 -44,-20.1 -61.8,-63.6 -41.5,-95.5 16.6,-26.1 51,-20.9 71.8,-12.9 z"
   id="path501"
   style="fill:url(#SVGID_16_)" />
			</g>
			<path
   class="st20"
   d="m 494.3,458.5 c -4.5,4.1 -9.6,12.3 -6.5,14.2 8.6,5.3 12.9,-6.9 25.7,-9.8 9.1,-2.1 18.2,-18.9 18.2,-18.9 0,0 -21.4,0 -37.4,14.5 z"
   id="path505" />
		</g>
		<g
   id="g538">
			<path
   class="st14"
   d="m 314.9,119.5 c -22.1,-13.4 -41.1,-72.9 -13,-83.4 47.7,-17.9 40.6,15.9 60.7,12.9 43.6,-6.7 53.9,14.2 51.3,56.4 -1.6,25.7 -14.2,35.2 -22.7,49.2 -4.8,7.8 -13.7,-25.9 -37.5,-33.6 -23.8,-7.8 -38.8,-1.5 -38.8,-1.5 z"
   id="path509" />
			<path
   class="st14"
   d="m 328.2,182.8 c -2.1,18.5 -11.9,59.9 31.5,54.4 51,-6.4 58.1,-60.1 54.8,-65.9 -7.5,-13.1 -27.3,-4.2 -40.2,-2.4 -12.9,1.8 -44.4,-1.8 -46.1,13.9 z"
   id="path511" />
			<g
   id="g536">
				
					<linearGradient
   id="SVGID_17_"
   gradientUnits="userSpaceOnUse"
   x1="13617.192"
   y1="2024.7831"
   x2="13617.192"
   y2="2847.1582"
   gradientTransform="matrix(-0.9991,-0.0407,-0.0407,0.9991,14066.842,-1531.0978)">
					<stop
   offset="0"
   style="stop-color:#FDAA65"
   id="stop513" />
					<stop
   offset="1"
   style="stop-color:#F47124"
   id="stop515" />
				</linearGradient>
				<path
   class="st30"
   d="m 400.9,171.3 c -2.5,0 -5,0 -7.6,0.1 -14.5,0.6 -25.9,2.6 -40.9,5.7 -4.7,1 -9.1,2.2 -13.1,3.7 -0.7,12 -10,45.8 22.7,42.6 33.6,-3.3 40.5,-40.8 38.9,-52.1 z"
   id="path518"
   style="fill:url(#SVGID_17_)" />
				<g
   id="g534">
					
						<linearGradient
   id="SVGID_18_"
   gradientUnits="userSpaceOnUse"
   x1="13636.126"
   y1="2027.6124"
   x2="13636.126"
   y2="2840.1433"
   gradientTransform="matrix(-0.9991,-0.0407,-0.0407,0.9991,14066.842,-1531.0978)">
						<stop
   offset="0"
   style="stop-color:#FDAA65"
   id="stop520" />
						<stop
   offset="1"
   style="stop-color:#F47124"
   id="stop522" />
					</linearGradient>
					<path
   class="st31"
   d="m 393.2,175.3 c -4,-33.5 -14.1,-52.8 -28.4,-78.4 -0.2,-1 -40.2,11.6 -53.6,-7.7 0,0 0.9,27.4 7.7,49.3 6.5,20.7 14.4,31.3 33.7,18.3 -0.2,10 -0.7,22.3 -2.1,31.3 -2.8,18.2 9.4,24 18.1,24.1 8.7,0.1 28.6,-2.9 24.6,-36.9 z"
   id="path525"
   style="fill:url(#SVGID_18_)" />
					
						<linearGradient
   id="SVGID_19_"
   gradientUnits="userSpaceOnUse"
   x1="13614.026"
   y1="2027.5638"
   x2="13614.026"
   y2="2840.2922"
   gradientTransform="matrix(-0.9991,-0.0407,-0.0407,0.9991,14066.842,-1531.0978)">
						<stop
   offset="0"
   style="stop-color:#FDAA65"
   id="stop527" />
						<stop
   offset="1"
   style="stop-color:#F47124"
   id="stop529" />
					</linearGradient>
					<path
   class="st32"
   d="m 388,101.9 c 3.8,4.6 1.3,12.9 -5.6,18.5 -6.8,5.6 -15.5,6.4 -19.2,1.7 -3.8,-4.6 -1.3,-12.9 5.6,-18.5 6.8,-5.6 15.4,-6.3 19.2,-1.7 z"
   id="path532"
   style="fill:url(#SVGID_19_)" />
				</g>
			</g>
		</g>
		<g
   id="g544">
			<path
   class="st20"
   d="m 300,79.1 c 6,-1.1 15.5,-1.6 15.5,2.1 -0.1,10.1 -12.7,7.2 -22,16.5 -6.6,6.6 -16,-4.2 -16,-4.2 0,0 10,-12.1 22.5,-14.4 z"
   id="path540" />
			<path
   class="st20"
   d="m 109,179.6 c 33,-35.1 131.3,-87.1 151.4,-97.7 10.2,-5.4 14.8,-22.6 38.1,-23.6 54,-2.3 48.9,16.6 39.1,16.4 -69.8,-1.3 -21.7,29.7 -61.3,25.9 -12.3,4 -92.4,73.1 -118.5,93.6 -11.7,9.2 9.7,40.6 -7,36.2 -20.6,-5.7 -54,-37.8 -41.8,-50.8 z"
   id="path542" />
		</g>
	</g><g
   id="g886">
		<g
   id="g583">
			<defs
   id="defs553">
				<filter
   id="Adobe_OpacityMaskFilter"
   filterUnits="userSpaceOnUse"
   x="1177.7"
   y="1451.9"
   width="525"
   height="102.8">
					<feFlood
   result="back"
   id="feFlood548" />
					<feBlend
   in="SourceGraphic"
   in2="back"
   mode="normal"
   id="feBlend550" />
				</filter>
			</defs>
			<mask
   maskUnits="userSpaceOnUse"
   x="1177.7"
   y="1451.9"
   width="525"
   height="102.8"
   id="mask574">
				<g
   class="st33"
   id="g572">
					<defs
   id="defs560">
						<filter
   id="Adobe_OpacityMaskFilter_1_"
   filterUnits="userSpaceOnUse"
   x="1177.7"
   y="1451.9"
   width="525"
   height="102.8">
							<feFlood
   result="back"
   id="feFlood555" />
							<feBlend
   in="SourceGraphic"
   in2="back"
   mode="normal"
   id="feBlend557" />
						</filter>
					</defs>
					<mask
   maskUnits="userSpaceOnUse"
   x="1177.7"
   y="1451.9"
   width="525"
   height="102.8"
   id="SVGID_20_">
						<g
   class="st34"
   id="g562">
						</g>
					</mask>
					<linearGradient
   id="SVGID_21_"
   gradientUnits="userSpaceOnUse"
   x1="1225.1089"
   y1="1503.3157"
   x2="1562.6813"
   y2="1503.3157">
						<stop
   offset="0"
   style="stop-color:#000000"
   id="stop565" />
						<stop
   offset="1"
   style="stop-color:#FFFFFF"
   id="stop567" />
					</linearGradient>
					<path
   class="st35"
   d="m 1599.8,1554.7 c -30.2,0 -44.8,-24.5 -56.6,-44.1 -11.2,-18.8 -18.7,-30.2 -32.1,-30.2 -13.4,0 -21,11.5 -32.1,30.2 -11.7,19.7 -26.3,44.1 -56.6,44.1 -30.2,0 -44.8,-24.5 -56.6,-44.1 -11.2,-18.7 -18.7,-30.2 -32.2,-30.2 -13.4,0 -21,11.5 -32.2,30.2 -11.7,19.7 -26.3,44.1 -56.6,44.1 -30.2,0 -44.8,-24.5 -56.6,-44.1 -2.8,-4.7 -5.5,-9.2 -8.3,-13.3 -4.4,-6.5 -2.7,-15.3 3.8,-19.7 6.5,-4.4 15.3,-2.7 19.7,3.8 3.3,4.8 6.3,9.8 9.2,14.7 11.2,18.8 18.7,30.2 32.2,30.2 13.4,0 21,-11.5 32.2,-30.2 11.7,-19.7 26.3,-44.1 56.6,-44.1 30.2,0 44.8,24.5 56.6,44.1 11.2,18.8 18.7,30.2 32.2,30.2 13.4,0 21,-11.5 32.2,-30.2 11.7,-19.7 26.3,-44.1 56.6,-44.1 30.2,0 44.8,24.5 56.6,44.1 11.2,18.8 18.7,30.2 32.1,30.2 13.4,0 21,-11.5 32.1,-30.2 11.7,-19.7 26.3,-44.1 56.6,-44.1 7.8,0 14.2,6.4 14.2,14.2 0,7.8 -6.4,14.2 -14.2,14.2 -13.4,0 -21,11.5 -32.1,30.2 -11.9,19.6 -26.5,44.1 -56.7,44.1 z"
   mask="url(#SVGID_20_)"
   id="path570" />
				</g>
			</mask>
			<linearGradient
   id="SVGID_22_"
   gradientUnits="userSpaceOnUse"
   x1="1225.1089"
   y1="1503.3157"
   x2="1562.6813"
   y2="1503.3157">
				<stop
   offset="0"
   style="stop-color:#FFFFFF"
   id="stop576" />
				<stop
   offset="1"
   style="stop-color:#62BDD8"
   id="stop578" />
			</linearGradient>
			<path
   class="st36"
   d="m 1599.8,1554.7 c -30.2,0 -44.8,-24.5 -56.6,-44.1 -11.2,-18.8 -18.7,-30.2 -32.1,-30.2 -13.4,0 -21,11.5 -32.1,30.2 -11.7,19.7 -26.3,44.1 -56.6,44.1 -30.2,0 -44.8,-24.5 -56.6,-44.1 -11.2,-18.7 -18.7,-30.2 -32.2,-30.2 -13.4,0 -21,11.5 -32.2,30.2 -11.7,19.7 -26.3,44.1 -56.6,44.1 -30.2,0 -44.8,-24.5 -56.6,-44.1 -2.8,-4.7 -5.5,-9.2 -8.3,-13.3 -4.4,-6.5 -2.7,-15.3 3.8,-19.7 6.5,-4.4 15.3,-2.7 19.7,3.8 3.3,4.8 6.3,9.8 9.2,14.7 11.2,18.8 18.7,30.2 32.2,30.2 13.4,0 21,-11.5 32.2,-30.2 11.7,-19.7 26.3,-44.1 56.6,-44.1 30.2,0 44.8,24.5 56.6,44.1 11.2,18.8 18.7,30.2 32.2,30.2 13.4,0 21,-11.5 32.2,-30.2 11.7,-19.7 26.3,-44.1 56.6,-44.1 30.2,0 44.8,24.5 56.6,44.1 11.2,18.8 18.7,30.2 32.1,30.2 13.4,0 21,-11.5 32.1,-30.2 11.7,-19.7 26.3,-44.1 56.6,-44.1 7.8,0 14.2,6.4 14.2,14.2 0,7.8 -6.4,14.2 -14.2,14.2 -13.4,0 -21,11.5 -32.1,30.2 -11.9,19.6 -26.5,44.1 -56.7,44.1 z"
   id="path581"
   style="fill:url(#SVGID_22_)" />
		</g>
		<g
   id="g884">
			<path
   class="st37"
   d="m 2229.1,717.1 c 0,0 38,-115.9 100.5,-92.2 62.5,23.7 64.4,114.6 25.6,198.9 -38.8,84.3 -134.6,203.1 -285.7,149.8 -151,-53.2 -122.4,-156.5 -87.5,-197.2 35,-40.6 206.2,23.4 247.1,-59.3 z"
   id="path585" />
			<linearGradient
   id="SVGID_23_"
   gradientUnits="userSpaceOnUse"
   x1="2350.929"
   y1="689.30219"
   x2="2198.103"
   y2="641.30731">
				<stop
   offset="0"
   style="stop-color:#FE1B00"
   id="stop587" />
				<stop
   offset="0.1597"
   style="stop-color:#FE2002"
   id="stop589" />
				<stop
   offset="0.3377"
   style="stop-color:#FE2E05"
   id="stop591" />
				<stop
   offset="0.5245"
   style="stop-color:#FE4409"
   id="stop593" />
				<stop
   offset="0.7173"
   style="stop-color:#FE620E"
   id="stop595" />
				<stop
   offset="0.913"
   style="stop-color:#FE8A15"
   id="stop597" />
				<stop
   offset="1"
   style="stop-color:#FE9E1B"
   id="stop599" />
			</linearGradient>
			<path
   class="st38"
   d="m 2281.5,633.9 c 0,0 16.6,4.2 19.4,6.1 2.8,1.9 1.7,24.1 -2.6,34.7 -4.3,10.6 -19.2,25.3 -21.3,25.3 -2.1,0 -16.6,-7.5 -19.4,-9.2 -2.8,-1.7 1.2,-48.1 23.9,-56.9 z"
   id="path602"
   style="fill:url(#SVGID_23_)" />
			<path
   class="st14"
   d="m 2138.3,667.2 c 0,-14.1 6.9,-25.6 6.2,-30.7 -1.3,-9.6 8.8,-34.9 20.7,-46.8 15.8,-15.8 33.4,-33.8 90.6,-8.2 30.7,13.7 50.3,84.2 -11.3,121 -41.7,24.9 -106.2,-6.1 -106.2,-35.3 z"
   id="path604" />
			<g
   id="g633">
				<g
   id="g610">
					<path
   class="st20"
   d="m 1983.2,496.7 c 4.4,-4.2 16.1,-16.2 12.6,-22 -2.3,-3.8 -12.8,1.4 -17.4,5.6 -1.6,1.5 -2.5,9 -15.5,11.2 -9.2,1.6 -6.9,18.8 -6.9,18.8 0,0 16.7,-3.4 27.2,-13.6 z"
   id="path606" />
					<path
   class="st20"
   d="m 1916,677.8 c -7.2,-47.6 11.5,-144.3 15.6,-166.6 2.1,-11.4 -8.8,-27.5 0,-51.7 5,-14 31.1,-19.5 47.6,-6.8 6.6,5.1 6.3,46.4 -23.1,57.6 -4.5,12.2 -0.3,111.6 -0.4,144.7 0,14.9 8.7,31 -7.3,39.7 -13.7,7.5 -29.7,0.8 -32.4,-16.9 z"
   id="path608" />
				</g>
				<g
   id="g631">
					<path
   class="st20"
   d="m 1988.1,668.1 c 0,0 -47.7,-7 -62.2,-6.5 -10.4,0.4 -8.7,14.7 -7.8,23.6 0.9,8.8 29.4,25.8 56.7,31.7 21,4.4 16.5,-46.1 13.3,-48.8 z"
   id="path612" />
					
						<linearGradient
   id="SVGID_24_"
   gradientUnits="userSpaceOnUse"
   x1="1432.9135"
   y1="-1528.9921"
   x2="1675.4106"
   y2="-1685.6052"
   gradientTransform="matrix(0.6945,0.7195,-0.7195,0.6945,-289.787,706.0599)">
						<stop
   offset="0"
   style="stop-color:#FE1B00"
   id="stop614" />
						<stop
   offset="0.1597"
   style="stop-color:#FE2002"
   id="stop616" />
						<stop
   offset="0.3377"
   style="stop-color:#FE2E05"
   id="stop618" />
						<stop
   offset="0.5245"
   style="stop-color:#FE4409"
   id="stop620" />
						<stop
   offset="0.7173"
   style="stop-color:#FE620E"
   id="stop622" />
						<stop
   offset="0.913"
   style="stop-color:#FE8A15"
   id="stop624" />
						<stop
   offset="1"
   style="stop-color:#FE9E1B"
   id="stop626" />
					</linearGradient>
					<path
   class="st39"
   d="m 2134,697.3 c -37.2,-14.9 -170.1,-41.8 -170.1,-41.8 0,0 -10.3,8.4 -17.8,33.2 -11.3,37.4 -4.6,52.9 -4.6,52.9 0,0 83,36.6 141.1,55.8 45.9,15.2 88.6,-4.7 95.4,-41.8 5.4,-30.4 -23.3,-49.9 -44,-58.3 z"
   id="path629"
   style="fill:url(#SVGID_24_)" />
				</g>
			</g>
			<g
   id="g639">
				<path
   class="st11"
   d="m 2136,1511 c 0,0 -4.6,-1.7 -18.8,-8 -14.3,-6.3 -15.3,1.6 -16.1,6.5 -0.5,2.8 -5.9,27.3 -9.9,45.1 0,0 13.3,0 17.8,0 4.2,0 6.7,-3.9 7.7,-5.9 9.3,-18 19.3,-37.7 19.3,-37.7 z"
   id="path635" />
				<path
   class="st11"
   d="m 2096.2,1531.9 c -10.2,3.2 -26,8.3 -26,8.3 -10.4,8.8 -3.5,14.5 3,14.5 9.4,0 26.4,0 26.4,0 z"
   id="path637" />
			</g>
			<g
   id="g705">
				<g
   id="g659">
					<linearGradient
   id="SVGID_25_"
   gradientUnits="userSpaceOnUse"
   x1="1962.9587"
   y1="1028.1729"
   x2="1695.2001"
   y2="1332.5594">
						<stop
   offset="0"
   style="stop-color:#0A0E1A"
   id="stop641" />
						<stop
   offset="1"
   style="stop-color:#040F2C"
   id="stop643" />
					</linearGradient>
					<path
   class="st40"
   d="m 1958,936.6 c 0,0 -143.6,136 -171.3,164.4 -27.6,28.4 17.7,90.1 69.6,71 51.9,-19.1 123.2,-46.6 161.8,-81.6 38.6,-35 59.4,-71.1 56.8,-119.6 -2.7,-48.5 -78.3,-70.9 -116.9,-34.2 z"
   id="path646"
   style="fill:url(#SVGID_25_)" />
					<g
   id="g657">
						<path
   class="st11"
   d="m 1630.8,1378.2 c 0,0 52.3,30.8 56.3,32.9 4.4,2.3 11.6,5.7 1.3,17.3 -10.4,11.6 -13.4,15.5 -13.4,15.5 0,0 -48.3,-48 -52.9,-53.7 -4.6,-5.8 -4.8,-13.8 8.7,-12 z"
   id="path648" />
						<linearGradient
   id="SVGID_26_"
   gradientUnits="userSpaceOnUse"
   x1="1950.158"
   y1="1016.9127"
   x2="1682.3999"
   y2="1321.2986">
							<stop
   offset="0"
   style="stop-color:#0A0E1A"
   id="stop650" />
							<stop
   offset="1"
   style="stop-color:#040F2C"
   id="stop652" />
						</linearGradient>
						<path
   class="st41"
   d="m 1777.2,1118.3 c -14.9,46.2 -9,22.2 -28.6,77.6 -19.6,55.4 -76.9,214.5 -76.9,214.5 0,0 2,5.6 6.7,7.1 7.1,2.3 9.6,-1.1 9.6,-1.1 0,0 17.6,-37.9 36,-59.8 18.4,-21.9 127.5,-178.2 146.7,-207.3 19.2,-29.1 13.1,-41.2 -4.1,-52.6 -33.2,-21.9 -77.8,-14.5 -89.4,21.6 z"
   id="path655"
   style="fill:url(#SVGID_26_)" />
					</g>
				</g>
				<g
   id="g665">
					<path
   class="st14"
   d="m 2034.5,974.2 c 0,0 -88.2,177 -104.5,213.2 -16.2,36.2 47.5,78.6 89.7,42.8 42.2,-35.7 99.7,-86.1 124,-132.2 24.2,-46.1 31.4,-87.1 12.3,-131.8 -19.1,-44.7 -97.8,-39.8 -121.5,8 z"
   id="path661" />
					<path
   class="st14"
   d="m 1927.8,1207.7 c 19.5,44.5 36.2,65.7 64.2,117.3 28.1,51.6 108.1,200.6 108.1,200.6 0,0 5.6,-1.6 9.5,-6.5 4.1,-5.3 2.2,-10.6 2.2,-10.6 0,0 -12.8,-29.4 -16.8,-57.7 -4,-28.3 -47.2,-213.9 -56,-247.7 -8.8,-33.8 -23.5,-41.2 -60.9,-28 -37.6,13.1 -53.2,26.2 -50.3,32.6 z"
   id="path663" />
				</g>
				<linearGradient
   id="SVGID_27_"
   gradientUnits="userSpaceOnUse"
   x1="2121.1267"
   y1="818.87872"
   x2="2004.9292"
   y2="1110.6345">
					<stop
   offset="0"
   style="stop-color:#FE9E1A"
   id="stop667" />
					<stop
   offset="1"
   style="stop-color:#FF5B00"
   id="stop669" />
				</linearGradient>
				<path
   class="st42"
   d="m 2211.8,721.9 c -13.4,-7.4 -23.7,-12.7 -37.4,-17.7 -47.9,-17.4 -88.9,-6 -101.4,22.6 -1.8,4.2 -3.2,8.7 -5.7,12.6 -10.5,16.3 -48.8,5.8 -69.3,31.4 -12.8,16 1.3,47.5 15.7,62.5 -49.7,78.7 -94.8,124.7 -94.8,124.7 0,0 0.7,29.8 117.5,82.7 90,40.7 133,25.2 133,25.2 0,0 47.6,-123.4 67.8,-216.7 10,-45.4 29.1,-97.1 -25.4,-127.3 z"
   id="path672"
   style="fill:url(#SVGID_27_)" />
				<g
   id="g701">
					<path
   class="st14"
   d="m 2137.6,695.3 c -10.8,15.3 -39.3,46.7 1.4,62.9 47.8,19 79.8,-24.7 79.7,-31.4 -0.2,-15.1 -21.9,-16.8 -34,-21.5 -12.2,-4.5 -38,-22.9 -47.1,-10 z"
   id="path674" />
					<g
   id="g699">
						
							<linearGradient
   id="SVGID_28_"
   gradientUnits="userSpaceOnUse"
   x1="11603.115"
   y1="306.32809"
   x2="11603.115"
   y2="1128.6932"
   gradientTransform="matrix(-0.8559,-0.5169,-0.5169,0.8559,12390.079,6240.7231)">
							<stop
   offset="0"
   style="stop-color:#FDAA65"
   id="stop676" />
							<stop
   offset="1"
   style="stop-color:#F47124"
   id="stop678" />
						</linearGradient>
						<path
   class="st43"
   d="m 2206.9,720.3 c -2.2,-1.2 -4.4,-2.4 -6.7,-3.6 -13,-6.4 -23.9,-10.2 -38.6,-14.7 -4.6,-1.4 -9,-2.5 -13.2,-3.1 -6.4,10.2 -30.9,35.3 -0.6,48.3 30.9,13.4 55,-16.2 59.1,-26.9 z"
   id="path681"
   style="fill:url(#SVGID_28_)" />
						<g
   id="g697">
							
								<linearGradient
   id="SVGID_29_"
   gradientUnits="userSpaceOnUse"
   x1="11622.047"
   y1="309.13461"
   x2="11622.047"
   y2="1121.7273"
   gradientTransform="matrix(-0.8559,-0.5169,-0.5169,0.8559,12390.079,6240.7231)">
								<stop
   offset="0"
   style="stop-color:#FDAA65"
   id="stop683" />
								<stop
   offset="1"
   style="stop-color:#F47124"
   id="stop685" />
							</linearGradient>
							<path
   class="st44"
   d="m 2198.2,720.1 c 12.6,-31.2 13.1,-53.1 12.9,-82.4 0.3,-1 -40.8,-9.1 -43.3,-32.6 0,0 -12.5,24.5 -17,47 -4.3,21.2 -2.5,34.3 20.7,32.3 -5,8.7 -11.4,19.2 -16.9,26.4 -11.2,14.7 -3.4,25.6 4.3,29.8 7.6,4.3 26.4,11.2 39.3,-20.5 z"
   id="path688"
   style="fill:url(#SVGID_29_)" />
							
								<linearGradient
   id="SVGID_30_"
   gradientUnits="userSpaceOnUse"
   x1="11599.944"
   y1="309.0939"
   x2="11599.944"
   y2="1121.8578"
   gradientTransform="matrix(-0.8559,-0.5169,-0.5169,0.8559,12390.079,6240.7231)">
								<stop
   offset="0"
   style="stop-color:#FDAA65"
   id="stop690" />
								<stop
   offset="1"
   style="stop-color:#F47124"
   id="stop692" />
							</linearGradient>
							<path
   class="st45"
   d="m 2228.9,653.3 c 1.1,5.9 -5.1,11.9 -13.8,13.5 -8.7,1.6 -16.6,-1.9 -17.7,-7.8 -1.1,-5.9 5.1,-11.9 13.8,-13.5 8.8,-1.6 16.7,1.9 17.7,7.8 z"
   id="path695"
   style="fill:url(#SVGID_30_)" />
						</g>
					</g>
				</g>
				<path
   class="st46"
   d="m 2099.9,875.7 c -30.9,-12.6 -53.5,-24.4 -86.2,-42.4 -2,3.2 -4,6.3 -6.1,9.4 16.1,9.8 58.6,34.7 88.8,43.3 37.9,10.7 45.5,-17.4 45.5,-17.4 0,0 -11.1,19.7 -42,7.1 z"
   id="path703" />
			</g>
			<g
   id="g853">
				<g
   id="g775">
					<g
   class="st47"
   id="g711">
						<path
   class="st48"
   d="m 1551.6,832.1 c -7.6,0 -13.9,-6 -14.3,-13.6 -2,-40.9 -34.7,-103.2 -85.3,-162.6 -0.2,-0.2 -3.2,-3.8 -3.2,-3.8 -0.2,-0.2 -0.3,-0.4 -0.5,-0.6 -46.5,-55.6 -72.1,-126.2 -72.1,-198.8 0,-82.8 32.3,-160.7 90.8,-219.3 58.6,-58.6 136.5,-90.8 219.3,-90.8 82.8,0 160.7,32.3 219.3,90.8 58.6,58.5 90.8,136.5 90.8,219.3 0,72.6 -25.6,143.1 -72.1,198.8 -0.2,0.2 -0.3,0.4 -0.5,0.6 0,0 -3,3.5 -3.2,3.8 -50.6,59.4 -83.3,121.7 -85.3,162.6 -0.4,7.6 -6.7,13.6 -14.3,13.6 z"
   id="path707" />
						<path
   class="st49"
   d="m 1821,817.8 c 2.1,-43 34.8,-107.9 88.8,-171.2 0.3,-0.4 0.7,-0.8 1,-1.2 0.7,-0.9 1.4,-1.7 2.2,-2.6 v 0 c 43.2,-51.4 69.2,-117.7 69.2,-190.1 0,-163.4 -132.4,-295.8 -295.8,-295.8 -163.4,0 -295.8,132.4 -295.8,295.8 0,72.4 26,138.7 69.2,190.1 v 0 c 0.7,0.9 1.5,1.7 2.2,2.6 0.3,0.4 0.7,0.8 1,1.2 53.9,63.3 86.6,128.2 88.8,171.2 z"
   id="path709" />
					</g>
					<g
   id="g715">
						<path
   class="st50"
   d="m 1693.8,911.6 h -15.1 c -35,0 -63.4,-28.4 -63.4,-63.4 V 620.6 c 0,-35 28.4,-63.4 63.4,-63.4 h 15.1 c 35,0 63.4,28.4 63.4,63.4 v 227.7 c 0,34.9 -28.5,63.3 -63.4,63.3 z m -15.1,-325.7 c -19.1,0 -34.7,15.6 -34.7,34.7 v 227.7 c 0,19.1 15.6,34.7 34.7,34.7 h 15.1 c 19.1,0 34.7,-15.6 34.7,-34.7 V 620.6 c 0,-19.1 -15.6,-34.7 -34.7,-34.7 z"
   id="path713" />
					</g>
					<g
   id="g724">
						<linearGradient
   id="SVGID_31_"
   gradientUnits="userSpaceOnUse"
   x1="1686.2605"
   y1="621.52301"
   x2="1686.2605"
   y2="1107.0487">
							<stop
   offset="0"
   style="stop-color:#FFFFFF"
   id="stop717" />
							<stop
   offset="1"
   style="stop-color:#8E857E"
   id="stop719" />
						</linearGradient>
						<path
   class="st51"
   d="m 1693.8,911.6 h -15.1 c -35,0 -63.4,-28.4 -63.4,-63.4 V 620.6 c 0,-35 28.4,-63.4 63.4,-63.4 h 15.1 c 35,0 63.4,28.4 63.4,63.4 v 227.7 c 0,34.9 -28.5,63.3 -63.4,63.3 z m -15.1,-325.7 c -19.1,0 -34.7,15.6 -34.7,34.7 v 227.7 c 0,19.1 15.6,34.7 34.7,34.7 h 15.1 c 19.1,0 34.7,-15.6 34.7,-34.7 V 620.6 c 0,-19.1 -15.6,-34.7 -34.7,-34.7 z"
   id="path722"
   style="fill:url(#SVGID_31_)" />
					</g>
					<linearGradient
   id="SVGID_32_"
   gradientUnits="userSpaceOnUse"
   x1="1815.9659"
   y1="757.55402"
   x2="1815.9659"
   y2="-64.814697">
						<stop
   offset="0"
   style="stop-color:#FFFFFF"
   id="stop726" />
						<stop
   offset="1"
   style="stop-color:#87C3D5"
   id="stop728" />
					</linearGradient>
					<path
   class="st52"
   d="m 1982.1,452.8 c 0,-163.4 -132.4,-295.8 -295.8,-295.8 -12.3,0 -24.5,0.8 -36.4,2.2 115.2,17.9 204.5,142.5 204.5,293.6 0,72.4 -20.5,138.7 -54.5,190.1 v 0 c -0.6,0.9 -1.1,1.7 -1.7,2.6 -0.3,0.4 -0.5,0.8 -0.8,1.2 -42.5,63.3 -68.3,128.2 -70,171.2 h 93.6 c 2.1,-43 34.8,-107.9 88.8,-171.2 0.3,-0.4 0.7,-0.8 1,-1.2 0.7,-0.9 1.4,-1.7 2.2,-2.6 v 0 c 43.1,-51.5 69.1,-117.8 69.1,-190.1 z"
   id="path731"
   style="fill:url(#SVGID_32_)" />
					<defs
   id="defs738">
						<filter
   id="Adobe_OpacityMaskFilter_2_"
   filterUnits="userSpaceOnUse"
   x="1376.1"
   y="161"
   width="620.29999"
   height="597.90002">
							<feFlood
   result="back"
   id="feFlood733" />
							<feBlend
   in="SourceGraphic"
   in2="back"
   mode="normal"
   id="feBlend735" />
						</filter>
					</defs>
					<mask
   maskUnits="userSpaceOnUse"
   x="1376.1"
   y="161"
   width="620.3"
   height="597.9"
   id="mask759">
						<g
   class="st53"
   id="g757">
							<defs
   id="defs745">
								<filter
   id="Adobe_OpacityMaskFilter_3_"
   filterUnits="userSpaceOnUse"
   x="1376.1"
   y="161"
   width="620.29999"
   height="597.90002">
									<feFlood
   result="back"
   id="feFlood740" />
									<feBlend
   in="SourceGraphic"
   in2="back"
   mode="normal"
   id="feBlend742" />
								</filter>
							</defs>
							<mask
   maskUnits="userSpaceOnUse"
   x="1376.1"
   y="161"
   width="620.3"
   height="597.9"
   id="SVGID_33_">
								<g
   class="st54"
   id="g747">
								</g>
							</mask>
							<linearGradient
   id="SVGID_34_"
   gradientUnits="userSpaceOnUse"
   x1="3783.5479"
   y1="-85.8591"
   x2="722.00958"
   y2="699.58948">
								<stop
   offset="0"
   style="stop-color:#808080"
   id="stop750" />
								<stop
   offset="1"
   style="stop-color:#1A1A1A"
   id="stop752" />
							</linearGradient>
							<path
   class="st55"
   d="m 1996.3,444.1 -502.1,268.3 c 10.4,16 19.1,31.7 25.9,46.5 L 1991.6,507 c 3.2,-17.8 4.8,-35.9 4.8,-54.2 0,-2.9 0,-5.8 -0.1,-8.7 z m -90.7,-210.6 c -32.7,-32.7 -71.4,-57.2 -113.6,-72.4 l -407,217.3 c -5.9,24 -8.9,48.9 -8.9,74.3 0,31 4.7,61.6 13.7,90.9 l 536.9,-286.8 c -6.6,-8.1 -13.7,-15.9 -21.1,-23.3 z m 43.6,54.6 -545.9,291.6 c 11.5,25.7 26.6,49.9 44.8,71.8 0.2,0.2 0.3,0.4 0.5,0.6 0,0 3,3.5 3.2,3.8 3.7,4.3 7.2,8.6 10.7,13 l 526.9,-281.5 c -7.4,-35.3 -21,-68.8 -40.2,-99.3 z"
   mask="url(#SVGID_33_)"
   id="path755" />
						</g>
					</mask>
					<linearGradient
   id="SVGID_35_"
   gradientUnits="userSpaceOnUse"
   x1="3783.5479"
   y1="-85.8591"
   x2="722.00958"
   y2="699.58948">
						<stop
   offset="0"
   style="stop-color:#FFFFFF"
   id="stop761" />
						<stop
   offset="1"
   style="stop-color:#FFFFFF"
   id="stop763" />
					</linearGradient>
					<path
   class="st56"
   d="m 1996.3,444.1 -502.1,268.3 c 10.4,16 19.1,31.7 25.9,46.5 L 1991.6,507 c 3.2,-17.8 4.8,-35.9 4.8,-54.2 0,-2.9 0,-5.8 -0.1,-8.7 z m -90.7,-210.6 c -32.7,-32.7 -71.4,-57.2 -113.6,-72.4 l -407,217.3 c -5.9,24 -8.9,48.9 -8.9,74.3 0,31 4.7,61.6 13.7,90.9 l 536.9,-286.8 c -6.6,-8.1 -13.7,-15.9 -21.1,-23.3 z m 43.6,54.6 -545.9,291.6 c 11.5,25.7 26.6,49.9 44.8,71.8 0.2,0.2 0.3,0.4 0.5,0.6 0,0 3,3.5 3.2,3.8 3.7,4.3 7.2,8.6 10.7,13 l 526.9,-281.5 c -7.4,-35.3 -21,-68.8 -40.2,-99.3 z"
   id="path766"
   style="fill:url(#SVGID_35_)" />
					<linearGradient
   id="SVGID_36_"
   gradientUnits="userSpaceOnUse"
   x1="1686.2614"
   y1="365.38611"
   x2="1686.2614"
   y2="776.60699">
						<stop
   offset="0"
   style="stop-color:#FFFFFF"
   id="stop768" />
						<stop
   offset="1"
   style="stop-color:#B6E4EE"
   id="stop770" />
					</linearGradient>
					<path
   class="st57"
   d="m 1551.6,832.1 c -7.6,0 -13.9,-6 -14.3,-13.6 -2,-40.9 -34.7,-103.2 -85.3,-162.6 -0.2,-0.2 -3.2,-3.8 -3.2,-3.8 -0.2,-0.2 -0.3,-0.4 -0.5,-0.6 -46.5,-55.6 -72.1,-126.2 -72.1,-198.8 0,-82.8 32.3,-160.7 90.8,-219.3 58.6,-58.6 136.5,-90.8 219.3,-90.8 82.8,0 160.7,32.3 219.3,90.8 58.6,58.5 90.8,136.5 90.8,219.3 0,72.6 -25.6,143.1 -72.1,198.8 -0.2,0.2 -0.3,0.4 -0.5,0.6 0,0 -3,3.5 -3.2,3.8 -50.6,59.4 -83.3,121.7 -85.3,162.6 -0.4,7.6 -6.7,13.6 -14.3,13.6 z"
   id="path773"
   style="fill:url(#SVGID_36_)" />
				</g>
				<g
   id="g805">
					<linearGradient
   id="SVGID_37_"
   gradientUnits="userSpaceOnUse"
   x1="1686.2614"
   y1="1434.036"
   x2="1686.2614"
   y2="1291.9297">
						<stop
   offset="0"
   style="stop-color:#FE9E1A"
   id="stop777" />
						<stop
   offset="1"
   style="stop-color:#FF5B00"
   id="stop779" />
					</linearGradient>
					<path
   class="st58"
   d="m 1575.7,1346.7 104.6,118.2 c 3.3,3.7 8.7,3.7 12,0 l 104.6,-118.2 z"
   id="path782"
   style="fill:url(#SVGID_37_)" />
					<linearGradient
   id="SVGID_38_"
   gradientUnits="userSpaceOnUse"
   x1="1686.2614"
   y1="1107.8234"
   x2="1686.2614"
   y2="1439.6364">
						<stop
   offset="0"
   style="stop-color:#76469F"
   id="stop784" />
						<stop
   offset="1"
   style="stop-color:#643E9A"
   id="stop786" />
					</linearGradient>
					<polygon
   class="st59"
   points="1575.7,1346.7 1575.7,1346.7 1575.7,1346.7 1594.6,1368.1 1607.7,1353.3 1620.8,1368.1 1633.9,1353.3 1647,1368.1 1660.1,1353.3 1673.2,1368.1 1686.3,1353.3 1699.4,1368.1 1712.5,1353.3 1725.6,1368.1 1738.7,1353.3 1751.8,1368.1 1764.9,1353.3 1778,1368.1 1796.8,1346.7 1796.8,1346.7 1796.8,1346.7 1796.8,1049.7 1575.7,1049.7 "
   id="polygon789"
   style="fill:url(#SVGID_38_)" />
					<linearGradient
   id="SVGID_39_"
   gradientUnits="userSpaceOnUse"
   x1="1686.2623"
   y1="1340.7175"
   x2="1686.2623"
   y2="1486.4253">
						<stop
   offset="0"
   style="stop-color:#0A0E1A"
   id="stop791" />
						<stop
   offset="1"
   style="stop-color:#040F2C"
   id="stop793" />
					</linearGradient>
					<path
   class="st60"
   d="m 1660.3,1442.3 20,22.6 c 3.3,3.7 8.7,3.7 12,0 l 20,-22.6 z"
   id="path796"
   style="fill:url(#SVGID_39_)" />
					<linearGradient
   id="SVGID_40_"
   gradientUnits="userSpaceOnUse"
   x1="1686.2614"
   y1="1368.442"
   x2="1686.2614"
   y2="747.32599">
						<stop
   offset="0"
   style="stop-color:#FFFFFF"
   id="stop798" />
						<stop
   offset="1"
   style="stop-color:#8E857E"
   id="stop800" />
					</linearGradient>
					<path
   class="st61"
   d="m 1646.7,1367.8 0.2,0.3 13.1,-14.8 13.1,14.8 13.1,-14.8 13.1,14.8 13.1,-14.8 12.9,14.5 v -318.1 h -78.6 z m 150.1,-318.1 h -19.6 v 317.6 l 0.7,0.8 18.9,-21.3 v 0 0 z m -221.1,297 v 0 0 l 18.9,21.3 0.2,-0.3 v -318.1 h -19.1 z"
   id="path803"
   style="fill:url(#SVGID_40_)" />
				</g>
				<linearGradient
   id="SVGID_41_"
   gradientUnits="userSpaceOnUse"
   x1="1686.2614"
   y1="1226.328"
   x2="1686.2614"
   y2="929.94122">
					<stop
   offset="0"
   style="stop-color:#FFFFFF"
   id="stop807" />
					<stop
   offset="1"
   style="stop-color:#8E857E"
   id="stop809" />
				</linearGradient>
				<rect
   x="1575.7"
   y="1049.7"
   class="st62"
   width="221.2"
   height="182.2"
   id="rect812"
   style="fill:url(#SVGID_41_)" />
				<g
   id="g851">
					<linearGradient
   id="SVGID_42_"
   gradientUnits="userSpaceOnUse"
   x1="1683.0421"
   y1="927.09802"
   x2="1683.0421"
   y2="1087.7378">
						<stop
   offset="0"
   style="stop-color:#0A0E1A"
   id="stop814" />
						<stop
   offset="1"
   style="stop-color:#040F2C"
   id="stop816" />
					</linearGradient>
					<path
   class="st63"
   d="m 1807.6,1039 c 0,5.9 -4.8,10.7 -10.7,10.7 h -227.6 c -5.9,0 -10.7,-4.8 -10.7,-10.7 v -88.5 c 0,-5.9 4.8,-10.7 10.7,-10.7 h 227.6 c 5.9,0 10.7,4.8 10.7,10.7 z"
   id="path819"
   style="fill:url(#SVGID_42_)" />
					<linearGradient
   id="SVGID_43_"
   gradientUnits="userSpaceOnUse"
   x1="1683.0421"
   y1="1072.9503"
   x2="1683.0421"
   y2="990.42657">
						<stop
   offset="0"
   style="stop-color:#FFFFFF"
   id="stop821" />
						<stop
   offset="1"
   style="stop-color:#8E857E"
   id="stop823" />
					</linearGradient>
					<path
   class="st64"
   d="m 1796.8,1031.8 h -227.6 c -5.9,0 -10.7,-4.8 -10.7,-10.7 v 17.8 c 0,5.9 4.8,10.7 10.7,10.7 h 227.6 c 5.9,0 10.7,-4.8 10.7,-10.7 v -17.8 c 0.1,5.9 -4.8,10.7 -10.7,10.7 z"
   id="path826"
   style="fill:url(#SVGID_43_)" />
					<g
   id="g849">
						<linearGradient
   id="SVGID_44_"
   gradientUnits="userSpaceOnUse"
   x1="1686.2615"
   y1="779.16083"
   x2="1686.2615"
   y2="1059.761">
							<stop
   offset="0"
   style="stop-color:#63BCD8"
   id="stop828" />
							<stop
   offset="1"
   style="stop-color:#3D7EB8"
   id="stop830" />
						</linearGradient>
						<path
   class="st65"
   d="m 1847.8,974.2 c 0,10.5 -8.6,19.1 -19.1,19.1 h -284.8 c -10.5,0 -19.1,-8.6 -19.1,-19.1 V 820.4 c 0,-10.5 8.6,-19.1 19.1,-19.1 h 284.8 c 10.5,0 19.1,8.6 19.1,19.1 z"
   id="path833"
   style="fill:url(#SVGID_44_)" />
						<linearGradient
   id="SVGID_45_"
   gradientUnits="userSpaceOnUse"
   x1="1809.0492"
   y1="840.50092"
   x2="1143.8583"
   y2="1148.2469">
							<stop
   offset="0"
   style="stop-color:#FFFFFF"
   id="stop835" />
							<stop
   offset="1"
   style="stop-color:#8E857E"
   id="stop837" />
						</linearGradient>
						<path
   class="st66"
   d="m 1543.9,993.3 h 25.7 l 278.2,-80.4 v -28.4 l -322.7,93.3 c 1.7,8.8 9.5,15.5 18.8,15.5 z m -19.2,-63.5 v 28.4 l 323,-93.4 v -28.4 z m 211.2,63.5 111.9,-32.3 v -28.4 l -209.9,60.7 z m 92.8,0 c 8.1,0 15,-5.1 17.8,-12.2 l -42.3,12.2 z m -284.8,-192 c -8.1,0 -15,5.1 -17.8,12.2 l 42.3,-12.2 z m 284.8,0 H 1803 l -278.2,80.4 v 28.4 l 322.7,-93.3 c -1.8,-8.8 -9.6,-15.5 -18.8,-15.5 z m -192.1,0 -111.9,32.3 V 862 l 209.9,-60.7 z"
   id="path840"
   style="fill:url(#SVGID_45_)" />
						<linearGradient
   id="SVGID_46_"
   gradientUnits="userSpaceOnUse"
   x1="1686.2615"
   y1="934.36688"
   x2="1686.2615"
   y2="1094.3243">
							<stop
   offset="0"
   style="stop-color:#FFFFFF"
   id="stop842" />
							<stop
   offset="1"
   style="stop-color:#8E857E"
   id="stop844" />
						</linearGradient>
						<path
   class="st67"
   d="m 1828.7,973.2 h -284.8 c -10.5,0 -19.1,-8.6 -19.1,-19.1 v 20.1 c 0,10.5 8.6,19.1 19.1,19.1 h 284.8 c 10.5,0 19.1,-8.6 19.1,-19.1 v -20.1 c 0,10.5 -8.6,19.1 -19.1,19.1 z"
   id="path847"
   style="fill:url(#SVGID_46_)" />
					</g>
				</g>
			</g>
			<g
   id="g882">
				<g
   id="g859">
					<path
   class="st20"
   d="m 1827,812.8 c -3.2,-5.2 -14.8,-20.8 -19,-16.8 -3.2,3.1 -1.3,12.8 1.9,18.2 1.1,1.9 8.3,4.3 7.8,17.4 -0.4,9.4 13.9,8.9 13.9,8.9 0,0 2.1,-16.9 -4.6,-27.7 z"
   id="path855" />
					<path
   class="st20"
   d="m 2006.8,922.2 c -48.1,-2.7 -155.2,-47.3 -176.2,-55.9 -10.7,-4.4 -17.8,2.7 -39.1,-6.4 -7.9,-3.4 -16.2,-9.3 -17.9,-18.7 -1.7,-9.3 12.8,-32.6 22.9,-35.7 8.3,-2.5 35,16.5 38.2,36.7 11,6.9 125.5,29.7 157.9,36.5 14.6,3.1 44.6,-1.5 37.3,15.3 -8.5,19.4 -5.3,29.2 -23.1,28.2 z"
   id="path857" />
				</g>
				<g
   id="g880">
					<path
   class="st20"
   d="m 2038.3,857.5 c 0,0 -37.4,30.4 -46.8,41.4 -6.8,7.9 4.9,16.4 12,21.7 7.1,5.3 38.8,-4.2 61.7,-20.3 17.4,-12.3 -22.8,-43.3 -26.9,-42.8 z"
   id="path861" />
					
						<linearGradient
   id="SVGID_47_"
   gradientUnits="userSpaceOnUse"
   x1="-215.761"
   y1="3014.7043"
   x2="78.840103"
   y2="3202.2639"
   gradientTransform="matrix(0.5407,-0.8412,0.8412,0.5407,-543.2545,-847.5988)">
						<stop
   offset="0"
   style="stop-color:#FE1B00"
   id="stop863" />
						<stop
   offset="0.1597"
   style="stop-color:#FE2002"
   id="stop865" />
						<stop
   offset="0.3377"
   style="stop-color:#FE2E05"
   id="stop867" />
						<stop
   offset="0.5245"
   style="stop-color:#FE4409"
   id="stop869" />
						<stop
   offset="0.7173"
   style="stop-color:#FE620E"
   id="stop871" />
						<stop
   offset="0.913"
   style="stop-color:#FE8A15"
   id="stop873" />
						<stop
   offset="1"
   style="stop-color:#FE9E1B"
   id="stop875" />
					</linearGradient>
					<path
   class="st68"
   d="m 2158.5,770 c -36.1,17.3 -145.9,96.9 -145.9,96.9 0,0 -0.8,13.2 12.4,35.6 19.9,33.6 35.8,39.2 35.8,39.2 0,0 83.2,-36.3 136.6,-66.1 42.3,-23.6 56.5,-68.4 33.8,-98.5 -18.7,-24.7 -52.5,-16.8 -72.7,-7.1 z"
   id="path878"
   style="fill:url(#SVGID_47_)" />
				</g>
			</g>
		</g>
	</g>
</svg>
