<?xml version="1.0" encoding="utf-8"?>
<!-- Generator: Adobe Illustrator 23.0.2, SVG Export Plug-In . SVG Version: 6.00 Build 0)  -->
<svg version="1.1" id="Layer_1" xmlns="http://www.w3.org/2000/svg" xmlns:xlink="http://www.w3.org/1999/xlink" x="0px" y="0px"
	 viewBox="0 0 2700 1700" style="enable-background:new 0 0 2700 1700;" xml:space="preserve">
<style type="text/css">
	.st0{fill:url(#SVGID_1_);}
	.st1{fill:#FFFFFF;}
	.st2{fill:url(#SVGID_2_);}
	.st3{fill:url(#SVGID_3_);}
	.st4{opacity:0.3;fill:#FFFFFF;}
	.st5{fill:url(#SVGID_4_);}
	.st6{opacity:0.24;fill:url(#SVGID_5_);}
	.st7{opacity:0.24;fill:url(#SVGID_6_);}
	.st8{fill:url(#SVGID_7_);}
	.st9{opacity:0.13;}
	.st10{fill:url(#SVGID_8_);}
	.st11{fill:url(#SVGID_9_);}
	.st12{fill:url(#SVGID_10_);}
	.st13{fill:url(#SVGID_11_);}
	.st14{fill:url(#SVGID_12_);}
	.st15{fill:url(#SVGID_13_);}
	.st16{fill:url(#SVGID_14_);}
	.st17{fill:url(#SVGID_15_);}
	.st18{fill:url(#SVGID_16_);}
	.st19{opacity:0.26;fill:url(#SVGID_17_);}
	.st20{fill:url(#SVGID_18_);}
	.st21{fill:url(#SVGID_19_);}
	.st22{fill:url(#SVGID_20_);}
	.st23{fill:url(#SVGID_21_);}
	.st24{fill:url(#SVGID_22_);}
	.st25{fill:url(#SVGID_23_);}
	.st26{fill:url(#SVGID_24_);}
	.st27{fill:url(#SVGID_25_);}
	.st28{fill:url(#SVGID_26_);}
	.st29{fill:url(#SVGID_27_);}
	.st30{fill:url(#SVGID_28_);}
	.st31{fill:url(#SVGID_29_);}
	.st32{fill:url(#SVGID_30_);}
	.st33{fill:url(#SVGID_31_);}
	.st34{fill:url(#SVGID_32_);}
	.st35{fill:url(#SVGID_33_);}
	.st36{fill:url(#SVGID_34_);}
	.st37{fill:url(#SVGID_35_);}
</style>
<g>
	
		<radialGradient id="SVGID_1_" cx="-766.0701" cy="78.8168" r="5321.0679" gradientTransform="matrix(0.8738 -0.4862 0.4862 0.8738 -194.9472 221.5895)" gradientUnits="userSpaceOnUse">
		<stop  offset="0" style="stop-color:#E20081"/>
		<stop  offset="0.5464" style="stop-color:#FFB048"/>
		<stop  offset="1" style="stop-color:#FFFC9F"/>
	</radialGradient>
	<circle class="st0" cx="606.5" cy="460" r="156.6"/>
	<path class="st1" d="M636.9,382.6c-49.4-10.9-47.6,46.5-47.6,46.5s-47.8-31.7-64.6,16c-16.8,47.7,118.5,80.8,118.5,80.8
		S686.3,393.4,636.9,382.6z"/>
</g>
<radialGradient id="SVGID_2_" cx="253.3664" cy="9.068" r="2517.1743" gradientUnits="userSpaceOnUse">
	<stop  offset="5.562700e-04" style="stop-color:#7929B7"/>
	<stop  offset="5.013060e-02" style="stop-color:#7628B5"/>
	<stop  offset="1" style="stop-color:#310B7A"/>
</radialGradient>
<path class="st2" d="M2327.3,1643.2h-1541c0,0-30.7-228.8,153.4-198.1c184.1,30.7,276.2,129.3,271.8-35.1
	c-4.4-164.4,30.7-369.3,195.1-412.6c164.4-43.3,477.5-14.5,540.1,322.9s177.3-35.2,327.1,52.5c149.8,87.7,66.5,238.8,198,197.2
	s120.6,73.2,120.6,73.2H2327.3z"/>
<g>
	
		<radialGradient id="SVGID_3_" cx="640.2768" cy="2533.5845" r="1753.2372" gradientTransform="matrix(0.9853 -0.1704 0.1704 0.9853 1032.1724 -1707.6094)" gradientUnits="userSpaceOnUse">
		<stop  offset="5.562700e-04" style="stop-color:#FF3198"/>
		<stop  offset="0.4596" style="stop-color:#9E39FF"/>
		<stop  offset="1" style="stop-color:#310B7A"/>
	</radialGradient>
	<path class="st3" d="M2267.3,901.9l-596.9,678.7c-29.5-84-3.5-228.9,90.4-367.4c0.7-1,1.3-2,2-3c26.5-38.7,58.4-76.8,95.8-113
		c12.3-11.9,24.9-23.1,37.8-33.6c0.7-0.6,1.5-1.2,2.2-1.8c48.1-39,99.1-68.8,147.4-91.5c0.8-0.4,1.5-0.7,2.3-1.1
		C2166.3,914.3,2267.3,901.9,2267.3,901.9z"/>
	<path class="st4" d="M2071.5,1124.5l-2.1,2.4L2046,970.4c0.8-0.4,1.5-0.7,2.3-1.1L2071.5,1124.5z"/>
	<path class="st4" d="M1931.8,1283.4l-2.1,2.4l-33.3-222.1c0.7-0.6,1.5-1.2,2.2-1.8L1931.8,1283.4z"/>
	<path class="st4" d="M1796.8,1436.9l-2.1,2.4l-33.9-226c0.7-1,1.3-2,2-3L1796.8,1436.9z"/>
	
		<radialGradient id="SVGID_4_" cx="1584.3352" cy="3067.7109" r="1674.1571" gradientTransform="matrix(0.9853 -0.1704 0.1704 0.9853 1032.1724 -1707.6094)" gradientUnits="userSpaceOnUse">
		<stop  offset="5.562700e-04" style="stop-color:#FF3198"/>
		<stop  offset="0.4596" style="stop-color:#9E39FF"/>
		<stop  offset="1" style="stop-color:#310B7A"/>
	</radialGradient>
	<path class="st5" d="M2066.6,1402.2c-0.8,0.8-1.5,1.6-2.3,2.4l0,0c-63.6,66-133.5,113.5-199.7,143.1c-1.8,0.8-3.5,1.6-5.3,2.3
		c-71.9,31.2-139.2,41.2-189,30.6l596.9-678.7c0,0,0.4,72.1-23,169.1c-0.2,0.8-0.4,1.6-0.6,2.4c-12.5,50.9-31.6,108.6-60.8,166.1
		c-0.4,0.8-0.8,1.6-1.3,2.4c-15.6,30.5-34.1,60.9-56,90.3C2106.9,1357.5,2087.1,1380.8,2066.6,1402.2z"/>
	<path class="st4" d="M2243.7,1073.4l-125-2.6l2.1-2.4l123.4,2.6C2244.1,1071.8,2243.9,1072.6,2243.7,1073.4z"/>
	<path class="st4" d="M2181.6,1241.9l-209.5-4.4l2.1-2.4l208.7,4.3C2182.5,1240.3,2182.1,1241.1,2181.6,1241.9z"/>
	<path class="st4" d="M2066.6,1402.2c-0.8,0.8-1.5,1.6-2.3,2.4l0,0l-234.8-4.9l2.1-2.4L2066.6,1402.2z"/>
	<path class="st4" d="M1864.6,1547.7c-1.8,0.8-3.5,1.6-5.3,2.3l-159.2-3.3l2.1-2.4L1864.6,1547.7z"/>
</g>
<radialGradient id="SVGID_5_" cx="1471.3274" cy="129.1872" r="959.4725" gradientUnits="userSpaceOnUse">
	<stop  offset="5.562700e-04" style="stop-color:#7929B7"/>
	<stop  offset="5.013060e-02" style="stop-color:#7628B5"/>
	<stop  offset="1" style="stop-color:#310B7A"/>
</radialGradient>
<path class="st6" d="M1736.2,276.1c0,0.7-0.1,1.3-0.2,1.9h-148.3c-0.8-2.3-1.2-4.7-1.2-7.3c0-10,6.8-18.5,16-21.1
	c-0.8-1.5-1.2-3.2-1.2-4.9c0-6,4.9-10.9,10.9-10.9c1.8,0,3.5,0.4,4.9,1.2c6.6-12.7,19.8-21.4,35.1-21.4c16.8,0,31.2,10.5,36.9,25.3
	c2.7-0.9,5.6-1.4,8.6-1.4c15.2,0,27.5,12.3,27.5,27.5C1731.3,265.1,1736.2,270,1736.2,276.1z"/>
<radialGradient id="SVGID_6_" cx="265.0593" cy="-105.6994" r="1779.2446" gradientUnits="userSpaceOnUse">
	<stop  offset="5.562700e-04" style="stop-color:#7929B7"/>
	<stop  offset="5.013060e-02" style="stop-color:#7628B5"/>
	<stop  offset="1" style="stop-color:#310B7A"/>
</radialGradient>
<path class="st7" d="M756.2,166.7c0,1.2-0.1,2.4-0.3,3.6H480.7c-1.5-4.2-2.3-8.7-2.3-13.4c0-18.6,12.5-34.3,29.6-39.1
	c-1.4-2.8-2.2-5.9-2.2-9.2c0-11.2,9.1-20.3,20.3-20.3c3.3,0,6.4,0.8,9.2,2.2c12.2-23.5,36.8-39.6,65.1-39.6
	c31.2,0,57.9,19.5,68.4,47c5-1.6,10.3-2.5,15.9-2.5c28.2,0,51.1,22.9,51.1,51.1C747.1,146.4,756.2,155.5,756.2,166.7z"/>
<radialGradient id="SVGID_7_" cx="2613.7842" cy="1339.21" r="1210.3411" gradientUnits="userSpaceOnUse">
	<stop  offset="5.562700e-04" style="stop-color:#7929B7"/>
	<stop  offset="5.013060e-02" style="stop-color:#7628B5"/>
	<stop  offset="1" style="stop-color:#310B7A"/>
</radialGradient>
<path class="st8" d="M1694.2,1649.7H974.4c0,0,18.7-143.5,153-116.4s170.7,29.8,234.1-104.5c63.4-134.3,322-205,501.2-21.8
	s223.9-104.8,384.4,242.6H1694.2z"/>
<g>
	<g>
		<rect x="1266.2" y="1269.2" class="st1" width="182.3" height="379.2"/>
		<rect x="1266.2" y="1473.5" class="st9" width="182.3" height="46.5"/>
		<path class="st1" d="M1851.2,1485.5H863.5c-39.8,0-72.4-32.6-72.4-72.4V794.4c0-39.8,32.6-72.4,72.4-72.4h987.7
			c39.8,0,72.4,32.6,72.4,72.4v618.7C1923.6,1452.9,1891,1485.5,1851.2,1485.5z"/>
		<radialGradient id="SVGID_8_" cx="625.7115" cy="310.2648" r="1907.9716" gradientUnits="userSpaceOnUse">
			<stop  offset="5.562700e-04" style="stop-color:#FF3198"/>
			<stop  offset="0.4596" style="stop-color:#9E39FF"/>
			<stop  offset="1" style="stop-color:#310B7A"/>
		</radialGradient>
		<path class="st10" d="M1842.5,1463H872.3c-32.4,0-59-26.5-59-59V799.9c0-32.4,26.5-59,59-59h970.2c32.4,0,59,26.5,59,59V1404
			C1901.5,1436.4,1874.9,1463,1842.5,1463z"/>
	</g>
	<g>
		<g>
			<path class="st1" d="M1398.8,1645.3c-19.7,0-38.9-2.3-57.2-6.9c-56.3-14.2-103.3-50.3-136-104.2
				c-45.4-74.9-85.9-112.4-139.9-129.1c-53.1-16.5-119.9-12.5-212.4-7c-86.8,5.2-194.9,11.6-339.6,5.1
				c-101.7-4.5-185.6-22.1-249.2-52.3c-56.2-26.6-97.2-63.2-121.8-108.7c-24-44.4-32.2-96-24.2-153.2c6.4-45.7,23.3-93.7,47.7-135
				c23.7-40.1,70-86.8,155.5-81.7c38.8,2.3,71.4,14.6,85,20.4c3.8,1.6,5.4,6.1,3.6,9.8l-3.1,6.1c0,0,0,0,0,0l0,0
				c-0.6-0.3-39.4-19.3-86.8-22.1c-62.7-3.7-110.4,21.5-141.9,74.7c-23.5,39.7-39.8,85.7-45.9,129.7c-7.5,54.2,0.1,102.8,22.7,144.5
				c23.2,42.8,62,77.3,115.4,102.6c61.9,29.4,144,46.5,243.8,51c144,6.4,251.6,0,338.2-5.1c94-5.6,161.9-9.6,217.5,7.6
				c56.9,17.7,101.1,58.1,147.8,135.3c69.5,114.7,188.2,119.7,276.1,86.2c47.2-18,88.7-47.7,116.8-83.6
				c19.7-25.2,41.3-64.3,35.2-110.5c-0.5-3.7,2.1-7.2,5.8-7.9l0,0c4.1-0.8,7.9,2.1,8.4,6.2c5.3,40.6-7.8,82.2-38.2,121
				c-29.7,37.9-73.4,69.2-123,88.2C1466,1639,1431.7,1645.3,1398.8,1645.3z"/>
		</g>
		<linearGradient id="SVGID_9_" gradientUnits="userSpaceOnUse" x1="189.4066" y1="666.062" x2="491.0326" y2="988.5558">
			<stop  offset="0" style="stop-color:#FFFAC0"/>
			<stop  offset="0.5439" style="stop-color:#FFC880"/>
			<stop  offset="1" style="stop-color:#EF6262"/>
		</linearGradient>
		<polygon class="st11" points="451.1,873.7 423.2,950.4 369.6,930.9 397.5,854.2 		"/>
		<g>
			
				<radialGradient id="SVGID_10_" cx="2786.1189" cy="5324.5215" r="3723.9294" gradientTransform="matrix(0.4024 -0.9155 0.9155 0.4024 -2393.981 582.0519)" gradientUnits="userSpaceOnUse">
				<stop  offset="0" style="stop-color:#E20081"/>
				<stop  offset="0.5464" style="stop-color:#FFB048"/>
				<stop  offset="1" style="stop-color:#FFFC9F"/>
			</radialGradient>
			<path class="st12" d="M913.9,501.2c-24-7.5-49.3-11.4-75.1-11.9c-26.8-0.8-53.7,2-79.9,8.4c0,0,0,0,0,0.1
				c-87.1,19.9-169,73.3-211.2,146.9c-5.8,10.1-11,20.5-15.7,31.1l-237,539.2c-4.7,10.7-8.8,21.6-12.3,32.7
				c-41,129.3,24.6,298.8,142.1,366.8c150.5,87.9,343.7,37.2,431.6-113.3c35.8-61.3,49.9-133,40-203.3c-5.9-36-3.1-72.9,8.2-107.6
				c0.6-1.9,1.3-3.8,2-5.7c0.3-0.8,0.6-1.7,0.9-2.5c0.7-1.9,1.5-3.9,2.2-5.8c1.4-3.6,2.9-7.2,4.5-10.8c3.4-7.8,7.1-15.5,11.1-22.9
				c7.9-14.2,17.2-27.4,27.8-39.5c13.6-15.5,29.4-29.2,46.8-40.6c143.5-98.9,179.6-295.4,80.6-438.9
				C1040.2,565.2,981.5,522.1,913.9,501.2z"/>
			<g>
				<path class="st1" d="M647.5,726.4c-14,31.9,0.5,69.1,32.4,83.2s69.1-0.5,83.2-32.4c0.7-1.6,1.4-3.3,1.9-5
					c0.1-0.3,0.2-0.6,0.3-0.8c0.1-0.5,0.3-0.9,0.4-1.4c0.2-0.6,0.4-1.2,0.5-1.7c0.1-0.3,0.1-0.6,0.2-0.9c0.2-0.7,0.4-1.5,0.5-2.2
					c0-0.2,0.1-0.4,0.1-0.6c0.2-0.8,0.3-1.7,0.5-2.5c0-0.1,0-0.2,0.1-0.3c0.1-0.9,0.3-1.9,0.4-2.8c0,0,0-0.1,0-0.1
					c0.6-4.9,0.5-10-0.1-15.2c-1.8-13.6-7.7-25.5-16.4-34.8c-0.1-0.2-0.3-0.3-0.4-0.5c-0.4-0.5-0.9-0.9-1.4-1.4
					c-0.3-0.3-0.6-0.6-1-0.9c-0.3-0.3-0.6-0.6-0.9-0.8c-0.5-0.4-1-0.9-1.5-1.3c-0.2-0.1-0.3-0.3-0.5-0.4c-0.6-0.5-1.3-1.1-2-1.6
					c0,0,0,0,0,0c-4-3.1-8.4-5.7-13.2-7.8C698.8,680,661.5,694.5,647.5,726.4z"/>
				
					<radialGradient id="SVGID_11_" cx="859.1194" cy="2757.5615" r="1857.0615" gradientTransform="matrix(0.4024 -0.9155 0.9155 0.4024 -2393.981 582.0519)" gradientUnits="userSpaceOnUse">
					<stop  offset="0" style="stop-color:#E20081"/>
					<stop  offset="0.5464" style="stop-color:#FFB048"/>
					<stop  offset="1" style="stop-color:#FFFC9F"/>
				</radialGradient>
				<circle class="st13" cx="880.1" cy="667.7" r="63.1"/>
				
					<radialGradient id="SVGID_12_" cx="353.3783" cy="2638.3142" r="2754.26" gradientTransform="matrix(0.4024 -0.9155 0.9155 0.4024 -2393.981 582.0519)" gradientUnits="userSpaceOnUse">
					<stop  offset="0" style="stop-color:#E20081"/>
					<stop  offset="0.5464" style="stop-color:#FFB048"/>
					<stop  offset="1" style="stop-color:#FFFC9F"/>
				</radialGradient>
				<path class="st14" d="M806,892.6c-0.3-0.3-0.6-0.6-1-0.9c-0.3-0.3-0.6-0.6-0.9-0.8c-0.5-0.4-1-0.9-1.5-1.3
					c-0.2-0.1-0.3-0.3-0.5-0.4c-0.6-0.5-1.3-1.1-2-1.6c0,0,0,0,0,0c-4-3.1-8.4-5.7-13.2-7.8c-31.9-14-69.1,0.5-83.2,32.4
					c-14,31.9,0.5,69.1,32.4,83.2c31.9,14,69.1-0.5,83.2-32.4c0.7-1.6,1.4-3.3,1.9-5c0.1-0.3,0.2-0.6,0.3-0.8
					c0.1-0.5,0.3-0.9,0.4-1.4c0.2-0.6,0.4-1.1,0.5-1.7c0.1-0.3,0.2-0.6,0.2-0.9c0.2-0.7,0.4-1.5,0.5-2.2c0-0.2,0.1-0.4,0.1-0.6
					c0.2-0.8,0.3-1.7,0.5-2.5c0-0.1,0-0.2,0.1-0.4c0.1-0.9,0.3-1.8,0.4-2.8c0,0,0-0.1,0-0.1c0.6-4.9,0.5-10-0.1-15.2
					c-1.8-13.6-7.7-25.5-16.4-34.8c-0.1-0.2-0.3-0.3-0.4-0.5C806.9,893.5,806.4,893,806,892.6z"/>
				<path class="st1" d="M980.8,808.6c-0.3-0.3-0.6-0.6-1-0.9c-0.3-0.3-0.6-0.6-0.9-0.8c-0.5-0.4-1-0.9-1.5-1.3
					c-0.2-0.1-0.3-0.3-0.5-0.4c-0.6-0.5-1.3-1.1-2-1.6c0,0,0,0,0,0c-4-3.1-8.4-5.7-13.2-7.8c-31.9-14-69.1,0.5-83.2,32.4
					c-14,31.9,0.5,69.1,32.4,83.2c31.9,14,69.1-0.5,83.2-32.4c0.7-1.6,1.4-3.3,1.9-5c0.1-0.3,0.2-0.6,0.3-0.8
					c0.1-0.5,0.3-0.9,0.4-1.4c0.2-0.6,0.4-1.2,0.5-1.7c0.1-0.3,0.1-0.6,0.2-0.9c0.2-0.7,0.4-1.5,0.5-2.2c0-0.2,0.1-0.4,0.1-0.6
					c0.2-0.8,0.3-1.7,0.5-2.5c0-0.1,0-0.2,0.1-0.3c0.1-0.9,0.3-1.9,0.4-2.8c0,0,0-0.1,0-0.1c0.6-4.9,0.5-10-0.1-15.2
					c-1.8-13.6-7.7-25.5-16.4-34.8c-0.1-0.2-0.3-0.3-0.4-0.5C981.7,809.5,981.2,809,980.8,808.6z"/>
			</g>
			<path class="st1" d="M576.1,1254.9l-28.2,64.2l-77.5-34.1c-10.4-4.6-22.5,0.2-27.1,10.5L426,1335c-4.6,10.4,0.2,22.5,10.5,27.1
				l77.5,34.1l-34.1,77.5c-4.6,10.4,0.2,22.5,10.5,27.1l39.4,17.3l0,0c10.4,4.6,22.5-0.2,27.1-10.5L591,1430l77.5,34.1
				c10.4,4.6,22.5-0.2,27.1-10.5l17.3-39.4c4.6-10.4-0.2-22.5-10.5-27.1l-77.5-34.1l34.1-77.5c4.6-10.4-0.2-22.5-10.5-27.1
				l-39.4-17.3c-10.4-4.6-22.5,0.2-27.1,10.5L576.1,1254.9z"/>
		</g>
		<g>
			<linearGradient id="SVGID_13_" gradientUnits="userSpaceOnUse" x1="1326.0847" y1="649.3638" x2="1405.7235" y2="711.0765">
				<stop  offset="0" style="stop-color:#3EA8FF"/>
				<stop  offset="1" style="stop-color:#5E4AED"/>
			</linearGradient>
			<polygon class="st15" points="1383.1,688.1 1410.6,702.3 1378.2,702.3 1374.1,684.9 			"/>
			<g>
				
					<radialGradient id="SVGID_14_" cx="3199.5266" cy="1805.1809" r="1107.1318" gradientTransform="matrix(0.7085 0 0 1.099 -1169.8607 -222.1716)" gradientUnits="userSpaceOnUse">
					<stop  offset="0" style="stop-color:#E20081"/>
					<stop  offset="0.5464" style="stop-color:#FFB048"/>
					<stop  offset="1" style="stop-color:#FFFC9F"/>
				</radialGradient>
				<path class="st16" d="M1314.8,1619.6c0,0,7.1,15.6,6.2,32.6h-16.5l-3.5-5l-3,5c0,0-39.6,11.2-53,1.2s37.6-17,44-33.8
					C1295.5,1602.7,1314.8,1619.6,1314.8,1619.6z"/>
				
					<radialGradient id="SVGID_15_" cx="3399.0723" cy="1805.1809" r="1107.1309" gradientTransform="matrix(0.7085 0 0 1.099 -1169.8607 -222.1716)" gradientUnits="userSpaceOnUse">
					<stop  offset="0" style="stop-color:#E20081"/>
					<stop  offset="0.5464" style="stop-color:#FFB048"/>
					<stop  offset="1" style="stop-color:#FFFC9F"/>
				</radialGradient>
				<path class="st17" d="M1456.2,1619.6c0,0,7.1,15.6,6.2,32.6h-16.5l-3.5-5l-3,5c0,0-39.6,11.2-53,1.2c-13.4-10,37.6-17,44-33.8
					C1436.9,1602.7,1456.2,1619.6,1456.2,1619.6z"/>
				
					<linearGradient id="SVGID_16_" gradientUnits="userSpaceOnUse" x1="1333.2609" y1="830.8146" x2="2138.9619" y2="1799.1487" gradientTransform="matrix(1 0 0 1 -424.472 0)">
					<stop  offset="0" style="stop-color:#3EA8FF"/>
					<stop  offset="1" style="stop-color:#5E4AED"/>
				</linearGradient>
				<path class="st18" d="M1462.5,1616c-13.7,11.9-25.2,11.5-33.2,8.3c-7.5-3-11.8-8.3-11.8-8.3c-56.9-190.7-74.3-413.3-74.3-413.3
					c-45.1,80.5-18.4,413.3-18.4,413.3c-14.6,16.8-42.4,0-42.4,0c-26.1-262-22.6-405.3-16-476.9c4.1-44.8,9.4-61.5,9.4-61.5
					l67.4-46.9c0,0,15.9,12.1,34.1,29.8c24.4,23.8,52.9,57.9,52.1,86.4C1425.2,1305.6,1462.5,1616,1462.5,1616z"/>
				
					<linearGradient id="SVGID_17_" gradientUnits="userSpaceOnUse" x1="2309.9878" y1="1773.256" x2="1793.4121" y2="1311.7814" gradientTransform="matrix(1 0 0 1 -424.472 0)">
					<stop  offset="0" style="stop-color:#3EA8FF"/>
					<stop  offset="1" style="stop-color:#5E4AED"/>
				</linearGradient>
				<path class="st19" d="M1462.5,1616c-13.7,11.9-25.2,11.5-33.2,8.3c-26.4-112.2-4.8-439.5-48-452.7c-26.1-7.9-65-29.2-88.6-35.7
					c-13.3-3.7-25.4-27.3-14.1-35.3l98.6-40c24.4,23.8,52.9,57.9,52.1,86.4C1425.2,1305.6,1462.5,1616,1462.5,1616z"/>
			</g>
			<g>
				
					<linearGradient id="SVGID_18_" gradientUnits="userSpaceOnUse" x1="2115.1904" y1="1329.3917" x2="1913.8262" y2="1060.906" gradientTransform="matrix(0.9888 -0.149 0.149 0.9888 -732.9076 -39.7434)">
					<stop  offset="0" style="stop-color:#FFFAC0"/>
					<stop  offset="0.5439" style="stop-color:#FFC880"/>
					<stop  offset="1" style="stop-color:#EF6262"/>
				</linearGradient>
				<path class="st20" d="M1374.2,694.7c0,0,18.7,103.3,7,133.7c0,0-38.5,27.8-50.5-9.6l13-93.7
					C1343.6,725.2,1362.9,665.8,1374.2,694.7z"/>
				<g>
					
						<linearGradient id="SVGID_19_" gradientUnits="userSpaceOnUse" x1="1911.5703" y1="990.5381" x2="1983.0016" y2="1103.2408" gradientTransform="matrix(0.9888 -0.149 0.149 0.9888 -732.9076 -39.7434)">
						<stop  offset="0" style="stop-color:#FFFAC0"/>
						<stop  offset="0.5439" style="stop-color:#FFC880"/>
						<stop  offset="1" style="stop-color:#EF6262"/>
					</linearGradient>
					<path class="st21" d="M1330.5,689.9c0,0-8.4,64.7,23,60.7c31.3-3.9,24.5-65.2,11.3-78.2
						C1351.6,659.5,1331.5,669.5,1330.5,689.9z"/>
					<radialGradient id="SVGID_20_" cx="1364.6609" cy="721.1859" r="154.236" gradientUnits="userSpaceOnUse">
						<stop  offset="0" style="stop-color:#E20081"/>
						<stop  offset="0.5464" style="stop-color:#FFB048"/>
						<stop  offset="1" style="stop-color:#FFFC9F"/>
					</radialGradient>
					<path class="st22" d="M1355.3,667.1c0,0-4-11.3-20.1-5.5c-0.2,0.1,5.9,2.1,5.7,2.2c-11,3.9-13.5,18.4-1.9,17
						c6-0.7,13.5-2.7,22.9-6.4c0,0-7.2,2.9,15.8,41.8C1377.6,716.3,1389.6,659.4,1355.3,667.1z"/>
				</g>
				
					<linearGradient id="SVGID_21_" gradientUnits="userSpaceOnUse" x1="1830.5481" y1="661.3637" x2="1775.717" y2="728.0118" gradientTransform="matrix(1 0 0 1 -424.472 0)">
					<stop  offset="0" style="stop-color:#FFFAC0"/>
					<stop  offset="0.5439" style="stop-color:#FFC880"/>
					<stop  offset="1" style="stop-color:#EF6262"/>
				</linearGradient>
				<path class="st23" d="M1368.3,699.2c0,0-4.6-9.1,4.9-7.7c9.5,1.4,2.7,21.7,2.7,21.7S1368.9,705.4,1368.3,699.2z"/>
			</g>
			
				<radialGradient id="SVGID_22_" cx="2027.979" cy="1203.1605" r="1488.8042" gradientTransform="matrix(1 0 0 1 -424.472 0)" gradientUnits="userSpaceOnUse">
				<stop  offset="0" style="stop-color:#E20081"/>
				<stop  offset="0.5464" style="stop-color:#FFB048"/>
				<stop  offset="1" style="stop-color:#FFFC9F"/>
			</radialGradient>
			<path class="st24" d="M1334.3,792.7c0,0,16.8,22,50.7,0l87.4,40.4c0,0-62.8,178.2-53.6,236.3c9.3,58.6,7.4,58.9,7.4,58.9
				s-146.9,40.5-162-20l-2.6-315.6H1334.3z"/>
			<linearGradient id="SVGID_23_" gradientUnits="userSpaceOnUse" x1="1285.3273" y1="615.1524" x2="1497.1896" y2="801.3632">
				<stop  offset="0" style="stop-color:#3EA8FF"/>
				<stop  offset="1" style="stop-color:#5E4AED"/>
			</linearGradient>
			<path class="st25" d="M1329.5,686.8l53.6,1.3c0,0,9.6-24.2-19.7-31.6C1334.1,649.2,1321.6,670.5,1329.5,686.8z"/>
			<radialGradient id="SVGID_24_" cx="1337.2159" cy="693.0586" r="72.3781" gradientUnits="userSpaceOnUse">
				<stop  offset="0" style="stop-color:#E20081"/>
				<stop  offset="0.5464" style="stop-color:#FFB048"/>
				<stop  offset="1" style="stop-color:#FFFC9F"/>
			</radialGradient>
			<path class="st26" d="M1344.4,681.1l-23.2,10.3c0,0,2.1-10.1,11.6-12.1l-11.6,1.1C1321.2,680.4,1331.2,661.2,1344.4,681.1z"/>
			<radialGradient id="SVGID_25_" cx="1228.6127" cy="729.3881" r="564.1614" gradientUnits="userSpaceOnUse">
				<stop  offset="0" style="stop-color:#E20081"/>
				<stop  offset="0.5464" style="stop-color:#FFB048"/>
				<stop  offset="1" style="stop-color:#FFFC9F"/>
			</radialGradient>
			<path class="st27" d="M1261.7,792.7l-171-7.5c0,0-20.2,72.7,173.6,88.2L1261.7,792.7z"/>
			<radialGradient id="SVGID_26_" cx="983.0534" cy="670.1203" r="745.7392" gradientUnits="userSpaceOnUse">
				<stop  offset="0" style="stop-color:#E20081"/>
				<stop  offset="0.5464" style="stop-color:#FFB048"/>
				<stop  offset="1" style="stop-color:#FFFC9F"/>
			</radialGradient>
			<path class="st28" d="M1194.6,906.8l-19.2,7.4c-30.1-17.6-111-71.4-84.7-128.9C1090.7,785.2,1178.1,846.3,1194.6,906.8z"/>
			<linearGradient id="SVGID_27_" gradientUnits="userSpaceOnUse" x1="1144.856" y1="890.2067" x2="1228.8093" y2="974.7199">
				<stop  offset="0" style="stop-color:#FFFAC0"/>
				<stop  offset="0.5439" style="stop-color:#FFC880"/>
				<stop  offset="1" style="stop-color:#EF6262"/>
			</linearGradient>
			<path class="st29" d="M1206.9,932.5v39.5c0,0-4.7-6.4-2.4-19.4l-5.9,19.4c0,0-2.8-7.9,0.8-16.2l-7.7,13.4c0,0-0.2-9.2,5.1-16.6
				l-10.6,12.8c0,0,0.7-13.8,10.7-17.6l-8.5-22.1l-2.2-5.6c0,0-4.2-2.1-10.8-6l19.2-7.4c0.6,2.3,1.1,4.5,1.6,6.8l4.3,7.6
				L1206.9,932.5z"/>
			<radialGradient id="SVGID_28_" cx="1238.2031" cy="918.9456" r="146.1945" gradientUnits="userSpaceOnUse">
				<stop  offset="0" style="stop-color:#E20081"/>
				<stop  offset="0.5464" style="stop-color:#FFB048"/>
				<stop  offset="1" style="stop-color:#FFFC9F"/>
			</radialGradient>
			<polygon class="st30" points="1211.7,916.8 1200.4,921.1 1188.4,925.8 1180.1,929 1174.6,914.5 1175.4,914.1 1194.6,906.8 
				1206.2,902.3 			"/>
		</g>
		<g>
			
				<linearGradient id="SVGID_29_" gradientUnits="userSpaceOnUse" x1="2113.4158" y1="1785.14" x2="2093.3599" y2="1807.72" gradientTransform="matrix(0.8842 -0.4672 0.4672 0.8842 -915.7104 243.2014)">
				<stop  offset="0" style="stop-color:#FFFAC0"/>
				<stop  offset="0.5439" style="stop-color:#FFC880"/>
				<stop  offset="1" style="stop-color:#EF6262"/>
			</linearGradient>
			<path class="st31" d="M1786.8,845.8l-2.2-7c0,0-6.9,10.1-1.7,17.7L1786.8,845.8z"/>
			<linearGradient id="SVGID_30_" gradientUnits="userSpaceOnUse" x1="1795.9536" y1="837.2912" x2="1775.897" y2="859.8721">
				<stop  offset="0" style="stop-color:#FFFAC0"/>
				<stop  offset="0.5439" style="stop-color:#FFC880"/>
				<stop  offset="1" style="stop-color:#EF6262"/>
			</linearGradient>
			<path class="st32" d="M1790.4,847.4l1.3-7.3c0,0-10.9,5.7-9.8,14.8L1790.4,847.4z"/>
			
				<linearGradient id="SVGID_31_" gradientUnits="userSpaceOnUse" x1="1539.4031" y1="489.4529" x2="1456.5721" y2="582.7083" gradientTransform="matrix(0.9802 0.1981 -0.1981 0.9802 391.9349 36.449)">
				<stop  offset="0" style="stop-color:#FFFAC0"/>
				<stop  offset="0.5439" style="stop-color:#FFC880"/>
				<stop  offset="1" style="stop-color:#EF6262"/>
			</linearGradient>
			<path class="st33" d="M1720.3,864.8l14.8-16.3l47.8,5.1c0,0,1.8-7.7,13.5-8.5l-12,15.1l-45.9,1.1l-5.2,16.4L1720.3,864.8z"/>
			<radialGradient id="SVGID_32_" cx="1220.97" cy="819.7661" r="1287.5656" gradientUnits="userSpaceOnUse">
				<stop  offset="0" style="stop-color:#E20081"/>
				<stop  offset="0.5464" style="stop-color:#FFB048"/>
				<stop  offset="1" style="stop-color:#FFFC9F"/>
			</radialGradient>
			<path class="st34" d="M1472.2,832.9L1595,956.7c0,0,51.6-87.2,125.9-94.8l19.4,12.7l-138.6,129.3l-154.9-90.7
				C1446.8,913.1,1450,844.4,1472.2,832.9z"/>
		</g>
	</g>
</g>
<g>
	<radialGradient id="SVGID_33_" cx="1442.5468" cy="767.0903" r="1808.1868" gradientUnits="userSpaceOnUse">
		<stop  offset="0" style="stop-color:#E20081"/>
		<stop  offset="0.5464" style="stop-color:#FFB048"/>
		<stop  offset="1" style="stop-color:#FFFC9F"/>
	</radialGradient>
	<circle class="st35" cx="1901.5" cy="943.5" r="53.2"/>
	<path class="st1" d="M1923.3,925.6c-12.9-11.4-21.8,5.9-21.8,5.9s-9-17.3-21.8-5.9c-12.9,11.4,21.8,43.6,21.8,43.6
		S1936.2,937,1923.3,925.6z"/>
</g>
<g>
	<radialGradient id="SVGID_34_" cx="1512.0735" cy="712.0077" r="1348.8318" gradientUnits="userSpaceOnUse">
		<stop  offset="0" style="stop-color:#E20081"/>
		<stop  offset="0.5464" style="stop-color:#FFB048"/>
		<stop  offset="1" style="stop-color:#FFFC9F"/>
	</radialGradient>
	<circle class="st36" cx="1755.1" cy="608.4" r="215.2"/>
</g>
<g>
	
		<radialGradient id="SVGID_35_" cx="5039.0864" cy="601.4858" r="2758.6265" gradientTransform="matrix(1 0 0 1 -3223.4346 0)" gradientUnits="userSpaceOnUse">
		<stop  offset="0" style="stop-color:#E20081"/>
		<stop  offset="0.5464" style="stop-color:#FFB048"/>
		<stop  offset="1" style="stop-color:#FFFC9F"/>
	</radialGradient>
	<path class="st37" d="M1381.9,110.6h-374.6c-51.2,0-93.1,41.9-93.1,93.1v112.8c0,51.2,41.9,93.1,93.1,93.1h232.9l89.9,89.9v-89.9
		h51.8c51.2,0,93.1-41.9,93.1-93.1V203.7C1475,152.5,1433.1,110.6,1381.9,110.6z"/>
	<g>
		<circle class="st1" cx="1095.3" cy="262.1" r="22.3"/>
		<circle class="st1" cx="1194.6" cy="262.1" r="22.3"/>
		<circle class="st1" cx="1293.9" cy="262.1" r="22.3"/>
	</g>
</g>
<path class="st1" d="M1871.9,521.1c-68.6-61.2-116.8,31.3-116.8,31.3s-47.5-92.8-116.6-32.3c-69.1,60.6,115.7,233.4,115.7,233.4
	S1940.5,582.3,1871.9,521.1z"/>
</svg>
