<?xml version="1.0" encoding="utf-8"?>
<!-- Generator: Adobe Illustrator 23.0.2, SVG Export Plug-In . SVG Version: 6.00 Build 0)  -->
<svg version="1.1" id="Layer_1" xmlns="http://www.w3.org/2000/svg" xmlns:xlink="http://www.w3.org/1999/xlink" x="0px" y="0px"
	 viewBox="0 0 3000 3000" style="enable-background:new 0 0 3000 3000;" xml:space="preserve">
<style type="text/css">
	.st0{display:none;}
	.st1{display:inline;}
	.st2{fill-rule:evenodd;clip-rule:evenodd;fill:#FFFFFF;}
	.st3{fill-rule:evenodd;clip-rule:evenodd;fill:#47B8BE;}
	.st4{fill-rule:evenodd;clip-rule:evenodd;fill:#663333;}
	.st5{fill-rule:evenodd;clip-rule:evenodd;fill:#402020;}
	.st6{fill-rule:evenodd;clip-rule:evenodd;fill:#763C3C;}
	.st7{fill:#B9E5EF;}
</style>
<g class="st0">
	<g class="st1">
		<path class="st2" d="M1429.4,10.5c-10,49.8-98.8,186.1-146.3,435.1c-32.9,172.3-45.2,357.7-40.6,543.8
			c4.6,172.3,25.3,363.8,58.2,526.2l111.8,471.1h193.8c56.7-352.3,114.9-644.9,125.6-1018.7c5.4-176.9,0.8-376.8-29.1-546.9
			c-32.9-190-72.8-266.6-134.8-419C1518.2-1.8,1470.7-1,1429.4,10.5z"/>
		<path class="st3" d="M1607.1,1986.6l132.5,8.4l199.9-472.6c58.2-161.6,105.7-351.6,124.8-541.5c28.3-280.3-23-575.2-194.6-787.4
			c-55.9-69.7-155.5-152.4-163.1-163.9c-38.3-13.8-87.3-25.3-137.1-26.8c62,152.4,101.9,229,134.8,419
			c29.9,169.3,34.5,370,29.1,546.9C1722,1341.7,1663.8,1633.5,1607.1,1986.6z"/>
		<path class="st2" d="M1189.6,65.6C1057.1,136.9,901.6,300,825,428.7c-98,163.9-149.4,363.8-123.3,600.5
			c23,206.8,107.2,383.7,191.5,538.5c117.2,216,232.8,320.2,295.7,425.9l98-3.1c-15.3-61.3-72.8-160.1-101.9-230.6
			c-97.3-232.1-188.4-535.4-205.3-792.8c-13.8-215.2,3.8-408.3,82-582.1c82.7-185.4,160.1-258.1,283.4-366.1
			C1303-6.4,1231.8,54.9,1189.6,65.6z"/>
		<path class="st3" d="M1345.1,19.7c-123.3,107.2-199.9,180.8-283.4,366.1c-78.1,173.9-95.7,366.1-82,582.1
			c16.1,258.1,108,560.7,205.3,792.8c29.1,70.5,86.6,169.3,101.9,230.6l126.4-4.6l-111.8-471.1c-32.9-162.4-53.6-353.9-58.2-526.2
			c-4.6-185.4,7.7-371.5,40.6-543.8c47.5-248.9,136.3-385.3,146.3-435.1C1412.5-7.1,1362,12,1345.1,19.7z"/>
		<path class="st2" d="M1739.6,1994.3l98-6.9c54.4-91.1,160.8-171.6,299.5-428.9c191.5-354.6,286.5-752.2,68.2-1119.8
			C2088.9,241.8,2006.1,198.9,1856,75.6c-23-10.7-114.1-58.2-150.1-46c8.4,11.5,107.2,94.2,163.1,163.9
			c171.6,212.2,222.9,507.1,194.6,787.4c-19.1,190-66.6,379.1-124.8,541.5L1739.6,1994.3z"/>
		<path class="st3" d="M1163.6,1995.1c8.4-6.9-19.9-16.1,25.3-0.8c-62.8-105.7-178.5-209.9-295.7-425.9
			C809,1413.7,724.7,1236,701.7,1030C675.7,792.5,727,593.4,825,429.5c77.4-128.7,232.1-291.8,364.6-363.1
			c-1.5-2.3,6.1-32.9-68.9,2.3L907,177.5c-520.8,346.2-620.4,909.2-194.6,1411.6C837.3,1736.2,1007.3,1905.5,1163.6,1995.1z"/>
		<path class="st3" d="M1837.6,1987.4c26.8-3.1,23-9.2,15.3,15.3l243.6-216c263.5-266.6,458.8-509.4,457.3-939.1
			c-8.4-133.3-65.1-199.9-87.3-288c-31.4-29.1-142.5-263.5-433.5-411.3c-39.1-19.9-157.8-88.9-176.9-73.5
			c150.1,123.3,232.1,166.2,349.3,363.1c218.3,367.7,123.3,765.2-68.2,1119.8C1998.5,1815.8,1892,1897,1837.6,1987.4z"/>
	</g>
	<g class="st1">
		<g>
			<path class="st4" d="M1069.4,1930.7c-0.8-2.3,0-4.6,2.3-5.4s4.6,0.8,5.4,2.3l277.3,785.9c0.8,2.3-0.8,4.6-2.3,5.4
				c-2.3,0.8-4.6-0.8-5.4-2.3L1069.4,1930.7z"/>
			<path class="st4" d="M1921.9,1930.7c0.8-2.3,0-4.6-2.3-5.4c-2.3-0.8-4.6,0.8-5.4,2.3L1637,2713.5c-0.8,2.3,0.8,4.6,2.3,5.4
				c2.3,0.8,4.6-0.8,5.4-2.3L1921.9,1930.7z"/>
			<path class="st4" d="M1637,1930.7c0-2.3-1.5-4.6-3.8-5.4c-2.3-0.8-4.6,0.8-4.6,2.3l-85.8,785.9c0,2.3,1.5,4.6,3.8,5.4
				c2.3,0.8,4.6-0.8,4.6-2.3L1637,1930.7z"/>
			<path class="st4" d="M1326,1930.7c0-2.3,1.5-4.6,3.8-5.4s4.6,0.8,4.6,2.3l85.8,785.9c0,2.3-1.5,4.6-3.8,5.4
				c-2.3,0.8-4.6-0.8-4.6-2.3L1326,1930.7z"/>
			<path class="st4" d="M1083.2,1927.7h833.4c13.8,0,25.3,11.5,25.3,25.3l0,0c0,13.8-11.5,25.3-25.3,25.3h-833.4
				c-13.8,0-25.3-11.5-25.3-25.3l0,0C1057.9,1939.2,1069.4,1927.7,1083.2,1927.7z"/>
		</g>
		<g>
			<path class="st4" d="M1708.2,2729.6V2941c0,32.2-26,59-59,59h-299.5c-32.2,0-59-26-59-59v-211.4H1708.2z"/>
			<path class="st5" d="M1708.2,2729.6v68.9c0,10.7-26,19.1-59,19.1h-299.5c-32.2,0-59-8.4-59-19.1v-68.9H1708.2z"/>
			<path class="st6" d="M1251.7,2711.2h497.1c10,0,18.4,8.4,18.4,18.4l0,0c0,10-8.4,18.4-18.4,18.4h-497.1c-10,0-18.4-8.4-18.4-18.4
				l0,0C1232.5,2719.7,1241,2711.2,1251.7,2711.2z"/>
		</g>
	</g>
</g>
<g>
	<path class="st7" d="M44.1,2720.3c76.3-114.5,273.4-120.8,394.2-95.4c31.8-184.4,286.1-267.1,305.2-31.8
		c63.6-31.8,146.2-38.2,171.7,38.2c82.7-25.4,157.7,28.8,221.3,86C771.1,2717.3,44.1,2720.3,44.1,2720.3z"/>
</g>
<g>
	<path class="st7" d="M1776.6,1528.7c58.1-61.2,168.2-48.9,244.7-52l0,0c21.4-61.2,67.3-119.3,131.5-134.6
		c48.9-12.2,125.4-9.2,137.6,52c0,0-4.9-155.9,151.9-155.9c156.8,0,123.4,171.2,123.4,171.2c76.5-58.1,165.2-64.2,223.3,21.4
		c15.3,21.4,6.1,30.6,30.6,36.7c12.2,6.1,45.9-3.1,64.2,0c39.8,6.1,116.2,61.2,116.2,61.2H1776.6z"/>
</g>
<g>
	<path class="st7" d="M1017.4,632.7c-92.6-66.7-158.5-122-277.1-88.7C725.5,407,588.5,410.7,495.9,495.9
		c48.2-203.7-237.1-311.1-381.5-200c-177.8,133.3-65.7,276.6,22.2,296.3c-44.3,0-80.6,21.2-79.7,40.6
		C390.2,632.7,1017.4,632.7,1017.4,632.7z"/>
</g>
</svg>
