<?xml version="1.0" encoding="utf-8"?>
<!-- Generator: Adobe Illustrator 24.0.1, SVG Export Plug-In . SVG Version: 6.00 Build 0)  -->
<svg version="1.1" id="Layer_1" xmlns="http://www.w3.org/2000/svg" xmlns:xlink="http://www.w3.org/1999/xlink" x="0px" y="0px"
	 viewBox="0 0 3000 1392.6" style="enable-background:new 0 0 3000 1392.6;" xml:space="preserve">
<style type="text/css">
	.st0{opacity:0.5;}
	.st1{fill:#091121;}
	.st2{fill:#FEA838;}
	.st3{fill:#FFFFFF;}
	.st4{fill:url(#SVGID_1_);}
	.st5{opacity:0.5;fill:#FFFFFF;enable-background:new    ;}
	.st6{fill:#938B84;}
	.st7{fill:url(#SVGID_2_);}
	.st8{opacity:0.25;fill:#FFFFFF;enable-background:new    ;}
	.st9{fill:#ED4D01;}
	.st10{fill:#040F2C;}
	.st11{fill:url(#SVGID_3_);}
	.st12{fill:url(#SVGID_4_);}
	.st13{fill:url(#SVGID_5_);}
	.st14{fill:url(#SVGID_6_);}
	.st15{fill:#FBA056;}
	.st16{fill:url(#SVGID_7_);}
	.st17{fill:url(#SVGID_8_);}
	.st18{fill:url(#SVGID_9_);}
	.st19{fill:url(#SVGID_10_);}
	.st20{fill:url(#SVGID_11_);}
	.st21{fill:url(#SVGID_12_);}
	.st22{fill:url(#SVGID_13_);}
	.st23{fill:url(#SVGID_14_);}
	.st24{fill:url(#SVGID_15_);}
	.st25{fill:#FA8A3F;}
	.st26{fill:#0A0C17;}
	.st27{fill:url(#SVGID_16_);}
	.st28{fill:url(#SVGID_17_);}
	.st29{fill:url(#SVGID_18_);}
	.st30{fill:url(#SVGID_19_);}
	.st31{fill:url(#SVGID_20_);}
	.st32{fill:url(#SVGID_21_);}
	.st33{fill:#8A827B;}
	.st34{fill:url(#SVGID_22_);}
	.st35{fill:#F8893E;}
	.st36{fill:url(#SVGID_23_);}
	.st37{fill:url(#SVGID_24_);}
	.st38{fill:url(#SVGID_25_);}
	.st39{fill:url(#SVGID_26_);}
	.st40{fill:url(#SVGID_27_);}
	.st41{fill:#BAB5AC;}
	.st42{fill:#978F87;}
	.st43{fill:url(#SVGID_28_);}
	.st44{fill:url(#SVGID_29_);}
	.st45{fill:url(#SVGID_30_);}
	.st46{fill:url(#SVGID_31_);}
	.st47{fill:url(#SVGID_32_);}
	.st48{fill:url(#SVGID_33_);}
	.st49{fill:url(#SVGID_34_);}
	.st50{fill:url(#SVGID_35_);}
	.st51{fill:url(#SVGID_36_);}
	.st52{fill:url(#SVGID_37_);}
	.st53{fill:#65BDD8;}
	.st54{fill:url(#SVGID_38_);}
	.st55{fill:url(#SVGID_39_);}
	.st56{fill:url(#SVGID_40_);}
	.st57{fill:url(#SVGID_41_);}
	.st58{fill:url(#SVGID_42_);}
	.st59{fill:url(#SVGID_43_);}
	.st60{fill:url(#SVGID_44_);}
	.st61{fill:url(#SVGID_45_);}
	.st62{fill:#74459E;}
	.st63{fill:#340E7D;}
	.st64{fill:url(#SVGID_46_);}
</style>
<g class="st0">
	<g>
		<g>
			<g>
				<g>
					<g>
						<g>
							<g>
								<path class="st1" d="M2833.2,1312.5c0,8.4-6.9,15.3-15.3,15.3h-2630c-8.4,0-15.3-6.9-15.3-15.3v-7.1
									c0-8.4,6.9-15.3,15.3-15.3h2630c8.4,0,15.3,6.9,15.3,15.3V1312.5z"/>
							</g>
						</g>
					</g>
				</g>
			</g>
		</g>
	</g>
	<g>
		<g>
			<g>
				<g>
					<g>
						<g>
							<g>
								<g>
									<path class="st1" d="M2860.7,1305.4c0-8.4,6.9-15.3,15.3-15.3h42.1c8.4,0,15.3,6.9,15.3,15.3v7.1c0,8.4-6.9,15.3-15.3,15.3
										H2876c-8.4,0-15.3-6.9-15.3-15.3V1305.4z"/>
								</g>
							</g>
						</g>
					</g>
				</g>
			</g>
		</g>
		<g>
			<g>
				<g>
					<g>
						<g>
							<g>
								<g>
									<path class="st1" d="M2960.5,1305.4c0-8.4,6.9-15.3,15.3-15.3h13.4c8.4,0,15.3,6.9,15.3,15.3v7.1c0,8.4-6.9,15.3-15.3,15.3
										h-13.4c-8.4,0-15.3-6.9-15.3-15.3V1305.4z"/>
								</g>
							</g>
						</g>
					</g>
				</g>
			</g>
		</g>
	</g>
	<g>
		<g>
			<g>
				<g>
					<g>
						<g>
							<g>
								<g>
									<path class="st1" d="M148.3,1312.5c0,8.4-6.9,15.3-15.3,15.3H90.9c-8.4,0-15.3-6.9-15.3-15.3v-7.1
										c0-8.4,6.9-15.3,15.3-15.3H133c8.4,0,15.3,6.9,15.3,15.3V1312.5z"/>
								</g>
							</g>
						</g>
					</g>
				</g>
			</g>
		</g>
		<g>
			<g>
				<g>
					<g>
						<g>
							<g>
								<g>
									<path class="st1" d="M48.5,1312.5c0,8.4-6.9,15.3-15.3,15.3H19.8c-8.4,0-15.3-6.9-15.3-15.3v-7.1c0-8.4,6.9-15.3,15.3-15.3
										h13.4c8.4,0,15.3,6.9,15.3,15.3C48.5,1305.4,48.5,1312.5,48.5,1312.5z"/>
								</g>
							</g>
						</g>
					</g>
				</g>
			</g>
		</g>
	</g>
</g>
<g>
	<g>
		<g>
			<path class="st2" d="M2606.8,1309c-1.2-2.1-1.8-3.2-1.8-3.2s-22.4-66,30.5-142.1s77.9-86.7,77.9-86.7s77.4,118.3,85.6,205
				c0.9,9.5,0.9,18.5,0.1,27L2606.8,1309L2606.8,1309z"/>
			<path class="st3" d="M2604,1309l-0.1-0.2c-0.1-0.1-0.1-0.2-0.1-0.2c-0.9-2.7-22-67.3,30.6-143.2c51.6-74.2,76.5-86.3,78.3-87.1
				l0.1-0.1c0.1,0,0.1,0,0.1,0l0,0h0.3h0.2h0.2h0.2l0.2,0.1l0.2,0.1l0.1,0.1l0.1,0.1l0.1,0.1l0.1,0.1c4.5,6.9,77.6,120.5,85.7,205.4
				c0.7,6.9,0.8,14,0.5,21v0.2c0,1.1-0.1,2.3-0.2,3.6h-2.6l0.1-1.8l-4,1.8h-6.2l10.4-4.7v-1.5c0.2-6-0.1-12.2-0.6-18.4
				c-0.7-7.8-2.1-16.2-4-25.1l-0.7-3.1l-100,52.7h-5.5l104.9-55.2l-0.5-1.8c-3.1-12.6-7.5-26.3-12.8-40.7l-0.9-2.5l-104.3,50.9
				l-0.1,1.4c-1.2,15.9-1.8,32-1.9,47.9h-2.6c0.1-15.8,0.7-31.9,1.9-47.8l0.1-1.5l-62.1-37.5l-0.9,3c-4.6,16.2-6.9,32.6-6.7,48.8
				v1.3l54.4,33.6h-4.9l-49.5-30.6l0.3,4.6c1,13.8,3.5,22.7,4,24.3l0.1,0.3c0,0,0.6,1,0.8,1.4h-2.8V1309z M2637.9,1164.7l-1.4,2
				c-11.3,16.3-20.1,33.5-25.9,51.2l-0.6,1.8l61.5,37.1l0.3-3.8c1.6-19.1,4.1-38.1,7.3-56.6l0.3-1.4l-39.3-29L2637.9,1164.7z
				 M2755.3,1156.8l-73.4,38.3l-0.2,1.2c-3.2,18.3-5.6,37.3-7.3,56.3l-0.4,4.2l103.1-50.4l-0.8-2c-5.6-14.4-12.4-29.6-20-45.3
				L2755.3,1156.8z M2670.8,1121.3l-1.4,1.7c-9,10.9-18.6,23.5-28.5,37.5l-1.4,1.9l40.3,29.7l0.7-3.7c3.1-16.9,7-33.6,11.4-49.6
				l0.4-1.6L2670.8,1121.3z M2733,1114.5l-38.1,22.9l-0.3,0.9c-4.4,15.7-8.1,32.1-11.3,48.8l-0.9,4.8l71.7-37.4l-1-2.1
				c-5.9-11.8-12.3-23.8-19-35.7L2733,1114.5z M2710.9,1081.6l-6.9,5.6c-6,4.9-16.1,14.1-29.9,30.2l-1.7,1.9l20.6,15.2l1-3.3
				c4.1-14.1,8.7-28,13.8-41.3L2710.9,1081.6z M2713.6,1082l-1.7,4.4c-5.2,13.3-10,27.2-14.2,41.5l-1.8,5.9l35.8-21.6l-1.2-2
				c-6.1-10.7-11.2-19.1-14.4-24.2L2713.6,1082z"/>
		</g>
		<g>
			
				<linearGradient id="SVGID_1_" gradientUnits="userSpaceOnUse" x1="2281.4063" y1="298.14" x2="2220.8076" y2="31.5064" gradientTransform="matrix(1 0 0 -1 0 1392)">
				<stop  offset="0" style="stop-color:#FE9E1A"/>
				<stop  offset="1" style="stop-color:#FF5B00"/>
			</linearGradient>
			<path class="st4" d="M2325.1,1309c15.3-25.7,33-67.6,12.8-101.6c-31.4-52.9,42.7-111.2-9.9-143.8
				c-52.5-32.6-148.5,67.8-175.5,153.6c-9.3,29.7-10.8,61.6-7.1,91.8H2325.1z"/>
			<path class="st5" d="M2318.3,1299.4l-56.8,9.6h28.2l29.3-5c0.4-0.1,0.7-0.2,1-0.4c0.7-0.5,1.1-1.4,0.9-2.3
				C2320.8,1300,2319.6,1299.2,2318.3,1299.4z M2333,1113.3c-0.4-1.2-1.8-1.9-3-1.4l-34.4,12.4c11.6-29.1,20.8-47.7,21-48.3
				c0.6-1.2,0.1-2.6-1.1-3.2c-1.2-0.6-2.6-0.1-3.2,1.1c-0.3,0.5-10.4,21.2-22.9,53.1c-0.2,0.3-0.3,0.5-0.3,0.8
				c-5.6,14.2-11.6,30.7-17.3,48.6l-46.1-60.3c-0.8-1-2.3-1.3-3.3-0.4c-1,0.8-1.2,2.3-0.4,3.3l48.1,62.9
				c-4.3,13.6-8.4,27.9-12.1,42.6c-0.2,0.3-0.3,0.7-0.3,1.1c-3.8,15.2-7.1,30.9-9.7,46.6l-74.9-65.4c-1-0.9-2.5-0.8-3.3,0.2
				c-0.9,1-0.8,2.5,0.2,3.3l77.1,67.4c-1.6,10.4-2.8,20.8-3.6,31.1h4.7c2.1-27.2,7.2-54.9,13.7-81.3l63.9-15.4
				c0.3-0.1,0.6-0.2,0.8-0.4c0.7-0.5,1.1-1.5,0.9-2.5c-0.3-1.3-1.6-2-2.8-1.7l-61.5,14.8c8.9-34.8,20.1-67.1,30-92.4l38.3-13.8
				c0.2-0.1,0.4-0.2,0.6-0.3C2333,1115.4,2333.3,1114.4,2333,1113.3z"/>
		</g>
		<path class="st2" d="M2424.2,1309c4.3-17.2,11.5-33.1,17.4-52.6c12.1-39.9,29.8-119.4-35.7-136.6
			c-59.4-15.6-114.2,95.9-104.5,189.2H2424.2z"/>
		<path class="st6" d="M2351,1309c9.7-80.6,48.3-147.2,48.8-148.1c0.7-1.1,0.3-2.6-0.8-3.2c-1.1-0.7-2.6-0.3-3.2,0.8
			c-0.5,0.8-39.8,68.6-49.5,150.4L2351,1309L2351,1309z"/>
		<g>
			<g>
				
					<linearGradient id="SVGID_2_" gradientUnits="userSpaceOnUse" x1="2496.1843" y1="262.465" x2="2496.1843" y2="53.8881" gradientTransform="matrix(1 0 0 -1 0 1392)">
					<stop  offset="0" style="stop-color:#FE9E1A"/>
					<stop  offset="1" style="stop-color:#FF5B00"/>
				</linearGradient>
				<path class="st7" d="M2568.8,1220.9c13,35.8-18.1,72.4-33.9,88.1h-135.5c-3.3-34.9,1.2-75,19.2-108.5
					c34.7-64.7,127-130.5,164.1-96.4C2619.9,1138.2,2551.6,1173.7,2568.8,1220.9z"/>
			</g>
			<path class="st8" d="M2577.7,1148l-32.3,5.2c-11.5,18.3-24.9,41.6-37.1,67.3l49.8-2.4c1.7-0.1,3.1,1.2,3.2,2.9
				c0.1,1.7-1.2,3.1-2.9,3.2l-53,2.6c-9.2,20-17.4,41.4-23.2,62.7l56.8,1.2c1.7,0,3,1.4,3,3.1s-1.4,3-3.1,3l-58.2-1.2
				c-1.1,4.5-2.1,9-3,13.6h-6.2c2.8-15.1,7.1-30.3,12.4-45.2l-51.2-65.3c-1-1.3-0.8-3.2,0.5-4.2s3.2-0.8,4.2,0.5l0,0l48.9,62.3
				c4.3-11.6,9.1-23,14.2-34.1c0.1-0.3,0.2-0.6,0.4-0.8c5.1-11.1,10.6-21.9,16-32l-28.7-57.2c-0.7-1.5-0.1-3.3,1.3-4
				c1.5-0.7,3.3-0.1,4,1.3l26.8,53.5c7.1-12.8,14-24.5,20.4-34.6c0.1-0.2,0.2-0.4,0.4-0.6c14.9-23.7,26.2-38.7,26.5-39.1
				c1-1.3,2.9-1.6,4.2-0.6s1.6,2.9,0.6,4.2c-0.3,0.4-9.8,13-22.9,33.4l27.1-4.3c1.6-0.3,3.2,0.9,3.5,2.5
				C2580.5,1146.2,2579.4,1147.8,2577.7,1148z"/>
		</g>
		<g>
			<path class="st9" d="M2528.4,1309c-25.7-62.3-10.8-150.8,40-155.7c51.4-5,71.1,56.2,76.3,90.8c3.6,24.1,2.6,43.6,11.3,64.9
				L2528.4,1309L2528.4,1309z"/>
			<path class="st6" d="M2592.5,1309h-4.3c-18.6-62.4-13.7-121.9-13.6-122.7c0.1-1.1,1.1-2,2.3-1.9l0,0c1.1,0.1,1.9,1.1,1.8,2.3
				C2578.7,1187.4,2573.8,1247,2592.5,1309z"/>
		</g>
	</g>
	<path class="st10" d="M2632.8,565.4c0,0-9.7-8.7-8.4-17.7s7-10.8,6.1-13.9c-1.8-6,2.1-22.9,8.5-31.6c8.5-11.6,18.2-26,56.5-14.1
		c23.9,7.4,33.2,42.1,34.8,89.9c0.8,22.4,24.5,27.2,37.7,32.3c24.2,9.4,27.1,32.7,22.3,51.9c-4.1,16.2-15,15.2-15.6,18
		c-1.7,7.4-3.5,41-55.1,33.5c-31-4.5-69.1,9.9-105.2-24.6c-36.2-34.5-21.1-78.9-6.4-94.1C2622.5,579.6,2632.8,565.4,2632.8,565.4z"
		/>
	
		<linearGradient id="SVGID_3_" gradientUnits="userSpaceOnUse" x1="2059.9016" y1="689.0809" x2="2059.9016" y2="1187.1454" gradientTransform="matrix(1 0 0 -1 0 1392)">
		<stop  offset="0" style="stop-color:#FE9E1A"/>
		<stop  offset="1" style="stop-color:#FF5B00"/>
	</linearGradient>
	<path class="st11" d="M2241.4,372.3c-6.8,0-13.4,1.3-19.4,3.5c-0.2,0.1-0.4,0.1-0.5,0.2c-0.5,0.2-0.9,0.4-1.4,0.6
		c-0.1,0-0.2,0.1-0.3,0.1c-0.4,0.2-0.9,0.4-1.3,0.6c-0.6,0.3-1.2,0.5-1.7,0.8c-13.6,6.8-39.2,22.2-40.4,9.9V263.2
		c0-6.7-5.5-12.1-12.1-12.1h-124.9c-12.3-1.3,3.1-26.8,9.9-40.4c0.3-0.6,0.6-1.2,0.8-1.7c0.2-0.4,0.4-0.9,0.6-1.3
		c0-0.1,0.1-0.2,0.1-0.3c0.2-0.5,0.4-0.9,0.6-1.4c0.1-0.2,0.1-0.4,0.2-0.5c2.3-6,3.5-12.6,3.5-19.4c0-30.5-24.7-55.1-55.1-55.1
		c-30.5,0-55.1,24.7-55.1,55.1c0,6.8,1.3,13.4,3.5,19.4c0.1,0.2,0.1,0.4,0.2,0.5c0.2,0.5,0.4,0.9,0.6,1.4c0,0.1,0.1,0.2,0.1,0.3
		c0.2,0.4,0.4,0.9,0.6,1.3c0.3,0.6,0.5,1.2,0.8,1.7c6.8,13.6,22.2,39.2,9.9,40.4h-124.9c-6.7,0-12.1,5.5-12.1,12.1v124.9
		c1.3,12.3,26.8-3.1,40.4-9.9c0.6-0.3,1.2-0.6,1.7-0.8c0.4-0.2,0.9-0.4,1.3-0.6c0.1,0,0.2-0.1,0.3-0.1c0.5-0.2,0.9-0.4,1.4-0.6
		c0.2-0.1,0.4-0.1,0.5-0.2c6-2.3,12.6-3.5,19.4-3.5c30.4,0,55.1,24.7,55.1,55.1c0,30.5-24.7,55.1-55.1,55.1
		c-6.8,0-13.4-1.3-19.4-3.5c-0.2-0.1-0.4-0.1-0.5-0.2c-0.5-0.2-0.9-0.4-1.4-0.6c-0.1,0-0.2-0.1-0.3-0.1c-0.4-0.2-0.9-0.4-1.3-0.6
		c-0.6-0.3-1.2-0.5-1.7-0.8c-13.6-6.8-39.2-22.2-40.4-9.9v124.9c0,6.7,5.5,12.1,12.1,12.1h124.9c12.3-1.3-3.1-26.8-9.9-40.4
		c-0.3-0.6-0.6-1.2-0.8-1.7c-0.2-0.4-0.4-0.9-0.6-1.3c0-0.1-0.1-0.2-0.1-0.3c-0.2-0.5-0.4-0.9-0.6-1.4c-0.1-0.2-0.1-0.4-0.2-0.5
		c-2.3-6-3.5-12.6-3.5-19.4c0-30.5,24.7-55.1,55.1-55.1s55.1,24.7,55.1,55.1c0,6.8-1.3,13.4-3.5,19.4c-0.1,0.2-0.1,0.4-0.2,0.5
		c-0.2,0.5-0.4,0.9-0.6,1.4c0,0.1-0.1,0.2-0.1,0.3c-0.2,0.4-0.4,0.9-0.6,1.3c-0.3,0.6-0.5,1.2-0.8,1.7c-6.8,13.6-22.2,39.2-9.9,40.4
		H2164c6.7,0,12.1-5.5,12.1-12.1v-125c1.3-12.3,26.8,3.1,40.4,9.9c0.6,0.3,1.2,0.6,1.7,0.8c0.4,0.2,0.9,0.4,1.3,0.6
		c0.1,0,0.2,0.1,0.3,0.1c0.5,0.2,0.9,0.4,1.4,0.6c0.2,0.1,0.4,0.1,0.5,0.2c6,2.3,12.6,3.5,19.4,3.5c30.5,0,55.1-24.7,55.1-55.1
		C2296.5,397,2271.8,372.3,2241.4,372.3z"/>
	<g>
		
			<linearGradient id="SVGID_4_" gradientUnits="userSpaceOnUse" x1="1894.0698" y1="1967.2195" x2="1894.0698" y2="-39.7274" gradientTransform="matrix(1 0 0 -1 0 1392)">
			<stop  offset="0" style="stop-color:#FFFFFF"/>
			<stop  offset="1" style="stop-color:#8E857E"/>
		</linearGradient>
		<path class="st12" d="M1835.5,574.7v-92.4c5.6,2.3,12.9,6.1,16.3,7.9c2.4,1.2,4.6,2.4,6.5,3.4c0.7,0.3,1.4,0.7,2.1,1
			c0.5,0.2,1.1,0.5,1.6,0.7l0.3,0.1c0.6,0.3,1.2,0.5,1.8,0.7c0.3,0.1,0.6,0.2,0.9,0.3c7.5,2.8,15.4,4.2,23.4,4.2
			c37.1,0,67.3-30.2,67.3-67.3s-30.2-67.3-67.3-67.3c-8,0-15.9,1.4-23.5,4.2c-0.3,0.1-0.6,0.2-0.9,0.3c-0.6,0.2-1.2,0.5-1.7,0.7
			l-0.4,0.2c-0.5,0.2-1.1,0.5-1.6,0.7c-0.7,0.3-1.4,0.7-2,1c-2,1-4.2,2.1-6.6,3.4c-3.4,1.8-10.7,5.6-16.3,7.9V269.2
			c0-6.3-2.4-12-6.4-16.3c-3.4,2.1-5.7,6-5.7,10.3v124.9c1.2,12.3,26.8-3.1,40.4-9.9c0.6-0.3,1.2-0.6,1.7-0.8
			c0.4-0.2,0.9-0.4,1.3-0.6c0.1,0,0.2-0.1,0.3-0.1c0.5-0.2,0.9-0.4,1.4-0.6c0.2-0.1,0.4-0.1,0.5-0.2c6-2.3,12.6-3.5,19.4-3.5
			c30.4,0,55.1,24.7,55.1,55.1c0,30.5-24.7,55.1-55.1,55.1c-6.8,0-13.4-1.3-19.4-3.5c-0.2-0.1-0.4-0.1-0.5-0.2
			c-0.5-0.2-0.9-0.4-1.4-0.6c-0.1,0-0.2-0.1-0.3-0.1c-0.4-0.2-0.9-0.4-1.3-0.6c-0.6-0.3-1.2-0.5-1.7-0.8
			c-13.6-6.8-39.2-22.2-40.4-9.9v124.9c0,0.4,0,0.8,0.1,1.2c0,0.1,0,0.2,0,0.3c0,0.3,0.1,0.6,0.1,0.9c0,0.1,0.1,0.3,0.1,0.4
			c0.1,0.2,0.1,0.5,0.2,0.7s0.1,0.3,0.2,0.5s0.1,0.4,0.2,0.6c0.1,0.2,0.2,0.4,0.3,0.5c0.1,0.2,0.1,0.3,0.2,0.5s0.2,0.4,0.3,0.6
			c0.1,0.1,0.2,0.3,0.2,0.4c0.1,0.2,0.3,0.4,0.4,0.6c0.1,0.1,0.2,0.2,0.2,0.3c0.2,0.2,0.3,0.4,0.5,0.6c0.1,0.1,0.1,0.2,0.2,0.2
			c0.2,0.2,0.4,0.4,0.6,0.6c0.1,0.1,0.1,0.1,0.2,0.2c0.2,0.2,0.5,0.4,0.7,0.6c0.1,0,0.1,0.1,0.2,0.1c0.3,0.2,0.5,0.4,0.8,0.5
			c0,0,0.1,0,0.1,0.1c0.3,0.2,0.6,0.3,0.9,0.5h0.1c0.3,0.2,0.6,0.3,1,0.4l0,0c0.3,0.1,0.7,0.2,1.1,0.3l0,0c0.4,0.1,0.7,0.2,1.1,0.2
			l0,0c0.6,0.1,1.3,0.2,2,0.2h124.9c9.4-1,2.7-16-4.1-29.1L1835.5,574.7L1835.5,574.7z"/>
		
			<linearGradient id="SVGID_5_" gradientUnits="userSpaceOnUse" x1="2214.6001" y1="1604.281" x2="2214.6001" y2="421.5303" gradientTransform="matrix(1 0 0 -1 0 1392)">
			<stop  offset="0" style="stop-color:#FFFFFF"/>
			<stop  offset="1" style="stop-color:#8E857E"/>
		</linearGradient>
		<path class="st13" d="M2296.4,424c0-0.3,0-0.6-0.1-0.8c-0.1-0.9-0.2-1.9-0.3-2.8c0-0.2,0-0.4-0.1-0.6
			c-3.7-26.8-26.7-47.5-54.6-47.5c-6.8,0-13.4,1.3-19.4,3.5c-0.2,0.1-0.4,0.1-0.5,0.2c-0.5,0.2-0.9,0.4-1.4,0.6
			c-0.1,0-0.2,0.1-0.3,0.1c-0.4,0.2-0.9,0.4-1.3,0.6c-0.6,0.3-1.2,0.5-1.7,0.8c-13.6,6.8-39.2,22.2-40.4,9.9V275.7h-19.4
			c-13.4,0-24.2,10.9-24.2,24.2v124.9c0,0.4,0,0.8,0.1,1.2c0.9,9.3,8,15.5,17.7,15.5c9.2,0,20.4-5.5,34.1-12.6
			c2.2-1.2,4.3-2.2,6.2-3.2c0.5-0.2,0.9-0.4,1.4-0.7c0.4-0.2,0.7-0.3,1-0.5l0,0l0.3-0.1c0.3-0.1,0.6-0.3,0.9-0.4
			c0.2-0.1,0.4-0.1,0.5-0.2c4.9-1.8,10-2.8,15.2-2.8c19.7,0,36.3,13.3,41.4,31.3c-3.2,0.6-6.5,0.9-9.9,0.9c-6.8,0-13.4-1.3-19.4-3.5
			c-0.2-0.1-0.4-0.1-0.5-0.2c-0.5-0.2-0.9-0.4-1.4-0.6c-0.1,0-0.2-0.1-0.3-0.1c-0.4-0.2-0.9-0.4-1.3-0.6c-0.6-0.3-1.2-0.5-1.7-0.8
			c-13.6-6.8-39.2-22.2-40.4-9.9v29.1c1.3-12.3,26.8,3.1,40.4,9.9c0.6,0.3,1.2,0.6,1.7,0.8c0.4,0.2,0.9,0.4,1.3,0.6
			c0.1,0,0.2,0.1,0.3,0.1c0.5,0.2,0.9,0.4,1.4,0.6c0.2,0.1,0.4,0.1,0.5,0.2c6,2.3,12.6,3.5,19.4,3.5c3.4,0,6.8-0.3,10-0.9h0.1
			c0.8-0.1,1.5-0.3,2.3-0.5c0.1,0,0.1,0,0.2,0c0.8-0.2,1.5-0.4,2.2-0.6c0.1,0,0.1,0,0.2-0.1c0.7-0.2,1.5-0.4,2.2-0.7h0.1
			c5.4-1.8,10.5-4.4,15-7.7c0,0,0.1,0,0.1-0.1c0.6-0.4,1.1-0.8,1.7-1.3c0.1-0.1,0.2-0.2,0.3-0.3c0.5-0.4,1-0.8,1.5-1.2
			c0.2-0.1,0.3-0.3,0.5-0.4c0.5-0.4,0.9-0.8,1.3-1.2c0.2-0.2,0.4-0.3,0.5-0.5c0.4-0.4,0.8-0.8,1.2-1.2c0.2-0.2,0.4-0.4,0.6-0.6
			c0.4-0.4,0.8-0.8,1.1-1.2c0.2-0.2,0.4-0.4,0.6-0.6c0.4-0.4,0.7-0.8,1.1-1.3c0.2-0.2,0.4-0.5,0.5-0.7c0.3-0.4,0.7-0.9,1-1.3
			c0.2-0.2,0.3-0.5,0.5-0.7c0.3-0.4,0.6-0.9,0.9-1.3c0.1-0.2,0.3-0.4,0.4-0.6c0.6-0.9,1.2-1.9,1.7-2.9c0.1-0.2,0.3-0.5,0.4-0.7
			c0.2-0.4,0.4-0.8,0.6-1.2c0.2-0.4,0.4-0.7,0.6-1.1c0.2-0.4,0.4-0.8,0.5-1.1c0.2-0.4,0.4-0.8,0.5-1.2c0.2-0.4,0.3-0.8,0.5-1.1
			c0.2-0.4,0.3-0.8,0.5-1.3c0.1-0.4,0.3-0.8,0.4-1.2c0.2-0.4,0.3-0.9,0.4-1.3c0.1-0.4,0.2-0.8,0.4-1.2c0.1-0.5,0.3-0.9,0.4-1.4
			c0.1-0.4,0.2-0.8,0.3-1.2c0.1-0.5,0.2-0.9,0.3-1.4c0.1-0.4,0.2-0.8,0.2-1.1c0.1-0.5,0.2-1,0.3-1.5c0.1-0.4,0.1-0.7,0.2-1.1
			c0.1-0.5,0.1-1.1,0.2-1.6c0-0.4,0.1-0.7,0.1-1.1c0.1-0.6,0.1-1.2,0.1-1.8c0-0.3,0-0.6,0.1-0.9c0-0.9,0.1-1.8,0.1-2.7
			C2296.5,426.3,2296.4,425.1,2296.4,424z"/>
		
			<linearGradient id="SVGID_6_" gradientUnits="userSpaceOnUse" x1="2105.3145" y1="1181.1378" x2="2105.3145" y2="512.232" gradientTransform="matrix(1 0 0 -1 0 1392)">
			<stop  offset="0" style="stop-color:#FFFFFF"/>
			<stop  offset="1" style="stop-color:#8E857E"/>
		</linearGradient>
		<path class="st14" d="M2132.6,502.4c0,0.4-0.1,0.8-0.1,1.2v71.1h-89.3c-6.7,13.1-13.4,28.1-4.1,29.1h93.4h31.5
			c6.7,0,12.1-5.5,12.1-12.1v-29.1v-67.3c-10.1-5-18.7-8.5-25.9-8.5C2140.6,486.9,2133.5,493.1,2132.6,502.4z"/>
	</g>
	<g>
		<g>
			<path class="st15" d="M2377.5,653.3c-3.3-2-12.6-7.4-15.6-4.3c-2,2,2.9,7.7,6.2,9.9c1.2,0.8,6,0.1,9.4,7.8
				c2.4,5.5,12.7,1.3,12.7,1.3S2385.5,658.2,2377.5,653.3z"/>
			<path class="st15" d="M2500.4,666.2c-28.4,12-91.3,15.8-105.7,16.8c-7.4,0.5-15.6,9.8-32.1,8.2c-9.5-0.9-17-16.2-11.8-28.4
				c2.1-4.9,27.8-11.3,39.4,5.2c8.2,0.8,69.2-17.5,89.7-22.7c9.3-2.4,25.2-13.4,25.7-1.8C2506.4,657,2511,661.7,2500.4,666.2z"/>
		</g>
		<g>
			<path class="st15" d="M2517.3,624.9c0,0-24.4,18.9-30.6,25.8c-4.5,4.9,2.9,10.6,7.4,14.1s24.9-2.1,39.8-12
				C2545.2,645.1,2520,624.7,2517.3,624.9z"/>
			
				<linearGradient id="SVGID_7_" gradientUnits="userSpaceOnUse" x1="2439.438" y1="679.877" x2="2594.5708" y2="780.0671" gradientTransform="matrix(1 0 0 -1 0 1392)">
				<stop  offset="0" style="stop-color:#FE1B01"/>
				<stop  offset="0.1599" style="stop-color:#FE2002"/>
				<stop  offset="0.3382" style="stop-color:#FE2D05"/>
				<stop  offset="0.5252" style="stop-color:#FE4309"/>
				<stop  offset="0.7183" style="stop-color:#FE620F"/>
				<stop  offset="0.9142" style="stop-color:#FE8A17"/>
				<stop  offset="1" style="stop-color:#FE9E1B"/>
			</linearGradient>
			<path class="st16" d="M2595.6,570.8c-23.4,10.5-94.8,59.7-94.8,59.7s-0.7,8.5,7.4,23c12.2,21.8,22.3,25.6,22.3,25.6
				s53.7-22,88.4-40.2c27.4-14.4,37.2-42.9,23.1-62.5C2630.4,560.4,2608.6,564.9,2595.6,570.8z"/>
		</g>
	</g>
	
		<linearGradient id="SVGID_8_" gradientUnits="userSpaceOnUse" x1="1812.5099" y1="1024.5499" x2="738.5248" y2="1024.5499" gradientTransform="matrix(1 0 0 -1 0 1392)">
		<stop  offset="0" style="stop-color:#63BCD8"/>
		<stop  offset="1" style="stop-color:#3D7EB8"/>
	</linearGradient>
	<path class="st17" d="M1405.4,372.3c6.8,0,13.4,1.3,19.4,3.5c0.2,0.1,0.4,0.1,0.5,0.2c0.5,0.2,0.9,0.4,1.4,0.6
		c0.1,0,0.2,0.1,0.3,0.1c0.4,0.2,0.9,0.4,1.3,0.6c0.6,0.3,1.2,0.5,1.7,0.8c13.6,6.8,39.2,22.2,40.4,9.9V263.2
		c0-6.7-5.5-12.1-12.1-12.1h-124.9c-12.3-1.3,3.1-26.8,9.9-40.4c0.3-0.6,0.6-1.2,0.8-1.7c0.2-0.4,0.4-0.9,0.6-1.3
		c0-0.1,0.1-0.2,0.1-0.3c0.2-0.5,0.4-0.9,0.6-1.4c0.1-0.2,0.1-0.4,0.2-0.5c2.3-6,3.5-12.6,3.5-19.4c0-30.5-24.7-55.1-55.1-55.1
		s-55.1,24.7-55.1,55.1c0,6.8,1.3,13.4,3.5,19.4c0.1,0.2,0.1,0.4,0.2,0.5c0.2,0.5,0.4,0.9,0.6,1.4c0,0.1,0.1,0.2,0.1,0.3
		c0.2,0.4,0.4,0.9,0.6,1.3c0.3,0.6,0.5,1.2,0.8,1.7c6.8,13.6,22.2,39.2,9.9,40.4h-124.9c-6.7,0-12.1,5.5-12.1,12.1v124.9
		c-1.3,12.3-26.8-3.1-40.4-9.9c-0.6-0.3-1.2-0.6-1.7-0.8c-0.4-0.2-0.9-0.4-1.3-0.6c-0.1,0-0.2-0.1-0.3-0.1c-0.5-0.2-0.9-0.4-1.4-0.6
		c-0.2-0.1-0.4-0.1-0.5-0.2c-6-2.3-12.6-3.5-19.4-3.5c-30.4,0-55.1,24.7-55.1,55.1c0,30.5,24.7,55.1,55.1,55.1
		c6.8,0,13.4-1.3,19.4-3.5c0.2-0.1,0.4-0.1,0.5-0.2c0.5-0.2,0.9-0.4,1.4-0.6c0.1,0,0.2-0.1,0.3-0.1c0.4-0.2,0.9-0.4,1.3-0.6
		c0.6-0.3,1.2-0.5,1.7-0.8c13.6-6.8,39.2-22.2,40.4-9.9v124.9c0,6.7,5.5,12.1,12.1,12.1h124.9c12.3-1.3-3.1-26.8-9.9-40.4
		c-0.3-0.6-0.6-1.2-0.8-1.7c-0.2-0.4-0.4-0.9-0.6-1.3c0-0.1-0.1-0.2-0.1-0.3c-0.2-0.5-0.4-0.9-0.6-1.4c-0.1-0.2-0.1-0.4-0.2-0.5
		c-2.3-6-3.5-12.6-3.5-19.4c0-30.5,24.7-55.1,55.1-55.1s55.1,24.7,55.1,55.1c0,6.8-1.3,13.4-3.5,19.4c-0.1,0.2-0.1,0.4-0.2,0.5
		c-0.2,0.5-0.4,0.9-0.6,1.4c0,0.1-0.1,0.2-0.1,0.3c-0.2,0.4-0.4,0.9-0.6,1.3c-0.3,0.6-0.5,1.2-0.8,1.7c-6.8,13.6-22.2,39.2-9.9,40.4
		h124.9c6.7,0,12.1-5.5,12.1-12.1v-125c-1.3-12.3-26.8,3.1-40.4,9.9c-0.6,0.3-1.2,0.6-1.7,0.8c-0.4,0.2-0.9,0.4-1.3,0.6
		c-0.1,0-0.2,0.1-0.3,0.1c-0.5,0.2-0.9,0.4-1.4,0.6c-0.2,0.1-0.4,0.1-0.5,0.2c-6,2.3-12.6,3.5-19.4,3.5c-30.4,0-55.1-24.7-55.1-55.1
		C1350.2,397,1374.9,372.3,1405.4,372.3z"/>
	
		<linearGradient id="SVGID_9_" gradientUnits="userSpaceOnUse" x1="1647.1998" y1="1103.5748" x2="1647.1998" y2="749.0076" gradientTransform="matrix(1 0 0 -1 0 1392)">
		<stop  offset="0" style="stop-color:#76469F"/>
		<stop  offset="1" style="stop-color:#643E9A"/>
	</linearGradient>
	<path class="st18" d="M1888.6,372.3c-6.8,0-13.4,1.3-19.4,3.5c-0.2,0.1-0.4,0.1-0.5,0.2c-0.5,0.2-0.9,0.4-1.4,0.6
		c-0.1,0-0.2,0.1-0.3,0.1c-0.4,0.2-0.9,0.4-1.3,0.6c-0.6,0.3-1.2,0.5-1.7,0.8c-13.6,6.8-39.2,22.2-40.4,9.9V263.2
		c0-6.7-5.5-12.1-12.1-12.1h-124.9c-12.3,1.2,3.1,26.8,9.9,40.4c0.3,0.6,0.6,1.2,0.8,1.7c0.2,0.4,0.4,0.9,0.6,1.3
		c0,0.1,0.1,0.2,0.1,0.3c0.2,0.5,0.4,0.9,0.6,1.4c0.1,0.2,0.1,0.4,0.2,0.5c2.3,6,3.5,12.6,3.5,19.4c0,30.4-24.7,55.1-55.1,55.1
		s-55.1-24.7-55.1-55.1c0-6.8,1.3-13.4,3.5-19.4c0.1-0.2,0.1-0.4,0.2-0.5c0.2-0.5,0.4-0.9,0.6-1.4c0-0.1,0.1-0.2,0.1-0.3
		c0.2-0.4,0.4-0.9,0.6-1.3c0.3-0.6,0.5-1.2,0.8-1.7c6.8-13.6,22.2-39.2,9.9-40.4h-124.9c-6.7,0-12.1,5.5-12.1,12.1v124.9
		c-1.3,12.3-26.8-3.1-40.4-9.9c-0.6-0.3-1.2-0.6-1.7-0.8c-0.4-0.2-0.9-0.4-1.3-0.6c-0.1,0-0.2-0.1-0.3-0.1c-0.5-0.2-0.9-0.4-1.4-0.6
		c-0.2-0.1-0.4-0.1-0.5-0.2c-6-2.3-12.6-3.5-19.4-3.5c-30.4,0-55.1,24.7-55.1,55.1c0,30.5,24.7,55.1,55.1,55.1
		c6.8,0,13.4-1.3,19.4-3.5c0.2-0.1,0.4-0.1,0.5-0.2c0.5-0.2,0.9-0.4,1.4-0.6c0.1,0,0.2-0.1,0.3-0.1c0.4-0.2,0.9-0.4,1.3-0.6
		c0.6-0.3,1.2-0.5,1.7-0.8c13.6-6.8,39.2-22.2,40.4-9.9v124.9c0,6.7,5.5,12.1,12.1,12.1h108.4c12.3,1.2-3.1,26.8-9.9,40.4
		c-0.3,0.6-0.6,1.2-0.8,1.7c-0.2,0.4-0.4,0.9-0.6,1.3c0,0.1-0.1,0.2-0.1,0.3c-0.2,0.5-0.4,0.9-0.6,1.4c-0.1,0.2-0.1,0.4-0.2,0.5
		c-2.3,6-3.5,12.6-3.5,19.4c0,30.5,24.7,55.1,55.1,55.1s55.1-24.7,55.1-55.1c0-6.8-1.3-13.4-3.5-19.4c-0.1-0.2-0.1-0.4-0.2-0.5
		c-0.2-0.5-0.4-0.9-0.6-1.4c0-0.1-0.1-0.2-0.1-0.3c-0.2-0.4-0.4-0.9-0.6-1.3c-0.3-0.6-0.5-1.2-0.8-1.7c-6.8-13.6-22.2-39.1-9.9-40.4
		h141.4c6.7,0,12.1-5.5,12.1-12.1v-125c1.3-12.3,26.8,3.1,40.4,9.9c0.6,0.3,1.2,0.6,1.7,0.8c0.4,0.2,0.9,0.4,1.3,0.6
		c0.1,0,0.2,0.1,0.3,0.1c0.5,0.2,0.9,0.4,1.4,0.6c0.2,0.1,0.4,0.1,0.5,0.2c6,2.3,12.6,3.5,19.4,3.5c30.4,0,55.1-24.7,55.1-55.1
		S1919,372.3,1888.6,372.3z"/>
	<g>
		
			<linearGradient id="SVGID_10_" gradientUnits="userSpaceOnUse" x1="1399.4646" y1="1205.2744" x2="1399.4646" y2="623.6627" gradientTransform="matrix(1 0 0 -1 0 1392)">
			<stop  offset="0" style="stop-color:#FFFFFF"/>
			<stop  offset="1" style="stop-color:#8E857E"/>
		</linearGradient>
		<path class="st19" d="M1405.4,372.3c6.8,0,13.4,1.3,19.4,3.5c0.2,0.1,0.4,0.1,0.5,0.2c0.5,0.2,0.9,0.4,1.4,0.6
			c0.1,0,0.2,0.1,0.3,0.1c0.4,0.2,0.9,0.4,1.3,0.6c0.6,0.3,1.2,0.5,1.7,0.8c13.6,6.8,39.2,22.2,40.4,9.9V263.2
			c0-4.3-2.3-8.1-5.7-10.3c-3.9,4.3-6.4,10-6.4,16.3v115.5c-5.6-2.3-12.9-6.1-16.3-7.9c-2.4-1.2-4.6-2.4-6.5-3.4
			c-0.7-0.3-1.4-0.7-2-1s-1.1-0.5-1.7-0.8l-0.3-0.1c-0.6-0.3-1.2-0.5-1.8-0.7c-0.3-0.1-0.6-0.2-1-0.3c-7.5-2.8-15.4-4.2-23.5-4.2
			c-37.1,0-67.3,30.2-67.3,67.3s30.2,67.3,67.3,67.3c8,0,15.9-1.4,23.4-4.2c0.3-0.1,0.6-0.2,0.9-0.3c0.6-0.2,1.2-0.5,1.8-0.8
			l0.3-0.2c0.5-0.2,1-0.5,1.6-0.7c0.7-0.3,1.4-0.7,2-1c2-1,4.2-2.1,6.6-3.4c3.4-1.8,10.7-5.6,16.3-7.9v92.4h-120.9
			c-6.7,13.1-13.4,28.1-4.1,29.1H1458c0.7,0,1.3-0.1,2-0.2l0,0c0.4-0.1,0.8-0.1,1.1-0.2l0,0c0.4-0.1,0.7-0.2,1.1-0.3l0,0
			c0.3-0.1,0.7-0.3,1-0.4h0.1c0.3-0.1,0.6-0.3,0.9-0.5c0,0,0.1,0,0.1-0.1c0.3-0.2,0.5-0.3,0.8-0.5c0,0,0.1-0.1,0.2-0.1
			c0.2-0.2,0.5-0.4,0.7-0.6c0.1-0.1,0.1-0.1,0.2-0.2c0.2-0.2,0.4-0.4,0.6-0.6c0.1-0.1,0.1-0.2,0.2-0.2c0.2-0.2,0.4-0.4,0.5-0.6
			c0.1-0.1,0.2-0.2,0.2-0.3c0.1-0.2,0.3-0.4,0.4-0.6c0.1-0.1,0.2-0.3,0.2-0.4c0.1-0.2,0.2-0.4,0.3-0.6c0.1-0.1,0.1-0.3,0.2-0.5
			s0.2-0.4,0.3-0.6c0.1-0.2,0.1-0.4,0.2-0.5c0.1-0.2,0.1-0.4,0.2-0.5c0.1-0.2,0.1-0.4,0.2-0.6c0-0.2,0.1-0.3,0.1-0.5
			s0.1-0.5,0.1-0.8c0-0.1,0-0.3,0.1-0.4c0-0.4,0.1-0.8,0.1-1.2v-29.1V467c-1.3-12.3-26.8,3.1-40.4,9.9c-0.6,0.3-1.2,0.6-1.7,0.8
			c-0.4,0.2-0.9,0.4-1.3,0.6c-0.1,0-0.2,0.1-0.3,0.1c-0.5,0.2-0.9,0.4-1.4,0.6c-0.2,0.1-0.4,0.1-0.5,0.2c-6,2.3-12.6,3.5-19.4,3.5
			c-30.4,0-55.1-24.7-55.1-55.1C1350.2,397,1374.9,372.3,1405.4,372.3z"/>
		
			<linearGradient id="SVGID_11_" gradientUnits="userSpaceOnUse" x1="1057.7" y1="992.2437" x2="1057.7" y2="876.7702" gradientTransform="matrix(1 0 0 -1 0 1392)">
			<stop  offset="0" style="stop-color:#FFFFFF"/>
			<stop  offset="1" style="stop-color:#8E857E"/>
		</linearGradient>
		<path class="st20" d="M1117.8,437.7c-1.3-12.3-26.8,3.1-40.4,9.9c-0.6,0.3-1.2,0.6-1.7,0.8c-0.4,0.2-0.9,0.4-1.3,0.6
			c-0.1,0-0.2,0.1-0.3,0.1c-0.5,0.2-0.9,0.4-1.4,0.6c-0.2,0.1-0.4,0.1-0.5,0.2c-6,2.3-12.6,3.5-19.4,3.5
			c-25.4,0-46.8-17.2-53.2-40.6c-1.3,4.6-2,9.5-2,14.5c0,30.5,24.7,55.1,55.1,55.1c6.8,0,13.4-1.3,19.4-3.5c0.2-0.1,0.4-0.1,0.5-0.2
			c0.5-0.2,0.9-0.4,1.4-0.6c0.1,0,0.2-0.1,0.3-0.1c0.4-0.2,0.9-0.4,1.3-0.6c0.6-0.3,1.2-0.5,1.7-0.8c13.6-6.8,39.2-22.2,40.4-9.9
			L1117.8,437.7L1117.8,437.7z"/>
		
			<linearGradient id="SVGID_12_" gradientUnits="userSpaceOnUse" x1="1188.62" y1="837.1388" x2="1188.62" y2="768.8496" gradientTransform="matrix(1 0 0 -1 0 1392)">
			<stop  offset="0" style="stop-color:#FFFFFF"/>
			<stop  offset="1" style="stop-color:#8E857E"/>
		</linearGradient>
		<path class="st21" d="M1129.9,574.7c-6.7,0-12.1-5.5-12.1-12.1v29.1c0,6.7,5.5,12.1,12.1,12.1h124.9c9.4-1,2.7-16-4.1-29.1H1129.9
			z"/>
	</g>
	
		<linearGradient id="SVGID_13_" gradientUnits="userSpaceOnUse" x1="1647.0046" y1="1084.1841" x2="1647.0046" y2="410.2169" gradientTransform="matrix(1 0 0 -1 0 1392)">
		<stop  offset="0" style="stop-color:#FFFFFF"/>
		<stop  offset="1" style="stop-color:#8E857E"/>
	</linearGradient>
	<path class="st22" d="M1470.6,437.7c-1.3-12.3-26.8,3.1-40.4,9.9c-0.6,0.3-1.2,0.6-1.7,0.8c-0.4,0.2-0.9,0.4-1.3,0.6
		c-0.1,0-0.2,0.1-0.3,0.1c-0.5,0.2-0.9,0.4-1.4,0.6c-0.2,0.1-0.4,0.1-0.5,0.2c-6,2.3-12.6,3.5-19.4,3.5c-25.4,0-46.8-17.2-53.2-40.6
		c-1.3,4.6-2,9.5-2,14.5c0,30.5,24.7,55.1,55.1,55.1c6.8,0,13.4-1.3,19.4-3.5c0.2-0.1,0.4-0.1,0.5-0.2c0.5-0.2,0.9-0.4,1.4-0.6
		c0.1,0,0.2-0.1,0.3-0.1c0.4-0.2,0.9-0.4,1.3-0.6c0.6-0.3,1.2-0.5,1.7-0.8c13.6-6.8,39.2-22.2,40.4-9.9L1470.6,437.7L1470.6,437.7z
		 M1941.7,412.9c-6.4,23.4-27.8,40.6-53.2,40.6c-6.8,0-13.4-1.3-19.4-3.5c-0.2-0.1-0.4-0.1-0.5-0.2c-0.5-0.2-0.9-0.4-1.4-0.6
		c-0.1,0-0.2-0.1-0.3-0.1c-0.4-0.2-0.9-0.4-1.3-0.6c-0.6-0.3-1.2-0.5-1.7-0.8c-13.6-6.8-39.2-22.2-40.4-9.9v29.1
		c1.3-12.3,26.8,3.1,40.4,9.9c0.6,0.3,1.2,0.6,1.7,0.8c0.4,0.2,0.9,0.4,1.3,0.6c0.1,0,0.2,0.1,0.3,0.1c0.5,0.2,0.9,0.4,1.4,0.6
		c0.2,0.1,0.4,0.1,0.5,0.2c6,2.3,12.6,3.5,19.4,3.5c30.4,0,55.1-24.7,55.1-55.1C1943.7,422.4,1943,417.5,1941.7,412.9z
		 M1591.1,574.7h-108.4c-6.7,0-12.1-5.5-12.1-12.1v29.1c0,6.7,5.5,12.1,12.1,12.1h104.4C1593.8,590.7,1600.5,575.7,1591.1,574.7z
		 M1811.2,574.7h-141.4c-9.4,1-2.7,16,4.1,29.1h137.4c6.7,0,12.1-5.5,12.1-12.1v-29.1C1823.4,569.3,1817.9,574.7,1811.2,574.7z
		 M1630.5,695.1c-25.4,0-46.8-17.2-53.2-40.6c-1.3,4.6-2,9.5-2,14.5c0,30.5,24.7,55.1,55.1,55.1s55.1-24.7,55.1-55.1
		c0-5-0.7-9.9-2-14.5C1677.3,677.9,1655.9,695.1,1630.5,695.1z"/>
	
		<linearGradient id="SVGID_14_" gradientUnits="userSpaceOnUse" x1="-292.9255" y1="4125.4116" x2="-1366.9106" y2="4125.4116" gradientTransform="matrix(0 -1 1 0 -1744.2617 -352.2607)">
		<stop  offset="0" style="stop-color:#63BCD8"/>
		<stop  offset="1" style="stop-color:#3D7EB8"/>
	</linearGradient>
	<path class="st23" d="M2376.2,347.8c0-6.8-1.3-13.4-3.5-19.4c-0.1-0.2-0.1-0.4-0.2-0.5c-0.2-0.5-0.4-0.9-0.6-1.4
		c0-0.1-0.1-0.2-0.1-0.3c-0.2-0.4-0.4-0.9-0.6-1.3c-0.3-0.6-0.5-1.2-0.8-1.7c-6.8-13.6-22.2-39.2-9.9-40.4h124.9
		c6.7,0,12.1,5.5,12.1,12.1v124.9c1.3,12.3,26.8-3.1,40.4-9.9c0.6-0.3,1.2-0.6,1.7-0.8c0.4-0.2,0.9-0.4,1.3-0.6
		c0.1,0,0.2-0.1,0.3-0.1c0.5-0.2,0.9-0.4,1.4-0.6c0.2-0.1,0.4-0.1,0.5-0.2c6-2.3,12.6-3.5,19.4-3.5c30.4,0,55.1,24.7,55.1,55.1
		c0,30.5-24.7,55.1-55.1,55.1c-6.8,0-13.4-1.3-19.4-3.5c-0.2-0.1-0.4-0.1-0.5-0.2c-0.5-0.2-0.9-0.4-1.4-0.6c-0.1,0-0.2-0.1-0.3-0.1
		c-0.4-0.2-0.9-0.4-1.3-0.6c-0.6-0.3-1.2-0.5-1.7-0.8c-13.6-6.8-39.2-22.2-40.4-9.9v124.9c0,6.7-5.5,12.1-12.1,12.1h-124.9
		c-12.3,1.2,3.1,26.8,9.9,40.4c0.3,0.6,0.6,1.2,0.8,1.7c0.2,0.4,0.4,0.9,0.6,1.3c0,0.1,0.1,0.2,0.1,0.3c0.2,0.5,0.4,0.9,0.6,1.4
		c0.1,0.2,0.1,0.4,0.2,0.5c2.3,6,3.5,12.6,3.5,19.4c0,30.4-24.7,55.1-55.1,55.1c-30.5,0-55.1-24.7-55.1-55.1
		c0-6.8,1.3-13.4,3.5-19.4c0.1-0.2,0.1-0.4,0.2-0.5c0.2-0.5,0.4-0.9,0.6-1.4c0-0.1,0.1-0.2,0.1-0.3c0.2-0.4,0.4-0.9,0.6-1.3
		c0.3-0.6,0.5-1.2,0.8-1.7c6.8-13.6,22.2-39.2,9.9-40.4h-124.9c-6.7,0-12.1-5.5-12.1-12.1V498.4c1.3-12.3,26.8,3.1,40.4,9.9
		c0.6,0.3,1.2,0.6,1.7,0.8c0.4,0.2,0.9,0.4,1.3,0.6c0.1,0,0.2,0.1,0.3,0.1c0.5,0.2,0.9,0.4,1.4,0.6c0.2,0.1,0.4,0.1,0.5,0.2
		c6,2.3,12.6,3.5,19.4,3.5c30.5,0,55.1-24.7,55.1-55.1s-24.7-55.1-55.1-55.1c-6.8,0-13.4,1.3-19.4,3.5c-0.2,0.1-0.4,0.1-0.5,0.2
		c-0.5,0.2-0.9,0.4-1.4,0.6c-0.1,0-0.2,0.1-0.3,0.1c-0.4,0.2-0.9,0.4-1.3,0.6c-0.6,0.3-1.2,0.5-1.7,0.8
		c-13.6,6.8-39.2,22.2-40.4,9.9V294.7c0-6.7,5.5-12.1,12.1-12.1h124.9c12.3,1.2-3.1,26.8-9.9,40.4c-0.3,0.6-0.6,1.2-0.8,1.7
		c-0.2,0.4-0.4,0.9-0.6,1.3c0,0.1-0.1,0.2-0.1,0.3c-0.2,0.5-0.4,0.9-0.6,1.4c-0.1,0.2-0.1,0.4-0.2,0.5c-2.3,6-3.5,12.6-3.5,19.4
		c0,30.4,24.7,55.1,55.1,55.1C2351.5,402.9,2376.2,378.2,2376.2,347.8z"/>
	
		<linearGradient id="SVGID_15_" gradientUnits="userSpaceOnUse" x1="2381.2056" y1="1313.986" x2="2381.2056" y2="-714.652" gradientTransform="matrix(1 0 0 -1 0 1392)">
		<stop  offset="0" style="stop-color:#FFFFFF"/>
		<stop  offset="1" style="stop-color:#8E857E"/>
	</linearGradient>
	<path class="st24" d="M2281.7,608.3h-124.9c-6.7,0-12.1-5.5-12.1-12.1v27.1c0,6.7,5.5,12.1,12.1,12.1h121.9
		C2285,622.8,2290.6,609.2,2281.7,608.3z M2321,728.6c-25.8,0-47.4-17.7-53.4-41.6c-1.1,4.3-1.7,8.8-1.7,13.5
		c0,30.4,24.7,55.1,55.1,55.1c30.4,0,55.1-24.7,55.1-55.1c0-4.7-0.6-9.2-1.7-13.5C2368.4,711,2346.8,728.6,2321,728.6z
		 M2616.1,445.5c-6,23.9-27.7,41.6-53.5,41.6c-6.8,0-13.4-1.3-19.4-3.5c-0.2-0.1-0.4-0.1-0.5-0.2c-0.5-0.2-0.9-0.4-1.4-0.6
		c-0.1,0-0.2-0.1-0.3-0.1c-0.4-0.2-0.9-0.4-1.3-0.6c-0.6-0.3-1.2-0.5-1.7-0.8c-13.6-6.8-39.2-22.2-40.4-9.9v27.1
		c1.3-12.3,26.8,3.1,40.4,9.9c0.6,0.3,1.2,0.6,1.7,0.8c0.4,0.2,0.9,0.4,1.3,0.6c0.1,0,0.2,0.1,0.3,0.1c0.5,0.2,0.9,0.4,1.4,0.6
		c0.2,0.1,0.4,0.1,0.5,0.2c6,2.3,12.6,3.5,19.4,3.5c30.4,0,55.1-24.7,55.1-55.1C2617.8,454.3,2617.2,449.8,2616.1,445.5z
		 M2485.3,608.3h-124.9c-8.9,0.9-3.3,14.5,3,27.1h121.9c6.7,0,12.1-5.5,12.1-12.1v-27.1C2497.4,602.9,2492,608.3,2485.3,608.3z"/>
	<g>
		<g>
			<path class="st25" d="M2511.3,718.1c0,0-91.9,87-109.6,105.2c-17.7,18.2,11.3,57.6,44.5,45.4c33.2-12.2,78.8-29.8,103.5-52.2
				s38-45.5,36.3-76.5C2584.4,708.9,2536.1,694.6,2511.3,718.1z"/>
			<g>
				<path class="st26" d="M2555.3,1006.7c0,0,21.7-32.2,23.2-34.6c1.6-2.7,4.1-7.2,11.1-0.1c7,7.1,9.4,9.2,9.4,9.2
					s-32.5,29-36.4,31.7C2558.8,1015.5,2553.7,1015.3,2555.3,1006.7z"/>
				<path class="st25" d="M2407.8,877.5c27,15.4,12.7,8.5,44.8,28.1c32.1,19.5,124.2,76.2,124.2,76.2s3.8-0.5,5.3-3.2
					c2.3-4.1,0.6-6.2,0.6-6.2s-21.4-16-32.8-30.4c-11.3-14.4-94.9-103.2-110.6-119c-15.7-15.8-24.1-13.6-33.5-4.3
					C2387.9,836.6,2386.8,865.5,2407.8,877.5z"/>
			</g>
		</g>
		<g>
			<path class="st26" d="M2478.2,1117.4c0,0,37.4-10.3,40.2-11.2c3-1,7.8-2.8,8.5,7.1s1.1,13,1.1,13s-43.5,0.8-48.2,0.4
				S2471.3,1122.8,2478.2,1117.4z"/>
			<path class="st15" d="M2560.3,742.1c0,0-56.5,113.2-66.8,136.4c-10.4,23.1,30.4,50.3,57.4,27.4c27-22.9,63.8-55.1,79.3-84.6
				s20.1-55.7,7.9-84.3C2625.8,708.4,2575.4,711.6,2560.3,742.1z"/>
			<path class="st15" d="M2491.3,884c-0.3,31,3.8,47.8,6.6,85.3s10.2,145.4,10.2,145.4s3.7,0.5,7.2-1.3c3.8-2,4.1-5.6,4.1-5.6
				s0.3-20.5,5.4-38.1c5.1-17.6,28.7-137.2,32.5-159.2c3.7-22-2.9-30.2-28.2-32.4C2503.9,875.9,2491.4,879.5,2491.3,884z"/>
		</g>
		
			<linearGradient id="SVGID_16_" gradientUnits="userSpaceOnUse" x1="2413.4998" y1="596.7179" x2="2651.2214" y2="596.7179" gradientTransform="matrix(1 0 0 -1 0 1392)">
			<stop  offset="0" style="stop-color:#0A0E1A"/>
			<stop  offset="1" style="stop-color:#040F2C"/>
		</linearGradient>
		<path class="st27" d="M2487.6,735.2c-15.1,13.8-74.1,70.6-74.1,70.6s-0.6,22,62,60.8c75,46.5,103.2,26.5,103.2,26.5
			s29.2-31.5,44.1-49.9c22.1-27.3,48.8-107.9,4.5-125.9c-44.2-18-78.8-31.9-99.4-19.2C2507.3,710.8,2497,726.6,2487.6,735.2z"/>
		
			<linearGradient id="SVGID_17_" gradientUnits="userSpaceOnUse" x1="2615.7415" y1="749.2131" x2="2541.407" y2="562.5693" gradientTransform="matrix(1 0 0 -1 0 1392)">
			<stop  offset="0" style="stop-color:#FE9E1A"/>
			<stop  offset="1" style="stop-color:#FF5B00"/>
		</linearGradient>
		<path class="st28" d="M2673.7,580.7c-8.6-4.8-15.2-8.1-23.9-11.3c-30.6-11.1-56.9-3.8-64.9,14.5c-1.2,2.7-2,5.6-3.6,8
			c-6.7,10.4-31.2,3.7-44.3,20.1c-8.2,10.2,0.8,30.4,10,40c-31.8,50.3-60.6,79.8-60.6,79.8s0.5,19.1,75.2,52.9
			c57.6,26,85.1,16.1,85.1,16.1s30.4-78.9,43.4-138.6C2696.4,633.1,2708.6,600,2673.7,580.7z"/>
		<g>
			<path class="st10" d="M2626.2,563.7c-6.9,9.8-25.1,29.9,0.9,40.2c30.6,12.1,51.1-15.8,51-20.1c-0.2-9.7-14-10.8-21.8-13.7
				C2648.6,567.2,2632,555.5,2626.2,563.7z"/>
			<g>
				
					<linearGradient id="SVGID_18_" gradientUnits="userSpaceOnUse" x1="13911.708" y1="625.5236" x2="13911.708" y2="99.4306" gradientTransform="matrix(-0.8559 -0.5169 0.5169 -0.8559 14314.1816 8168.4561)">
					<stop  offset="0" style="stop-color:#FDAA65"/>
					<stop  offset="1" style="stop-color:#F47124"/>
				</linearGradient>
				<path class="st29" d="M2670.5,579.7c-1.4-0.8-2.8-1.5-4.3-2.3c-8.3-4.1-15.3-6.5-24.7-9.4c-3-0.9-5.8-1.6-8.5-2
					c-4.1,6.5-19.7,22.6-0.4,30.9C2652.5,605.5,2667.9,586.6,2670.5,579.7z"/>
				<g>
					
						<linearGradient id="SVGID_19_" gradientUnits="userSpaceOnUse" x1="13923.7334" y1="623.729" x2="13923.7334" y2="103.8808" gradientTransform="matrix(-0.8559 -0.5169 0.5169 -0.8559 14314.1816 8168.4561)">
						<stop  offset="0" style="stop-color:#FDAA65"/>
						<stop  offset="1" style="stop-color:#F47124"/>
					</linearGradient>
					<path class="st30" d="M2665,579.6c8.1-20,8.4-34,8.2-52.7c0.2-0.6-26.1-5.8-27.7-20.8c0,0-8,15.6-10.9,30
						c-2.7,13.6-1.6,22,13.2,20.6c-3.2,5.6-7.3,12.3-10.8,16.9c-7.2,9.4-2.1,16.4,2.7,19.1C2644.7,595.4,2656.8,599.9,2665,579.6z"
						/>
					
						<linearGradient id="SVGID_20_" gradientUnits="userSpaceOnUse" x1="13909.5938" y1="623.7536" x2="13909.5938" y2="103.8018" gradientTransform="matrix(-0.8559 -0.5169 0.5169 -0.8559 14314.1816 8168.4561)">
						<stop  offset="0" style="stop-color:#FDAA65"/>
						<stop  offset="1" style="stop-color:#F47124"/>
					</linearGradient>
					<path class="st31" d="M2684.7,536.8c0.7,3.8-3.3,7.6-8.8,8.7c-5.6,1-10.6-1.2-11.3-5s3.3-7.6,8.8-8.7
						C2678.9,530.8,2684,533.1,2684.7,536.8z"/>
				</g>
			</g>
		</g>
		<g>
			<g>
				<path class="st15" d="M2533.9,432.9c1.7-3.5,6.1-15.2,2.5-16c-2.8-0.7-7.3,3.7-9.1,7.3c-0.6,1.3,0.5,5.9-6.7,10.2
					c-5.2,3,0,10.6,0,10.6S2530.5,440.3,2533.9,432.9z"/>
				<path class="st15" d="M2537.2,567.5c-15.1-26.8-28.2-99.9-30.9-114.2c-1.3-7.3-7.6-8.6-10.1-23.3c-0.9-5.4-0.6-11.9,3.9-16.1
					c4.4-4.1,22-4.4,27.1,0c4.2,3.6,3.2,24.6-6.5,33.3c0.1,8.3,27.4,77.8,35,97.6c3.4,8.9,16.2,23.5,4.7,25.4
					C2547,572.3,2542.9,577.4,2537.2,567.5z"/>
			</g>
			<g>
				<path class="st15" d="M2583,562.1c0,0-29.3-9.6-38.5-10.9c-6.6-0.9-7.1,8.3-7.5,14s15.7,19.5,32.3,26.2
					C2581.9,596.5,2584.6,564.2,2583,562.1z"/>
				
					<linearGradient id="SVGID_21_" gradientUnits="userSpaceOnUse" x1="2469.5713" y1="880.4062" x2="2658.0344" y2="760.4199" gradientTransform="matrix(1 0 0 -1 0 1392)">
					<stop  offset="0" style="stop-color:#FE1B01"/>
					<stop  offset="0.1599" style="stop-color:#FE2002"/>
					<stop  offset="0.3382" style="stop-color:#FE2D05"/>
					<stop  offset="0.5252" style="stop-color:#FE4309"/>
					<stop  offset="0.7183" style="stop-color:#FE620F"/>
					<stop  offset="0.9142" style="stop-color:#FE8A17"/>
					<stop  offset="1" style="stop-color:#FE9E1B"/>
				</linearGradient>
				<path class="st32" d="M2671.6,596.5c-21.8-13.5-102.6-45-102.6-45s-7.4,4.1-14.9,19c-11.2,22.3-8.7,32.8-8.7,32.8
					s48.3,32.2,82.8,50.6c27.3,14.6,56.3,6.8,64.7-15.9C2699.8,619.5,2683.8,604.1,2671.6,596.5z"/>
			</g>
		</g>
		<path class="st33" d="M2602.1,679.1c-19.8-8-34.2-15.6-55.1-27.1c-1.3,2.1-2.6,4.1-3.9,6c10.3,6.3,37.5,22.2,56.8,27.7
			c24.2,6.9,29.1-11.1,29.1-11.1S2621.9,687.2,2602.1,679.1z"/>
	</g>
	
		<linearGradient id="SVGID_22_" gradientUnits="userSpaceOnUse" x1="1128.5598" y1="1041.3602" x2="1128.5598" y2="868.4506" gradientTransform="matrix(1 0 0 -1 0 1392)">
		<stop  offset="0" style="stop-color:#FFFFFF"/>
		<stop  offset="1" style="stop-color:#8E857E"/>
	</linearGradient>
	<path class="st34" d="M1254.8,603.8c12.3-1.3-3.1-26.8-9.9-40.4c-0.3-0.6-0.6-1.2-0.8-1.7c-0.2-0.4-0.4-0.9-0.6-1.3
		c0-0.1-0.1-0.2-0.1-0.3c-0.2-0.5-0.4-0.9-0.6-1.4c-0.1-0.2-0.1-0.4-0.2-0.5c-2.3-6-3.5-12.6-3.5-19.4c0-7.3,1.4-14.3,4-20.7
		c-10.1-5.1-21-8.7-32.3-10.6c2.3-9.1,3.4-18.4,3.4-27.9c0-56.9-41.9-104.2-96.4-112.8v21.5c-1.3,12.3-26.8-3.1-40.4-9.9
		c-0.6-0.3-1.2-0.6-1.7-0.8c-0.4-0.2-0.9-0.4-1.3-0.6c-0.1,0-0.2-0.1-0.3-0.1c-0.5-0.2-0.9-0.4-1.4-0.6c-0.2-0.1-0.4-0.1-0.5-0.2
		c-6-2.3-12.6-3.5-19.4-3.5c-30.4,0-55.1,24.7-55.1,55.1c0,30.5,24.7,55.1,55.1,55.1c6.8,0,13.4-1.3,19.4-3.5
		c0.2-0.1,0.4-0.1,0.5-0.2c0.5-0.2,0.9-0.4,1.4-0.6c0.1,0,0.2-0.1,0.3-0.1c0.4-0.2,0.9-0.4,1.3-0.6c0.6-0.3,1.2-0.5,1.7-0.8
		c13.6-6.8,39.2-22.2,40.4-9.9V592c0,6.7,5.5,12.1,12.1,12.1h124.9V603.8z"/>
	<g>
		<g>
			<g>
				<path class="st35" d="M550,784.1c1.5-3.6,5.9-13.9,8.9-11.8c2.4,1.6,3.4,7.8,1.9,11.6c-0.5,1.3-4.7,2.9-3.1,11.2
					c1.2,5.9-7.9,7.1-7.9,7.1S546.9,791.6,550,784.1z"/>
				<path class="st35" d="M456.9,868.4c30-6.7,83.9-42.9,96.5-50.1c15.2-8.7,16.7-4.4,29.4-12.2c8.5-5.3,3.4-26.5-4.8-27.9
					c-11.8-2-29.9,6.7-29.7,25.3c-6.2,5.5-73.8,29.8-93.5,37.5c-8.9,3.5-17.7,10.1-15.7,17.5C441.8,869.2,445.7,870.9,456.9,868.4z"
					/>
			</g>
			<g>
				<path class="st35" d="M434,826.7c0,0,22.4,21.2,27.8,28.7c3.9,5.4-4,10.2-8.8,13.2s-24.6-4.6-38.3-16
					C404.2,843.9,431.4,826.2,434,826.7z"/>
				
					<linearGradient id="SVGID_23_" gradientUnits="userSpaceOnUse" x1="345.506" y1="599.7838" x2="413.3764" y2="544.033" gradientTransform="matrix(1 0 0 -1 0 1392)">
					<stop  offset="0" style="stop-color:#76469F"/>
					<stop  offset="1" style="stop-color:#391C89"/>
				</linearGradient>
				<path class="st36" d="M357.5,752.4c20.8,14.9,92.3,81.6,92.3,81.6s-0.1,8.5-9.7,22.1c-14.3,20.4-27,32.2-27,32.2
					s-49-36.3-81.6-58c-25.8-17.1-30.7-44.9-16.6-64.5C327.9,747.9,343.3,742.2,357.5,752.4z"/>
			</g>
		</g>
		<g>
			<g>
				<path class="st15" d="M1309.3,705c-0.7-3.8-3.8-13.8-7.1-11.9c-2.5,1.4-2.3,7.3-1.7,11.2c0.2,1.4,2.2,2-1.1,9.7
					c-2.4,5.5,7.6,10.3,7.6,10.3S1310.9,714.1,1309.3,705z"/>
				<path class="st15" d="M1377.4,804c-28-12.9-65-60.8-78.5-66.3c-22.7-9.2-26.9-17.2-26.5-28.1c0.2-6.2,10-15.3,18.4-15.6
					c5.3-0.2,13.6,9.9,16.2,30.3c4.9,6.7,66,44.5,83.7,56.2c8,5.3,25.2,14.5,16.3,18.9C1395.3,805.1,1387.1,808.5,1377.4,804z"/>
			</g>
			<g>
				<path class="st15" d="M1414.4,775.5c0,0-30.1,6.8-38.6,10.4c-6.1,2.6-1.8,10.8,0.7,15.9c2.6,5.1,23.4,8.6,41.1,5.9
					C1431.2,805.5,1416.9,776.4,1414.4,775.5z"/>
				
					<linearGradient id="SVGID_24_" gradientUnits="userSpaceOnUse" x1="1529.928" y1="607.432" x2="1300.058" y2="556.1258" gradientTransform="matrix(1 0 0 -1 0 1392)">
					<stop  offset="0" style="stop-color:#65BDD8"/>
					<stop  offset="0.2171" style="stop-color:#59ABC7"/>
					<stop  offset="0.6496" style="stop-color:#3B7D9D"/>
					<stop  offset="1" style="stop-color:#205376"/>
				</linearGradient>
				<path class="st37" d="M1518.1,750.8c-25.5,2.1-121.1,22.7-121.1,22.7s-4.2,7.4-3,23.9c1.1,14.3,3.3,25.8,4.6,33.1
					c1.6,8.5,6.3,8,13.4,7.3c19.4-1.8,59.7-5.5,88.4-6.9c30.9-1.5,49.4-22.8,47.4-46.9C1545.9,762.2,1535.6,749.4,1518.1,750.8z"/>
			</g>
		</g>
		<g>
			
				<linearGradient id="SVGID_25_" gradientUnits="userSpaceOnUse" x1="962.95" y1="1107.4216" x2="962.95" y2="5.6346" gradientTransform="matrix(1 0 0 -1 0 1392)">
				<stop  offset="0" style="stop-color:#63BCD8"/>
				<stop  offset="1" style="stop-color:#3D7EB8"/>
			</linearGradient>
			<path class="st38" d="M984.5,864.5c-12,0-23.4,2.2-34,6.2c-0.3,0.1-0.6,0.2-0.9,0.3c-0.8,0.3-1.6,0.7-2.5,1
				c-0.2,0.1-0.4,0.2-0.6,0.2c-0.8,0.3-1.5,0.7-2.3,1.1c-1,0.5-2,1-3,1.5c-24.8,12.3-53.1,34.5-53.1,4.9c0,0-43.1,34.5-43.1,78.9
				c0,53.5,43.1,83.6,43.1,83.6c0-29.6,28.2-7.5,53.1,4.9c1,0.5,2,1,3,1.5c0.8,0.4,1.6,0.7,2.3,1.1c0.2,0.1,0.4,0.2,0.6,0.2
				c0.8,0.4,1.7,0.7,2.5,1c0.3,0.1,0.6,0.2,0.9,0.3c10.6,4,22,6.2,34,6.2c53.2,0,96.4-43.2,96.4-96.4
				C1080.9,907.6,1037.7,864.5,984.5,864.5z"/>
			
				<linearGradient id="SVGID_26_" gradientUnits="userSpaceOnUse" x1="677.0499" y1="924.2028" x2="677.0499" y2="134.5325" gradientTransform="matrix(1 0 0 -1 0 1392)">
				<stop  offset="0" style="stop-color:#63BCD8"/>
				<stop  offset="1" style="stop-color:#3D7EB8"/>
			</linearGradient>
			<path class="st39" d="M811.7,462.5c13.9,0,27.6,2.5,40.6,7.3c0.6,0.2,1.1,0.4,1.6,0.6c1,0.4,2,0.8,3.1,1.3
				c0.2,0.1,0.4,0.2,0.6,0.3c1,0.4,2,0.9,2.9,1.3c1.2,0.5,2.4,1.1,3.5,1.7c4.9,2.4,9.7,5.1,14.3,7.6c2.8,1.6,6.3,3.5,9.6,5.2V377.9
				c0-7-2.8-13.9-7.9-20.2c-11.9-29.5-40.8-50.3-74.5-50.3c-40.2,0-73.4,29.4-79.4,67.9c-0.8,0-1.8,0-3.1,0.1
				c-8.6-2.4-17.7-3.6-27-3.6c-56.4,0-102.1,45.7-102.1,102c0,13.6,2.7,26.7,7.5,38.6c-54.6,1.3-98.5,46-98.5,101
				c0,24.4,8.6,46.7,23,64.2c-35.3,16-59.8,51.5-59.8,92.8c0,33.8,16.4,63.7,41.8,82.3c-20,21.1-32.3,49.7-32.3,81.1
				c0,55.2,37.9,101.5,89,114.3c-0.1,1.8-0.1,3.5-0.1,5.3c0,56.4,43.8,102.5,99.2,106.3c20.2,37.3,59.6,62.6,105,62.6
				c65.9,0,119.3-53.4,119.3-119.3V670.2c-3.3,1.7-6.8,3.6-9.6,5.2c-4.7,2.6-9.5,5.3-14.3,7.7c-1.1,0.6-2.3,1.2-3.6,1.7
				c-0.9,0.4-1.8,0.8-2.7,1.2c0,0-0.5,0.2-0.7,0.3c-1,0.4-2,0.8-3,1.2c-0.5,0.2-1.1,0.4-1.6,0.6c-13,4.8-26.7,7.3-40.6,7.3
				c-64.2,0-116.5-52.2-116.5-116.5C695.3,514.7,747.5,462.5,811.7,462.5z"/>
			<g>
				
					<linearGradient id="SVGID_27_" gradientUnits="userSpaceOnUse" x1="1118.9501" y1="1097.0505" x2="1118.9501" y2="-157.1278" gradientTransform="matrix(1 0 0 -1 0 1392)">
					<stop  offset="0" style="stop-color:#FE9E1A"/>
					<stop  offset="1" style="stop-color:#FF5B00"/>
				</linearGradient>
				<path class="st40" d="M1329.9,770.4c0-41.3-24.5-76.8-59.8-92.8c14.4-17.4,23-39.8,23-64.2c0-55-43.9-99.7-98.5-101
					c4.9-11.9,7.5-24.9,7.5-38.6c0-56.4-45.7-102-102.1-102c-9.4,0-18.4,1.3-27,3.6c-1.3-0.1-2.3-0.1-3.1-0.1
					c-6-38.5-39.3-67.9-79.4-67.9c-33.7,0-62.6,20.8-74.5,50.3c-5.1,6.3-7.9,13.2-7.9,20.2v491.9c3.4-1.8,7-3.7,9.9-5.4
					c4.7-2.6,9.5-5.3,14.3-7.7c1.1-0.6,2.3-1.2,3.6-1.7c0.9-0.4,1.8-0.8,2.7-1.2c0,0,0.5-0.2,0.7-0.3c1-0.4,2-0.8,3-1.2
					c0.5-0.2,1.1-0.4,1.6-0.6c13-4.8,26.7-7.3,40.6-7.3c64.2,0,116.5,52.2,116.5,116.5c0,64.2-52.2,116.5-116.5,116.5
					c-13.9,0-27.6-2.5-40.6-7.3c-0.6-0.2-1.1-0.4-1.6-0.6c-1-0.4-2-0.8-3.1-1.3c-0.2-0.1-0.4-0.2-0.6-0.3c-1-0.4-2-0.9-2.9-1.3
					c-1.2-0.5-2.4-1.1-3.5-1.7c-4.9-2.4-9.7-5.1-14.3-7.6c-2.9-1.6-6.5-3.6-9.9-5.3v51.1c0,65.9,53.4,119.3,119.3,119.3
					c45.4,0,84.8-25.3,105-62.6c55.4-3.8,99.2-49.9,99.2-106.3c0-1.8,0-3.6-0.1-5.3c51.2-12.9,89-59.2,89-114.3
					c0-31.4-12.3-60-32.3-81.1C1313.4,834.1,1329.9,804.2,1329.9,770.4z"/>
				<path class="st41" d="M1066.3,371.9c1,0,2,0,2.9,0c-7.4-36.8-39.9-64.4-78.8-64.4c-5.8,0-11.4,0.6-16.9,1.8
					c32.3,6.9,57.4,33.2,62.6,66.1c0.8,0,1.8,0,3.1,0.1C1047.9,373.1,1057,371.9,1066.3,371.9z M1010.5,1221.1
					c5.5,0.8,11.1,1.2,16.8,1.2c45.4,0,84.8-25.3,105-62.6c55.4-3.8,99.2-49.9,99.2-106.3c0-1.8,0-3.6-0.1-5.3
					c51.2-12.9,89-59.2,89-114.3c0-31.4-12.3-60-32.3-81.1c25.3-18.5,41.8-48.5,41.8-82.3c0-41.3-24.5-76.8-59.8-92.8
					c14.4-17.4,23-39.8,23-64.2c0-55-43.9-99.7-98.5-101c4.9-11.9,7.5-24.9,7.5-38.6c0-56.4-45.7-102-102.1-102
					c-5.7,0-11.4,0.5-16.9,1.4c48.3,8,85.2,50,85.2,100.7c0,13.6-2.7,26.7-7.5,38.6c54.6,1.3,98.5,46,98.5,101
					c0,24.4-8.6,46.7-23,64.2c35.3,16,59.8,51.5,59.8,92.8c0,33.8-16.4,63.7-41.8,82.3c20,21.1,32.3,49.7,32.3,81.1
					c0,55.2-37.9,101.5-89,114.3c0.1,1.8,0.1,3.5,0.1,5.3c0,56.4-43.8,102.5-99.2,106.3C1081,1192.3,1048.6,1215.7,1010.5,1221.1z"
					/>
				<path class="st42" d="M1058.6,538.9c14.9-13.3,36.9-13.6,52.1-1.7c-6.8,7.2-12.6,15.5-17.4,24.5l9.2,4.8
					c16.9-32.2,50.6-54.2,89.5-54.2c0.8,0,1.7,0,2.5,0c0.7-1.6,1.3-3.2,1.8-4.9c0.1-0.4,0.2-0.7,0.4-1.1c0.4-1.3,0.9-2.6,1.3-4
					c0-0.1,0.1-0.2,0.1-0.4c-2-0.1-4-0.2-6-0.2c-27.7,0-53.8,10.2-73.8,27.9c-19.1-15.9-47.5-15.8-66.6,1.2L1058.6,538.9z
					 M1202.5,805.4c-57.2,0-105.7,37.6-122.3,89.3c2.7,3.9,5.2,8,7.4,12.2c12.1-52.2,58.9-91.1,114.8-91.1
					c33.7,0,64.1,14.1,85.6,36.8l0,0c1.3-1,2.6-2,3.9-3c0.1-0.1,0.2-0.1,0.2-0.2c1.3-1.1,2.6-2.2,3.8-3.3l0,0
					C1272.7,821.1,1239.4,805.4,1202.5,805.4z M1106.4,672.4c-10.2,10.3-23.8,16.1-38.3,16.2c-14.5,0.1-28.2-5.5-38.5-15.7
					c-11.7-11.5-17.4-27.5-15.9-43.6c5.5,1.1,11.1,1.6,16.8,1.6c0.2,0,0.4,0,0.6,0c23.6-0.2,45.6-9.5,62.2-26.3l-7.4-7.3
					c-14.6,14.8-34.1,23-54.8,23.2c-20.8,0.1-40.4-7.8-55.1-22.4c-18.7-18.5-26.8-44.9-21.6-70.7l-10.2-2.1
					c-5.9,29.3,3.3,59.3,24.5,80.2c10,9.8,21.9,17,34.9,21.2c-2.3,19.8,4.5,39.6,18.8,53.7c12.2,12,28.3,18.7,45.5,18.7
					c0.1,0,0.3,0,0.4,0c17.3-0.1,33.5-7,45.7-19.3L1106.4,672.4z M1124.5,726.7l9.6,4.1c15.5-36.6,51.7-62.2,93.9-62.2
					c15,0,29.3,3.3,42.1,9.1l0,0c1.1-1.3,2.1-2.7,3.1-4c0.1-0.1,0.2-0.3,0.3-0.4c1-1.3,1.9-2.7,2.8-4.1c-14.7-7-31.1-11-48.4-11
					C1182.7,658.1,1142.1,685,1124.5,726.7z M1174.8,928.2c18.6,39.9,2.2,87.3-36.7,107.2c-3.2-5.3-6.8-10.3-10.8-15.1l-8,6.7
					c17.1,20.7,27.4,47.2,27.4,76.1c0,20.5-5.2,39.8-14.3,56.7l0,0c1.5-0.1,3.1-0.3,4.6-0.4c0.3,0,0.7-0.1,1-0.1
					c1.4-0.2,2.8-0.4,4.2-0.6c0.4-0.1,0.7-0.1,1.1-0.2c0.5-0.1,1-0.2,1.5-0.3c7.9-16.7,12.3-35.4,12.3-55.1c0-20.4-4.9-40.5-14-58.5
					c43.6-22.5,62.1-75.9,41.1-120.7L1174.8,928.2z M952.3,830.1l9.8,3.5c13.8-38.7,56.5-58.9,95.2-45.1l3.5-9.8
					C1016.7,763,968.1,786.1,952.3,830.1z M1073,375.5c-1.3-0.1-2.3-0.1-3.1-0.1c-0.2-1-0.3-2-0.5-3c-0.1-0.4-0.2-0.9-0.3-1.3
					c-0.1-0.4-0.2-0.9-0.3-1.3c-0.3-1.2-0.6-2.4-0.9-3.6v-0.1c-46.4,13.9-80.3,56.9-80.3,107.8H998
					C998,426.9,1029.7,387.4,1073,375.5z"/>
				
					<linearGradient id="SVGID_28_" gradientUnits="userSpaceOnUse" x1="962.95" y1="924.1996" x2="962.95" y2="134.5341" gradientTransform="matrix(1 0 0 -1 0 1392)">
					<stop  offset="0" style="stop-color:#63BCD8"/>
					<stop  offset="1" style="stop-color:#3D7EB8"/>
				</linearGradient>
				<path class="st43" d="M984.5,864.5c-12,0-23.4,2.2-34,6.2c-0.3,0.1-0.6,0.2-0.9,0.3c-0.8,0.3-1.6,0.7-2.5,1
					c-0.2,0.1-0.4,0.2-0.6,0.2c-0.8,0.3-1.5,0.7-2.3,1.1c-1,0.5-2,1-3,1.5c-24.8,12.3-53.1,34.5-53.1,4.9c0,0-43.1,34.5-43.1,78.9
					c0,53.5,43.1,83.6,43.1,83.6c0-29.6,28.2-7.5,53.1,4.9c1,0.5,2,1,3,1.5c0.8,0.4,1.6,0.7,2.3,1.1c0.2,0.1,0.4,0.2,0.6,0.2
					c0.8,0.4,1.7,0.7,2.5,1c0.3,0.1,0.6,0.2,0.9,0.3c10.6,4,22,6.2,34,6.2c53.2,0,96.4-43.2,96.4-96.4
					C1080.9,907.6,1037.7,864.5,984.5,864.5z"/>
				
					<linearGradient id="SVGID_29_" gradientUnits="userSpaceOnUse" x1="-7056.2607" y1="390.8" x2="-7399.3027" y2="390.8" gradientTransform="matrix(-1 0 0 -1 -6163.5918 1392)">
					<stop  offset="0" style="stop-color:#FFFFFF"/>
					<stop  offset="1" style="stop-color:#8E857E"/>
				</linearGradient>
				<path class="st44" d="M941.1,1015.4c1,0.5,2,1,3,1.5c0.8,0.4,1.6,0.7,2.3,1.1c0.2,0.1,0.4,0.2,0.6,0.2c0.8,0.4,1.7,0.7,2.5,1
					c0.3,0.1,0.6,0.2,0.9,0.3c10.6,4,22,6.2,34,6.2c47.9,0,87.6-34.9,95.1-80.6c0.8,5.1,1.3,10.4,1.3,15.8
					c0,53.2-43.2,96.4-96.4,96.4c-12,0-23.4-2.2-34-6.2c-0.3-0.1-0.6-0.2-0.9-0.3c-0.8-0.3-1.6-0.7-2.5-1c-0.2-0.1-0.4-0.2-0.6-0.2
					c-0.8-0.3-1.5-0.7-2.3-1.1c-1-0.5-2-1-3-1.5c-23.8-11.8-50.7-32.7-52.9-8.3v-31.5C890.4,982.8,917.3,1003.6,941.1,1015.4z"/>
			</g>
			<path class="st41" d="M756.6,375.5c1.3-0.1,2.3-0.1,3.1-0.1c5.1-32.9,30.3-59.2,62.6-66.1c-5.4-1.2-11.1-1.8-16.9-1.8
				c-38.9,0-71.4,27.7-78.8,64.4c1,0,2,0,2.9,0C739,371.9,748,373.1,756.6,375.5z M697.3,1159.7c-55.4-3.8-99.2-49.9-99.2-106.3
				c0-1.8,0-3.6,0.1-5.3c-51.2-12.9-89-59.2-89-114.3c0-31.4,12.3-60,32.3-81.1c-25.3-18.5-41.8-48.5-41.8-82.3
				c0-41.3,24.5-76.8,59.8-92.8c-14.4-17.4-23-39.8-23-64.2c0-55,43.9-99.7,98.5-101c-4.9-11.9-7.5-24.9-7.5-38.6
				c0-50.6,36.9-92.6,85.2-100.7c-5.5-0.9-11.1-1.4-16.8-1.4c-56.4,0-102.1,45.7-102.1,102c0,13.6,2.7,26.7,7.5,38.6
				c-54.6,1.3-98.5,46-98.5,101c0,24.4,8.6,46.7,23,64.2c-35.3,16-59.8,51.5-59.8,92.8c0,33.8,16.4,63.7,41.8,82.3
				c-20,21.1-32.3,49.7-32.3,81.1c0,55.2,37.9,101.5,89,114.3c-0.1,1.8-0.1,3.5-0.1,5.3c0,56.4,43.8,102.5,99.2,106.3
				c20.2,37.3,59.6,62.6,105,62.6c5.7,0,11.3-0.4,16.8-1.2C747.3,1215.7,714.9,1192.3,697.3,1159.7z"/>
			<path class="st42" d="M878.2,990.2c0-0.1,0-0.3-0.1-0.4c-2.7-17.1-11.8-32.1-25.8-42.3l-6.1,8.4c11.7,8.6,19.4,21.2,21.7,35.5
				c2.2,14.3-1.2,28.7-9.8,40.4c-9.7,13.3-24.6,21.3-40.8,22.2c0.2-5.6-0.1-11.2-0.9-16.9c0-0.2-0.1-0.4-0.1-0.6
				c-3.6-23.3-16.1-43.7-35.1-57.6l-6.1,8.4c16.8,12.2,27.8,30.3,31,50.8c3.2,20.5-1.8,41.1-14,57.8c-15.5,21.2-40.5,33.1-66.8,31.8
				l-0.5,10.4c29.8,1.5,58.1-12,75.7-36.1c8.3-11.3,13.6-24.2,15.8-37.6c19.9-0.6,38.5-10.3,50.3-26.6
				C876.5,1024.1,880.7,1007.2,878.2,990.2z M671.6,832.1c36.9-36.3,96.2-38.1,135.3-3.2l6.9-7.8c-43.7-39-110.3-36.5-150.9,4.9
				c-20-13-43.9-20.5-69.5-20.5c-36.9,0-70.2,15.7-93.6,40.7l0,0c1.3,1.1,2.5,2.2,3.9,3.3c0.1,0.1,0.1,0.1,0.2,0.2
				c1.3,1.1,2.6,2.1,4,3.1c21.5-22.7,51.9-36.8,85.6-36.8c65.1,0,117.9,52.8,117.9,117.9h10.4C721.7,892.4,702,855.6,671.6,832.1z
				 M522.7,673.6c1,1.4,2.1,2.7,3.2,4.1l0,0c12.8-5.8,27.1-9.1,42.1-9.1c42.2,0,78.4,25.7,93.9,62.2l9.6-4.1
				c-17.6-41.7-58.2-68.6-103.5-68.6c-17.3,0-33.7,3.9-48.4,11c0.9,1.4,1.9,2.8,2.9,4.1C522.5,673.3,522.6,673.4,522.7,673.6z
				 M599.2,506.5c0.1,0.4,0.2,0.7,0.3,1.1c0.6,1.6,1.2,3.3,1.8,4.9c0.8,0,1.7,0,2.5,0c38.9,0,72.6,22,89.5,54.2l2.7-1.4
				c0.5-3.8,1.1-7.6,1.9-11.3c-3.8-6-8.1-11.5-12.8-16.6c6.3-4.9,13.8-7.8,21.4-8.5c1.7-3.6,3.7-7.1,5.7-10.5
				c-12.3-0.5-24.8,3.4-34.7,11.7c-20-17.7-46.1-27.9-73.8-27.9c-2,0-4,0.1-6,0.2c0,0.1,0.1,0.2,0.1,0.4
				C598.3,503.9,598.7,505.2,599.2,506.5z M797.4,463.4c3.4-0.4,6.9-0.7,10.4-0.8c-4.6-45.8-36.8-83.6-79.7-96.4c0,0,0,0,0,0.1
				c-0.3,1.2-0.6,2.4-0.9,3.6c-0.1,0.4-0.2,0.9-0.3,1.3s-0.2,0.9-0.3,1.3c-0.2,1-0.4,2-0.5,3c-0.2,0-0.4,0-0.6,0
				c-0.7,0-1.5,0-2.5,0.1C762.9,386.5,793,421.1,797.4,463.4z M684.1,750.7c9.1,9.3,21.4,14.4,34.4,14.5h0.3
				c12.9,0,25.1-5,34.2-14.1c11.7-11.6,16.8-28.2,13.6-44.4l-10.2,2.1c2.6,12.7-1.4,25.8-10.7,34.9c-7.2,7.1-16.8,11-26.9,11
				c-0.1,0-0.2,0-0.3,0c-10.2-0.1-19.8-4.1-27-11.4L684.1,750.7z M668.7,1020.2c-7,8.5-12.9,17.8-17.6,27.7
				c-22.1-15-30.8-44.4-19.1-69.3l-9.4-4.4c-14.2,30.3-3.2,66.1,24.4,83.5c-5.4,14.4-8.2,29.7-8.2,45.3c0,19.7,4.4,38.4,12.3,55.1
				c0.5,0.1,1,0.2,1.5,0.3c0.4,0.1,0.8,0.1,1.1,0.2c1.4,0.2,2.8,0.4,4.2,0.6c0.3,0,0.7,0.1,1,0.1c1.5,0.2,3,0.3,4.6,0.4l0,0
				c-9.1-16.9-14.3-36.2-14.3-56.7c0-28.9,10.3-55.5,27.4-76.1L668.7,1020.2z M810.1,871.2c-0.1,0-0.2,0-0.3,0
				c-10.2-0.1-19.8-4.1-27-11.4l-7.4,7.3c9.1,9.3,21.4,14.4,34.4,14.5h0.3c12.9,0,25.1-5,34.2-14.1c11.7-11.6,16.8-28.2,13.6-44.4
				l-10.2,2.1c2.6,12.7-1.4,25.8-10.7,34.9C829.8,867.3,820.2,871.2,810.1,871.2z"/>
			
				<linearGradient id="SVGID_30_" gradientUnits="userSpaceOnUse" x1="811.7" y1="1097.0524" x2="811.7" y2="-157.132" gradientTransform="matrix(1 0 0 -1 0 1392)">
				<stop  offset="0" style="stop-color:#FE9E1A"/>
				<stop  offset="1" style="stop-color:#FF5B00"/>
			</linearGradient>
			<path class="st45" d="M908,501.1c-2.2,24.4-29.1,3.5-52.9-8.3c-1-0.5-2-1-3-1.5c-0.8-0.4-1.6-0.7-2.3-1.1
				c-0.2-0.1-0.4-0.2-0.6-0.2c-0.8-0.4-1.7-0.7-2.5-1c-0.3-0.1-0.6-0.2-0.9-0.3c-10.6-4-22-6.2-34-6.2c-53.2,0-96.4,43.2-96.4,96.4
				s43.2,96.4,96.4,96.4c12,0,23.4-2.2,34-6.2c0.3-0.1,0.6-0.2,0.9-0.3c0.8-0.3,1.6-0.7,2.5-1c0.2-0.1,0.4-0.2,0.6-0.2
				c0.8-0.3,1.5-0.7,2.3-1.1c1-0.5,2-1,3-1.5c23.8-11.8,50.7-32.7,52.9-8.3V501.1z"/>
			
				<linearGradient id="SVGID_31_" gradientUnits="userSpaceOnUse" x1="903.5298" y1="772.6" x2="560.4888" y2="772.6" gradientTransform="matrix(1 0 0 -1 0 1392)">
				<stop  offset="0" style="stop-color:#FFFFFF"/>
				<stop  offset="1" style="stop-color:#8E857E"/>
			</linearGradient>
			<path class="st46" d="M855.1,633.6c-1,0.5-2,1-3,1.5c-0.8,0.4-1.6,0.7-2.3,1.1c-0.2,0.1-0.4,0.2-0.6,0.2c-0.8,0.4-1.7,0.7-2.5,1
				c-0.3,0.1-0.6,0.2-0.9,0.3c-10.6,4-22,6.2-34,6.2c-47.9,0-87.6-34.9-95.1-80.6c-0.8,5.1-1.3,10.4-1.3,15.8
				c0,53.2,43.2,96.4,96.4,96.4c12,0,23.4-2.2,34-6.2c0.3-0.1,0.6-0.2,0.9-0.3c0.8-0.3,1.6-0.7,2.5-1c0.2-0.1,0.4-0.2,0.6-0.2
				c0.8-0.3,1.5-0.7,2.3-1.1c1-0.5,2-1,3-1.5c23.8-11.8,50.7-32.7,52.9-8.3v-31.5C905.8,600.9,878.9,621.7,855.1,633.6z"/>
		</g>
		<g>
			<g>
				
					<linearGradient id="SVGID_32_" gradientUnits="userSpaceOnUse" x1="16465.8516" y1="348.1651" x2="16465.8516" y2="-171.6506" gradientTransform="matrix(-0.9997 -1.990000e-02 1.990000e-02 -0.9997 17928.2422 1270.921)">
					<stop  offset="0" style="stop-color:#FDAA65"/>
					<stop  offset="1" style="stop-color:#F47124"/>
				</linearGradient>
				<path class="st47" d="M1498.3,745.4c-3-21.3-9.7-33.6-19.2-49.8c-0.1-0.6-25.5,8-34.4-4.2c0,0,0.9,17.5,5.6,31.5
					c4.4,13.1,9.6,19.8,21.8,11.3c0,6.4-0.2,14.3-0.9,20.1c-1.5,11.7,6.3,15.2,11.9,15.2C1488.7,769.3,1501.4,767.1,1498.3,745.4z"
					/>
			</g>
			<path class="st10" d="M1446.1,704.7c-13-5.7-25.8-40-8-47.1c30.3-12.1,28,9.4,40.8,7.1c27.8-4.8,32.8,8.7,31.8,35.7
				c-0.7,16.5-3.5,30.8-13.9,31.8c-12.5,1.2-19.3-11.4-26.8-19.2C1463.3,706.1,1452.3,707.4,1446.1,704.7z"/>
			
				<linearGradient id="SVGID_33_" gradientUnits="userSpaceOnUse" x1="16936.4336" y1="405.888" x2="16936.4336" y2="-18.5525" gradientTransform="matrix(-0.9494 0.3136 -0.3136 -0.9494 17641.0352 -4301.8374)">
				<stop  offset="0" style="stop-color:#FDAA65"/>
				<stop  offset="1" style="stop-color:#F47124"/>
			</linearGradient>
			<path class="st48" d="M1466.6,701.9c2.7,1.6,3,6.1,0.7,10.1s-6.4,6-9.1,4.4s-3-6.1-0.7-10.1
				C1459.8,702.3,1463.9,700.4,1466.6,701.9z"/>
			<path class="st10" d="M1467.9,747.3c1.8-4,2.9-8.1,17.5-10c13.2-1.8,16.5-0.2,15.5,5.8c-0.8,4.7-9.8,7.4-17.2,8.4
				C1476.4,752.5,1465.5,752.6,1467.9,747.3z"/>
			<path class="st26" d="M1534.9,1295.8c-0.1-1-0.2-1.8-0.3-2.6c-1.3-7-5.4-5.5-8.1-4.6c-0.5,0.2-8.6,0.1-9.1,0
				c-19.8-0.8-21.6,20.3-21.6,20.3s18.4,0,26.2,0c7.9-0.1,14-0.1,14-0.1S1535.6,1305.7,1534.9,1295.8z"/>
			<g>
				
					<linearGradient id="SVGID_34_" gradientUnits="userSpaceOnUse" x1="1531.327" y1="408.3065" x2="1531.327" y2="179.6979" gradientTransform="matrix(1 0 0 -1 0 1392)">
					<stop  offset="0" style="stop-color:#0A0E1A"/>
					<stop  offset="1" style="stop-color:#040F2C"/>
				</linearGradient>
				<path class="st49" d="M1488.2,940.2c0,0-11,126.1-12.2,151.4c-1.2,25.3,46.7,35.6,63.5,4.5c16.8-31.2,42.8-89.2,46.4-122.3
					s-5.3-44.7-27.2-66.8C1536.8,884.9,1491.1,906.2,1488.2,940.2z"/>
				
					<linearGradient id="SVGID_35_" gradientUnits="userSpaceOnUse" x1="1509.5789" y1="408.3059" x2="1509.5789" y2="179.6987" gradientTransform="matrix(1 0 0 -1 0 1392)">
					<stop  offset="0" style="stop-color:#0A0E1A"/>
					<stop  offset="1" style="stop-color:#040F2C"/>
				</linearGradient>
				<path class="st50" d="M1476,1094.7c5.4,38.6,42,194.9,42.4,197.4c4.5,4.9,11.3-0.4,11.3-0.4s-2.6-27.7,0.8-45.7
					s10.7-100.7,12.3-123c1.6-22.3-1-68.4-26.4-68.1C1490.9,1055.2,1475.4,1090.2,1476,1094.7z"/>
			</g>
			<path class="st26" d="M1372.7,1299.4c0,0,37.5-10.2,40.2-11.1c3-1,7.8-2.8,8.5,7.2c0.7,9.9,1.1,13,1.1,13s-43.5,0.7-48.2,0.2
				C1369.5,1308.3,1365.8,1304.8,1372.7,1299.4z"/>
			
				<linearGradient id="SVGID_36_" gradientUnits="userSpaceOnUse" x1="1456.2844" y1="408.3065" x2="1456.2844" y2="179.6987" gradientTransform="matrix(1 0 0 -1 0 1392)">
				<stop  offset="0" style="stop-color:#0A0E1A"/>
				<stop  offset="1" style="stop-color:#040F2C"/>
			</linearGradient>
			<path class="st51" d="M1442,921.9c0,0-48.2,117-56.9,140.8c-8.7,23.8,33.9,48,59.2,23.2c25.3-24.7,59.7-59.5,73-90
				s16.1-57,1.8-84.7C1504.9,883.6,1454.9,890.4,1442,921.9z"/>
			
				<linearGradient id="SVGID_37_" gradientUnits="userSpaceOnUse" x1="1417.5681" y1="408.3063" x2="1417.5681" y2="179.6985" gradientTransform="matrix(1 0 0 -1 0 1392)">
				<stop  offset="0" style="stop-color:#0A0E1A"/>
				<stop  offset="1" style="stop-color:#040F2C"/>
			</linearGradient>
			<path class="st52" d="M1383.9,1066.8c0.4,31,4.9,47.7,8.6,85.1s13.8,144.6,13.8,144.6s2.5,1.5,5.6,1.2s5.3-1.6,5.3-1.6
				s-0.1-26.8,4.6-44.4c4.7-17.7,25.5-137.8,28.7-159.9s-3.6-30.1-28.9-31.7C1396.3,1058.5,1383.9,1062.3,1383.9,1066.8z"/>
			<path class="st53" d="M1506.4,742.1c18.4,1.1,37.5,13.7,48.3,41.4c25.3,65.5,35.6,186.4,35.6,186.4s-16.8,14.5-72.9,13.1
				c-82-2.1-94.6-28-94.6-28s15.4-65,8.3-165.9c-2.3-32.9,16.9-39.3,49-45C1489.2,742.6,1496.6,741.5,1506.4,742.1z"/>
			<g>
				<g>
					<path class="st15" d="M1282.8,730c0.5-3.9,0.5-14.3-3.2-13.5c-2.8,0.6-4.4,6.2-5,10.2c-0.2,1.4,1.5,2.6-4,8.9
						c-3.9,4.5,4.2,12.1,4.2,12.1S1281.5,739.1,1282.8,730z"/>
					<path class="st15" d="M1318.1,844.8c-22.8-20.6-43.9-77.5-55-86.7c-18.9-15.6-20.5-24.4-16.8-34.7c2.1-5.8,14.1-11.6,22.2-9.4
						c5.2,1.4,10.1,13.5,6.4,33.8c2.7,7.8,49.6,62.2,63,78.6c6.1,7.4,19.7,21.4,9.9,22.9C1334.8,851.2,1326.1,852,1318.1,844.8z"/>
				</g>
				<g>
					<path class="st15" d="M1359.6,811c0,0-26,16.5-32.8,22.8c-4.9,4.5,1.9,10.8,6,14.7s25,0.2,40.7-8.3
						C1385.6,833.6,1362.3,811,1359.6,811z"/>
					
						<linearGradient id="SVGID_38_" gradientUnits="userSpaceOnUse" x1="1453.0547" y1="597.3975" x2="1308.8297" y2="534.3749" gradientTransform="matrix(1 0 0 -1 0 1392)">
						<stop  offset="0" style="stop-color:#65BDD8"/>
						<stop  offset="0.2171" style="stop-color:#59ABC7"/>
						<stop  offset="0.6496" style="stop-color:#3B7D9D"/>
						<stop  offset="1" style="stop-color:#205376"/>
					</linearGradient>
					<path class="st54" d="M1449,752.8c-23.3,10.6-106.3,62.3-106.3,62.3s-1.5,8.4,5.2,23.6c5.8,13.1,11.8,23.2,15.5,29.6
						c4.4,7.5,8.7,5.4,15.1,2.4c17.7-8.3,54.4-25.3,80.9-36.3c28.6-11.8,38.8-38.1,28.8-60.1C1479,754.1,1465,745.5,1449,752.8z"/>
				</g>
			</g>
		</g>
		<g>
			<g>
				<path class="st26" d="M366,1299c0,0-37.6-9.6-40.4-10.4c-3-1-7.8-2.7-8.4,7.3c-0.5,9.9-0.9,13.1-0.9,13.1s43.5,0,48.2-0.6
					C369.3,1307.8,373,1304.3,366,1299z"/>
				
					<linearGradient id="SVGID_39_" gradientUnits="userSpaceOnUse" x1="351.1032" y1="351.1056" x2="351.1032" y2="108.3169" gradientTransform="matrix(1 0 0 -1 0 1392)">
					<stop  offset="0" style="stop-color:#0A0E1A"/>
					<stop  offset="1" style="stop-color:#040F2C"/>
				</linearGradient>
				<path class="st55" d="M400,970.6c0,0-14.9,89.8-20.1,114.6c-5.2,24.8-54.1,22.9-62.6-11.5s-19.3-82-14.6-115
					c4.8-33,16.4-56.9,43.1-72.9C372.6,869.9,405.7,937,400,970.6z"/>
				
					<linearGradient id="SVGID_40_" gradientUnits="userSpaceOnUse" x1="348.3447" y1="351.1058" x2="348.3447" y2="108.3186" gradientTransform="matrix(1 0 0 -1 0 1392)">
					<stop  offset="0" style="stop-color:#0A0E1A"/>
					<stop  offset="1" style="stop-color:#040F2C"/>
				</linearGradient>
				<path class="st56" d="M383,1069.2c-4.1,30.8-10.6,46.8-18.7,83.5s-31,142-31,142s-2.7,1.1-5.7,0.5c-3-0.7-5.1-2.2-5.1-2.2
					s3.3-26.5,0.7-44.7c-2.6-18.1-8.9-139.9-9.5-162.2c-0.6-22.3,7.1-29.5,32.5-28C371.7,1059.4,383.6,1064.7,383,1069.2z"/>
			</g>
			<g>
				<path class="st26" d="M247.3,1295.8c-0.1-1-0.2-1.8-0.3-2.6c-1.3-7-5.4-5.5-8.1-4.6c-0.5,0.2-8.6,0.1-9.1,0
					c-19.8-0.8-21.6,20.3-21.6,20.3s18.4,0,26.2,0c7.9-0.1,14-0.1,14-0.1S248,1305.7,247.3,1295.8z"/>
				<path class="st10" d="M351.4,961.1c0,0-43.3,118.9-53,142.3s-57.4,12.5-59.4-22.8s-1.1-98.9,9.7-130.5
					c10.7-31.5,23.7-38.2,52.9-49C330.7,890.4,363.1,929.1,351.4,961.1z"/>
				<path class="st10" d="M306.1,1083.5c-9.3,37.8-64,209.1-64,209.1s-0.8,0.3-5.5,0c-4.3-0.3-5.6-1.5-5.6-1.5s5.4-27.3,3.9-45.6
					c-1.6-18.2-0.4-101.3,0.2-123.6c0.7-22.3,8-67.9,33.2-65.1C293.6,1059.7,307.2,1079.1,306.1,1083.5z"/>
			</g>
			
				<linearGradient id="SVGID_41_" gradientUnits="userSpaceOnUse" x1="322" y1="522.6349" x2="322" y2="427.2898" gradientTransform="matrix(1 0 0 -1 0 1392)">
				<stop  offset="0" style="stop-color:#76469F"/>
				<stop  offset="1" style="stop-color:#643E9A"/>
			</linearGradient>
			<path class="st57" d="M284.6,748.8c-39.3,6.6-38.7,43.3-38.3,73c0.8,51.8-7.2,153.5-7.2,153.5s20.6,16.4,83.5,11
				c81.7-7,82.3-14.7,82.3-14.7s-34.4-188.8-42.9-211c-5.8-15-18.5-14.9-51.1-14.6C301.6,746.1,294.3,747.1,284.6,748.8z"/>
			<g>
				<path class="st10" d="M336.7,707.4c12.5-10.8,18.3-50.3-0.5-54c-32-6.3-24,14.3-36.9,14.5c-28.2,0.4-32.5,14.6-26.5,41
					c3.7,16.1,12.6,20.8,19.5,28.7c3.8,4.4,6-17.8,20.2-25.1C326.7,705,336.7,707.4,336.7,707.4z"/>
				<path class="st10" d="M335,748.7c3.3,11.5,13.8,36.6-14.2,37.7c-32.9,1.3-42.9-31.9-41.4-35.9c3.4-9.1,16.8-5.5,25.1-5.7
					C312.8,744.5,332.3,739,335,748.7z"/>
				<g>
					
						<linearGradient id="SVGID_42_" gradientUnits="userSpaceOnUse" x1="23231.7383" y1="-2168.5227" x2="23231.7383" y2="-2694.623" gradientTransform="matrix(0.979 -0.2033 -0.2033 -0.979 -22907.7676 3199.3777)">
						<stop  offset="0" style="stop-color:#FDAA65"/>
						<stop  offset="1" style="stop-color:#F47124"/>
					</linearGradient>
					<path class="st58" d="M287.9,749c1.6-0.3,3.2-0.5,4.8-0.7c9.2-1.1,16.6-1.1,26.4-0.7c3.1,0.1,6,0.4,8.6,1
						c1.7,7.5,11.1,27.9-9.9,29.3C296.3,779.3,288.1,756.4,287.9,749z"/>
					<g>
						
							<linearGradient id="SVGID_43_" gradientUnits="userSpaceOnUse" x1="23243.9238" y1="-2170.166" x2="23243.9238" y2="-2689.9878" gradientTransform="matrix(0.979 -0.2033 -0.2033 -0.979 -22907.7676 3199.3777)">
							<stop  offset="0" style="stop-color:#FDAA65"/>
							<stop  offset="1" style="stop-color:#F47124"/>
						</linearGradient>
						<path class="st59" d="M293.2,750.6c-1-21.5,3.4-34.8,9.7-52.4c0-0.7,26.6,3.2,33.1-10.4c0,0,2.3,17.4,0.3,31.9
							c-1.9,13.7-5.8,21.2-19.3,15.1c1.2,6.3,2.8,14,4.6,19.5c3.7,11.2-3.4,16.1-8.9,17.1C307.1,772.3,294.2,772.5,293.2,750.6z"/>
						
							<linearGradient id="SVGID_44_" gradientUnits="userSpaceOnUse" x1="23229.7383" y1="-2170.1343" x2="23229.7383" y2="-2690.0825" gradientTransform="matrix(0.979 -0.2033 -0.2033 -0.979 -22907.7676 3199.3777)">
							<stop  offset="0" style="stop-color:#FDAA65"/>
							<stop  offset="1" style="stop-color:#F47124"/>
						</linearGradient>
						<path class="st60" d="M288.8,703.7c-1.9,3.3,0.5,8.3,5.4,11.1s10.4,2.4,12.3-0.9c1.9-3.3-0.5-8.3-5.4-11.1
							C296.2,700,290.7,700.4,288.8,703.7z"/>
					</g>
				</g>
			</g>
			<g>
				<path class="st15" d="M494.2,777c1.2-3.7,4.8-14.3,8-12.5c2.5,1.4,3.9,7.6,2.8,11.4c-0.4,1.4-4.5,3.3-2.2,11.3
					c1.6,5.8-7.3,7.6-7.3,7.6S491.6,784.7,494.2,777z"/>
				<path class="st15" d="M407.4,867.8c29.5-8.9,80.6-48.9,92.6-57c14.6-9.8,16.3-5.6,28.4-14.3c8.1-5.9,1.5-26.7-6.8-27.5
					c-11.9-1.2-29.3,8.9-27.7,27.4c-5.8,5.9-71.5,35.1-90.6,44.2c-8.6,4.1-28,5.8-20.9,15.1C390.5,866.5,396.4,871.1,407.4,867.8z"
					/>
			</g>
			<g>
				<path class="st15" d="M380,831c0,0,26.9,15,34.1,20.9c5.1,4.2-1.3,10.9-5.2,15c-3.9,4.1-24.9,1.6-41.1-6
					C355.4,855,377.3,831.1,380,831z"/>
				
					<linearGradient id="SVGID_45_" gradientUnits="userSpaceOnUse" x1="269.8492" y1="583.6118" x2="402.3587" y2="509.2777" gradientTransform="matrix(1 0 0 -1 0 1392)">
					<stop  offset="0" style="stop-color:#76469F"/>
					<stop  offset="1" style="stop-color:#391C89"/>
				</linearGradient>
				<path class="st61" d="M287.5,777.9c23.9,9.3,109.7,56.1,109.7,56.1s2,8.3-3.9,23.8c-8.8,23.4-18.2,37.9-18.2,37.9
					s-56.5-23.1-93.4-36c-29.2-10.2-40.9-35.9-32.1-58.4C257.6,780.9,271.2,771.6,287.5,777.9z"/>
			</g>
		</g>
	</g>
	<g>
		<g>
			<polygon class="st62" points="2549.3,1309 2451.3,1140.2 2474.9,1126.5 2580.8,1309 			"/>
			<g>
				<rect x="2535.9" y="1255.6" class="st63" width="117.8" height="27.3"/>
				<rect x="2498.2" y="1191.1" class="st63" width="117.3" height="27.3"/>
			</g>
		</g>
		
			<linearGradient id="SVGID_46_" gradientUnits="userSpaceOnUse" x1="2552.5" y1="101.8795" x2="2552.5" y2="222.6552" gradientTransform="matrix(1 0 0 -1 0 1392)">
			<stop  offset="0" style="stop-color:#FFFFFF"/>
			<stop  offset="1" style="stop-color:#8E857E"/>
		</linearGradient>
		<polygon class="st64" points="2653.7,1255.6 2549.8,1255.6 2528.2,1218.3 2615.5,1218.3 2615.5,1191.1 2512.4,1191.1 
			2474.9,1126.5 2451.3,1140.2 2549.3,1309 2580.8,1309 2565.7,1282.9 2653.7,1282.9 		"/>
		<polygon class="st62" points="2340.7,1309 2438.6,1140.2 2415,1126.5 2309.1,1309 		"/>
		<rect x="2414.9" y="1126.5" class="st63" width="127.3" height="27.3"/>
		<g>
			<rect x="2340.1" y="1255.6" class="st63" width="117.8" height="27.3"/>
			<rect x="2377.5" y="1191.1" class="st63" width="119.8" height="27.3"/>
		</g>
		<rect x="2520.3" y="1126.5" class="st62" width="60.6" height="27.3"/>
		<g>
			<polygon class="st62" points="2446.3,1309 2544.2,1140.2 2520.6,1126.5 2414.8,1309 			"/>
			<polygon class="st62" points="2654.9,1309 2557,1140.2 2580.6,1126.5 2686.4,1309 			"/>
		</g>
	</g>
</g>
</svg>
